<svg viewBox="0 0 992 515" fill="none" xmlns="http://www.w3.org/2000/svg">
<path fill-rule="evenodd" clip-rule="evenodd" d="M80.1053 514.779C80.1053 514.779 -16.3271 430.64 2.41695 292.096C21.8256 148.641 123.859 72.3176 256.97 101.285C365.775 124.963 435.871 109.775 548.385 42.0901C732.893 -68.9005 970.71 51.2601 908.494 266.312C878.386 370.383 1004.75 421.805 898.977 515L80.1053 514.779Z" fill="#EBF3FA"/>
<path fill-rule="evenodd" clip-rule="evenodd" d="M680.531 375.495H607.855V513.115H680.531V375.495Z" fill="#E0E0E0"/>
<path fill-rule="evenodd" clip-rule="evenodd" d="M680.531 375.495H646.553V513.115H680.531V375.495Z" fill="#EBEBEB"/>
<path fill-rule="evenodd" clip-rule="evenodd" d="M629.564 388.691H622.957V404.715H629.564V388.691Z" fill="#F5F5F5"/>
<path fill-rule="evenodd" clip-rule="evenodd" d="M629.564 449.96H622.957V465.984H629.564V449.96Z" fill="#F5F5F5"/>
<path fill-rule="evenodd" clip-rule="evenodd" d="M646.553 410.843C646.553 411.023 637.89 411.161 627.204 411.161C616.519 411.161 607.855 411.023 607.855 410.843C607.855 410.663 616.519 410.524 627.204 410.524C637.89 410.51 646.553 410.663 646.553 410.843Z" fill="#F5F5F5"/>
<path fill-rule="evenodd" clip-rule="evenodd" d="M629.564 419.797H622.957V435.821H629.564V419.797Z" fill="#F5F5F5"/>
<path fill-rule="evenodd" clip-rule="evenodd" d="M646.553 441.949C646.553 442.129 637.89 442.267 627.204 442.267C616.519 442.267 607.855 442.129 607.855 441.949C607.855 441.769 616.519 441.63 627.204 441.63C637.89 441.616 646.553 441.769 646.553 441.949Z" fill="#F5F5F5"/>
<path fill-rule="evenodd" clip-rule="evenodd" d="M659.767 388.691H653.16V404.715H659.767V388.691Z" fill="#E0E0E0"/>
<path fill-rule="evenodd" clip-rule="evenodd" d="M673.924 388.691H667.317V404.715H673.924V388.691Z" fill="#E0E0E0"/>
<path fill-rule="evenodd" clip-rule="evenodd" d="M659.767 418.854H653.16V434.879H659.767V418.854Z" fill="#E0E0E0"/>
<path fill-rule="evenodd" clip-rule="evenodd" d="M673.924 418.854H667.317V434.879H673.924V418.854Z" fill="#E0E0E0"/>
<path fill-rule="evenodd" clip-rule="evenodd" d="M659.767 448.075H653.16V464.099H659.767V448.075Z" fill="#E0E0E0"/>
<path fill-rule="evenodd" clip-rule="evenodd" d="M673.924 448.075H667.317V464.099H673.924V448.075Z" fill="#E0E0E0"/>
<path fill-rule="evenodd" clip-rule="evenodd" d="M685.251 372.667H602.192V376.437H685.251V372.667Z" fill="#E0E0E0"/>
<path fill-rule="evenodd" clip-rule="evenodd" d="M681.475 375.966C681.475 376.146 665.211 376.284 645.138 376.284C625.064 376.284 608.799 376.132 608.799 375.966C608.799 375.8 625.064 375.647 645.138 375.647C665.211 375.647 681.475 375.786 681.475 375.966Z" fill="#EBEBEB"/>
<path fill-rule="evenodd" clip-rule="evenodd" d="M624.845 427.338H559.719V513.115H624.845V427.338Z" fill="#EBEBEB"/>
<path fill-rule="evenodd" clip-rule="evenodd" d="M624.845 427.338H594.641V513.115H624.845V427.338Z" fill="#E0E0E0"/>
<path fill-rule="evenodd" clip-rule="evenodd" d="M579.54 438.649H573.877V452.788H579.54V438.649Z" fill="#F5F5F5"/>
<path fill-rule="evenodd" clip-rule="evenodd" d="M579.54 494.263H573.877V508.402H579.54V494.263Z" fill="#F5F5F5"/>
<path fill-rule="evenodd" clip-rule="evenodd" d="M594.641 458.915C594.641 459.123 587.036 459.29 577.652 459.29C568.269 459.29 560.663 459.123 560.663 458.915C560.663 458.707 568.269 458.541 577.652 458.541C587.025 458.527 594.641 458.707 594.641 458.915Z" fill="#F5F5F5"/>
<path fill-rule="evenodd" clip-rule="evenodd" d="M579.54 466.927H573.877V481.066H579.54V466.927Z" fill="#F5F5F5"/>
<path fill-rule="evenodd" clip-rule="evenodd" d="M594.641 486.251C594.641 486.459 587.036 486.625 577.652 486.625C568.269 486.625 560.663 486.459 560.663 486.251C560.663 486.043 568.269 485.876 577.652 485.876C587.025 485.876 594.641 486.043 594.641 486.251Z" fill="#F5F5F5"/>
<path fill-rule="evenodd" clip-rule="evenodd" d="M606.911 438.649H601.248V452.788H606.911V438.649Z" fill="#F5F5F5"/>
<path fill-rule="evenodd" clip-rule="evenodd" d="M619.181 438.649H613.518V452.788H619.181V438.649Z" fill="#F5F5F5"/>
<path fill-rule="evenodd" clip-rule="evenodd" d="M606.911 465.985H601.248V480.124H606.911V465.985Z" fill="#F5F5F5"/>
<path fill-rule="evenodd" clip-rule="evenodd" d="M619.181 465.985H613.518V480.124H619.181V465.985Z" fill="#F5F5F5"/>
<path fill-rule="evenodd" clip-rule="evenodd" d="M606.911 492.377H601.248V506.517H606.911V492.377Z" fill="#F5F5F5"/>
<path fill-rule="evenodd" clip-rule="evenodd" d="M619.181 492.377H613.518V506.517H619.181V492.377Z" fill="#F5F5F5"/>
<path fill-rule="evenodd" clip-rule="evenodd" d="M629.564 424.51H555V427.338H629.564V424.51Z" fill="#E0E0E0"/>
<path fill-rule="evenodd" clip-rule="evenodd" d="M625.788 427.809C625.788 428.018 611.213 428.184 593.226 428.184C575.239 428.184 560.663 428.018 560.663 427.809C560.663 427.602 575.239 427.435 593.226 427.435C611.213 427.422 625.788 427.602 625.788 427.809Z" fill="#EBEBEB"/>
<path fill-rule="evenodd" clip-rule="evenodd" d="M662.601 264.266C662.568 264.245 662.887 263.809 663.484 263.033C664.133 262.193 664.995 261.098 666.016 259.78C668.156 257.027 671.093 253.221 674.211 248.927C677.34 244.632 680.076 240.677 682.023 237.797C682.96 236.415 683.747 235.266 684.344 234.384C684.897 233.576 685.216 233.151 685.248 233.161C685.28 233.183 685.014 233.651 684.514 234.49C684.014 235.33 683.269 236.521 682.322 237.988C680.438 240.922 677.745 244.919 674.616 249.214C671.487 253.519 668.507 257.293 666.293 259.992C665.187 261.332 664.282 262.416 663.632 263.15C662.994 263.894 662.632 264.287 662.601 264.266Z" fill="#E0E0E0"/>
<path fill-rule="evenodd" clip-rule="evenodd" d="M822.814 514.057L681.88 513.405C664.931 513.331 651.255 499.175 651.329 481.783L652.865 119.36C652.939 101.967 666.752 87.9163 683.712 88.0004L824.646 88.652C841.596 88.7255 855.271 102.882 855.198 120.275L853.661 482.697C853.577 500.09 839.775 514.141 822.814 514.057Z" fill="#263238"/>
<path fill-rule="evenodd" clip-rule="evenodd" d="M843.816 419.325C843.816 421.148 842.339 422.625 840.513 422.625C838.688 422.625 837.209 421.148 837.209 419.325C837.209 417.502 838.688 416.026 840.513 416.026C842.339 416.026 843.816 417.502 843.816 419.325Z" fill="#E0E0E0"/>
<path fill-rule="evenodd" clip-rule="evenodd" d="M840.513 426.395C840.319 426.395 840.152 424.917 840.152 423.101C840.152 421.276 840.319 419.797 840.513 419.797C840.706 419.797 840.873 421.276 840.873 423.101C840.873 424.917 840.706 426.395 840.513 426.395Z" fill="#E0E0E0"/>
<path fill-rule="evenodd" clip-rule="evenodd" d="M826.481 100.917L798.34 100.791C794.567 100.77 791.498 103.958 791.476 107.915L791.455 113.03C791.445 116.977 788.365 120.165 784.591 120.155L729.739 119.902C725.966 119.881 722.917 116.671 722.938 112.714L722.959 107.6C722.98 103.653 719.932 100.433 716.158 100.412L706.255 100.37L681.626 100.254C669.39 100.201 659.435 110.083 659.382 122.333L657.879 477.919C657.826 490.158 667.698 500.124 679.923 500.187L824.788 500.861C837.025 500.914 846.979 491.031 847.032 478.782L848.536 123.196C848.567 110.946 838.706 100.98 826.481 100.917Z" fill="#FAFAFA"/>
<path fill-rule="evenodd" clip-rule="evenodd" d="M667.038 381.15C668.264 380.221 728.667 353.43 728.667 353.43L658.12 317.996L657.879 375.062L667.038 381.15Z" fill="#EBEBEB"/>
<path fill-rule="evenodd" clip-rule="evenodd" d="M671.428 317.053L723.004 291.018L667.573 260.497L659.033 262.625L658.823 312.005L671.428 317.053Z" fill="#E8505B"/>
<path opacity="0.7" fill-rule="evenodd" clip-rule="evenodd" d="M671.428 317.053L723.004 291.018L667.573 260.497L659.033 262.625L658.823 312.005L671.428 317.053Z" fill="white"/>
<path fill-rule="evenodd" clip-rule="evenodd" d="M660.711 256.726L820.22 182.129L662.186 130.417L660.711 256.726Z" fill="#EBEBEB"/>
<path fill-rule="evenodd" clip-rule="evenodd" d="M658.823 449.758L731.641 412.256L840.041 476.253L814.217 498.976H721.713L658.823 460.407V449.758Z" fill="#EBEBEB"/>
<path fill-rule="evenodd" clip-rule="evenodd" d="M745.656 409.065L835.665 462.214L845.704 461.082V409.977L796.375 383.978L745.656 409.065Z" fill="#EBEBEB"/>
<path fill-rule="evenodd" clip-rule="evenodd" d="M760.758 358.014L845.704 405.658V343.376L814.97 330.25L760.758 358.014Z" fill="#EBEBEB"/>
<path fill-rule="evenodd" clip-rule="evenodd" d="M670.149 384.043L720.039 411.313L780.579 380.071L732.482 355.7L670.149 384.043Z" fill="#EBEBEB"/>
<path fill-rule="evenodd" clip-rule="evenodd" d="M744.713 290.638L815.498 325.536L848.324 308.86L848.536 285.469L800.722 262.382L744.713 290.638Z" fill="#EBEBEB"/>
<path fill-rule="evenodd" clip-rule="evenodd" d="M672.037 320.802L742.822 355.7L775.648 339.023L775.86 315.632L728.035 292.545L672.037 320.802Z" fill="#EBEBEB"/>
<path fill-rule="evenodd" clip-rule="evenodd" d="M682.419 258.318L740.042 286.89L793.793 258.318L738.1 233.161L682.419 258.318Z" fill="#EBEBEB"/>
<path fill-rule="evenodd" clip-rule="evenodd" d="M792.868 442.418C792.857 442.439 792.5 442.26 791.828 441.892C791.156 441.513 790.158 440.956 788.856 440.22C786.251 438.716 782.418 436.496 777.472 433.625C767.578 427.819 753.222 419.383 735.294 408.855L734.423 408.339L735.336 407.877C751.027 399.883 769.805 390.322 790.662 379.699L790.652 380.972C777.86 374.146 763.924 366.709 749.336 358.915L748.033 358.221L749.346 357.527C767.305 348.082 786.682 337.901 806.741 327.361L806.751 328.823C804.588 327.73 802.246 326.541 799.904 325.352C751.815 300.919 707.317 278.305 671.357 260.035L670.149 259.426L671.367 258.847C699.818 245.258 723.249 234.067 739.579 226.263C747.75 222.402 754.146 219.394 758.515 217.332C760.7 216.333 762.369 215.555 763.504 215.04C764.06 214.798 764.49 214.608 764.785 214.472C765.079 214.346 765.226 214.293 765.236 214.313C765.247 214.324 765.11 214.419 764.827 214.566C764.543 214.713 764.123 214.935 763.587 215.219C762.474 215.786 760.825 216.607 758.683 217.69C754.356 219.825 748.013 222.949 739.905 226.946C723.627 234.877 700.28 246.247 671.934 260.046L671.945 258.847C707.947 277.043 752.486 299.552 800.629 323.89C802.971 325.079 805.313 326.267 807.476 327.361L808.894 328.077L807.487 328.813C787.417 339.331 768.03 349.502 750.061 358.915L750.071 357.527C764.638 365.352 778.553 372.831 791.324 379.699L792.542 380.351L791.303 380.972C770.393 391.49 751.563 400.956 735.83 408.855L735.861 407.877C753.673 418.584 767.956 427.167 777.787 433.078C782.67 436.055 786.451 438.358 789.024 439.925C790.284 440.714 791.25 441.324 791.912 441.734C792.563 442.166 792.878 442.397 792.868 442.418Z" fill="#FF0029"/>
<path fill-rule="evenodd" clip-rule="evenodd" d="M764.784 294.464L764.533 282.177L796.624 297.687V310.455L764.784 294.464Z" fill="#F5F5F5"/>
<path fill-rule="evenodd" clip-rule="evenodd" d="M796.624 298.451L837.21 278.406V292.358L796.624 311.397V298.451Z" fill="#E0E0E0"/>
<path fill-rule="evenodd" clip-rule="evenodd" d="M763.59 282.761L803.099 263.324L836.266 278.525L796.006 298.201L763.59 282.761Z" fill="#F5F5F5"/>
<path fill-rule="evenodd" clip-rule="evenodd" d="M768.309 287.832V293.932L771.14 295.373V289.541L768.309 287.832Z" fill="#FAFAFA"/>
<path fill-rule="evenodd" clip-rule="evenodd" d="M773.028 289.717V295.818L775.86 297.258V291.435L773.028 289.717Z" fill="#FAFAFA"/>
<path fill-rule="evenodd" clip-rule="evenodd" d="M662.598 216.38V200.17L701.296 218.792V234.104L662.598 216.38Z" fill="#E0E0E0"/>
<path fill-rule="evenodd" clip-rule="evenodd" d="M701.296 218.946L748.488 195.457V211.808L701.296 234.104V218.946Z" fill="#F5F5F5"/>
<path fill-rule="evenodd" clip-rule="evenodd" d="M662.598 200.652L709.279 177.547L748.488 195.614L700.901 219.022L662.598 200.652Z" fill="#FAFAFA"/>
<path fill-rule="evenodd" clip-rule="evenodd" d="M667.317 206.768V213.63L671.093 215.252V208.694L667.317 206.768Z" fill="#FAFAFA"/>
<path fill-rule="evenodd" clip-rule="evenodd" d="M673.924 209.596V216.448L677.7 218.08V211.522L673.924 209.596Z" fill="#FAFAFA"/>
<path fill-rule="evenodd" clip-rule="evenodd" d="M777.747 350.987C777.747 351.759 777.747 363.933 777.747 363.933L790.961 370.782V357.407L777.747 350.987Z" fill="#E0E0E0"/>
<path fill-rule="evenodd" clip-rule="evenodd" d="M808.894 349.102L791.905 357.512V370.781L808.894 360.957V349.102Z" fill="#E0E0E0"/>
<path fill-rule="evenodd" clip-rule="evenodd" d="M777.747 351.104L795.063 342.503L808.894 349.027L791.421 357.585L777.747 351.104Z" fill="#F5F5F5"/>
<path fill-rule="evenodd" clip-rule="evenodd" d="M783.41 360.413V366.503L786.242 367.954V362.119L783.41 360.413Z" fill="#FAFAFA"/>
<path fill-rule="evenodd" clip-rule="evenodd" d="M668.261 344.389C668.261 345.16 668.261 357.334 668.261 357.334L681.475 364.183V350.808L668.261 344.389Z" fill="#E0E0E0"/>
<path fill-rule="evenodd" clip-rule="evenodd" d="M698.464 342.503L681.475 350.914V364.183L698.464 354.359V342.503Z" fill="#E0E0E0"/>
<path fill-rule="evenodd" clip-rule="evenodd" d="M667.317 344.506L684.638 335.905L698.464 342.429L680.985 350.987L667.317 344.506Z" fill="#F5F5F5"/>
<path fill-rule="evenodd" clip-rule="evenodd" d="M672.98 353.815V359.904L675.812 361.355V355.531L672.98 353.815Z" fill="#FAFAFA"/>
<path fill-rule="evenodd" clip-rule="evenodd" d="M724.892 260.497C724.892 261.268 724.892 273.443 724.892 273.443L738.106 280.291V266.927L724.892 260.497Z" fill="#F5F5F5"/>
<path fill-rule="evenodd" clip-rule="evenodd" d="M755.095 258.611L738.106 267.028V280.291L755.095 270.471V258.611Z" fill="#E0E0E0"/>
<path fill-rule="evenodd" clip-rule="evenodd" d="M723.948 261.546L741.268 252.956L755.095 259.469L737.616 268.037L723.948 261.546Z" fill="#F5F5F5"/>
<path fill-rule="evenodd" clip-rule="evenodd" d="M729.611 269.923V276.012L732.443 277.464V271.629L729.611 269.923Z" fill="#E0E0E0"/>
<path fill-rule="evenodd" clip-rule="evenodd" d="M709.791 369.839C709.791 370.61 709.791 382.786 709.791 382.786L723.004 389.634V376.258L709.791 369.839Z" fill="#E0E0E0"/>
<path fill-rule="evenodd" clip-rule="evenodd" d="M739.994 367.954L723.004 376.374V389.634L739.994 379.82V367.954Z" fill="#EBEBEB"/>
<path fill-rule="evenodd" clip-rule="evenodd" d="M708.847 369.946L726.167 361.355L739.994 367.869L722.515 376.437L708.847 369.946Z" fill="#F5F5F5"/>
<path fill-rule="evenodd" clip-rule="evenodd" d="M714.51 379.265V385.365L717.341 386.806V380.982L714.51 379.265Z" fill="#FAFAFA"/>
<path fill-rule="evenodd" clip-rule="evenodd" d="M765.477 400.945C765.477 401.896 765.477 416.95 765.477 416.95L793.793 433.936V417.404L765.477 400.945Z" fill="#F5F5F5"/>
<path fill-rule="evenodd" clip-rule="evenodd" d="M816.445 405.658L794.737 417.446V433.936L816.445 421.726V405.658Z" fill="#E0E0E0"/>
<path fill-rule="evenodd" clip-rule="evenodd" d="M765.477 400.875L787.303 390.576L816.445 405.42L794.429 416.969L765.477 400.875Z" fill="#FAFAFA"/>
<path fill-rule="evenodd" clip-rule="evenodd" d="M776.803 415.084V422.965L780.579 425.453V417.66L776.803 415.084Z" fill="#FAFAFA"/>
<path fill-rule="evenodd" clip-rule="evenodd" d="M696.577 432.993C696.577 433.944 696.577 448.997 696.577 448.997L724.892 465.985V449.462L696.577 432.993Z" fill="#E0E0E0"/>
<path fill-rule="evenodd" clip-rule="evenodd" d="M758.777 431.108L724.892 449.594V465.985L758.87 447.017L758.777 431.108Z" fill="#FAFAFA"/>
<path fill-rule="evenodd" clip-rule="evenodd" d="M696.577 433.577L732.914 416.026L759.814 431.463L725.364 449.96L696.577 433.577Z" fill="#F5F5F5"/>
<path fill-rule="evenodd" clip-rule="evenodd" d="M706.959 448.075V455.948L710.734 458.444V450.648L706.959 448.075Z" fill="#FAFAFA"/>
<path fill-rule="evenodd" clip-rule="evenodd" d="M805.119 373.609V436.965L823.052 446.19V382.038L805.119 373.609Z" fill="#F5F5F5"/>
<path fill-rule="evenodd" clip-rule="evenodd" d="M818.461 367.954L805.119 373.875L823.177 382.093L835.322 375.498L818.461 367.954Z" fill="#FAFAFA"/>
<path fill-rule="evenodd" clip-rule="evenodd" d="M823.052 382.327V447.132L834.155 441.23L835.322 375.495L823.052 382.327Z" fill="#E0E0E0"/>
<path fill-rule="evenodd" clip-rule="evenodd" d="M729.611 322.709V386.065L747.544 395.289V331.137L729.611 322.709Z" fill="#F5F5F5"/>
<path fill-rule="evenodd" clip-rule="evenodd" d="M742.943 316.11L729.611 322.038L747.67 330.249L759.814 323.659L742.943 316.11Z" fill="#FAFAFA"/>
<path fill-rule="evenodd" clip-rule="evenodd" d="M747.544 330.484V395.289L758.636 389.884L759.814 323.651L747.544 330.484Z" fill="#E0E0E0"/>
<path fill-rule="evenodd" clip-rule="evenodd" d="M738.106 443.362C738.106 444.313 738.106 459.366 738.106 459.366L766.421 476.353V459.831L738.106 443.362Z" fill="#E0E0E0"/>
<path fill-rule="evenodd" clip-rule="evenodd" d="M788.13 448.075L766.421 459.863V476.353L788.13 464.144V448.075Z" fill="#FAFAFA"/>
<path fill-rule="evenodd" clip-rule="evenodd" d="M737.162 443.101L759.242 431.108L788.13 447.707L766.124 459.386L737.162 443.101Z" fill="#F5F5F5"/>
<path fill-rule="evenodd" clip-rule="evenodd" d="M748.488 457.501V465.385L752.263 467.87V460.074L748.488 457.501Z" fill="#FAFAFA"/>
<path fill-rule="evenodd" clip-rule="evenodd" d="M801.05 252.956L748.488 229.505L821.685 192.629L845.704 228.082L801.05 252.956Z" fill="#EBEBEB"/>
<path fill-rule="evenodd" clip-rule="evenodd" d="M848.177 274.636L848.536 234.104L807.95 257.023L848.177 274.636Z" fill="#6779A7"/>
<path fill-rule="evenodd" clip-rule="evenodd" d="M817.389 315.639C817.389 317.462 815.91 318.938 814.085 318.938C812.26 318.938 810.782 317.462 810.782 315.639C810.782 313.816 812.26 312.34 814.085 312.34C815.899 312.34 817.389 313.816 817.389 315.639Z" fill="#E0E0E0"/>
<path fill-rule="evenodd" clip-rule="evenodd" d="M814.085 322.709C813.891 322.709 813.725 321.228 813.725 319.409C813.725 317.581 813.891 316.11 814.085 316.11C814.28 316.11 814.446 317.592 814.446 319.409C814.446 321.228 814.28 322.709 814.085 322.709Z" fill="#E0E0E0"/>
<path fill-rule="evenodd" clip-rule="evenodd" d="M732.443 308.098C732.443 309.921 730.964 311.397 729.139 311.397C727.314 311.397 725.836 309.921 725.836 308.098C725.836 306.275 727.314 304.799 729.139 304.799C730.964 304.799 732.443 306.275 732.443 308.098Z" fill="#E0E0E0"/>
<path fill-rule="evenodd" clip-rule="evenodd" d="M729.139 315.168C728.946 315.168 728.779 313.689 728.779 311.874C728.779 310.049 728.946 308.57 729.139 308.57C729.334 308.57 729.5 310.049 729.5 311.874C729.5 313.689 729.334 315.168 729.139 315.168Z" fill="#E0E0E0"/>
<path fill-rule="evenodd" clip-rule="evenodd" d="M690.914 351.458C690.914 353.281 689.436 354.757 687.61 354.757C685.785 354.757 684.307 353.281 684.307 351.458C684.307 349.636 685.785 348.159 687.61 348.159C689.436 348.159 690.914 349.636 690.914 351.458Z" fill="#E0E0E0"/>
<path fill-rule="evenodd" clip-rule="evenodd" d="M687.61 358.528C687.416 358.528 687.25 357.048 687.25 355.234C687.25 353.408 687.416 351.929 687.61 351.929C687.805 351.929 687.971 353.408 687.971 355.234C687.971 357.048 687.818 358.528 687.61 358.528Z" fill="#E0E0E0"/>
<path fill-rule="evenodd" clip-rule="evenodd" d="M693.745 318.466C693.745 320.289 692.267 321.766 690.441 321.766C688.616 321.766 687.138 320.289 687.138 318.466C687.138 316.644 688.616 315.168 690.441 315.168C692.267 315.168 693.745 316.644 693.745 318.466Z" fill="#E0E0E0"/>
<path fill-rule="evenodd" clip-rule="evenodd" d="M690.441 324.594C690.248 324.594 690.081 323.115 690.081 321.3C690.081 319.475 690.248 317.996 690.441 317.996C690.636 317.996 690.803 319.475 690.803 321.3C690.803 323.115 690.636 324.594 690.441 324.594Z" fill="#E0E0E0"/>
<path fill-rule="evenodd" clip-rule="evenodd" d="M771.14 314.697C771.14 316.52 769.663 317.996 767.837 317.996C766.011 317.996 764.533 316.52 764.533 314.697C764.533 312.874 766.011 311.397 767.837 311.397C769.663 311.409 771.14 312.885 771.14 314.697Z" fill="#E0E0E0"/>
<path fill-rule="evenodd" clip-rule="evenodd" d="M767.836 321.766C767.643 321.766 767.476 320.285 767.476 318.467C767.476 316.638 767.643 315.168 767.836 315.168C768.031 315.168 768.198 316.648 768.198 318.467C768.198 320.295 768.031 321.766 767.836 321.766Z" fill="#E0E0E0"/>
<path fill-rule="evenodd" clip-rule="evenodd" d="M820.22 338.262C820.22 340.085 818.742 341.561 816.917 341.561C815.092 341.561 813.613 340.085 813.613 338.262C813.613 336.439 815.092 334.963 816.917 334.963C818.742 334.963 820.22 336.439 820.22 338.262Z" fill="#E0E0E0"/>
<path fill-rule="evenodd" clip-rule="evenodd" d="M816.917 345.331C816.723 345.331 816.556 343.852 816.556 342.037C816.556 340.211 816.723 338.733 816.917 338.733C817.111 338.733 817.278 340.211 817.278 342.037C817.278 343.852 817.111 345.331 816.917 345.331Z" fill="#E0E0E0"/>
<path fill-rule="evenodd" clip-rule="evenodd" d="M822.108 356.171C822.108 357.994 820.629 359.47 818.804 359.47C816.979 359.47 815.501 357.994 815.501 356.171C815.501 354.348 816.979 352.872 818.804 352.872C820.629 352.872 822.108 354.348 822.108 356.171Z" fill="#E0E0E0"/>
<path fill-rule="evenodd" clip-rule="evenodd" d="M818.804 363.241C818.61 363.241 818.444 361.762 818.444 359.947C818.444 358.121 818.61 356.642 818.804 356.642C818.999 356.642 819.165 358.121 819.165 359.947C819.165 361.762 819.013 363.241 818.804 363.241Z" fill="#E0E0E0"/>
<path fill-rule="evenodd" clip-rule="evenodd" d="M734.331 394.818C734.331 396.64 732.853 398.117 731.027 398.117C729.202 398.117 727.724 396.64 727.724 394.818C727.724 392.995 729.202 391.519 731.027 391.519C732.853 391.519 734.331 392.995 734.331 394.818Z" fill="#E0E0E0"/>
<path fill-rule="evenodd" clip-rule="evenodd" d="M731.028 400.945C730.833 400.945 730.666 399.466 730.666 397.651C730.666 395.826 730.833 394.347 731.028 394.347C731.221 394.347 731.388 395.826 731.388 397.651C731.388 399.466 731.235 400.945 731.028 400.945Z" fill="#E0E0E0"/>
<path fill-rule="evenodd" clip-rule="evenodd" d="M833.906 451.846C835.73 451.846 837.209 450.368 837.209 448.546C837.209 446.724 835.73 445.247 833.906 445.247C832.081 445.247 830.603 446.724 830.603 448.546C830.603 450.368 832.081 451.846 833.906 451.846Z" fill="#E0E0E0"/>
<path fill-rule="evenodd" clip-rule="evenodd" d="M833.906 455.616C833.712 455.616 833.545 454.138 833.545 452.322C833.545 450.497 833.712 449.018 833.906 449.018C834.1 449.018 834.267 450.497 834.267 452.322C834.267 454.138 834.1 455.616 833.906 455.616Z" fill="#E0E0E0"/>
<path fill-rule="evenodd" clip-rule="evenodd" d="M777.747 482.481C777.747 484.303 776.269 485.779 774.443 485.779C772.618 485.779 771.14 484.303 771.14 482.481C771.14 480.658 772.618 479.181 774.443 479.181C776.269 479.181 777.747 480.658 777.747 482.481Z" fill="#E0E0E0"/>
<path fill-rule="evenodd" clip-rule="evenodd" d="M774.443 489.55C774.25 489.55 774.083 488.068 774.083 486.25C774.083 484.422 774.25 482.951 774.443 482.951C774.638 482.951 774.805 484.433 774.805 486.25C774.805 488.068 774.638 489.55 774.443 489.55Z" fill="#E0E0E0"/>
<path fill-rule="evenodd" clip-rule="evenodd" d="M753.207 473.054C753.207 474.877 751.729 476.353 749.904 476.353C748.079 476.353 746.6 474.877 746.6 473.054C746.6 471.231 748.079 469.755 749.904 469.755C751.729 469.755 753.207 471.231 753.207 473.054Z" fill="#E0E0E0"/>
<path fill-rule="evenodd" clip-rule="evenodd" d="M749.903 480.124C749.709 480.124 749.543 478.645 749.543 476.83C749.543 475.004 749.709 473.525 749.903 473.525C750.098 473.525 750.264 475.004 750.264 476.83C750.278 478.645 750.111 480.124 749.903 480.124Z" fill="#E0E0E0"/>
<path fill-rule="evenodd" clip-rule="evenodd" d="M807.95 466.455C807.95 468.278 806.472 469.755 804.647 469.755C802.822 469.755 801.344 468.278 801.344 466.455C801.344 464.633 802.822 463.157 804.647 463.157C806.472 463.157 807.95 464.633 807.95 466.455Z" fill="#E0E0E0"/>
<path fill-rule="evenodd" clip-rule="evenodd" d="M804.647 472.583C804.453 472.583 804.286 471.101 804.286 469.284C804.286 467.456 804.453 465.985 804.647 465.985C804.841 465.985 805.008 467.465 805.008 469.284C805.008 471.101 804.856 472.583 804.647 472.583Z" fill="#E0E0E0"/>
<path fill-rule="evenodd" clip-rule="evenodd" d="M758.398 409.428C760.223 409.428 761.702 407.951 761.702 406.129C761.702 404.307 760.223 402.83 758.398 402.83C756.574 402.83 755.095 404.307 755.095 406.129C755.095 407.951 756.574 409.428 758.398 409.428Z" fill="#E0E0E0"/>
<path fill-rule="evenodd" clip-rule="evenodd" d="M758.398 413.199C758.204 413.199 758.037 411.72 758.037 409.905C758.037 408.08 758.204 406.6 758.398 406.6C758.592 406.6 758.759 408.08 758.759 409.905C758.759 411.72 758.592 413.199 758.398 413.199Z" fill="#E0E0E0"/>
<path fill-rule="evenodd" clip-rule="evenodd" d="M769.253 375.965C769.253 377.788 767.774 379.265 765.949 379.265C764.124 379.265 762.646 377.788 762.646 375.965C762.646 374.143 764.124 372.667 765.949 372.667C767.774 372.667 769.253 374.143 769.253 375.965Z" fill="#E0E0E0"/>
<path fill-rule="evenodd" clip-rule="evenodd" d="M765.949 383.035C765.755 383.035 765.589 381.557 765.589 379.741C765.589 377.916 765.755 376.437 765.949 376.437C766.144 376.437 766.31 377.916 766.31 379.741C766.31 381.557 766.144 383.035 765.949 383.035Z" fill="#E0E0E0"/>
<path fill-rule="evenodd" clip-rule="evenodd" d="M693.745 379.737C693.745 381.559 692.267 383.035 690.441 383.035C688.616 383.035 687.138 381.559 687.138 379.737C687.138 377.914 688.616 376.437 690.441 376.437C692.267 376.437 693.745 377.914 693.745 379.737Z" fill="#E0E0E0"/>
<path fill-rule="evenodd" clip-rule="evenodd" d="M690.441 386.806C690.248 386.806 690.081 385.327 690.081 383.512C690.081 381.686 690.248 380.208 690.441 380.208C690.636 380.208 690.803 381.686 690.803 383.512C690.803 385.327 690.636 386.806 690.441 386.806Z" fill="#E0E0E0"/>
<path fill-rule="evenodd" clip-rule="evenodd" d="M837.209 351.458C837.209 353.281 835.732 354.757 833.906 354.757C832.081 354.757 830.603 353.281 830.603 351.458C830.603 349.636 832.081 348.159 833.906 348.159C835.732 348.159 837.209 349.636 837.209 351.458Z" fill="#E0E0E0"/>
<path fill-rule="evenodd" clip-rule="evenodd" d="M833.906 358.528C833.712 358.528 833.545 357.048 833.545 355.234C833.545 353.408 833.712 351.929 833.906 351.929C834.1 351.929 834.267 353.408 834.267 355.234C834.267 357.048 834.1 358.528 833.906 358.528Z" fill="#E0E0E0"/>
<path fill-rule="evenodd" clip-rule="evenodd" d="M829.659 305.271C829.659 307.094 828.18 308.57 826.355 308.57C824.53 308.57 823.052 307.094 823.052 305.271C823.052 303.448 824.53 301.971 826.355 301.971C828.18 301.971 829.659 303.448 829.659 305.271Z" fill="#E0E0E0"/>
<path fill-rule="evenodd" clip-rule="evenodd" d="M826.355 312.34C826.161 312.34 825.995 310.861 825.995 309.046C825.995 307.22 826.161 305.742 826.355 305.742C826.55 305.742 826.716 307.22 826.716 309.046C826.716 310.861 826.55 312.34 826.355 312.34Z" fill="#E0E0E0"/>
<path fill-rule="evenodd" clip-rule="evenodd" d="M763.118 267.095C764.942 267.095 766.421 265.618 766.421 263.796C766.421 261.974 764.942 260.497 763.118 260.497C761.293 260.497 759.814 261.974 759.814 263.796C759.814 265.618 761.293 267.095 763.118 267.095Z" fill="#E0E0E0"/>
<path fill-rule="evenodd" clip-rule="evenodd" d="M763.118 270.865C762.923 270.865 762.757 269.386 762.757 267.571C762.757 265.745 762.923 264.267 763.118 264.267C763.312 264.267 763.478 265.745 763.478 267.571C763.478 269.386 763.312 270.865 763.118 270.865Z" fill="#E0E0E0"/>
<path fill-rule="evenodd" clip-rule="evenodd" d="M706.959 322.237C706.959 324.06 705.481 325.536 703.656 325.536C701.83 325.536 700.352 324.06 700.352 322.237C700.352 320.414 701.83 318.938 703.656 318.938C705.481 318.938 706.959 320.414 706.959 322.237Z" fill="#E0E0E0"/>
<path fill-rule="evenodd" clip-rule="evenodd" d="M703.655 329.307C703.461 329.307 703.295 327.828 703.295 326.013C703.295 324.188 703.461 322.709 703.655 322.709C703.85 322.709 704.016 324.188 704.016 326.013C704.03 327.828 703.864 329.307 703.655 329.307Z" fill="#E0E0E0"/>
<path fill-rule="evenodd" clip-rule="evenodd" d="M743.769 242.116C743.769 243.938 742.29 245.415 740.465 245.415C738.64 245.415 737.162 243.938 737.162 242.116C737.162 240.293 738.64 238.817 740.465 238.817C742.29 238.817 743.769 240.293 743.769 242.116Z" fill="#E0E0E0"/>
<path fill-rule="evenodd" clip-rule="evenodd" d="M740.465 249.185C740.271 249.185 740.105 247.707 740.105 245.891C740.105 244.066 740.271 242.587 740.465 242.587C740.66 242.587 740.826 244.066 740.826 245.891C740.826 247.707 740.66 249.185 740.465 249.185Z" fill="#E0E0E0"/>
<path fill-rule="evenodd" clip-rule="evenodd" d="M807.007 235.517C807.007 237.341 805.529 238.817 803.703 238.817C801.878 238.817 800.4 237.341 800.4 235.517C800.4 233.694 801.878 232.219 803.703 232.219C805.529 232.219 807.007 233.694 807.007 235.517Z" fill="#E0E0E0"/>
<path fill-rule="evenodd" clip-rule="evenodd" d="M803.703 241.645C803.509 241.645 803.343 240.166 803.343 238.351C803.343 236.525 803.509 235.046 803.703 235.046C803.898 235.046 804.064 236.525 804.064 238.351C804.064 240.166 803.911 241.645 803.703 241.645Z" fill="#E0E0E0"/>
<path fill-rule="evenodd" clip-rule="evenodd" d="M823.996 232.689C823.996 234.512 822.518 235.989 820.693 235.989C818.867 235.989 817.389 234.512 817.389 232.689C817.389 230.867 818.867 229.391 820.693 229.391C822.518 229.391 823.996 230.867 823.996 232.689Z" fill="#E0E0E0"/>
<path fill-rule="evenodd" clip-rule="evenodd" d="M820.692 238.817C820.498 238.817 820.332 237.338 820.332 235.523C820.332 233.698 820.498 232.219 820.692 232.219C820.887 232.219 821.053 233.698 821.053 235.523C821.053 237.338 820.887 238.817 820.692 238.817Z" fill="#E0E0E0"/>
<path fill-rule="evenodd" clip-rule="evenodd" d="M817.389 209.125C817.389 210.948 815.91 212.424 814.085 212.424C812.26 212.424 810.782 210.948 810.782 209.125C810.782 207.302 812.26 205.826 814.085 205.826C815.899 205.826 817.389 207.302 817.389 209.125Z" fill="#E0E0E0"/>
<path fill-rule="evenodd" clip-rule="evenodd" d="M814.085 216.194C813.891 216.194 813.725 214.715 813.725 212.9C813.725 211.074 813.891 209.596 814.085 209.596C814.28 209.596 814.446 211.074 814.446 212.9C814.446 214.715 814.28 216.194 814.085 216.194Z" fill="#E0E0E0"/>
<path fill-rule="evenodd" clip-rule="evenodd" d="M720.173 261.911C720.173 263.734 718.694 265.21 716.869 265.21C715.044 265.21 713.566 263.734 713.566 261.911C713.566 260.088 715.044 258.611 716.869 258.611C718.694 258.611 720.173 260.088 720.173 261.911Z" fill="#E0E0E0"/>
<path fill-rule="evenodd" clip-rule="evenodd" d="M716.869 268.98C716.675 268.98 716.509 267.501 716.509 265.686C716.509 263.86 716.675 262.382 716.869 262.382C717.064 262.382 717.23 263.86 717.23 265.686C717.23 267.501 717.078 268.98 716.869 268.98Z" fill="#E0E0E0"/>
<path fill-rule="evenodd" clip-rule="evenodd" d="M791.905 232.689C791.905 234.512 790.426 235.989 788.601 235.989C786.776 235.989 785.298 234.512 785.298 232.689C785.298 230.867 786.776 229.391 788.601 229.391C790.426 229.391 791.905 230.867 791.905 232.689Z" fill="#E0E0E0"/>
<path fill-rule="evenodd" clip-rule="evenodd" d="M788.601 239.759C788.408 239.759 788.241 238.281 788.241 236.465C788.241 234.64 788.408 233.161 788.601 233.161C788.796 233.161 788.963 234.64 788.963 236.465C788.963 238.281 788.81 239.759 788.601 239.759Z" fill="#E0E0E0"/>
<path fill-rule="evenodd" clip-rule="evenodd" d="M705.071 162.937C705.071 164.76 703.593 166.236 701.767 166.236C699.942 166.236 698.464 164.76 698.464 162.937C698.464 161.114 699.942 159.638 701.767 159.638C703.593 159.638 705.071 161.114 705.071 162.937Z" fill="#E0E0E0"/>
<path fill-rule="evenodd" clip-rule="evenodd" d="M701.768 170.007C701.573 170.007 701.407 168.528 701.407 166.713C701.407 164.887 701.573 163.408 701.768 163.408C701.962 163.408 702.128 164.887 702.128 166.713C702.128 168.538 701.976 170.007 701.768 170.007Z" fill="#E0E0E0"/>
<path fill-rule="evenodd" clip-rule="evenodd" d="M739.994 179.904C739.994 181.727 738.516 183.203 736.691 183.203C734.865 183.203 733.387 181.727 733.387 179.904C733.387 178.082 734.865 176.605 736.691 176.605C738.516 176.605 739.994 178.082 739.994 179.904Z" fill="#E0E0E0"/>
<path fill-rule="evenodd" clip-rule="evenodd" d="M736.69 186.973C736.496 186.973 736.33 185.494 736.33 183.68C736.33 181.854 736.496 180.375 736.69 180.375C736.885 180.375 737.051 181.854 737.051 183.68C737.051 185.494 736.885 186.973 736.69 186.973Z" fill="#E0E0E0"/>
<path fill-rule="evenodd" clip-rule="evenodd" d="M683.363 233.632C683.363 235.455 681.885 236.932 680.06 236.932C678.234 236.932 676.756 235.455 676.756 233.632C676.756 231.809 678.234 230.333 680.06 230.333C681.885 230.333 683.363 231.809 683.363 233.632Z" fill="#E0E0E0"/>
<path fill-rule="evenodd" clip-rule="evenodd" d="M680.06 240.702C679.865 240.702 679.698 239.224 679.698 237.408C679.698 235.583 679.865 234.104 680.06 234.104C680.253 234.104 680.42 235.583 680.42 237.408C680.42 239.224 680.253 240.702 680.06 240.702Z" fill="#E0E0E0"/>
<path fill-rule="evenodd" clip-rule="evenodd" d="M687.138 182.731C687.138 184.555 685.66 186.031 683.834 186.031C682.009 186.031 680.531 184.555 680.531 182.731C680.531 180.909 682.009 179.433 683.834 179.433C685.66 179.433 687.138 180.909 687.138 182.731Z" fill="#E0E0E0"/>
<path fill-rule="evenodd" clip-rule="evenodd" d="M683.835 189.801C683.64 189.801 683.474 188.323 683.474 186.507C683.474 184.682 683.64 183.203 683.835 183.203C684.029 183.203 684.195 184.682 684.195 186.507C684.195 188.323 684.029 189.801 683.835 189.801Z" fill="#E0E0E0"/>
<path fill-rule="evenodd" clip-rule="evenodd" d="M820.22 327.812L845.704 314.225L845.599 338.733L820.22 327.812Z" fill="#EBEBEB"/>
<path fill-rule="evenodd" clip-rule="evenodd" d="M713.566 414.528L657.879 443.362V389.563L664.056 386.806L713.566 414.528Z" fill="#EBEBEB"/>
<path fill-rule="evenodd" clip-rule="evenodd" d="M797.568 443.362C797.568 445.446 795.881 447.132 793.793 447.132C791.705 447.132 790.017 445.446 790.017 443.362C790.017 441.277 791.705 439.592 793.793 439.592C795.881 439.592 797.568 441.277 797.568 443.362Z" fill="#E8505B"/>
<path fill-rule="evenodd" clip-rule="evenodd" d="M830.603 187.916L848.536 193.406V221.85L830.603 187.916Z" fill="#EBEBEB"/>
<path fill-rule="evenodd" clip-rule="evenodd" d="M848.536 150.762L848.431 120.076C846.969 109.309 837.796 100.969 826.627 100.917L798.497 100.791C794.725 100.77 791.657 103.956 791.636 107.91L791.615 113.021C791.604 116.964 788.526 120.15 784.754 120.14L729.924 119.887C726.152 119.866 723.105 116.659 723.126 112.705L723.147 107.594C723.168 103.651 720.121 100.433 716.348 100.412L706.45 100.37L681.83 100.254C676.051 100.223 670.786 102.442 666.836 106.059C664.367 110.812 661.677 117.574 662.906 122.769L848.409 183.203L848.536 150.762Z" fill="#E8505B"/>
<path opacity="0.7" fill-rule="evenodd" clip-rule="evenodd" d="M848.536 150.762L848.431 120.076C846.969 109.309 837.796 100.969 826.627 100.917L798.497 100.791C794.725 100.77 791.657 103.956 791.636 107.91L791.615 113.021C791.604 116.964 788.526 120.15 784.754 120.14L729.924 119.887C726.152 119.866 723.105 116.659 723.126 112.705L723.147 107.594C723.168 103.651 720.121 100.433 716.348 100.412L706.45 100.37L681.83 100.254C676.051 100.223 670.786 102.442 666.836 106.059C664.367 110.812 661.677 117.574 662.906 122.769L848.409 183.203L848.536 150.762Z" fill="white"/>
<path fill-rule="evenodd" clip-rule="evenodd" d="M826.337 101.13C826.337 101.13 826.59 101.13 827.096 101.162C827.602 101.214 828.362 101.162 829.342 101.351C831.314 101.593 834.298 102.245 837.662 104.252C839.36 105.219 841.078 106.597 842.712 108.363C844.336 110.128 845.844 112.347 846.909 114.985C847.996 117.624 848.575 120.694 848.534 123.973C848.523 127.242 848.512 130.722 848.502 134.411C848.396 163.919 848.249 206.609 848.059 259.358C847.848 312.109 847.605 374.918 847.331 444.666C847.3 453.381 847.257 462.211 847.226 471.136C847.215 473.364 847.204 475.604 847.194 477.853C847.163 480.103 847.004 482.416 846.319 484.592C845.676 486.778 844.758 488.902 843.461 490.815C842.175 492.718 840.614 494.441 838.822 495.903C835.205 498.772 830.681 500.591 825.999 500.801C824.829 500.875 823.669 500.864 822.509 500.853L819.029 500.843C816.709 500.833 814.379 500.822 812.038 500.812C802.696 500.77 793.268 500.727 783.747 500.685C764.713 500.602 745.342 500.507 725.687 500.423C715.859 500.381 705.958 500.328 695.993 500.286C691.005 500.265 686.008 500.244 680.999 500.213C675.969 500.444 670.759 499.108 666.573 496.176C662.366 493.275 659.266 488.891 657.832 484.034C657.062 481.616 656.925 479.041 656.936 476.55C656.946 474.058 656.957 471.567 656.967 469.086C657.01 459.152 657.051 449.271 657.094 439.473C657.178 419.869 657.262 400.558 657.347 381.583C657.515 343.624 657.674 307.01 657.832 272.142C657.99 237.262 658.137 204.118 658.274 173.107C658.348 157.601 658.412 142.622 658.485 128.22C658.496 126.422 658.507 124.624 658.507 122.848C658.527 121.955 658.591 121.061 658.644 120.168C658.802 119.285 658.875 118.391 659.108 117.529C659.93 114.071 661.554 110.833 663.811 108.173C666.088 105.524 668.935 103.443 672.067 102.076C675.199 100.689 678.626 100.205 681.937 100.258C688.548 100.289 695.012 100.321 701.298 100.352C704.439 100.373 707.55 100.384 710.608 100.405C712.137 100.415 713.666 100.426 715.174 100.426C716.703 100.352 718.285 100.783 719.529 101.656C720.773 102.528 721.733 103.79 722.228 105.209C722.787 106.628 722.65 108.163 722.661 109.571C722.661 110.297 722.65 111.012 722.65 111.727C722.65 112.441 722.619 113.156 722.713 113.839C722.882 115.216 723.462 116.53 724.358 117.561C725.244 118.601 726.457 119.358 727.754 119.684C728.408 119.853 729.072 119.905 729.758 119.894C730.443 119.894 731.128 119.905 731.803 119.905C734.523 119.915 737.191 119.936 739.817 119.947C750.331 119.999 760.105 120.052 769.11 120.104C773.613 120.126 777.915 120.157 782.028 120.178C783.051 120.168 784.084 120.231 785.054 120.146C786.035 120.041 786.973 119.705 787.785 119.2C789.419 118.191 790.537 116.509 790.928 114.744C791.139 113.861 791.106 112.946 791.117 112.052C791.117 111.159 791.128 110.276 791.128 109.403C791.139 108.541 791.096 107.669 791.254 106.828C791.402 105.987 791.697 105.188 792.098 104.463C792.899 103.012 794.207 101.919 795.651 101.362C797.107 100.741 798.657 100.931 800.059 100.909C805.753 100.941 810.572 100.973 814.463 101.004C818.354 101.036 821.328 101.057 823.321 101.067C825.314 101.109 826.337 101.13 826.337 101.13C826.337 101.13 825.314 101.141 823.321 101.141C821.317 101.141 818.354 101.13 814.463 101.13C810.572 101.12 805.743 101.109 800.059 101.088C798.646 101.12 797.128 100.931 795.714 101.54C794.312 102.087 793.047 103.159 792.266 104.578C791.877 105.283 791.592 106.06 791.444 106.88C791.286 107.7 791.339 108.552 791.328 109.424C791.328 110.297 791.317 111.18 791.317 112.074C791.307 112.967 791.35 113.892 791.139 114.807C790.748 116.635 789.599 118.37 787.911 119.411C787.068 119.936 786.098 120.283 785.086 120.399C784.063 120.483 783.061 120.42 782.028 120.43C777.925 120.42 773.613 120.399 769.11 120.378C760.105 120.347 750.331 120.304 739.817 120.262C737.191 120.252 734.513 120.242 731.803 120.231C731.128 120.231 730.443 120.22 729.758 120.22C729.083 120.231 728.355 120.178 727.669 120.01C726.299 119.663 725.023 118.885 724.106 117.792C723.167 116.709 722.556 115.332 722.376 113.892C722.282 113.166 722.313 112.441 722.313 111.737C722.313 111.022 722.313 110.307 722.323 109.582C722.313 108.142 722.439 106.681 721.901 105.335C721.437 103.979 720.52 102.781 719.329 101.95C718.127 101.12 716.671 100.72 715.174 100.783C713.666 100.773 712.137 100.773 710.608 100.762C707.54 100.752 704.439 100.741 701.298 100.72C695.002 100.699 688.548 100.668 681.937 100.636C678.647 100.584 675.304 101.067 672.226 102.434C669.157 103.779 666.362 105.829 664.127 108.426C661.913 111.043 660.32 114.217 659.519 117.614C659.287 118.454 659.223 119.337 659.065 120.199C659.012 121.072 658.949 121.955 658.939 122.837C658.928 124.614 658.928 126.412 658.918 128.209C658.865 142.611 658.802 157.58 658.738 173.096C658.612 204.118 658.486 237.251 658.348 272.131C658.201 307.01 658.053 343.624 657.906 381.573C657.832 400.547 657.747 419.868 657.663 439.463C657.621 449.26 657.578 459.142 657.536 469.075C657.526 471.557 657.515 474.047 657.505 476.539C657.495 479.02 657.621 481.501 658.38 483.866C659.783 488.596 662.798 492.875 666.911 495.713C671.023 498.562 676.032 499.876 681.03 499.645C686.049 499.666 691.048 499.687 696.025 499.718C705.99 499.761 715.891 499.813 725.719 499.855C745.374 499.949 764.745 500.034 783.778 500.128C793.289 500.17 802.727 500.213 812.07 500.265C814.4 500.275 816.73 500.286 819.061 500.296L822.54 500.318C823.7 500.328 824.86 500.338 825.999 500.265C830.576 500.065 834.994 498.278 838.526 495.482C840.277 494.053 841.806 492.371 843.06 490.51C844.326 488.649 845.222 486.568 845.855 484.434C846.53 482.289 846.677 480.061 846.719 477.832C846.73 475.583 846.741 473.354 846.751 471.115C846.793 462.19 846.825 453.36 846.867 444.646C847.184 374.897 847.468 312.088 847.711 259.338C847.975 206.588 848.186 163.898 848.333 134.391C848.354 130.701 848.375 127.221 848.386 123.952C848.438 120.694 847.869 117.645 846.793 115.017C845.739 112.389 844.252 110.191 842.639 108.426C841.025 106.66 839.317 105.283 837.63 104.315C834.298 102.297 831.324 101.624 829.363 101.372C828.382 101.172 827.623 101.225 827.117 101.162C826.59 101.162 826.337 101.13 826.337 101.13Z" fill="#263238"/>
<path fill-rule="evenodd" clip-rule="evenodd" d="M891.952 309.512C907.585 309.901 923.386 310.321 938.501 314.304C953.616 318.287 968.213 326.243 977.185 339C987.055 353.04 989.018 370.988 990.01 388.108C991.657 416.491 991.466 445.012 988.67 473.302C987.255 487.646 982.146 500.961 968.752 506.425C952.645 512.993 930.996 506.425 930.996 506.425" fill="#041B54"/>
<path fill-rule="evenodd" clip-rule="evenodd" d="M934.426 503.606C934.426 503.606 934.626 503.585 935.015 503.575C935.425 503.564 936.004 503.564 936.751 503.543C938.297 503.533 940.538 503.511 943.41 503.491C946.304 503.47 949.848 503.511 953.91 502.945C954.92 502.776 955.972 502.661 957.034 502.387C957.57 502.272 958.107 502.146 958.654 502.03C959.201 501.883 959.748 501.715 960.296 501.547C961.421 501.253 962.515 500.78 963.662 500.359C964.766 499.845 965.934 499.362 967.029 498.689C969.259 497.418 971.437 495.79 973.288 493.688C975.129 491.598 976.623 489.024 977.412 486.124C978.906 480.261 979.537 473.779 979.779 466.971C979.99 460.152 979.916 452.977 979.979 445.549C980.01 438.122 980.053 430.42 980.084 422.54C980.116 414.661 980.2 406.96 979.947 399.543C979.685 392.126 979.106 384.971 977.938 378.258C975.665 364.82 970.953 353.169 964.882 344.827C961.863 340.656 958.549 337.326 955.582 334.51C952.584 331.705 949.891 329.415 947.681 327.555C945.472 325.716 943.757 324.277 942.568 323.29C942 322.806 941.559 322.439 941.243 322.166C940.948 321.913 940.801 321.766 940.801 321.766C940.801 321.766 940.97 321.882 941.275 322.123C941.601 322.376 942.042 322.732 942.631 323.195C943.831 324.162 945.577 325.569 947.808 327.376C950.038 329.215 952.762 331.485 955.782 334.268C958.781 337.073 962.116 340.393 965.187 344.585C971.342 352.948 976.118 364.662 978.432 378.152C979.622 384.897 980.211 392.073 980.484 399.511C980.747 406.95 980.674 414.651 980.632 422.53C980.589 430.41 980.558 438.1 980.516 445.539C980.453 452.967 980.516 460.132 980.284 466.971C980.032 473.8 979.39 480.314 977.854 486.229C977.044 489.202 975.497 491.829 973.614 493.951C971.721 496.083 969.49 497.733 967.228 499.004C966.113 499.677 964.935 500.16 963.809 500.675C962.642 501.095 961.537 501.568 960.401 501.852C959.833 502.009 959.285 502.188 958.738 502.324C958.181 502.44 957.634 502.566 957.097 502.682C956.024 502.945 954.962 503.06 953.941 503.218C949.849 503.764 946.293 503.69 943.399 503.68C940.527 503.659 938.287 503.638 936.74 503.627C935.994 503.616 935.415 503.606 935.005 503.596C934.626 503.627 934.426 503.606 934.426 503.606Z" fill="#455A64"/>
<path fill-rule="evenodd" clip-rule="evenodd" d="M979.731 426.365C979.687 426.241 982.18 425.602 985.355 425.478C988.531 425.345 991.078 425.774 991.056 425.898C991.035 426.041 988.498 425.841 985.388 425.974C982.266 426.098 979.763 426.509 979.731 426.365Z" fill="#455A64"/>
<path fill-rule="evenodd" clip-rule="evenodd" d="M912.717 310.465C912.717 310.455 912.853 310.455 913.116 310.455C913.41 310.465 913.798 310.465 914.3 310.476C915.338 310.518 916.879 310.508 918.851 310.644C922.772 311.053 928.496 311.809 935.206 314.138C936.034 314.442 936.883 314.757 937.753 315.082C938.183 315.24 938.623 315.408 939.074 315.576C939.504 315.775 939.944 315.964 940.385 316.174C941.265 316.573 942.167 316.982 943.079 317.402C944.002 317.811 944.872 318.346 945.805 318.818C949.495 320.749 953.228 323.215 956.918 326.09C960.609 328.965 964.257 332.302 967.612 336.153C970.967 339.994 973.976 344.421 976.261 349.322C980.937 359.133 982.96 369.395 983.999 378.682C984.984 388.001 985.026 396.437 985.089 403.509C985.11 410.582 985.131 416.3 985.235 420.246C985.288 422.198 985.33 423.719 985.362 424.8C985.372 425.304 985.382 425.692 985.393 425.986C985.393 426.248 985.393 426.384 985.382 426.395C985.372 426.395 985.362 426.259 985.33 425.996C985.309 425.703 985.278 425.314 985.246 424.81C985.173 423.772 985.099 422.24 985.016 420.267C984.847 416.311 984.775 410.592 984.701 403.52C984.596 396.458 984.512 388.032 983.506 378.745C982.447 369.5 980.413 359.301 975.779 349.574C973.504 344.705 970.548 340.329 967.214 336.52C963.89 332.69 960.273 329.375 956.614 326.499C952.955 323.635 949.254 321.169 945.596 319.228C944.683 318.745 943.803 318.22 942.901 317.8C941.989 317.38 941.108 316.971 940.227 316.573C939.787 316.373 939.357 316.174 938.927 315.975C938.487 315.806 938.057 315.639 937.617 315.481C936.758 315.156 935.908 314.83 935.09 314.526C928.443 312.166 922.75 311.347 918.84 310.885C916.879 310.717 915.338 310.686 914.311 310.612C913.818 310.581 913.42 310.56 913.126 310.539C912.853 310.497 912.717 310.476 912.717 310.465Z" fill="#E0E0E0"/>
<path fill-rule="evenodd" clip-rule="evenodd" d="M903.279 309.994C903.279 309.994 907.09 300.377 920.667 302.202C920.667 302.202 926.716 301.881 927.819 305.1C927.819 305.1 915.176 302.101 909.789 310.455L903.279 309.994Z" fill="#263238"/>
<path fill-rule="evenodd" clip-rule="evenodd" d="M941.976 322.709H933.892C933.892 322.709 932.323 301.268 912.717 302.102C912.717 302.102 937.085 293.924 941.976 322.709Z" fill="#455A64"/>
<path fill-rule="evenodd" clip-rule="evenodd" d="M980.124 438.649L992 440.24L990.807 444.305L979.73 443.484L980.124 438.649Z" fill="#455A64"/>
<path fill-rule="evenodd" clip-rule="evenodd" d="M981.624 442.708C981.553 442.658 982.059 441.892 982.907 440.746L983.058 440.534L983.23 440.746C983.715 441.339 984.23 441.953 984.765 442.597L984.412 442.547C984.765 442.285 985.129 442.013 985.513 441.742C985.897 441.46 986.281 441.188 986.645 440.926L986.857 440.776L987.008 440.977C987.503 441.661 987.968 442.315 988.412 442.949L988.129 442.909C989.302 442.134 990.059 441.681 990.11 441.742C990.16 441.812 989.483 442.386 988.372 443.241L988.221 443.362L988.089 443.201C987.614 442.597 987.119 441.963 986.604 441.289L986.958 441.339C986.594 441.611 986.22 441.883 985.836 442.164C985.453 442.436 985.089 442.708 984.735 442.959L984.533 443.11L984.382 442.919C983.877 442.255 983.392 441.611 982.927 441.007H983.25C982.311 442.094 981.685 442.768 981.624 442.708Z" fill="#E8505B"/>
<path fill-rule="evenodd" clip-rule="evenodd" d="M813.559 514.674C813.559 514.674 811.341 507.466 811.784 504.421C812.228 501.375 816.337 498.604 816.337 498.604L811.879 383.059C811.879 383.059 811.298 332.521 838.116 316.809L854.119 312.783L893.591 310.455C894.869 310.876 941.26 328.284 947.639 335.081L927.634 436.98C927.634 436.98 930.064 467.086 932.493 488.73C932.989 493.156 936.316 515 936.316 515L813.559 514.674Z" fill="#FF0029"/>
<g opacity="0.3">
<path opacity="0.3" fill-rule="evenodd" clip-rule="evenodd" d="M931.999 481.861C931.63 484.65 930.554 488.044 927.856 488.9C925.158 489.766 922.228 489.516 919.435 489.015C909.558 487.271 900.473 482.676 891.555 478.134C874.881 469.654 858.059 461.071 843.671 449.177C841.647 447.506 839.486 444.895 840.73 442.598C842.132 439.987 846.085 440.865 848.794 442.097C877.063 455.014 903.73 468.945 931.999 481.861Z" fill="black"/>
</g>
<path fill-rule="evenodd" clip-rule="evenodd" d="M832.49 319.881C832.49 319.881 814.77 325.748 809.04 342.043C802.706 360.041 798.512 394.987 798.512 394.987L816.02 397.174L832.49 319.881Z" fill="#FF0029"/>
<path fill-rule="evenodd" clip-rule="evenodd" d="M948.126 335.016C948.126 335.016 957.55 347.481 962.141 362.63C966.721 377.779 969.348 421.682 969.348 421.682L922.071 421.017L919.56 382.395C919.56 382.384 914.79 317.934 948.126 335.016Z" fill="#FF0029"/>
<path fill-rule="evenodd" clip-rule="evenodd" d="M805.119 357.974C805.119 357.974 805.467 357.437 806.425 356.741C807.373 356.056 809.154 355.339 811.419 355.782C813.716 356.119 815.949 357.922 818.889 359.05C820.343 359.609 822.05 360.041 823.777 359.651C825.516 359.271 827.012 358.028 828.603 356.825C829.404 356.224 830.246 355.602 831.237 355.17C832.217 354.727 833.429 354.58 834.514 355.033C835.609 355.433 836.431 356.361 837.063 357.31C837.716 358.259 838.243 359.303 838.928 360.231C839.592 361.159 840.477 361.97 841.604 362.297C842.71 362.667 843.954 362.571 845.123 362.266C846.314 361.96 847.462 361.433 848.558 360.79C849.654 360.146 850.707 359.356 851.845 358.66C852.972 357.954 854.173 357.29 855.512 356.878C856.839 356.488 858.335 356.393 859.715 356.868C861.096 357.321 862.286 358.165 863.36 359.092C864.446 360.02 865.458 361.021 866.584 361.897C867.691 362.772 868.934 363.531 870.336 363.742C871.715 364.016 873.18 363.816 874.539 363.31C877.278 362.277 879.702 360.421 882.388 358.934C883.737 358.207 885.149 357.51 886.676 357.226C888.193 356.942 889.816 357.036 891.249 357.584C894.125 358.702 896.254 360.874 898.803 362.097C899.435 362.414 900.099 362.635 900.762 362.793C901.437 362.93 902.122 362.962 902.807 362.919C904.176 362.825 905.494 362.371 906.736 361.792C909.233 360.664 911.488 359.082 914.069 358.238C915.344 357.817 916.725 357.627 918.052 357.88C919.39 358.111 920.549 358.84 921.518 359.651C923.457 361.265 924.974 363.32 927.187 364.006C928.272 364.343 929.42 364.322 930.505 364.101C931.601 363.879 932.644 363.51 933.676 363.152C935.71 362.434 937.838 361.696 939.903 362.171C940.925 362.371 941.81 362.909 942.58 363.489C943.349 364.079 944.012 364.723 944.687 365.324C945.36 365.925 946.046 366.452 946.772 366.853C947.499 367.243 948.29 367.475 949.059 367.591C950.608 367.812 952.093 367.569 953.358 367.148C954.643 366.726 955.717 366.104 956.634 365.471C958.456 364.195 959.679 362.93 960.511 362.108C960.912 361.707 961.228 361.391 961.459 361.159C961.67 360.948 961.786 360.843 961.796 360.843C961.807 360.853 961.702 360.969 961.502 361.191C961.28 361.433 960.975 361.759 960.596 362.181C959.774 363.025 958.583 364.322 956.761 365.64C955.844 366.293 954.748 366.937 953.442 367.38C952.146 367.823 950.628 368.097 949.016 367.876C948.216 367.77 947.394 367.527 946.625 367.127C945.856 366.715 945.15 366.167 944.465 365.577C943.106 364.417 941.758 362.93 939.819 362.54C937.902 362.108 935.847 362.814 933.813 363.542C932.781 363.901 931.728 364.29 930.59 364.522C929.462 364.754 928.219 364.796 927.05 364.428C925.869 364.069 924.847 363.32 923.931 362.508C923.015 361.696 922.161 360.79 921.213 360.009C920.275 359.219 919.19 358.555 917.957 358.354C916.735 358.122 915.45 358.302 914.228 358.702C911.751 359.524 909.497 361.095 906.958 362.255C905.694 362.846 904.313 363.331 902.86 363.436C902.132 363.479 901.385 363.447 900.668 363.299C899.951 363.13 899.245 362.888 898.592 362.561C895.938 361.285 893.809 359.124 891.08 358.08C889.731 357.563 888.246 357.479 886.813 357.743C885.37 358.017 884.001 358.681 882.683 359.398C880.038 360.853 877.605 362.741 874.75 363.816C873.327 364.354 871.757 364.565 870.262 364.269C868.744 364.038 867.417 363.215 866.279 362.319C863.993 360.537 862.17 358.217 859.578 357.363C858.314 356.92 856.944 357.005 855.691 357.363C854.426 357.753 853.257 358.385 852.15 359.082C851.023 359.767 849.98 360.547 848.853 361.212C847.725 361.865 846.535 362.414 845.292 362.73C844.059 363.046 842.721 363.141 841.509 362.741C840.277 362.371 839.296 361.465 838.612 360.494C837.906 359.524 837.379 358.481 836.747 357.553C836.136 356.625 835.388 355.792 834.408 355.423C833.439 355.022 832.364 355.138 831.448 355.539C830.51 355.929 829.688 356.541 828.888 357.131C827.307 358.312 825.758 359.598 823.904 359.989C822.071 360.389 820.311 359.915 818.836 359.324C815.855 358.143 813.663 356.341 811.44 355.982C809.249 355.518 807.5 356.182 806.552 356.825C805.53 357.49 805.15 358.006 805.119 357.974Z" fill="#FAFAFA"/>
<path fill-rule="evenodd" clip-rule="evenodd" d="M799.456 386.142C799.456 386.131 799.613 386.142 799.917 386.174C800.243 386.206 800.695 386.26 801.273 386.314C802.47 386.389 804.234 386.907 806.44 386.174C807.553 385.926 808.803 385.69 810.168 385.452C811.534 385.205 813.004 384.87 814.621 384.666C816.228 384.472 818.034 384.472 819.82 385.054C821.605 385.592 823.338 386.529 825.25 387.187C827.151 387.876 829.303 387.952 831.435 387.37C833.578 386.853 835.678 385.84 837.947 385.032C840.184 384.203 842.778 383.567 845.351 384.299C847.893 385.032 849.941 386.96 852.493 387.596C853.123 387.747 853.774 387.79 854.425 387.736C855.077 387.661 855.727 387.489 856.358 387.262C857.639 386.809 858.878 386.142 860.233 385.657C861.567 385.151 863.153 384.936 864.581 385.506C865.999 386.066 867.101 387.133 868.257 388.005C868.835 388.447 869.433 388.856 870.084 389.137C870.736 389.417 871.439 389.535 872.143 389.535C873.572 389.481 874.968 388.899 876.323 388.253C877.688 387.607 879.064 386.885 880.608 386.486C881.385 386.314 882.184 386.206 882.992 386.325C883.8 386.422 884.578 386.713 885.281 387.09C886.7 387.854 887.876 388.921 889.125 389.793C889.745 390.224 890.396 390.623 891.078 390.893C891.426 391.022 891.761 391.14 892.129 391.194L892.664 391.291L893.211 391.313C894.671 391.345 896.11 390.914 897.496 390.397C898.882 389.88 900.248 389.277 901.676 388.835C903.083 388.404 904.627 388.124 906.097 388.512C907.589 388.835 908.807 389.826 909.826 390.806C910.855 391.808 911.8 392.864 912.892 393.65C913.984 394.448 915.298 394.814 916.589 394.727C917.881 394.641 919.12 394.157 920.286 393.575C921.452 392.993 922.565 392.314 923.678 391.679C925.884 390.43 928.31 389.266 930.82 389.557C933.309 389.858 935.336 391.269 937.121 392.584C938.928 393.919 940.577 395.331 942.394 396.203C944.189 397.119 946.09 397.582 947.897 397.733C949.714 397.852 951.426 397.657 953.001 397.324C956.121 396.548 958.599 395.126 960.342 393.65C962.096 392.174 963.104 390.666 963.755 389.642C964.05 389.115 964.249 388.684 964.396 388.415C964.543 388.134 964.617 387.994 964.628 388.005C964.638 388.005 964.575 388.156 964.449 388.447C964.312 388.727 964.134 389.169 963.85 389.708C963.22 390.753 962.233 392.303 960.479 393.822C958.735 395.342 956.246 396.818 953.075 397.636C951.478 397.991 949.735 398.196 947.887 398.088C946.038 397.948 944.095 397.485 942.236 396.559C940.356 395.665 938.687 394.242 936.89 392.928C935.105 391.625 933.12 390.279 930.788 390.009C928.446 389.74 926.115 390.838 923.93 392.099C922.817 392.734 921.714 393.424 920.517 394.017C919.33 394.609 918.038 395.137 916.641 395.234C915.255 395.331 913.785 394.921 912.63 394.07C911.464 393.241 910.508 392.163 909.49 391.184C908.481 390.214 907.347 389.309 905.992 389.018C904.648 388.673 903.209 388.921 901.844 389.341C900.458 389.761 899.102 390.375 897.695 390.893C896.288 391.42 894.796 391.883 893.211 391.851L892.622 391.83L892.034 391.722C891.646 391.668 891.257 391.539 890.89 391.388C890.155 391.097 889.472 390.677 888.831 390.235C887.55 389.341 886.384 388.285 885.051 387.563C884.389 387.208 883.675 386.949 882.95 386.864C882.225 386.767 881.48 386.864 880.755 387.015C879.306 387.391 877.95 388.092 876.575 388.738C875.199 389.385 873.749 390.009 872.185 390.063C871.407 390.073 870.62 389.933 869.906 389.621C869.192 389.309 868.562 388.878 867.963 388.415C866.786 387.51 865.715 386.486 864.424 385.98C863.142 385.474 861.724 385.646 860.433 386.131C859.12 386.594 857.881 387.251 856.558 387.725C855.895 387.952 855.213 388.145 854.499 388.221C853.795 388.285 853.081 388.232 852.398 388.07C849.667 387.359 847.651 385.431 845.246 384.741C842.831 384.052 840.342 384.634 838.125 385.441C835.878 386.228 833.757 387.24 831.562 387.758C829.388 388.35 827.098 388.253 825.155 387.531C823.201 386.842 821.489 385.905 819.746 385.366C818.014 384.785 816.28 384.774 814.684 384.957C813.088 385.129 811.617 385.463 810.242 385.69C808.877 385.915 807.626 386.121 806.513 386.357C805.957 386.465 805.431 386.594 804.927 386.669C804.413 386.745 803.93 386.724 803.499 386.68C802.627 386.584 801.892 386.476 801.293 386.389C800.716 386.303 800.275 386.239 799.939 386.195C799.613 386.185 799.456 386.153 799.456 386.142Z" fill="#FAFAFA"/>
<path fill-rule="evenodd" clip-rule="evenodd" d="M816.445 411.318C816.445 411.307 816.551 411.318 816.762 411.328C816.995 411.349 817.301 411.38 817.682 411.421C818.485 411.503 819.68 411.659 821.202 411.886C824.257 412.299 828.634 413.187 834.11 413.621C836.848 413.848 839.85 413.828 843.064 413.466C844.671 413.321 846.373 413.177 848.128 413.424C848.994 413.549 849.882 413.786 850.707 414.169C851.531 414.551 852.282 415.077 853.001 415.635C854.439 416.72 855.802 418.032 857.568 418.558C858.435 418.826 859.365 418.775 860.274 418.538C861.184 418.29 862.05 417.866 862.959 417.463C863.858 417.061 864.81 416.637 865.867 416.513C866.913 416.347 868.055 416.606 868.953 417.164C870.782 418.248 871.977 420.056 873.837 420.821C875.708 421.615 877.822 421.12 879.736 420.562C881.681 420.004 883.605 419.261 885.677 419.219C886.702 419.209 887.739 419.395 888.648 419.819C889.568 420.242 890.36 420.83 891.09 421.43C892.548 422.638 893.839 423.991 895.445 424.714C897.042 425.469 898.86 425.252 900.456 424.725C902.084 424.229 903.575 423.454 905.202 423.093C906.799 422.742 908.511 422.711 909.928 423.434C910.626 423.795 911.197 424.373 911.545 425.034C911.894 425.696 912.064 426.367 912.285 426.997C912.497 427.627 912.771 428.206 913.194 428.65C913.607 429.104 914.146 429.414 914.707 429.6C915.848 429.972 917.032 429.879 918.047 429.579C919.073 429.269 919.908 428.711 920.553 428.071C921.208 427.441 921.694 426.749 922.085 426.109C922.857 424.817 923.27 423.713 923.576 422.979C923.713 422.638 923.83 422.359 923.914 422.142C923.988 421.957 924.041 421.863 924.041 421.863C924.051 421.863 924.02 421.967 923.967 422.163C923.893 422.38 923.798 422.669 923.682 423.021C923.407 423.764 923.026 424.88 922.276 426.212C921.895 426.873 921.419 427.586 920.753 428.247C920.098 428.918 919.22 429.528 918.153 429.869C917.096 430.188 915.837 430.313 914.601 429.92C913.988 429.724 913.396 429.383 912.92 428.887C912.444 428.392 912.138 427.751 911.916 427.111C911.683 426.47 911.504 425.809 911.187 425.21C910.869 424.611 910.362 424.115 909.738 423.795C908.459 423.144 906.841 423.175 905.308 423.516C903.765 423.857 902.274 424.642 900.604 425.159C899.779 425.427 898.891 425.634 897.972 425.675C897.052 425.706 896.101 425.54 895.234 425.148C893.5 424.373 892.179 422.99 890.751 421.812C890.033 421.223 889.271 420.665 888.426 420.273C887.58 419.88 886.639 419.715 885.688 419.725C883.764 419.767 881.861 420.479 879.895 421.058C878.911 421.347 877.897 421.615 876.829 421.719C875.772 421.822 874.641 421.74 873.626 421.296C871.564 420.417 870.359 418.579 868.679 417.598C867.854 417.092 866.891 416.874 865.94 417.009C864.989 417.123 864.08 417.525 863.192 417.918C862.293 418.321 861.394 418.744 860.422 419.013C859.46 419.271 858.393 419.323 857.43 419.023C855.496 418.434 854.122 417.071 852.705 415.997C851.997 415.449 851.278 414.943 850.506 414.582C849.734 414.22 848.91 413.993 848.075 413.869C846.404 413.621 844.734 413.755 843.127 413.89C839.903 414.23 836.848 414.23 834.099 413.982C828.591 413.487 824.236 412.547 821.191 412.072C819.701 411.834 818.527 411.648 817.693 411.514C817.322 411.452 817.016 411.411 816.784 411.369C816.551 411.349 816.445 411.328 816.445 411.318Z" fill="#FAFAFA"/>
<path fill-rule="evenodd" clip-rule="evenodd" d="M815.501 480.829C815.501 480.818 815.606 480.777 815.806 480.705C816.038 480.623 816.343 480.521 816.732 480.387C817.542 480.11 818.731 479.688 820.288 479.195C821.845 478.722 823.76 478.096 826.095 477.869C827.273 477.746 828.557 478.034 829.788 478.466C831.029 478.887 832.313 479.432 833.732 479.565C835.153 479.699 836.615 479.246 838.046 478.61C839.487 477.993 840.96 477.171 842.685 476.791C844.421 476.411 846.273 476.636 848.051 477.099C849.839 477.561 851.585 478.25 853.427 478.774C855.247 479.298 857.214 479.657 859.139 479.257C861.075 478.866 862.873 477.849 864.841 477.089C865.83 476.708 866.882 476.4 868.007 476.359C869.122 476.308 870.269 476.606 871.227 477.181C873.152 478.301 874.53 480.12 876.54 480.849C877.528 481.199 878.611 481.178 879.643 480.921C880.674 480.674 881.662 480.243 882.651 479.801C883.64 479.369 884.629 478.918 885.681 478.63C886.733 478.332 887.891 478.239 888.963 478.568C890.047 478.866 890.91 479.585 891.636 480.305C892.372 481.024 893.024 481.795 893.771 482.411C895.233 483.737 897.296 483.911 899.126 483.5C900.988 483.14 902.735 482.442 904.523 481.979C905.417 481.774 906.322 481.559 907.248 481.579C908.152 481.568 909.099 481.743 909.867 482.195C910.677 482.586 911.288 483.254 911.772 483.922C912.255 484.6 912.634 485.309 913.023 485.987C913.781 487.322 914.717 488.555 916.085 488.977C917.41 489.419 918.831 489.131 919.977 488.586C921.134 488.042 922.102 487.281 922.849 486.439C924.322 484.733 925.101 482.894 925.889 481.507C926.647 480.089 927.331 479.041 927.867 478.383C928.404 477.725 928.761 477.438 928.761 477.438C928.783 477.458 928.467 477.777 927.962 478.445C927.457 479.123 926.805 480.171 926.079 481.599C925.321 482.997 924.585 484.847 923.08 486.634C922.312 487.508 921.323 488.309 920.125 488.885C918.936 489.46 917.431 489.799 915.958 489.326C914.454 488.874 913.423 487.518 912.655 486.182C911.855 484.856 911.13 483.315 909.646 482.576C908.215 481.743 906.364 481.979 904.649 482.421C902.903 482.873 901.157 483.593 899.231 483.973C898.274 484.168 897.254 484.261 896.233 484.086C895.718 484.034 895.233 483.819 894.74 483.644C894.266 483.418 893.834 483.12 893.435 482.792C892.635 482.134 891.972 481.363 891.257 480.665C890.541 479.966 889.753 479.318 888.795 479.061C887.848 478.774 886.817 478.856 885.818 479.133C884.818 479.411 883.851 479.852 882.862 480.284C881.873 480.716 880.863 481.168 879.759 481.435C878.664 481.712 877.444 481.743 876.339 481.353C874.12 480.521 872.742 478.661 870.932 477.633C870.038 477.099 869.028 476.842 868.007 476.873C866.987 476.903 865.987 477.191 865.02 477.561C863.094 478.301 861.275 479.329 859.223 479.74C857.172 480.161 855.11 479.771 853.258 479.226C851.396 478.682 849.649 477.993 847.903 477.53C846.168 477.078 844.4 476.852 842.759 477.202C841.118 477.551 839.666 478.342 838.193 478.958C836.741 479.596 835.184 480.068 833.669 479.904C832.165 479.75 830.871 479.174 829.64 478.753C828.409 478.311 827.221 478.024 826.084 478.136C823.801 478.322 821.876 478.918 820.32 479.36C818.794 479.822 817.594 480.191 816.732 480.459C816.343 480.572 816.038 480.654 815.796 480.726C815.617 480.818 815.512 480.839 815.501 480.829Z" fill="#FAFAFA"/>
<path fill-rule="evenodd" clip-rule="evenodd" d="M874.963 454.896C874.973 454.916 874.762 455.036 874.361 455.256C873.95 455.476 873.337 455.766 872.503 456.055C870.846 456.644 868.25 457.204 865.061 456.784C864.27 456.665 863.447 456.505 862.613 456.245C861.779 455.995 860.945 455.636 860.1 455.296C859.256 454.976 858.348 454.686 857.419 454.777C856.491 454.856 855.604 455.296 854.77 455.855C853.926 456.415 853.113 457.084 852.152 457.643C851.677 457.924 851.139 458.153 850.569 458.303C850.284 458.383 849.989 458.413 849.693 458.433C849.397 458.473 849.102 458.443 848.795 458.413C846.378 458.123 844.457 456.614 842.367 455.606C841.322 455.096 840.204 454.696 839.116 454.816L838.715 454.866C838.589 454.896 838.462 454.946 838.335 454.986C838.071 455.056 837.828 455.176 837.606 455.306C837.153 455.585 836.752 455.945 836.372 456.335C835.612 457.105 834.957 457.994 834.05 458.663C833.595 459.003 833.057 459.262 832.477 459.352C831.896 459.442 831.295 459.352 830.788 459.112C829.754 458.633 829.12 457.774 828.55 457.014C827.98 456.235 827.473 455.466 826.872 454.846C825.647 453.597 823.895 453.088 822.386 453.158C820.834 453.188 819.578 453.917 818.596 454.607C817.604 455.306 816.876 456.065 816.401 456.754C815.419 458.153 815.619 459.173 815.545 459.152C815.545 459.152 815.472 458.923 815.514 458.473C815.556 458.034 815.746 457.374 816.211 456.644C816.675 455.915 817.404 455.116 818.395 454.376C819.388 453.657 820.697 452.858 822.354 452.798C823.969 452.708 825.848 453.217 827.199 454.567C827.854 455.236 828.381 456.015 828.941 456.775C829.5 457.524 830.123 458.303 830.989 458.703C831.854 459.103 832.93 458.923 833.722 458.293C834.535 457.684 835.179 456.814 835.971 456.005C836.361 455.606 836.794 455.206 837.311 454.896C837.575 454.746 837.85 454.607 838.156 454.526C838.304 454.477 838.451 454.416 838.599 454.386L839.063 454.327C840.33 454.187 841.554 454.646 842.631 455.166C844.784 456.215 846.695 457.674 848.869 457.924C849.946 458.053 850.991 457.774 851.888 457.244C852.796 456.725 853.609 456.065 854.485 455.496C855.35 454.926 856.321 454.437 857.388 454.357C858.454 454.267 859.425 454.596 860.291 454.936C861.156 455.286 861.958 455.645 862.761 455.906C863.563 456.165 864.365 456.335 865.135 456.465C868.239 456.924 870.804 456.435 872.45 455.915C874.097 455.356 874.931 454.846 874.963 454.896Z" fill="#FAFAFA"/>
<path fill-rule="evenodd" clip-rule="evenodd" d="M816.445 509.03C816.445 509.021 816.561 509.051 816.762 509.111C816.877 509.141 817.005 509.181 817.142 509.231C817.3 509.261 817.48 509.282 817.691 509.312C818.526 509.412 819.783 509.181 821.23 508.498C822.698 507.885 824.346 506.739 826.649 506.227C827.229 506.106 827.842 506.086 828.476 506.146C829.11 506.237 829.733 506.438 830.325 506.729C831.518 507.312 832.564 508.196 833.726 509C834.867 509.795 836.24 510.498 837.782 510.367C839.314 510.257 840.761 509.473 842.324 508.809C843.106 508.478 843.941 508.166 844.838 508.016C845.736 507.865 846.676 507.905 847.584 508.066C849.412 508.388 851.134 509.131 852.951 509.603C854.757 510.116 856.722 510.095 858.644 509.684C860.577 509.291 862.478 508.568 864.422 507.865C866.366 507.161 868.384 506.438 870.57 506.177C872.746 505.855 875.059 506.277 877.087 507.161C879.137 508.005 881.006 509.101 882.982 509.855C884.935 510.618 887.059 510.93 889.013 510.387C892.964 509.312 895.837 506.267 899.587 505.091C901.435 504.468 903.485 504.498 905.227 505.061C907.002 505.593 908.524 506.508 909.96 507.392C911.386 508.286 912.727 509.192 914.09 509.925C915.453 510.668 916.847 511.201 918.231 511.502C921.03 512.086 923.692 511.805 925.868 511.202C928.055 510.578 929.776 509.603 931.044 508.679C933.59 506.769 934.339 505.121 934.424 505.202C934.435 505.202 934.382 505.302 934.266 505.472C934.128 505.673 933.959 505.935 933.748 506.257C933.23 506.9 932.459 507.875 931.17 508.84C929.903 509.804 928.171 510.83 925.953 511.483C923.744 512.126 921.03 512.447 918.146 511.874C916.71 511.573 915.262 511.04 913.879 510.287C912.484 509.543 911.133 508.649 909.706 507.764C908.281 506.9 906.78 506.006 905.079 505.513C903.4 504.98 901.499 504.96 899.745 505.563C897.971 506.126 896.334 507.171 894.654 508.206C892.974 509.242 891.221 510.347 889.151 510.9C887.07 511.483 884.777 511.151 882.77 510.357C880.743 509.583 878.873 508.488 876.866 507.664C874.88 506.81 872.735 506.417 870.634 506.719C868.531 506.96 866.546 507.664 864.602 508.367C862.658 509.071 860.736 509.795 858.74 510.197C856.764 510.618 854.673 510.638 852.803 510.096C850.933 509.603 849.222 508.859 847.479 508.538C846.613 508.377 845.736 508.337 844.901 508.468C844.067 508.598 843.264 508.889 842.493 509.211C840.961 509.855 839.462 510.659 837.803 510.779C836.124 510.91 834.634 510.126 833.494 509.312C832.321 508.488 831.296 507.603 830.166 507.041C829.606 506.759 829.015 506.558 828.434 506.477C827.842 506.417 827.261 506.428 826.712 506.538C824.494 507 822.824 508.106 821.325 508.709C819.857 509.372 818.547 509.583 817.691 509.443C817.48 509.402 817.29 509.382 817.131 509.342C816.983 509.282 816.857 509.242 816.751 509.192C816.54 509.081 816.445 509.041 816.445 509.03Z" fill="#FAFAFA"/>
<path fill-rule="evenodd" clip-rule="evenodd" d="M819.276 328.365C819.308 328.344 819.582 328.752 820.299 329.332C821.015 329.902 822.217 330.6 823.924 330.944C825.632 331.321 827.761 331.321 830.239 331.073C831.472 330.977 832.8 330.848 834.223 330.869C835.635 330.891 837.174 331.073 838.65 331.675C840.136 332.266 841.527 333.19 843.014 334.007C843.762 334.416 844.532 334.791 845.364 335.071C846.187 335.34 847.072 335.479 847.968 335.511C849.77 335.587 851.646 335.21 853.565 334.856C855.483 334.501 857.528 334.136 859.636 334.383C861.776 334.631 863.715 335.737 865.55 336.876C867.394 338.004 869.281 339.24 871.452 339.552C872.527 339.681 873.634 339.606 874.72 339.326C875.806 339.036 876.86 338.596 877.903 338.112C880 337.144 882.067 335.898 884.438 335.275C885.618 334.974 886.863 334.867 888.075 335.049C889.287 335.253 890.415 335.737 891.437 336.328C893.492 337.51 895.253 339.047 897.255 339.993C899.248 340.949 901.472 341.131 903.58 340.788C905.699 340.487 907.701 339.789 909.683 339.176C911.654 338.552 913.615 337.972 915.586 337.714C917.557 337.457 919.518 337.65 921.32 338.079C924.946 338.961 928.034 340.562 930.933 341.701C933.789 343.012 936.635 343.248 939.092 343.023C941.548 342.797 943.613 342.185 945.205 341.465C948.42 340.003 949.463 338.144 949.527 338.241C949.527 338.241 949.274 338.671 948.631 339.348C947.998 340.036 946.892 340.895 945.3 341.669C943.708 342.432 941.621 343.087 939.133 343.345C937.89 343.485 936.54 343.485 935.128 343.313C933.705 343.162 932.25 342.668 930.806 342.088C927.876 340.96 924.788 339.391 921.236 338.552C919.465 338.134 917.578 337.962 915.659 338.219C913.741 338.477 911.812 339.047 909.841 339.681C907.87 340.293 905.846 341.013 903.664 341.325C901.503 341.68 899.143 341.508 897.045 340.498C894.947 339.509 893.176 337.972 891.184 336.822C890.193 336.253 889.129 335.802 888.001 335.608C886.873 335.436 885.714 335.533 884.586 335.823C882.319 336.414 880.264 337.639 878.145 338.628C877.081 339.122 875.995 339.574 874.867 339.874C873.729 340.164 872.548 340.251 871.389 340.111C869.06 339.767 867.109 338.477 865.286 337.349C863.452 336.199 861.597 335.146 859.583 334.91C855.525 334.458 851.72 336.167 847.957 335.984C847.019 335.941 846.102 335.791 845.238 335.511C844.373 335.221 843.583 334.824 842.824 334.405C841.316 333.566 839.946 332.642 838.523 332.062C835.635 330.891 832.715 331.256 830.27 331.407C827.793 331.622 825.611 331.6 823.893 331.181C822.164 330.794 820.952 330.052 820.246 329.44C819.529 328.795 819.276 328.365 819.276 328.365Z" fill="#FAFAFA"/>
<g opacity="0.3">
<path opacity="0.3" fill-rule="evenodd" clip-rule="evenodd" d="M898.131 340.655L912.824 350.979C908.151 362.743 912.481 379.07 916.529 392.429C918.1 397.628 923.313 403.04 923.064 408.471C922.814 413.904 927.288 423.14 922.106 424.514C918.672 425.423 914.937 424.24 912.085 422.094C909.224 419.949 907.122 416.948 905.248 413.883C894.926 396.931 890.108 364.507 898.131 340.655Z" fill="black"/>
</g>
<path fill-rule="evenodd" clip-rule="evenodd" d="M819.276 499.926C819.276 499.905 819.479 499.926 819.85 499.988C820.285 500.06 820.816 500.163 821.463 500.275C822.939 500.553 824.945 500.913 827.386 501.365C832.386 502.269 839.318 503.441 847.003 504.479C854.699 505.516 861.684 506.226 866.757 506.678C869.231 506.894 871.258 507.068 872.766 507.192C873.424 507.254 873.966 507.305 874.4 507.346C874.772 507.387 874.974 507.418 874.963 507.438C874.963 507.459 874.761 507.459 874.39 507.459C873.955 507.449 873.413 507.428 872.755 507.407C871.333 507.356 869.273 507.233 866.736 507.058C861.652 506.709 854.646 506.051 846.939 505.013C839.243 503.975 832.312 502.742 827.323 501.745C824.828 501.241 822.811 500.81 821.431 500.481C820.794 500.327 820.263 500.203 819.839 500.1C819.468 499.998 819.276 499.946 819.276 499.926Z" fill="#263238"/>
<path fill-rule="evenodd" clip-rule="evenodd" d="M842.873 497.48C842.884 497.459 843.179 497.522 843.751 497.669C844.322 497.795 845.147 498.067 846.247 498.267C848.416 498.76 851.611 499.285 855.588 499.464C859.566 499.642 864.326 499.349 869.457 498.194C874.587 497.049 880.046 494.971 885.208 491.811C890.339 488.599 894.623 484.641 897.903 480.567C901.204 476.495 903.563 472.379 905.149 468.758C906.746 465.136 907.667 462.06 908.175 459.908C908.471 458.837 908.587 457.987 908.725 457.42C908.852 456.853 908.926 456.549 908.936 456.559C908.958 456.559 908.915 456.864 908.83 457.441C908.725 458.018 908.64 458.879 908.376 459.96C907.931 462.133 907.064 465.251 905.498 468.915C903.954 472.579 901.605 476.757 898.294 480.882C895.004 485.008 890.678 489.019 885.494 492.273C880.268 495.474 874.746 497.553 869.563 498.677C864.379 499.81 859.566 500.073 855.567 499.841C851.558 499.621 848.363 499.034 846.195 498.467C845.105 498.225 844.28 497.92 843.719 497.763C843.159 497.605 842.862 497.5 842.873 497.48Z" fill="#263238"/>
<path fill-rule="evenodd" clip-rule="evenodd" d="M852.534 312.477C852.554 312.477 852.554 312.742 852.554 313.239C852.554 313.789 852.544 314.519 852.544 315.418C852.565 317.301 852.523 320.083 853.337 323.34C853.775 324.949 854.423 326.694 855.591 328.269C856.718 329.867 858.346 331.231 860.256 332.289C862.166 333.357 864.368 334.119 866.695 334.627C869.022 335.145 871.495 335.409 874.031 335.346C879.093 335.24 883.872 333.812 887.587 331.464C891.334 329.137 893.869 325.879 895.372 322.907C896.864 319.892 897.313 317.142 897.407 315.27C897.469 313.388 897.282 312.34 897.344 312.34C897.365 312.34 897.407 312.594 897.48 313.091C897.564 313.588 897.605 314.329 897.616 315.281C897.584 317.174 897.198 319.987 895.717 323.076C894.234 326.133 891.678 329.486 887.859 331.897C884.08 334.33 879.207 335.801 874.052 335.896C871.475 335.959 868.959 335.695 866.59 335.155C864.221 334.637 861.988 333.844 860.027 332.733C858.064 331.633 856.384 330.206 855.236 328.545C854.036 326.905 853.389 325.096 852.972 323.446C852.189 320.104 852.304 317.311 852.335 315.418C852.367 314.466 852.419 313.737 852.45 313.239C852.481 312.742 852.513 312.477 852.534 312.477Z" fill="#263238"/>
<path fill-rule="evenodd" clip-rule="evenodd" d="M845.704 315.168C845.704 315.168 820.314 316.131 814.282 341.573C807.3 371.037 811.516 403.526 820.293 419.797L820.711 390.816C820.992 370.702 825.824 350.924 834.83 332.946L845.704 315.168Z" fill="#455A64"/>
<path fill-rule="evenodd" clip-rule="evenodd" d="M815.689 398.117C815.668 398.117 815.647 397.813 815.626 397.226C815.606 396.597 815.584 395.748 815.543 394.678C815.501 393.567 815.479 392.215 815.532 390.643C815.574 389.071 815.564 387.278 815.71 385.297C815.773 384.301 815.836 383.274 815.899 382.194C815.972 381.114 816.108 379.993 816.213 378.84C816.412 376.512 816.789 374.049 817.146 371.449C817.984 366.27 819.146 360.621 820.771 354.782C822.436 348.953 824.396 343.523 826.386 338.67C827.434 336.269 828.398 333.963 829.446 331.887C829.959 330.839 830.421 329.812 830.934 328.858C831.436 327.904 831.929 326.992 832.401 326.112C833.301 324.351 834.255 322.82 835.041 321.458C835.827 320.095 836.549 318.942 837.167 318.019C837.754 317.128 838.226 316.415 838.571 315.891C838.896 315.409 839.075 315.157 839.095 315.168C839.116 315.179 838.959 315.451 838.665 315.954C838.341 316.499 837.901 317.223 837.356 318.135C836.77 319.078 836.068 320.231 835.313 321.615C834.548 322.988 833.626 324.518 832.746 326.29C832.296 327.17 831.814 328.093 831.321 329.047C830.829 330.011 830.378 331.039 829.865 332.087C828.838 334.173 827.895 336.468 826.858 338.869C824.899 343.712 822.96 349.132 821.305 354.939C819.692 360.746 818.508 366.375 817.648 371.533C817.271 374.122 816.884 376.575 816.663 378.892C816.549 380.045 816.402 381.166 816.318 382.235C816.244 383.316 816.171 384.343 816.098 385.328C815.92 387.299 815.909 389.091 815.836 390.664C815.762 392.236 815.752 393.589 815.762 394.7C815.752 395.769 815.742 396.618 815.742 397.247C815.72 397.813 815.71 398.117 815.689 398.117Z" fill="#263238"/>
<path fill-rule="evenodd" clip-rule="evenodd" d="M827.768 320.824C827.789 320.834 827.676 321.064 827.471 321.504C827.224 321.986 826.916 322.624 826.516 323.409C825.663 325.042 824.513 327.46 823.167 330.475C822.52 331.992 821.77 333.646 821.102 335.468C820.763 336.378 820.372 337.31 820.033 338.283C819.694 339.267 819.355 340.272 818.996 341.308C817.64 345.463 816.366 350.1 815.38 355.051C813.449 364.974 813.048 374.165 813.069 380.79C813.089 384.108 813.151 386.788 813.244 388.641C813.274 389.519 813.295 390.231 813.316 390.775C813.325 391.267 813.325 391.519 813.305 391.519C813.284 391.519 813.253 391.267 813.213 390.775C813.172 390.231 813.11 389.53 813.038 388.641C812.884 386.788 812.761 384.098 812.689 380.78C812.576 374.143 812.915 364.901 814.857 354.926C815.843 349.944 817.147 345.285 818.534 341.12C818.894 340.083 819.253 339.078 819.592 338.094C819.941 337.121 820.342 336.19 820.691 335.279C821.379 333.458 822.16 331.814 822.828 330.297C824.225 327.293 825.427 324.896 826.341 323.284C826.773 322.52 827.121 321.902 827.379 321.42C827.615 321.033 827.759 320.814 827.768 320.824Z" fill="#263238"/>
<path fill-rule="evenodd" clip-rule="evenodd" d="M928.762 324.098C928.762 324.098 911.766 370.974 924.29 410.528L924.976 424.51C924.976 424.51 915.397 423.846 908.136 409.97C900.886 396.093 898.535 381.774 896.081 361.144C893.625 340.514 904.787 314.225 904.787 314.225C904.787 314.225 924.591 318.619 928.762 324.098Z" fill="#455A64"/>
<path fill-rule="evenodd" clip-rule="evenodd" d="M925.929 423.566C925.929 423.576 925.843 423.534 925.668 423.451C925.472 423.346 925.233 423.21 924.927 423.052C924.295 422.675 923.39 422.057 922.377 421.104C920.328 419.207 918.116 415.729 916.732 411.035C916.002 408.698 915.458 406.079 914.988 403.261C914.477 400.453 914.062 397.425 913.692 394.229C912.973 387.848 912.591 380.786 912.755 373.379C912.918 365.971 913.615 358.931 914.64 352.581C915.653 346.242 916.896 340.564 918.345 335.912C919.783 331.249 921.505 327.656 922.911 325.287C923.619 324.103 924.218 323.223 924.644 322.637C924.851 322.364 925.015 322.155 925.145 321.977C925.265 321.83 925.319 321.756 925.33 321.767C925.342 321.778 925.287 321.851 925.189 322.008C925.069 322.186 924.927 322.417 924.742 322.699C924.35 323.297 923.772 324.198 923.107 325.392C921.767 327.771 920.11 331.364 918.737 336.016C917.343 340.658 916.154 346.326 915.163 352.655C914.182 358.983 913.496 366.003 913.332 373.389C913.169 380.776 913.529 387.817 914.215 394.177C914.575 397.362 914.967 400.379 915.458 403.187C915.904 406.006 916.427 408.604 917.125 410.919C918.454 415.582 920.568 419.029 922.541 420.946C924.491 422.885 925.984 423.482 925.929 423.566Z" fill="#263238"/>
<path fill-rule="evenodd" clip-rule="evenodd" d="M924.987 423.565C924.987 423.576 924.89 423.544 924.698 423.47C924.484 423.386 924.205 423.27 923.874 423.133C923.167 422.784 922.129 422.256 920.929 421.369C918.51 419.616 915.599 416.342 912.965 411.749C910.429 407.124 907.517 401.517 905.301 394.885C903.021 388.296 901.19 380.809 900.248 372.826C899.296 364.844 899.317 357.145 899.97 350.207C900.558 343.259 901.993 337.113 903.353 332.035C904.113 329.51 904.755 327.209 905.537 325.266C906.275 323.302 906.853 321.591 907.495 320.271C908.084 318.951 908.555 317.916 908.887 317.177C909.037 316.85 909.165 316.586 909.261 316.375C909.347 316.195 909.4 316.11 909.411 316.11C909.422 316.11 909.39 316.216 909.315 316.396C909.229 316.607 909.122 316.881 908.994 317.219C908.683 317.969 908.245 319.015 907.699 320.345C907.088 321.686 906.542 323.397 905.836 325.36C905.086 327.314 904.476 329.606 903.738 332.129C902.421 337.209 901.041 343.323 900.483 350.239C899.873 357.145 899.863 364.801 900.805 372.742C901.747 380.683 903.545 388.138 905.793 394.695C907.967 401.295 910.835 406.903 913.308 411.527C915.877 416.11 918.713 419.384 921.068 421.168C922.236 422.077 923.241 422.626 923.927 423.006C924.259 423.164 924.516 423.291 924.73 423.396C924.901 423.513 924.987 423.565 924.987 423.565Z" fill="#263238"/>
<path fill-rule="evenodd" clip-rule="evenodd" d="M916.519 342.503L927.819 345.335L926.177 349.102L915.549 347.081L916.519 342.503Z" fill="#263238"/>
<path fill-rule="evenodd" clip-rule="evenodd" d="M917.44 345.637C917.38 345.57 917.974 344.803 918.941 343.658L919.122 343.446L919.263 343.702C919.676 344.413 920.109 345.159 920.552 345.937L920.209 345.837C920.592 345.592 920.985 345.348 921.388 345.092C921.811 344.836 922.214 344.591 922.606 344.347L922.828 344.214L922.949 344.458C923.352 345.281 923.734 346.06 924.106 346.805L923.834 346.716C925.083 346.015 925.899 345.615 925.929 345.693C925.97 345.771 925.235 346.315 924.026 347.105L923.855 347.216L923.744 347.016C923.352 346.282 922.938 345.526 922.495 344.725L922.838 344.836C922.445 345.081 922.042 345.336 921.629 345.592C921.216 345.849 920.824 346.082 920.442 346.327L920.22 346.46L920.099 346.226C919.676 345.426 919.273 344.659 918.891 343.935L919.213 343.98C918.186 345.047 917.49 345.703 917.44 345.637Z" fill="#E8505B"/>
<path fill-rule="evenodd" clip-rule="evenodd" d="M965.572 420.858V460.065C965.572 467.219 962.364 473.994 956.831 478.525C950.088 484.035 940.874 485.427 932.817 482.129L846.648 443.87L855.084 415.084L924.402 437.969L924.318 420.12L965.572 420.858Z" fill="#845D47"/>
<path fill-rule="evenodd" clip-rule="evenodd" d="M835.322 425.758L829.841 367.011L755.095 373.304L760.574 432.051L835.322 425.758Z" fill="white"/>
<path fill-rule="evenodd" clip-rule="evenodd" d="M831.546 422.621L827.596 370.781L758.87 376.441L762.821 428.28L831.546 422.621Z" fill="#D2ECFF"/>
<path fill-rule="evenodd" clip-rule="evenodd" d="M768.356 418.854L803.231 415.706L803.186 415.084L768.309 418.226L768.356 418.854Z" fill="#AEC3FF"/>
<path fill-rule="evenodd" clip-rule="evenodd" d="M825.883 386.849L825.839 386.175L818.333 386.849L818.378 387.515L825.883 386.849Z" fill="#AEC3FF"/>
<path fill-rule="evenodd" clip-rule="evenodd" d="M825.883 388.195L825.839 387.522L818.333 388.195L818.378 388.862L825.883 388.195Z" fill="#AEC3FF"/>
<path fill-rule="evenodd" clip-rule="evenodd" d="M825.883 389.542L825.839 388.869L818.333 389.542L818.378 390.208L825.883 389.542Z" fill="#AEC3FF"/>
<path fill-rule="evenodd" clip-rule="evenodd" d="M825.883 390.889L825.839 390.215L818.333 390.889L818.378 391.555L825.883 390.889Z" fill="#AEC3FF"/>
<path fill-rule="evenodd" clip-rule="evenodd" d="M825.883 392.235L825.839 391.562L818.333 392.235L818.378 392.902L825.883 392.235Z" fill="#AEC3FF"/>
<path fill-rule="evenodd" clip-rule="evenodd" d="M825.883 393.582L825.839 392.908L818.333 393.582L818.378 394.248L825.883 393.582Z" fill="#AEC3FF"/>
<path fill-rule="evenodd" clip-rule="evenodd" d="M768.356 420.739L803.231 417.591L803.186 416.969L768.309 420.111L768.356 420.739Z" fill="#AEC3FF"/>
<path fill-rule="evenodd" clip-rule="evenodd" d="M768.418 412.256L788.13 410.699L788.021 409.428L768.309 410.985L768.418 412.256Z" fill="#AEC3FF"/>
<path fill-rule="evenodd" clip-rule="evenodd" d="M806.479 372.5L807.112 377.792L807.703 377.774L807.07 372.481L806.479 372.5Z" fill="#AEC3FF"/>
<path fill-rule="evenodd" clip-rule="evenodd" d="M805.164 372.5L805.796 377.792L806.388 377.774L805.755 372.481L805.164 372.5Z" fill="#AEC3FF"/>
<path fill-rule="evenodd" clip-rule="evenodd" d="M803.848 372.5L804.481 377.792L805.073 377.774L804.44 372.481L803.848 372.5Z" fill="#AEC3FF"/>
<path fill-rule="evenodd" clip-rule="evenodd" d="M768.411 415.084L790.961 413.391L790.858 412.256L768.309 413.954L768.411 415.084Z" fill="#AEC3FF"/>
<path fill-rule="evenodd" clip-rule="evenodd" d="M773.882 390.233C773.882 390.233 774.64 387.61 777.094 387.516C779.548 387.422 784.921 390.139 787.999 388.421C791.077 386.702 792.461 381.716 796.375 381.141C800.289 380.565 799.502 384.422 802.877 386.283C806.252 388.143 806.468 387.227 807.609 386.688C808.75 386.148 806.102 388.232 804.244 387.944C802.385 387.657 797.991 384.417 796.174 384.526C794.358 384.635 793.448 385.058 789.939 387.971C786.43 390.883 785.873 390.121 784.222 390.295C782.571 390.468 777.441 388.546 776.2 388.84C774.959 389.135 773.882 390.233 773.882 390.233Z" fill="#D92840"/>
<path fill-rule="evenodd" clip-rule="evenodd" d="M771.323 395.546C771.323 395.546 774.446 390.992 778.389 390.499C782.331 390.006 782.528 393.194 785.677 392.785C788.827 392.376 792.242 388.182 793.616 387.099C794.99 386.015 797.933 385.706 800.379 388.11C802.824 390.513 804.659 390.086 806.02 389.629C807.382 389.173 804.944 391.308 801.495 389.792C798.047 388.276 795.572 387.832 793.803 388.879C792.033 389.926 786.509 393.245 786.509 393.245C786.509 393.245 783.292 394.679 781.653 393.99C780.015 393.302 779.436 392.267 777.304 392.1C775.172 391.933 771.323 395.546 771.323 395.546Z" fill="white"/>
<path fill-rule="evenodd" clip-rule="evenodd" d="M772.405 395.925C772.405 395.925 774.495 393.038 775.969 392.64C777.443 392.243 778.995 394.101 780.088 394.633C781.181 395.165 783.766 395.459 785.953 394.259C788.141 393.059 792.213 390.044 794.451 389.324C796.689 388.603 798.335 389.077 800.239 390.494C802.143 391.91 802.56 392.837 803.757 393.6C804.954 394.364 806.606 394.19 806.606 394.19C806.606 394.19 803.812 394.888 801.801 393.968C799.789 393.047 797.451 390.544 794.839 390.738C792.226 390.932 789.891 393.764 788.65 394.865C787.409 395.965 785.853 397.099 783.514 396.86C781.175 396.62 777.865 393.977 775.734 394.201C773.604 394.425 772.405 395.925 772.405 395.925Z" fill="#006FAB"/>
<path fill-rule="evenodd" clip-rule="evenodd" d="M761.702 379.453L770.092 378.322L771.14 388.502L762.751 389.634L761.702 379.453Z" fill="white"/>
<path fill-rule="evenodd" clip-rule="evenodd" d="M816.445 373.798L824.835 372.667L825.995 379.158L817.389 380.207L816.445 373.798Z" fill="white"/>
<path fill-rule="evenodd" clip-rule="evenodd" d="M858.918 418.653L853.036 411.361C849.157 406.556 843.316 403.773 837.137 403.773H831.996L828.489 407.71C828.489 407.71 803.326 408.8 802.404 411.9L802.383 412.905L802.372 413.488L823.888 414.938C823.888 414.938 805.584 414.885 804.481 414.916C803.273 414.959 799.373 414.61 799.457 416.758C799.521 418.525 801.609 419.912 804.778 420.378C806.082 420.568 821.938 421.943 821.938 421.943C821.938 421.943 805.287 421.785 804.481 421.785C802.521 421.774 802.775 424.907 803.93 425.298C804.853 425.605 827.206 432.124 827.206 432.124C827.206 432.124 823.443 434.643 820.38 434.421C817.306 434.199 812.049 430.261 810.958 432.124C809.866 433.987 810.078 435.077 810.735 435.521C811.392 435.955 818.631 439.681 821.037 440.337C823.443 440.992 843.136 444.104 843.136 444.104L850.238 445.247L858.918 418.653Z" fill="#845D47"/>
<path fill-rule="evenodd" clip-rule="evenodd" d="M751.32 410.371C751.32 410.371 750.538 411.738 752.758 413.611C752.758 413.611 750.022 414.29 751.727 418.883C751.727 418.883 749.843 423.642 754.978 425.683C754.978 425.683 753.61 429.594 758.566 431.467C763.521 433.339 768.309 430.107 768.309 430.107C768.309 430.107 756.714 409.428 753.207 409.428C752.263 409.428 751.32 409.428 751.32 410.371Z" fill="#845D47"/>
<path fill-rule="evenodd" clip-rule="evenodd" d="M753.426 409.428C756.913 410.428 760.733 411.228 763.959 412.528C765.023 412.961 766.067 412.983 766.767 413.928C767.466 414.872 767.633 416.383 766.829 417.238C766.119 417.982 764.992 417.971 764 417.849C760.284 417.371 756.725 416.016 753.207 414.661" fill="#845D47"/>
<path fill-rule="evenodd" clip-rule="evenodd" d="M754.371 415.084C757.857 416.084 761.677 416.884 764.902 418.184C765.967 418.617 767.011 418.639 767.711 419.583C768.41 420.527 768.577 422.039 767.773 422.893C767.063 423.638 765.936 423.627 764.944 423.505C761.228 423.027 757.669 421.671 754.151 420.316" fill="#845D47"/>
<path fill-rule="evenodd" clip-rule="evenodd" d="M756.258 420.74C759.744 421.739 763.564 422.54 766.791 423.839C767.855 424.272 768.899 424.294 769.598 425.239C770.298 426.183 770.465 427.694 769.661 428.55C768.951 429.293 767.824 429.283 766.832 429.16C763.116 428.683 759.557 427.328 756.039 425.972" fill="#845D47"/>
<path fill-rule="evenodd" clip-rule="evenodd" d="M753.208 414.156C753.271 414.025 755.749 414.788 758.871 415.552C761.981 416.324 764.565 416.798 764.533 416.938C764.512 417.068 761.876 416.798 758.723 416.017C755.57 415.245 753.155 414.267 753.208 414.156Z" fill="#5D4436"/>
<path fill-rule="evenodd" clip-rule="evenodd" d="M752.264 419.812C752.319 419.666 755.245 420.596 758.887 421.62C762.529 422.654 765.51 423.386 765.477 423.542C765.445 423.689 762.399 423.188 758.735 422.143C755.061 421.118 752.21 419.948 752.264 419.812Z" fill="#5D4436"/>
<path fill-rule="evenodd" clip-rule="evenodd" d="M755.095 426.418C755.128 426.28 757.909 426.792 761.295 427.558C764.682 428.325 767.397 429.063 767.365 429.201C767.332 429.338 764.551 428.827 761.165 428.06C757.767 427.293 755.052 426.555 755.095 426.418Z" fill="#5D4436"/>
<path fill-rule="evenodd" clip-rule="evenodd" d="M752.264 409.442C752.317 409.292 755.423 410.363 759.327 411.38C763.231 412.418 766.442 413.006 766.421 413.167C766.41 413.241 765.591 413.188 764.269 412.985C762.958 412.781 761.152 412.428 759.18 411.915C757.218 411.401 755.465 410.812 754.226 410.341C752.988 409.87 752.243 409.506 752.264 409.442Z" fill="#5D4436"/>
<path fill-rule="evenodd" clip-rule="evenodd" d="M820.22 408.07C820.22 407.876 824.235 407.682 829.187 407.654C834.138 407.627 838.153 407.751 838.153 407.959C838.153 408.153 834.138 408.347 829.187 408.375C824.235 408.402 820.22 408.278 820.22 408.07Z" fill="#5D4436"/>
<path fill-rule="evenodd" clip-rule="evenodd" d="M920.268 436.78C920.279 436.737 920.567 436.78 921.104 436.877C921.64 436.963 922.394 437.166 923.322 437.466C925.169 438.054 927.646 439.178 930.081 440.923C932.517 442.678 934.394 444.702 935.571 446.286C936.159 447.078 936.603 447.752 936.871 448.234C937.149 448.716 937.284 448.994 937.253 449.016C937.18 449.069 936.52 448.041 935.272 446.543C934.033 445.044 932.155 443.117 929.772 441.394C927.388 439.681 924.984 438.525 923.199 437.851C921.403 437.145 920.248 436.866 920.268 436.78Z" fill="#5D4436"/>
<path fill-rule="evenodd" clip-rule="evenodd" d="M873.138 333.952C861.768 333.045 853.186 323.237 853.754 311.815C854.153 303.8 854.564 296.575 854.564 296.575C854.564 296.575 837.431 293.907 837.22 276.727C837.01 259.546 839.976 220.103 839.976 220.103C859.812 211.56 882.698 214.439 899.8 227.644L902.335 229.605L895.845 314.494C894.952 326.159 884.77 334.88 873.138 333.952Z" fill="#845D47"/>
<path fill-rule="evenodd" clip-rule="evenodd" d="M854.241 296.285C854.241 296.285 865.2 297.2 876.851 289.717C876.851 289.717 871.505 302.482 854.199 300.891L854.241 296.285Z" fill="#5D4436"/>
<path fill-rule="evenodd" clip-rule="evenodd" d="M844.761 246.696C844.721 247.997 845.737 249.107 847.039 249.182C848.339 249.256 849.427 248.261 849.478 246.96C849.519 245.66 848.503 244.549 847.201 244.475C845.89 244.412 844.802 245.406 844.761 246.696Z" fill="black"/>
<path fill-rule="evenodd" clip-rule="evenodd" d="M843.853 244.421C844.151 244.761 845.951 243.288 848.509 243.3C851.066 243.266 852.948 244.727 853.224 244.376C853.357 244.217 853.061 243.606 852.242 242.937C851.434 242.28 850.063 241.645 848.468 241.645C846.872 241.656 845.531 242.302 844.764 242.971C843.977 243.64 843.71 244.263 843.853 244.421Z" fill="black"/>
<path fill-rule="evenodd" clip-rule="evenodd" d="M869.301 247.639C869.261 248.94 870.277 250.05 871.579 250.124C872.879 250.198 873.967 249.204 874.018 247.904C874.059 246.603 873.043 245.493 871.741 245.419C870.44 245.345 869.342 246.339 869.301 247.639Z" fill="black"/>
<path fill-rule="evenodd" clip-rule="evenodd" d="M869.337 244.421C869.634 244.761 871.434 243.288 873.992 243.3C876.549 243.266 878.432 244.727 878.708 244.376C878.841 244.217 878.545 243.606 877.726 242.937C876.918 242.28 875.547 241.645 873.951 241.645C872.355 241.656 871.015 242.302 870.237 242.971C869.46 243.64 869.194 244.263 869.337 244.421Z" fill="black"/>
<path fill-rule="evenodd" clip-rule="evenodd" d="M859.628 264.162C859.638 264.017 858.088 263.738 855.557 263.407C854.917 263.334 854.317 263.211 854.207 262.755C854.057 262.279 854.327 261.565 854.637 260.8C855.237 259.196 855.867 257.52 856.528 255.761C859.148 248.59 861.059 242.692 860.778 242.589C860.499 242.485 858.148 248.207 855.517 255.378C854.887 257.147 854.277 258.834 853.707 260.448C853.466 261.203 853.047 262.051 853.377 263.045C853.547 263.541 854.017 263.893 854.427 264.007C854.837 264.131 855.197 264.142 855.517 264.162C858.048 264.297 859.618 264.307 859.628 264.162Z" fill="black"/>
<path fill-rule="evenodd" clip-rule="evenodd" d="M867.007 266.153C866.592 266.132 866.592 268.973 864.231 270.997C861.879 273.02 858.94 272.705 858.92 273.103C858.879 273.282 859.578 273.659 860.815 273.69C862.031 273.732 863.804 273.334 865.244 272.097C866.683 270.86 867.301 269.204 867.392 268.029C867.494 266.845 867.19 266.132 867.007 266.153Z" fill="black"/>
<path fill-rule="evenodd" clip-rule="evenodd" d="M868.371 234.339C868.64 235.106 871.323 234.744 874.468 235.139C877.624 235.466 880.168 236.435 880.586 235.748C880.769 235.421 880.328 234.7 879.298 233.955C878.278 233.211 876.658 232.513 874.758 232.287C872.869 232.072 871.13 232.388 869.981 232.873C868.833 233.369 868.254 233.967 868.371 234.339Z" fill="black"/>
<path fill-rule="evenodd" clip-rule="evenodd" d="M843.889 236.686C844.372 237.253 846.263 236.665 848.548 236.636C850.823 236.536 852.757 237.014 853.197 236.426C853.395 236.138 853.087 235.57 852.242 235.032C851.406 234.495 850.021 234.066 848.45 234.106C846.89 234.156 845.527 234.664 844.736 235.242C843.944 235.829 843.67 236.417 843.889 236.686Z" fill="black"/>
<path fill-rule="evenodd" clip-rule="evenodd" d="M900.177 246.898C900.477 246.771 912.138 243.412 911.764 255.143C911.379 266.874 899.515 264.073 899.504 263.737C899.482 263.399 900.177 246.898 900.177 246.898Z" fill="#845D47"/>
<path fill-rule="evenodd" clip-rule="evenodd" d="M903.292 260.394C903.347 260.362 903.502 260.544 903.857 260.714C904.211 260.885 904.809 261.002 905.462 260.799C906.779 260.383 907.942 258.42 908.075 256.275C908.141 255.198 907.942 254.162 907.577 253.298C907.234 252.412 906.669 251.794 906.016 251.655C905.373 251.495 904.886 251.858 904.731 252.189C904.554 252.519 904.62 252.754 904.554 252.775C904.521 252.807 904.299 252.573 904.41 252.082C904.465 251.847 904.62 251.57 904.919 251.356C905.219 251.132 905.661 251.025 906.115 251.089C907.068 251.186 907.887 252.049 908.297 253C908.751 253.96 909.005 255.123 908.928 256.339C908.773 258.73 907.422 260.928 905.628 261.376C904.753 261.568 904.034 261.291 903.679 261.002C903.303 260.682 903.247 260.415 903.292 260.394Z" fill="#5D4436"/>
<path fill-rule="evenodd" clip-rule="evenodd" d="M833.222 205.057C835.721 200.118 840.571 196.437 845.991 195.401C851.409 194.353 857.282 195.961 861.425 199.621C864.019 194.438 869.29 190.683 875.026 189.942C880.762 189.192 886.814 191.476 890.641 195.824C893.93 199.567 895.638 204.644 899.497 207.796C902.839 210.525 907.362 211.424 910.715 214.132C914.415 217.104 916.25 222.223 915.301 226.887C914.352 231.541 910.652 235.529 906.086 236.809C909.766 243.472 906.319 253.034 899.234 255.784L897.525 255.075C891.031 247.925 889.544 236.629 893.972 228.03C893.761 228.041 893.561 228.009 893.361 227.998C891.105 229.236 888.501 229.86 885.928 229.701C881.827 229.458 877.873 227.258 875.49 223.894C870.799 227.289 864.083 227.575 859.127 224.582C858.347 224.106 857.567 223.556 856.66 223.461C855.584 223.344 854.562 223.905 853.581 224.381C851.009 225.65 848.109 226.475 845.273 226.063C842.627 225.682 840.076 224.021 839.031 221.578C838.968 221.567 838.905 221.567 838.842 221.557C835.531 220.954 832.875 218.119 831.967 214.872C831.051 211.625 831.704 208.071 833.222 205.057Z" fill="black"/>
<path fill-rule="evenodd" clip-rule="evenodd" d="M789.071 176.618C789.12 173.077 788.376 169.571 786.893 166.348L778.719 175.469C778.817 176.159 778.87 176.855 778.877 177.551C778.887 181.02 777.731 184.394 775.59 187.142C773.45 189.889 770.448 191.854 767.056 192.727C763.664 193.6 760.075 193.33 756.854 191.962C753.633 190.594 750.964 188.204 749.266 185.169C747.568 182.134 746.939 178.626 747.477 175.197C748.014 171.769 749.689 168.616 752.237 166.233C754.784 163.851 758.059 162.374 761.548 162.037C765.036 161.7 768.539 162.521 771.504 164.371L778.405 156.665C774.213 153.642 769.602 152.101 763.39 152.101C757.351 151.999 751.467 153.994 746.758 157.739C739.954 162.925 737.162 171.076 737.162 176.077C737.162 177.321 737.237 178.522 737.35 179.692C737.437 182.341 738.058 184.946 739.176 187.354C739.34 187.746 739.52 188.095 739.707 188.517C744.542 198.63 755.568 209.173 760.576 214.982C760.879 215.36 761.265 215.666 761.704 215.875C762.144 216.086 762.625 216.194 763.113 216.194C763.601 216.194 764.082 216.086 764.522 215.875C764.961 215.666 765.347 215.36 765.651 214.982C772.148 207.44 788.854 191.881 788.854 179.692C788.854 179.604 788.854 179.522 788.854 179.441C788.986 178.505 789.058 177.563 789.071 176.618Z" fill="#041B54"/>
<path fill-rule="evenodd" clip-rule="evenodd" d="M758.882 170.814L753.207 176.176L764.438 187.916L785.298 164.551C784.113 162.685 782.675 160.991 781.022 159.517C780.708 159.226 780.385 158.972 780.07 158.695L764.241 176.423L758.882 170.814Z" fill="#FF0029"/>
</svg>
