<svg viewBox="0 0 375 256" fill="none" xmlns="http://www.w3.org/2000/svg">
<path fill-rule="evenodd" clip-rule="evenodd" d="M-17.2875 254.891C-17.2875 254.891 -65.0942 213.23 -55.8018 144.63C-46.1799 73.599 4.4035 35.8077 70.3938 50.1508C124.334 61.8749 159.085 54.3545 214.864 20.8407C306.335 -34.1158 424.233 25.3812 393.389 131.863C378.463 183.394 441.106 208.855 388.671 255L-17.2875 254.891Z" fill="#EBF3FA"/>
<path fill-rule="evenodd" clip-rule="evenodd" d="M209.283 215.395H205.301V225.053H209.283V215.395Z" fill="#E0E0E0"/>
<path fill-rule="evenodd" clip-rule="evenodd" d="M202.458 104.604C202.439 104.591 202.631 104.329 202.991 103.861C203.382 103.355 203.902 102.695 204.517 101.9C205.807 100.241 207.577 97.9467 209.457 95.3585C211.343 92.7699 212.991 90.3861 214.165 88.65C214.73 87.817 215.204 87.1249 215.564 86.5931C215.897 86.1063 216.09 85.85 216.109 85.8561C216.128 85.8691 215.968 86.1511 215.666 86.6572C215.365 87.1632 214.916 87.8811 214.345 88.7651C213.21 90.5338 211.587 92.9429 209.701 95.5315C207.815 98.1263 206.018 100.401 204.684 102.028C204.017 102.836 203.472 103.489 203.08 103.931C202.695 104.38 202.478 104.617 202.458 104.604Z" fill="#E0E0E0"/>
<path fill-rule="evenodd" clip-rule="evenodd" d="M311.681 198.066C311.681 199.165 310.791 200.055 309.691 200.055C308.59 200.055 307.699 199.165 307.699 198.066C307.699 196.968 308.59 196.078 309.691 196.078C310.791 196.078 311.681 196.968 311.681 198.066Z" fill="#E0E0E0"/>
<path fill-rule="evenodd" clip-rule="evenodd" d="M309.691 202.332C309.574 202.332 309.473 201.441 309.473 200.347C309.473 199.246 309.574 198.355 309.691 198.355C309.807 198.355 309.908 199.246 309.908 200.347C309.908 201.441 309.807 202.332 309.691 202.332Z" fill="#E0E0E0"/>
<path fill-rule="evenodd" clip-rule="evenodd" d="M200.18 216.415L244.07 193.812L309.407 232.385L293.841 246.081H238.086L200.18 222.834V216.415Z" fill="#EBEBEB"/>
<path fill-rule="evenodd" clip-rule="evenodd" d="M252.516 191.883L306.767 223.918L312.818 223.236V192.433L283.085 176.762L252.516 191.883Z" fill="#EBEBEB"/>
<path fill-rule="evenodd" clip-rule="evenodd" d="M261.621 161.114L312.821 189.83V152.291L294.296 144.379L261.621 161.114Z" fill="#EBEBEB"/>
<path fill-rule="evenodd" clip-rule="evenodd" d="M207.008 176.805L237.078 193.243L273.568 174.412L244.578 159.722L207.008 176.805Z" fill="#EBEBEB"/>
<path fill-rule="evenodd" clip-rule="evenodd" d="M251.949 120.503L294.614 141.537L314.4 131.486L314.527 117.387L285.708 103.472L251.949 120.503Z" fill="#EBEBEB"/>
<path fill-rule="evenodd" clip-rule="evenodd" d="M208.145 138.677L250.809 159.712L270.595 149.66L270.722 135.561L241.897 121.646L208.145 138.677Z" fill="#EBEBEB"/>
<path fill-rule="evenodd" clip-rule="evenodd" d="M214.402 101.019L249.134 118.24L281.531 101.019L247.964 85.856L214.402 101.019Z" fill="#EBEBEB"/>
<path fill-rule="evenodd" clip-rule="evenodd" d="M280.975 211.987C280.969 212 280.753 211.892 280.348 211.67C279.943 211.441 279.342 211.106 278.557 210.662C276.987 209.755 274.676 208.417 271.695 206.687C265.732 203.188 257.079 198.103 246.273 191.757L245.748 191.446L246.299 191.168C255.756 186.35 267.074 180.587 279.646 174.184L279.639 174.951C271.929 170.837 263.529 166.354 254.737 161.657L253.952 161.238L254.743 160.82C265.568 155.127 277.246 148.99 289.337 142.638L289.343 143.519C288.039 142.86 286.628 142.144 285.216 141.427C256.231 126.7 229.41 113.07 207.736 102.058L207.008 101.691L207.742 101.342C224.891 93.1511 239.013 86.4056 248.856 81.7018C253.781 79.3752 257.636 77.5621 260.269 76.3192C261.586 75.7172 262.592 75.248 263.276 74.9374C263.612 74.7917 263.871 74.6774 264.048 74.595C264.226 74.5191 264.314 74.4872 264.32 74.4997C264.327 74.5062 264.245 74.5635 264.074 74.6519C263.903 74.7408 263.65 74.8741 263.327 75.0453C262.656 75.3873 261.662 75.8819 260.37 76.5349C257.763 77.8217 253.939 79.7047 249.052 82.1137C239.241 86.8938 225.169 93.7471 208.084 102.064L208.09 101.342C229.79 112.309 256.636 125.876 285.653 140.546C287.064 141.262 288.476 141.978 289.78 142.638L290.635 143.069L289.786 143.513C277.69 149.853 266.004 155.983 255.174 161.657L255.18 160.82C263.96 165.536 272.347 170.044 280.044 174.184L280.779 174.577L280.032 174.951C267.429 181.29 256.079 186.996 246.596 191.757L246.615 191.168C257.351 197.621 265.96 202.794 271.885 206.357C274.828 208.151 277.107 209.54 278.658 210.484C279.418 210.96 280 211.328 280.399 211.575C280.791 211.835 280.981 211.974 280.975 211.987Z" fill="#FF0029"/>
<path fill-rule="evenodd" clip-rule="evenodd" d="M264.046 122.806L263.895 115.4L283.237 124.749V132.444L264.046 122.806Z" fill="#F5F5F5"/>
<path fill-rule="evenodd" clip-rule="evenodd" d="M283.238 125.216L307.701 113.134V121.544L283.238 133.019V125.216Z" fill="#E0E0E0"/>
<path fill-rule="evenodd" clip-rule="evenodd" d="M263.324 115.756L287.138 104.041L307.129 113.203L282.863 125.062L263.324 115.756Z" fill="#F5F5F5"/>
<path fill-rule="evenodd" clip-rule="evenodd" d="M266.172 118.813V122.49L267.879 123.359V119.844L266.172 118.813Z" fill="#FAFAFA"/>
<path fill-rule="evenodd" clip-rule="evenodd" d="M269.016 119.945V123.622L270.722 124.49V120.98L269.016 119.945Z" fill="#FAFAFA"/>
<path fill-rule="evenodd" clip-rule="evenodd" d="M202.457 75.7448V65.9741L225.782 77.1981V86.4273L202.457 75.7448Z" fill="#E0E0E0"/>
<path fill-rule="evenodd" clip-rule="evenodd" d="M225.781 77.2898L254.226 63.1318V72.9871L225.781 86.4257V77.2898Z" fill="#F5F5F5"/>
<path fill-rule="evenodd" clip-rule="evenodd" d="M202.457 66.2646L230.593 52.3384L254.226 63.2278L225.544 77.3367L202.457 66.2646Z" fill="#FAFAFA"/>
<path fill-rule="evenodd" clip-rule="evenodd" d="M205.301 69.9517V74.0875L207.576 75.0649V71.1124L205.301 69.9517Z" fill="#FAFAFA"/>
<path fill-rule="evenodd" clip-rule="evenodd" d="M209.281 71.6592V75.7891L211.557 76.7725V72.82L209.281 71.6592Z" fill="#FAFAFA"/>
<path fill-rule="evenodd" clip-rule="evenodd" d="M271.859 156.88C271.859 157.345 271.859 164.683 271.859 164.683L279.824 168.811V160.75L271.859 156.88Z" fill="#E0E0E0"/>
<path fill-rule="evenodd" clip-rule="evenodd" d="M290.635 155.745L280.395 160.814V168.812L290.635 162.89V155.745Z" fill="#E0E0E0"/>
<path fill-rule="evenodd" clip-rule="evenodd" d="M271.859 156.951L282.296 151.767L290.633 155.699L280.101 160.857L271.859 156.951Z" fill="#F5F5F5"/>
<path fill-rule="evenodd" clip-rule="evenodd" d="M275.273 162.56V166.231L276.98 167.105V163.589L275.273 162.56Z" fill="#FAFAFA"/>
<path fill-rule="evenodd" clip-rule="evenodd" d="M205.867 152.902C205.867 153.367 205.867 160.705 205.867 160.705L213.832 164.833V156.771L205.867 152.902Z" fill="#E0E0E0"/>
<path fill-rule="evenodd" clip-rule="evenodd" d="M224.072 151.767L213.832 156.836V164.834L224.072 158.912V151.767Z" fill="#E0E0E0"/>
<path fill-rule="evenodd" clip-rule="evenodd" d="M205.301 152.972L215.74 147.788L224.074 151.72L213.539 156.878L205.301 152.972Z" fill="#F5F5F5"/>
<path fill-rule="evenodd" clip-rule="evenodd" d="M208.715 158.587V162.258L210.422 163.133V159.622L208.715 158.587Z" fill="#FAFAFA"/>
<path fill-rule="evenodd" clip-rule="evenodd" d="M240.004 102.33C240.004 102.795 240.004 110.133 240.004 110.133L247.968 114.261V106.205L240.004 102.33Z" fill="#F5F5F5"/>
<path fill-rule="evenodd" clip-rule="evenodd" d="M258.205 101.204L247.965 106.277V114.271L258.205 108.353V101.204Z" fill="#E0E0E0"/>
<path fill-rule="evenodd" clip-rule="evenodd" d="M239.434 102.969L249.873 97.791L258.207 101.717L247.672 106.881L239.434 102.969Z" fill="#F5F5F5"/>
<path fill-rule="evenodd" clip-rule="evenodd" d="M242.848 108.015V111.685L244.554 112.56V109.043L242.848 108.015Z" fill="#E0E0E0"/>
<path fill-rule="evenodd" clip-rule="evenodd" d="M230.898 168.241C230.898 168.706 230.898 176.044 230.898 176.044L238.863 180.172V172.11L230.898 168.241Z" fill="#E0E0E0"/>
<path fill-rule="evenodd" clip-rule="evenodd" d="M249.103 167.104L238.863 172.18V180.171L249.103 174.256V167.104Z" fill="#EBEBEB"/>
<path fill-rule="evenodd" clip-rule="evenodd" d="M230.332 168.303L240.772 163.125L249.105 167.051L238.571 172.216L230.332 168.303Z" fill="#F5F5F5"/>
<path fill-rule="evenodd" clip-rule="evenodd" d="M233.742 173.926V177.603L235.449 178.471V174.961L233.742 173.926Z" fill="#FAFAFA"/>
<path fill-rule="evenodd" clip-rule="evenodd" d="M264.465 186.991C264.465 187.564 264.465 196.637 264.465 196.637L281.532 206.876V196.911L264.465 186.991Z" fill="#F5F5F5"/>
<path fill-rule="evenodd" clip-rule="evenodd" d="M295.186 189.827L282.102 196.932V206.871L295.186 199.512V189.827Z" fill="#E0E0E0"/>
<path fill-rule="evenodd" clip-rule="evenodd" d="M264.465 186.949L277.62 180.741L295.185 189.688L281.915 196.649L264.465 186.949Z" fill="#FAFAFA"/>
<path fill-rule="evenodd" clip-rule="evenodd" d="M271.289 195.512V200.262L273.565 201.762V197.065L271.289 195.512Z" fill="#FAFAFA"/>
<path fill-rule="evenodd" clip-rule="evenodd" d="M222.934 206.306C222.934 206.879 222.934 215.952 222.934 215.952L240 226.191V216.232L222.934 206.306Z" fill="#E0E0E0"/>
<path fill-rule="evenodd" clip-rule="evenodd" d="M260.428 205.17L240.004 216.313V226.192L260.484 214.759L260.428 205.17Z" fill="#FAFAFA"/>
<path fill-rule="evenodd" clip-rule="evenodd" d="M222.934 206.656L244.836 196.078L261.049 205.382L240.285 216.531L222.934 206.656Z" fill="#F5F5F5"/>
<path fill-rule="evenodd" clip-rule="evenodd" d="M229.191 215.395V220.14L231.467 221.644V216.945L229.191 215.395Z" fill="#FAFAFA"/>
<path fill-rule="evenodd" clip-rule="evenodd" d="M288.359 170.517V208.704L299.168 214.264V175.597L288.359 170.517Z" fill="#F5F5F5"/>
<path fill-rule="evenodd" clip-rule="evenodd" d="M296.401 167.104L288.359 170.673L299.244 175.626L306.564 171.651L296.401 167.104Z" fill="#FAFAFA"/>
<path fill-rule="evenodd" clip-rule="evenodd" d="M299.168 175.771V214.832L305.86 211.274L306.564 171.653L299.168 175.771Z" fill="#E0E0E0"/>
<path fill-rule="evenodd" clip-rule="evenodd" d="M242.848 139.836V178.023L253.657 183.583V144.916L242.848 139.836Z" fill="#F5F5F5"/>
<path fill-rule="evenodd" clip-rule="evenodd" d="M250.883 135.858L242.848 139.43L253.732 144.38L261.052 140.408L250.883 135.858Z" fill="#FAFAFA"/>
<path fill-rule="evenodd" clip-rule="evenodd" d="M253.656 144.525V183.585L260.342 180.327L261.052 140.406L253.656 144.525Z" fill="#E0E0E0"/>
<path fill-rule="evenodd" clip-rule="evenodd" d="M247.965 212.558C247.965 213.131 247.965 222.204 247.965 222.204L265.032 232.443V222.485L247.965 212.558Z" fill="#E0E0E0"/>
<path fill-rule="evenodd" clip-rule="evenodd" d="M278.116 215.395L265.031 222.5V232.439L278.116 225.08V215.395Z" fill="#FAFAFA"/>
<path fill-rule="evenodd" clip-rule="evenodd" d="M247.398 212.399L260.707 205.17L278.118 215.175L264.855 222.215L247.398 212.399Z" fill="#F5F5F5"/>
<path fill-rule="evenodd" clip-rule="evenodd" d="M254.223 221.074V225.826L256.498 227.324V222.625L254.223 221.074Z" fill="#FAFAFA"/>
<path fill-rule="evenodd" clip-rule="evenodd" d="M285.904 97.7918L254.223 83.6573L298.341 61.4307L312.818 82.7996L285.904 97.7918Z" fill="#EBEBEB"/>
<path fill-rule="evenodd" clip-rule="evenodd" d="M314.309 110.856L314.525 86.4258L290.062 100.24L314.309 110.856Z" fill="#6779A7"/>
<path fill-rule="evenodd" clip-rule="evenodd" d="M295.752 135.574C295.752 136.673 294.861 137.563 293.76 137.563C292.66 137.563 291.77 136.673 291.77 135.574C291.77 134.476 292.66 133.586 293.76 133.586C294.854 133.586 295.752 134.476 295.752 135.574Z" fill="#E0E0E0"/>
<path fill-rule="evenodd" clip-rule="evenodd" d="M293.761 139.835C293.644 139.835 293.544 138.942 293.544 137.846C293.544 136.745 293.644 135.858 293.761 135.858C293.878 135.858 293.978 136.751 293.978 137.846C293.978 138.942 293.878 139.835 293.761 139.835Z" fill="#E0E0E0"/>
<path fill-rule="evenodd" clip-rule="evenodd" d="M244.553 131.03C244.553 132.129 243.661 133.019 242.561 133.019C241.461 133.019 240.57 132.129 240.57 131.03C240.57 129.932 241.461 129.042 242.561 129.042C243.661 129.042 244.553 129.932 244.553 131.03Z" fill="#E0E0E0"/>
<path fill-rule="evenodd" clip-rule="evenodd" d="M242.562 135.291C242.445 135.291 242.344 134.4 242.344 133.306C242.344 132.205 242.445 131.314 242.562 131.314C242.679 131.314 242.779 132.205 242.779 133.306C242.779 134.4 242.679 135.291 242.562 135.291Z" fill="#E0E0E0"/>
<path fill-rule="evenodd" clip-rule="evenodd" d="M219.521 157.163C219.521 158.261 218.631 159.151 217.53 159.151C216.43 159.151 215.539 158.261 215.539 157.163C215.539 156.064 216.43 155.174 217.53 155.174C218.631 155.174 219.521 156.064 219.521 157.163Z" fill="#E0E0E0"/>
<path fill-rule="evenodd" clip-rule="evenodd" d="M217.531 161.423C217.413 161.423 217.313 160.531 217.313 159.437C217.313 158.337 217.413 157.446 217.531 157.446C217.648 157.446 217.748 158.337 217.748 159.437C217.748 160.531 217.656 161.423 217.531 161.423Z" fill="#E0E0E0"/>
<path fill-rule="evenodd" clip-rule="evenodd" d="M221.228 137.277C221.228 138.376 220.338 139.266 219.237 139.266C218.137 139.266 217.246 138.376 217.246 137.277C217.246 136.178 218.137 135.289 219.237 135.289C220.338 135.289 221.228 136.178 221.228 137.277Z" fill="#E0E0E0"/>
<path fill-rule="evenodd" clip-rule="evenodd" d="M219.237 140.971C219.121 140.971 219.02 140.08 219.02 138.985C219.02 137.885 219.121 136.994 219.237 136.994C219.354 136.994 219.455 137.885 219.455 138.985C219.455 140.08 219.354 140.971 219.237 140.971Z" fill="#E0E0E0"/>
<path fill-rule="evenodd" clip-rule="evenodd" d="M267.877 135.009C267.877 136.108 266.986 136.998 265.885 136.998C264.785 136.998 263.895 136.108 263.895 135.009C263.895 133.911 264.785 133.021 265.885 133.021C266.986 133.027 267.877 133.917 267.877 135.009Z" fill="#E0E0E0"/>
<path fill-rule="evenodd" clip-rule="evenodd" d="M265.886 139.266C265.769 139.266 265.668 138.373 265.668 137.277C265.668 136.175 265.769 135.289 265.886 135.289C266.003 135.289 266.104 136.181 266.104 137.277C266.104 138.379 266.003 139.266 265.886 139.266Z" fill="#E0E0E0"/>
<path fill-rule="evenodd" clip-rule="evenodd" d="M297.459 149.206C297.459 150.304 296.568 151.194 295.468 151.194C294.368 151.194 293.477 150.304 293.477 149.206C293.477 148.107 294.368 147.217 295.468 147.217C296.568 147.217 297.459 148.107 297.459 149.206Z" fill="#E0E0E0"/>
<path fill-rule="evenodd" clip-rule="evenodd" d="M295.468 153.471C295.351 153.471 295.25 152.58 295.25 151.486C295.25 150.385 295.351 149.494 295.468 149.494C295.585 149.494 295.686 150.385 295.686 151.486C295.686 152.58 295.585 153.471 295.468 153.471Z" fill="#E0E0E0"/>
<path fill-rule="evenodd" clip-rule="evenodd" d="M298.599 160.005C298.599 161.104 297.708 161.994 296.608 161.994C295.508 161.994 294.617 161.104 294.617 160.005C294.617 158.906 295.508 158.017 296.608 158.017C297.708 158.017 298.599 158.906 298.599 160.005Z" fill="#E0E0E0"/>
<path fill-rule="evenodd" clip-rule="evenodd" d="M296.605 164.26C296.488 164.26 296.387 163.369 296.387 162.275C296.387 161.175 296.488 160.283 296.605 160.283C296.722 160.283 296.822 161.175 296.822 162.275C296.822 163.369 296.73 164.26 296.605 164.26Z" fill="#E0E0E0"/>
<path fill-rule="evenodd" clip-rule="evenodd" d="M245.689 183.299C245.689 184.398 244.799 185.288 243.698 185.288C242.598 185.288 241.707 184.398 241.707 183.299C241.707 182.201 242.598 181.311 243.698 181.311C244.799 181.311 245.689 182.201 245.689 183.299Z" fill="#E0E0E0"/>
<path fill-rule="evenodd" clip-rule="evenodd" d="M243.699 186.993C243.582 186.993 243.481 186.102 243.481 185.008C243.481 183.908 243.582 183.016 243.699 183.016C243.815 183.016 243.916 183.908 243.916 185.008C243.916 186.102 243.824 186.993 243.699 186.993Z" fill="#E0E0E0"/>
<path fill-rule="evenodd" clip-rule="evenodd" d="M305.71 217.67C306.809 217.67 307.701 216.78 307.701 215.682C307.701 214.583 306.809 213.693 305.71 213.693C304.61 213.693 303.719 214.583 303.719 215.682C303.719 216.78 304.61 217.67 305.71 217.67Z" fill="#E0E0E0"/>
<path fill-rule="evenodd" clip-rule="evenodd" d="M305.71 219.941C305.593 219.941 305.493 219.05 305.493 217.956C305.493 216.855 305.593 215.964 305.71 215.964C305.827 215.964 305.928 216.855 305.928 217.956C305.928 219.05 305.827 219.941 305.71 219.941Z" fill="#E0E0E0"/>
<path fill-rule="evenodd" clip-rule="evenodd" d="M271.861 236.129C271.861 237.228 270.97 238.117 269.87 238.117C268.77 238.117 267.879 237.228 267.879 236.129C267.879 235.03 268.77 234.14 269.87 234.14C270.97 234.14 271.861 235.03 271.861 236.129Z" fill="#E0E0E0"/>
<path fill-rule="evenodd" clip-rule="evenodd" d="M269.87 240.399C269.753 240.399 269.653 239.506 269.653 238.41C269.653 237.308 269.753 236.422 269.87 236.422C269.987 236.422 270.088 237.315 270.088 238.41C270.088 239.506 269.987 240.399 269.87 240.399Z" fill="#E0E0E0"/>
<path fill-rule="evenodd" clip-rule="evenodd" d="M257.068 230.453C257.068 231.552 256.177 232.441 255.077 232.441C253.977 232.441 253.086 231.552 253.086 230.453C253.086 229.354 253.977 228.464 255.077 228.464C256.177 228.464 257.068 229.354 257.068 230.453Z" fill="#E0E0E0"/>
<path fill-rule="evenodd" clip-rule="evenodd" d="M255.077 234.709C254.96 234.709 254.86 233.818 254.86 232.724C254.86 231.623 254.96 230.732 255.077 230.732C255.194 230.732 255.294 231.623 255.294 232.724C255.303 233.818 255.202 234.709 255.077 234.709Z" fill="#E0E0E0"/>
<path fill-rule="evenodd" clip-rule="evenodd" d="M290.064 226.475C290.064 227.574 289.173 228.464 288.073 228.464C286.973 228.464 286.082 227.574 286.082 226.475C286.082 225.376 286.973 224.487 288.073 224.487C289.173 224.487 290.064 225.376 290.064 226.475Z" fill="#E0E0E0"/>
<path fill-rule="evenodd" clip-rule="evenodd" d="M288.074 230.166C287.956 230.166 287.856 229.274 287.856 228.178C287.856 227.076 287.956 226.189 288.074 226.189C288.191 226.189 288.291 227.082 288.291 228.178C288.291 229.274 288.199 230.166 288.074 230.166Z" fill="#E0E0E0"/>
<path fill-rule="evenodd" clip-rule="evenodd" d="M260.198 192.104C261.298 192.104 262.189 191.213 262.189 190.115C262.189 189.017 261.298 188.127 260.198 188.127C259.098 188.127 258.207 189.017 258.207 190.115C258.207 191.213 259.098 192.104 260.198 192.104Z" fill="#E0E0E0"/>
<path fill-rule="evenodd" clip-rule="evenodd" d="M260.198 194.376C260.082 194.376 259.981 193.485 259.981 192.391C259.981 191.291 260.082 190.399 260.198 190.399C260.315 190.399 260.416 191.291 260.416 192.391C260.416 193.485 260.315 194.376 260.198 194.376Z" fill="#E0E0E0"/>
<path fill-rule="evenodd" clip-rule="evenodd" d="M266.74 171.935C266.74 173.033 265.849 173.923 264.749 173.923C263.649 173.923 262.758 173.033 262.758 171.935C262.758 170.836 263.649 169.946 264.749 169.946C265.849 169.946 266.74 170.836 266.74 171.935Z" fill="#E0E0E0"/>
<path fill-rule="evenodd" clip-rule="evenodd" d="M264.749 176.195C264.632 176.195 264.532 175.304 264.532 174.21C264.532 173.11 264.632 172.218 264.749 172.218C264.866 172.218 264.967 173.11 264.967 174.21C264.967 175.304 264.866 176.195 264.749 176.195Z" fill="#E0E0E0"/>
<path fill-rule="evenodd" clip-rule="evenodd" d="M221.228 174.207C221.228 175.306 220.338 176.195 219.237 176.195C218.137 176.195 217.246 175.306 217.246 174.207C217.246 173.108 218.137 172.218 219.237 172.218C220.338 172.218 221.228 173.108 221.228 174.207Z" fill="#E0E0E0"/>
<path fill-rule="evenodd" clip-rule="evenodd" d="M219.237 178.467C219.121 178.467 219.02 177.576 219.02 176.482C219.02 175.381 219.121 174.49 219.237 174.49C219.354 174.49 219.455 175.381 219.455 176.482C219.455 177.576 219.354 178.467 219.237 178.467Z" fill="#E0E0E0"/>
<path fill-rule="evenodd" clip-rule="evenodd" d="M307.701 157.163C307.701 158.261 306.81 159.151 305.71 159.151C304.61 159.151 303.719 158.261 303.719 157.163C303.719 156.064 304.61 155.174 305.71 155.174C306.81 155.174 307.701 156.064 307.701 157.163Z" fill="#E0E0E0"/>
<path fill-rule="evenodd" clip-rule="evenodd" d="M305.71 161.423C305.593 161.423 305.493 160.531 305.493 159.437C305.493 158.337 305.593 157.446 305.71 157.446C305.827 157.446 305.928 158.337 305.928 159.437C305.928 160.531 305.827 161.423 305.71 161.423Z" fill="#E0E0E0"/>
<path fill-rule="evenodd" clip-rule="evenodd" d="M303.15 129.325C303.15 130.423 302.259 131.313 301.159 131.313C300.059 131.313 299.168 130.423 299.168 129.325C299.168 128.226 300.059 127.336 301.159 127.336C302.259 127.336 303.15 128.226 303.15 129.325Z" fill="#E0E0E0"/>
<path fill-rule="evenodd" clip-rule="evenodd" d="M301.156 133.585C301.038 133.585 300.938 132.694 300.938 131.6C300.938 130.499 301.038 129.608 301.156 129.608C301.273 129.608 301.373 130.499 301.373 131.6C301.373 132.694 301.273 133.585 301.156 133.585Z" fill="#E0E0E0"/>
<path fill-rule="evenodd" clip-rule="evenodd" d="M263.042 106.307C264.142 106.307 265.033 105.417 265.033 104.318C265.033 103.22 264.142 102.33 263.042 102.33C261.942 102.33 261.051 103.22 261.051 104.318C261.051 105.417 261.942 106.307 263.042 106.307Z" fill="#E0E0E0"/>
<path fill-rule="evenodd" clip-rule="evenodd" d="M263.042 108.584C262.925 108.584 262.825 107.692 262.825 106.599C262.825 105.498 262.925 104.607 263.042 104.607C263.159 104.607 263.26 105.498 263.26 106.599C263.26 107.692 263.159 108.584 263.042 108.584Z" fill="#E0E0E0"/>
<path fill-rule="evenodd" clip-rule="evenodd" d="M229.193 139.552C229.193 140.65 228.302 141.54 227.202 141.54C226.102 141.54 225.211 140.65 225.211 139.552C225.211 138.453 226.102 137.563 227.202 137.563C228.302 137.563 229.193 138.453 229.193 139.552Z" fill="#E0E0E0"/>
<path fill-rule="evenodd" clip-rule="evenodd" d="M227.202 143.813C227.085 143.813 226.985 142.922 226.985 141.828C226.985 140.728 227.085 139.836 227.202 139.836C227.319 139.836 227.419 140.728 227.419 141.828C227.428 142.922 227.328 143.813 227.202 143.813Z" fill="#E0E0E0"/>
<path fill-rule="evenodd" clip-rule="evenodd" d="M251.381 91.2563C251.381 92.355 250.489 93.2451 249.389 93.2451C248.289 93.2451 247.398 92.355 247.398 91.2563C247.398 90.1577 248.289 89.2681 249.389 89.2681C250.489 89.2681 251.381 90.1577 251.381 91.2563Z" fill="#E0E0E0"/>
<path fill-rule="evenodd" clip-rule="evenodd" d="M249.39 95.5175C249.273 95.5175 249.173 94.6265 249.173 93.5322C249.173 92.432 249.273 91.5405 249.39 91.5405C249.507 91.5405 249.607 92.432 249.607 93.5322C249.607 94.6265 249.507 95.5175 249.39 95.5175Z" fill="#E0E0E0"/>
<path fill-rule="evenodd" clip-rule="evenodd" d="M289.494 87.2788C289.494 88.3779 288.603 89.2675 287.503 89.2675C286.403 89.2675 285.512 88.3779 285.512 87.2788C285.512 86.1801 286.403 85.2905 287.503 85.2905C288.603 85.2905 289.494 86.1801 289.494 87.2788Z" fill="#E0E0E0"/>
<path fill-rule="evenodd" clip-rule="evenodd" d="M287.503 90.9746C287.386 90.9746 287.286 90.0835 287.286 88.9892C287.286 87.889 287.386 86.9976 287.503 86.9976C287.62 86.9976 287.721 87.889 287.721 88.9892C287.721 90.0835 287.628 90.9746 287.503 90.9746Z" fill="#E0E0E0"/>
<path fill-rule="evenodd" clip-rule="evenodd" d="M299.736 85.5762C299.736 86.6748 298.845 87.5649 297.745 87.5649C296.645 87.5649 295.754 86.6748 295.754 85.5762C295.754 84.4775 296.645 83.5879 297.745 83.5879C298.845 83.5879 299.736 84.4775 299.736 85.5762Z" fill="#E0E0E0"/>
<path fill-rule="evenodd" clip-rule="evenodd" d="M297.745 89.2675C297.628 89.2675 297.528 88.376 297.528 87.2822C297.528 86.182 297.628 85.2905 297.745 85.2905C297.863 85.2905 297.963 86.182 297.963 87.2822C297.963 88.376 297.863 89.2675 297.745 89.2675Z" fill="#E0E0E0"/>
<path fill-rule="evenodd" clip-rule="evenodd" d="M295.752 71.3711C295.752 72.4697 294.861 73.3593 293.76 73.3593C292.66 73.3593 291.77 72.4697 291.77 71.3711C291.77 70.2724 292.66 69.3823 293.76 69.3823C294.854 69.3823 295.752 70.2724 295.752 71.3711Z" fill="#E0E0E0"/>
<path fill-rule="evenodd" clip-rule="evenodd" d="M293.761 75.6362C293.644 75.6362 293.544 74.7447 293.544 73.6508C293.544 72.5503 293.644 71.6592 293.761 71.6592C293.878 71.6592 293.978 72.5503 293.978 73.6508C293.978 74.7447 293.878 75.6362 293.761 75.6362Z" fill="#E0E0E0"/>
<path fill-rule="evenodd" clip-rule="evenodd" d="M237.158 103.193C237.158 104.292 236.267 105.181 235.167 105.181C234.067 105.181 233.176 104.292 233.176 103.193C233.176 102.094 234.067 101.204 235.167 101.204C236.267 101.204 237.158 102.094 237.158 103.193Z" fill="#E0E0E0"/>
<path fill-rule="evenodd" clip-rule="evenodd" d="M235.167 107.449C235.05 107.449 234.95 106.557 234.95 105.463C234.95 104.363 235.05 103.472 235.167 103.472C235.284 103.472 235.385 104.363 235.385 105.463C235.385 106.557 235.293 107.449 235.167 107.449Z" fill="#E0E0E0"/>
<path fill-rule="evenodd" clip-rule="evenodd" d="M280.392 85.5762C280.392 86.6748 279.501 87.5649 278.401 87.5649C277.301 87.5649 276.41 86.6748 276.41 85.5762C276.41 84.4775 277.301 83.5879 278.401 83.5879C279.501 83.5879 280.392 84.4775 280.392 85.5762Z" fill="#E0E0E0"/>
<path fill-rule="evenodd" clip-rule="evenodd" d="M278.401 89.833C278.285 89.833 278.184 88.9419 278.184 87.8476C278.184 86.7474 278.285 85.856 278.401 85.856C278.519 85.856 278.619 86.7474 278.619 87.8476C278.619 88.9419 278.527 89.833 278.401 89.833Z" fill="#E0E0E0"/>
<path fill-rule="evenodd" clip-rule="evenodd" d="M228.056 43.5322C228.056 44.6309 227.165 45.5209 226.065 45.5209C224.965 45.5209 224.074 44.6309 224.074 43.5322C224.074 42.4335 224.965 41.5439 226.065 41.5439C227.165 41.5439 228.056 42.4335 228.056 43.5322Z" fill="#E0E0E0"/>
<path fill-rule="evenodd" clip-rule="evenodd" d="M226.066 47.7929C225.949 47.7929 225.848 46.9014 225.848 45.8076C225.848 44.707 225.949 43.8159 226.066 43.8159C226.183 43.8159 226.283 44.707 226.283 45.8076C226.283 46.9077 226.191 47.7929 226.066 47.7929Z" fill="#E0E0E0"/>
<path fill-rule="evenodd" clip-rule="evenodd" d="M249.103 53.7612C249.103 54.8599 248.213 55.7495 247.112 55.7495C246.012 55.7495 245.121 54.8599 245.121 53.7612C245.121 52.6625 246.012 51.7725 247.112 51.7725C248.213 51.7725 249.103 52.6625 249.103 53.7612Z" fill="#E0E0E0"/>
<path fill-rule="evenodd" clip-rule="evenodd" d="M247.113 58.0161C246.995 58.0161 246.895 57.1246 246.895 56.0307C246.895 54.9301 246.995 54.0391 247.113 54.0391C247.23 54.0391 247.33 54.9301 247.33 56.0307C247.33 57.1246 247.23 58.0161 247.113 58.0161Z" fill="#E0E0E0"/>
<path fill-rule="evenodd" clip-rule="evenodd" d="M214.971 86.1435C214.971 87.2422 214.08 88.1323 212.98 88.1323C211.879 88.1323 210.988 87.2422 210.988 86.1435C210.988 85.0449 211.879 84.1553 212.98 84.1553C214.08 84.1553 214.971 85.0449 214.971 86.1435Z" fill="#E0E0E0"/>
<path fill-rule="evenodd" clip-rule="evenodd" d="M212.98 90.4028C212.863 90.4028 212.762 89.5117 212.762 88.4174C212.762 87.3173 212.863 86.4258 212.98 86.4258C213.097 86.4258 213.197 87.3173 213.197 88.4174C213.197 89.5117 213.097 90.4028 212.98 90.4028Z" fill="#E0E0E0"/>
<path fill-rule="evenodd" clip-rule="evenodd" d="M217.248 55.4663C217.248 56.5654 216.357 57.455 215.257 57.455C214.156 57.455 213.266 56.5654 213.266 55.4663C213.266 54.3676 214.156 53.478 215.257 53.478C216.357 53.478 217.248 54.3676 217.248 55.4663Z" fill="#E0E0E0"/>
<path fill-rule="evenodd" clip-rule="evenodd" d="M215.253 59.728C215.136 59.728 215.036 58.8369 215.036 57.7426C215.036 56.6425 215.136 55.751 215.253 55.751C215.37 55.751 215.471 56.6425 215.471 57.7426C215.471 58.8369 215.37 59.728 215.253 59.728Z" fill="#E0E0E0"/>
<path fill-rule="evenodd" clip-rule="evenodd" d="M297.461 142.91L312.821 134.721L312.758 149.492L297.461 142.91Z" fill="#EBEBEB"/>
<path fill-rule="evenodd" clip-rule="evenodd" d="M283.805 212.558C283.805 213.814 282.788 214.83 281.529 214.83C280.271 214.83 279.254 213.814 279.254 212.558C279.254 211.301 280.271 210.285 281.529 210.285C282.788 210.285 283.805 211.301 283.805 212.558Z" fill="#E8505B"/>
<path fill-rule="evenodd" clip-rule="evenodd" d="M303.719 58.5933L314.528 61.902V79.0464L303.719 58.5933Z" fill="#EBEBEB"/>
<path fill-rule="evenodd" clip-rule="evenodd" d="M340.695 131.874C350.118 132.108 359.642 132.361 368.752 134.762C377.862 137.163 386.661 141.958 392.068 149.647C398.017 158.109 399.2 168.928 399.798 179.246C400.791 196.354 400.676 213.544 398.99 230.596C398.138 239.242 395.058 247.267 386.985 250.56C377.277 254.519 364.228 250.56 364.228 250.56" fill="#041B54"/>
<path fill-rule="evenodd" clip-rule="evenodd" d="M366.297 248.868C366.297 248.868 366.418 248.855 366.652 248.849C366.899 248.843 367.248 248.843 367.698 248.83C368.631 248.824 369.981 248.811 371.712 248.798C373.456 248.786 375.593 248.811 378.041 248.469C378.649 248.367 379.283 248.298 379.924 248.133C380.247 248.064 380.571 247.988 380.9 247.918C381.23 247.829 381.56 247.728 381.89 247.627C382.568 247.449 383.227 247.164 383.919 246.911C384.584 246.601 385.288 246.31 385.948 245.904C387.292 245.138 388.605 244.157 389.721 242.89C390.831 241.63 391.731 240.078 392.207 238.331C393.107 234.797 393.487 230.89 393.633 226.787C393.76 222.677 393.716 218.352 393.754 213.875C393.773 209.398 393.798 204.756 393.817 200.007C393.836 195.257 393.887 190.616 393.735 186.145C393.576 181.674 393.227 177.362 392.524 173.316C391.154 165.217 388.313 158.194 384.654 153.166C382.834 150.652 380.837 148.645 379.049 146.947C377.242 145.257 375.618 143.876 374.287 142.755C372.955 141.647 371.921 140.779 371.205 140.185C370.862 139.893 370.596 139.671 370.406 139.507C370.228 139.355 370.139 139.266 370.139 139.266C370.139 139.266 370.241 139.336 370.425 139.482C370.622 139.634 370.888 139.849 371.243 140.127C371.966 140.71 373.018 141.558 374.363 142.648C375.707 143.756 377.349 145.124 379.169 146.802C380.977 148.493 382.987 150.493 384.838 153.02C388.548 158.061 391.426 165.121 392.821 173.252C393.538 177.318 393.893 181.643 394.058 186.126C394.216 190.61 394.172 195.251 394.147 200.001C394.121 204.75 394.102 209.385 394.077 213.869C394.039 218.346 394.077 222.664 393.938 226.787C393.785 230.903 393.399 234.829 392.473 238.394C391.985 240.186 391.052 241.769 389.917 243.048C388.776 244.334 387.431 245.328 386.068 246.094C385.396 246.5 384.686 246.791 384.007 247.101C383.304 247.354 382.638 247.639 381.953 247.81C381.611 247.905 381.281 248.013 380.951 248.095C380.615 248.165 380.286 248.241 379.962 248.311C379.315 248.469 378.675 248.538 378.06 248.634C375.593 248.963 373.45 248.918 371.706 248.912C369.975 248.899 368.624 248.887 367.692 248.881C367.242 248.874 366.893 248.868 366.646 248.862C366.418 248.881 366.297 248.868 366.297 248.868Z" fill="#455A64"/>
<path fill-rule="evenodd" clip-rule="evenodd" d="M353.211 132.457C353.211 132.451 353.293 132.451 353.451 132.451C353.628 132.457 353.862 132.457 354.165 132.464C354.791 132.489 355.72 132.483 356.908 132.565C359.271 132.811 362.721 133.267 366.766 134.671C367.265 134.854 367.777 135.044 368.301 135.24C368.56 135.335 368.826 135.436 369.097 135.537C369.357 135.657 369.622 135.771 369.887 135.898C370.418 136.138 370.962 136.385 371.512 136.638C372.067 136.884 372.592 137.207 373.154 137.491C375.379 138.655 377.628 140.142 379.853 141.875C382.077 143.607 384.276 145.619 386.298 147.94C388.32 150.255 390.134 152.924 391.511 155.877C394.33 161.791 395.549 167.976 396.175 173.574C396.769 179.19 396.794 184.275 396.832 188.538C396.845 192.801 396.857 196.248 396.92 198.626C396.952 199.802 396.978 200.719 396.997 201.371C397.003 201.674 397.009 201.908 397.015 202.086C397.015 202.244 397.015 202.326 397.009 202.332C397.003 202.332 396.997 202.25 396.978 202.092C396.965 201.915 396.946 201.681 396.927 201.377C396.883 200.751 396.838 199.828 396.788 198.639C396.687 196.254 396.643 192.807 396.598 188.544C396.535 184.288 396.485 179.209 395.878 173.612C395.24 168.04 394.014 161.892 391.221 156.029C389.849 153.094 388.068 150.457 386.058 148.161C384.055 145.853 381.875 143.854 379.669 142.121C377.464 140.395 375.233 138.908 373.028 137.738C372.478 137.448 371.947 137.131 371.404 136.878C370.854 136.625 370.323 136.378 369.792 136.138C369.527 136.018 369.268 135.898 369.009 135.778C368.744 135.676 368.484 135.575 368.219 135.481C367.701 135.284 367.189 135.088 366.696 134.905C362.69 133.482 359.258 132.988 356.901 132.71C355.72 132.609 354.791 132.59 354.172 132.546C353.875 132.527 353.634 132.514 353.458 132.501C353.293 132.476 353.211 132.464 353.211 132.457Z" fill="#E0E0E0"/>
<path fill-rule="evenodd" clip-rule="evenodd" d="M347.523 132.171C347.523 132.171 349.821 126.375 358.004 127.475C358.004 127.475 361.65 127.282 362.315 129.221C362.315 129.221 354.694 127.414 351.447 132.449L347.523 132.171Z" fill="#263238"/>
<path fill-rule="evenodd" clip-rule="evenodd" d="M370.847 139.828H365.974C365.974 139.828 365.028 126.905 353.211 127.408C353.211 127.408 367.899 122.479 370.847 139.828Z" fill="#455A64"/>
<path fill-rule="evenodd" clip-rule="evenodd" d="M293.445 255.541C293.445 255.541 292.108 251.197 292.375 249.361C292.642 247.525 295.119 245.855 295.119 245.855L292.432 176.212C292.432 176.212 292.082 145.751 308.247 136.281L317.892 133.854L341.683 132.451C342.453 132.705 370.415 143.197 374.26 147.294L362.202 208.712C362.202 208.712 363.667 226.858 365.131 239.904C365.43 242.571 367.435 255.738 367.435 255.738L293.445 255.541Z" fill="#FF0029"/>
<g opacity="0.3">
<path opacity="0.3" fill-rule="evenodd" clip-rule="evenodd" d="M364.833 235.762C364.611 237.442 363.963 239.488 362.337 240.004C360.71 240.527 358.944 240.376 357.261 240.074C351.308 239.022 345.832 236.253 340.457 233.515C330.406 228.404 320.267 223.231 311.595 216.062C310.375 215.055 309.073 213.481 309.822 212.096C310.667 210.523 313.05 211.052 314.683 211.794C331.721 219.58 347.795 227.977 364.833 235.762Z" fill="black"/>
</g>
<path fill-rule="evenodd" clip-rule="evenodd" d="M304.855 138.13C304.855 138.13 294.174 141.666 290.72 151.488C286.903 162.336 284.375 183.399 284.375 183.399L294.928 184.718L304.855 138.13Z" fill="#FF0029"/>
<path fill-rule="evenodd" clip-rule="evenodd" d="M374.555 147.253C374.555 147.253 380.235 154.766 383.003 163.897C385.763 173.028 387.346 199.49 387.346 199.49L358.851 199.089L357.338 175.81C357.338 175.804 354.463 136.957 374.555 147.253Z" fill="#FF0029"/>
<path fill-rule="evenodd" clip-rule="evenodd" d="M288.359 161.092C288.359 161.092 288.569 160.767 289.146 160.348C289.718 159.935 290.792 159.503 292.157 159.77C293.541 159.973 294.887 161.06 296.659 161.74C297.535 162.077 298.564 162.337 299.605 162.102C300.654 161.873 301.555 161.124 302.514 160.399C302.997 160.037 303.505 159.662 304.102 159.401C304.692 159.134 305.423 159.045 306.077 159.319C306.737 159.56 307.232 160.119 307.613 160.691C308.007 161.263 308.324 161.892 308.737 162.452C309.137 163.011 309.671 163.5 310.35 163.697C311.017 163.92 311.767 163.862 312.472 163.678C313.189 163.494 313.881 163.176 314.542 162.788C315.202 162.401 315.837 161.924 316.523 161.505C317.202 161.079 317.926 160.679 318.733 160.431C319.533 160.195 320.435 160.138 321.267 160.424C322.099 160.698 322.816 161.206 323.464 161.765C324.118 162.325 324.728 162.928 325.407 163.456C326.074 163.983 326.823 164.441 327.668 164.568C328.499 164.733 329.382 164.612 330.202 164.307C331.853 163.685 333.313 162.566 334.932 161.67C335.745 161.232 336.596 160.812 337.517 160.64C338.431 160.469 339.409 160.526 340.273 160.856C342.007 161.53 343.29 162.839 344.826 163.577C345.207 163.767 345.607 163.901 346.007 163.996C346.414 164.078 346.827 164.097 347.239 164.072C348.065 164.015 348.859 163.742 349.608 163.392C351.113 162.712 352.472 161.759 354.028 161.251C354.796 160.996 355.628 160.882 356.428 161.034C357.235 161.174 357.933 161.613 358.517 162.102C359.686 163.075 360.601 164.314 361.934 164.727C362.588 164.93 363.28 164.918 363.934 164.784C364.595 164.65 365.223 164.428 365.846 164.212C367.071 163.78 368.354 163.335 369.599 163.621C370.215 163.742 370.748 164.066 371.212 164.415C371.676 164.771 372.076 165.159 372.482 165.521C372.888 165.883 373.301 166.201 373.739 166.443C374.177 166.678 374.654 166.818 375.117 166.888C376.051 167.021 376.946 166.875 377.708 166.62C378.483 166.366 379.131 165.991 379.683 165.61C380.782 164.841 381.519 164.078 382.02 163.583C382.262 163.341 382.452 163.151 382.592 163.011C382.719 162.884 382.789 162.82 382.795 162.82C382.801 162.826 382.738 162.896 382.617 163.03C382.484 163.176 382.3 163.373 382.071 163.627C381.576 164.136 380.858 164.918 379.759 165.712C379.207 166.106 378.546 166.493 377.759 166.761C376.978 167.027 376.063 167.192 375.092 167.059C374.609 166.996 374.114 166.849 373.65 166.608C373.187 166.36 372.761 166.03 372.349 165.674C371.53 164.975 370.717 164.078 369.548 163.843C368.392 163.583 367.154 164.008 365.928 164.447C365.306 164.663 364.671 164.898 363.985 165.038C363.306 165.178 362.556 165.203 361.852 164.981C361.14 164.765 360.524 164.314 359.972 163.824C359.419 163.335 358.905 162.788 358.333 162.318C357.768 161.842 357.114 161.441 356.371 161.32C355.634 161.181 354.86 161.289 354.123 161.53C352.631 162.026 351.272 162.973 349.741 163.672C348.979 164.028 348.147 164.32 347.271 164.384C346.833 164.409 346.382 164.39 345.95 164.301C345.518 164.199 345.093 164.053 344.699 163.856C343.099 163.087 341.816 161.784 340.172 161.155C339.358 160.844 338.463 160.793 337.599 160.952C336.73 161.117 335.904 161.517 335.11 161.95C333.516 162.826 332.05 163.964 330.329 164.612C329.471 164.937 328.525 165.064 327.623 164.886C326.709 164.746 325.909 164.25 325.223 163.71C323.845 162.636 322.746 161.238 321.184 160.723C320.422 160.456 319.596 160.507 318.841 160.723C318.079 160.958 317.374 161.339 316.707 161.759C316.028 162.172 315.399 162.642 314.719 163.043C314.04 163.436 313.322 163.767 312.573 163.958C311.83 164.148 311.024 164.206 310.293 163.964C309.55 163.742 308.959 163.195 308.547 162.61C308.121 162.026 307.804 161.397 307.423 160.837C307.054 160.278 306.604 159.776 306.013 159.554C305.429 159.312 304.781 159.382 304.229 159.623C303.664 159.859 303.168 160.227 302.686 160.583C301.733 161.295 300.8 162.07 299.682 162.305C298.577 162.547 297.516 162.261 296.627 161.905C294.83 161.193 293.509 160.107 292.17 159.891C290.849 159.611 289.794 160.011 289.223 160.399C288.607 160.799 288.378 161.111 288.359 161.092Z" fill="#FAFAFA"/>
<path fill-rule="evenodd" clip-rule="evenodd" d="M284.945 178.066C284.945 178.06 285.04 178.066 285.223 178.086C285.42 178.105 285.692 178.138 286.04 178.17C286.762 178.216 287.825 178.528 289.155 178.086C289.826 177.937 290.579 177.794 291.402 177.651C292.225 177.502 293.111 177.3 294.086 177.177C295.055 177.06 296.143 177.06 297.219 177.411C298.296 177.735 299.34 178.3 300.492 178.696C301.638 179.112 302.936 179.157 304.221 178.807C305.512 178.495 306.778 177.884 308.145 177.398C309.494 176.898 311.057 176.515 312.608 176.956C314.14 177.398 315.375 178.56 316.913 178.943C317.293 179.034 317.685 179.06 318.077 179.028C318.47 178.982 318.862 178.878 319.242 178.742C320.015 178.469 320.761 178.066 321.578 177.774C322.382 177.469 323.338 177.339 324.199 177.684C325.053 178.021 325.718 178.664 326.414 179.19C326.763 179.456 327.123 179.703 327.516 179.872C327.908 180.04 328.332 180.112 328.756 180.112C329.618 180.079 330.459 179.729 331.276 179.339C332.099 178.949 332.928 178.514 333.859 178.274C334.327 178.17 334.808 178.105 335.295 178.177C335.783 178.235 336.251 178.411 336.676 178.638C337.53 179.099 338.239 179.742 338.992 180.267C339.366 180.527 339.758 180.767 340.17 180.93C340.379 181.008 340.581 181.079 340.803 181.112L341.126 181.17L341.455 181.183C342.335 181.203 343.202 180.943 344.038 180.631C344.873 180.32 345.696 179.956 346.557 179.69C347.405 179.43 348.336 179.261 349.222 179.495C350.121 179.69 350.855 180.287 351.469 180.878C352.09 181.482 352.66 182.118 353.318 182.592C353.976 183.073 354.767 183.294 355.546 183.241C356.325 183.189 357.071 182.897 357.774 182.547C358.477 182.196 359.148 181.787 359.819 181.404C361.148 180.651 362.61 179.949 364.123 180.125C365.624 180.306 366.845 181.157 367.921 181.949C369.01 182.754 370.004 183.605 371.099 184.131C372.182 184.683 373.327 184.962 374.416 185.053C375.512 185.124 376.543 185.007 377.493 184.806C379.373 184.339 380.867 183.482 381.918 182.592C382.975 181.703 383.582 180.793 383.975 180.176C384.152 179.858 384.272 179.599 384.361 179.437C384.45 179.267 384.494 179.183 384.5 179.19C384.506 179.19 384.469 179.281 384.393 179.456C384.311 179.625 384.203 179.891 384.032 180.216C383.652 180.846 383.057 181.78 382 182.696C380.949 183.612 379.449 184.501 377.537 184.994C376.575 185.209 375.524 185.332 374.41 185.267C373.296 185.183 372.125 184.903 371.004 184.345C369.871 183.806 368.865 182.949 367.782 182.157C366.706 181.371 365.51 180.56 364.104 180.397C362.693 180.235 361.288 180.897 359.971 181.657C359.3 182.04 358.635 182.456 357.914 182.813C357.198 183.17 356.419 183.488 355.577 183.547C354.742 183.605 353.856 183.358 353.159 182.845C352.457 182.345 351.881 181.696 351.267 181.105C350.659 180.521 349.975 179.975 349.159 179.8C348.349 179.592 347.481 179.742 346.658 179.995C345.823 180.248 345.006 180.618 344.158 180.93C343.31 181.248 342.411 181.527 341.455 181.508L341.1 181.495L340.746 181.43C340.512 181.397 340.277 181.32 340.056 181.229C339.613 181.053 339.201 180.8 338.815 180.534C338.043 179.995 337.34 179.358 336.536 178.923C336.138 178.709 335.707 178.553 335.27 178.502C334.833 178.443 334.384 178.502 333.947 178.593C333.074 178.82 332.257 179.242 331.428 179.631C330.599 180.021 329.725 180.397 328.782 180.43C328.313 180.436 327.839 180.352 327.408 180.164C326.978 179.975 326.598 179.716 326.237 179.437C325.528 178.891 324.882 178.274 324.104 177.969C323.331 177.664 322.477 177.768 321.698 178.06C320.907 178.339 320.16 178.735 319.363 179.021C318.963 179.157 318.552 179.274 318.122 179.32C317.697 179.358 317.267 179.326 316.856 179.229C315.21 178.8 313.994 177.638 312.545 177.222C311.089 176.807 309.589 177.157 308.253 177.644C306.898 178.119 305.62 178.729 304.297 179.04C302.986 179.397 301.606 179.339 300.435 178.904C299.258 178.489 298.226 177.924 297.175 177.599C296.131 177.248 295.086 177.242 294.124 177.352C293.162 177.456 292.275 177.657 291.446 177.794C290.624 177.93 289.87 178.054 289.199 178.196C288.864 178.261 288.547 178.339 288.243 178.384C287.933 178.43 287.642 178.417 287.382 178.391C286.857 178.333 286.414 178.268 286.053 178.216C285.705 178.164 285.439 178.125 285.236 178.099C285.04 178.093 284.945 178.073 284.945 178.066Z" fill="#FAFAFA"/>
<path fill-rule="evenodd" clip-rule="evenodd" d="M295.184 193.244C295.184 193.238 295.247 193.244 295.375 193.25C295.515 193.263 295.7 193.282 295.929 193.307C296.413 193.356 297.133 193.45 298.051 193.587C299.892 193.836 302.53 194.371 305.831 194.633C307.481 194.769 309.291 194.757 311.228 194.539C312.196 194.452 313.222 194.365 314.28 194.514C314.802 194.589 315.338 194.732 315.835 194.963C316.331 195.193 316.784 195.51 317.217 195.846C318.084 196.5 318.906 197.291 319.97 197.608C320.493 197.77 321.053 197.739 321.601 197.596C322.149 197.446 322.672 197.191 323.22 196.948C323.761 196.706 324.335 196.45 324.972 196.376C325.603 196.276 326.291 196.432 326.832 196.768C327.935 197.422 328.655 198.511 329.776 198.972C330.904 199.451 332.178 199.152 333.332 198.816C334.504 198.48 335.664 198.032 336.912 198.007C337.53 198 338.155 198.113 338.703 198.368C339.257 198.623 339.735 198.978 340.175 199.339C341.054 200.068 341.832 200.883 342.8 201.319C343.762 201.774 344.858 201.643 345.82 201.325C346.802 201.026 347.7 200.559 348.681 200.342C349.643 200.13 350.675 200.111 351.529 200.547C351.95 200.765 352.294 201.113 352.504 201.512C352.714 201.91 352.817 202.315 352.95 202.695C353.078 203.075 353.243 203.423 353.498 203.691C353.747 203.965 354.072 204.152 354.41 204.264C355.098 204.488 355.811 204.432 356.423 204.251C357.041 204.064 357.544 203.728 357.933 203.342C358.328 202.962 358.621 202.545 358.857 202.159C359.322 201.381 359.571 200.715 359.755 200.273C359.838 200.068 359.909 199.9 359.959 199.769C360.004 199.657 360.036 199.601 360.036 199.601C360.042 199.601 360.023 199.663 359.991 199.781C359.947 199.912 359.889 200.086 359.819 200.298C359.654 200.746 359.424 201.419 358.972 202.222C358.743 202.62 358.456 203.05 358.054 203.448C357.659 203.853 357.13 204.22 356.487 204.426C355.85 204.618 355.091 204.693 354.346 204.457C353.976 204.338 353.619 204.133 353.333 203.834C353.046 203.535 352.861 203.149 352.727 202.763C352.587 202.377 352.479 201.979 352.288 201.618C352.097 201.256 351.791 200.958 351.415 200.765C350.644 200.373 349.669 200.391 348.745 200.597C347.815 200.802 346.916 201.276 345.91 201.587C345.412 201.749 344.877 201.873 344.323 201.898C343.769 201.917 343.195 201.817 342.673 201.58C341.628 201.113 340.831 200.279 339.971 199.57C339.538 199.215 339.079 198.878 338.569 198.642C338.059 198.405 337.492 198.306 336.919 198.312C335.759 198.337 334.612 198.766 333.427 199.115C332.834 199.289 332.223 199.451 331.58 199.513C330.942 199.576 330.261 199.526 329.649 199.258C328.406 198.729 327.68 197.621 326.667 197.029C326.17 196.724 325.59 196.594 325.016 196.674C324.443 196.743 323.895 196.986 323.36 197.222C322.818 197.465 322.276 197.721 321.69 197.882C321.11 198.038 320.467 198.069 319.887 197.889C318.721 197.534 317.893 196.712 317.039 196.065C316.612 195.735 316.179 195.429 315.714 195.212C315.248 194.993 314.752 194.857 314.248 194.782C313.241 194.633 312.234 194.714 311.266 194.794C309.322 195 307.481 195 305.824 194.85C302.505 194.552 299.88 193.985 298.044 193.699C297.146 193.556 296.439 193.443 295.936 193.363C295.712 193.325 295.528 193.3 295.388 193.275C295.247 193.263 295.184 193.25 295.184 193.244Z" fill="#FAFAFA"/>
<path fill-rule="evenodd" clip-rule="evenodd" d="M294.617 235.135C294.617 235.129 294.681 235.104 294.801 235.061C294.941 235.011 295.124 234.949 295.359 234.869C295.847 234.702 296.564 234.448 297.503 234.151C298.441 233.865 299.595 233.488 301.003 233.351C301.713 233.277 302.486 233.45 303.228 233.711C303.976 233.965 304.75 234.293 305.606 234.373C306.462 234.454 307.343 234.181 308.206 233.797C309.074 233.426 309.962 232.93 311.002 232.701C312.048 232.472 313.165 232.608 314.236 232.887C315.314 233.166 316.367 233.581 317.476 233.896C318.573 234.212 319.759 234.429 320.919 234.188C322.086 233.952 323.17 233.339 324.356 232.881C324.952 232.652 325.586 232.466 326.265 232.441C326.937 232.41 327.628 232.59 328.205 232.936C329.365 233.612 330.196 234.708 331.407 235.147C332.003 235.358 332.656 235.346 333.278 235.191C333.899 235.042 334.495 234.782 335.091 234.516C335.687 234.255 336.283 233.983 336.918 233.81C337.552 233.63 338.249 233.574 338.896 233.773C339.549 233.952 340.069 234.386 340.506 234.819C340.95 235.253 341.343 235.717 341.794 236.089C342.675 236.888 343.918 236.993 345.021 236.745C346.143 236.528 347.196 236.107 348.274 235.829C348.813 235.705 349.358 235.575 349.916 235.587C350.462 235.581 351.032 235.686 351.495 235.959C351.983 236.194 352.351 236.597 352.643 236.999C352.935 237.408 353.163 237.835 353.397 238.244C353.854 239.049 354.418 239.792 355.243 240.046C356.042 240.312 356.898 240.139 357.589 239.811C358.286 239.483 358.87 239.024 359.32 238.516C360.208 237.489 360.677 236.38 361.152 235.544C361.609 234.689 362.021 234.057 362.345 233.661C362.668 233.265 362.883 233.091 362.883 233.091C362.896 233.104 362.706 233.296 362.402 233.698C362.097 234.107 361.704 234.739 361.267 235.599C360.81 236.442 360.366 237.557 359.459 238.634C358.996 239.161 358.4 239.644 357.678 239.991C356.961 240.337 356.054 240.542 355.166 240.257C354.26 239.984 353.639 239.167 353.176 238.362C352.693 237.563 352.256 236.634 351.362 236.188C350.5 235.686 349.384 235.829 348.35 236.095C347.298 236.367 346.245 236.801 345.084 237.03C344.508 237.148 343.893 237.204 343.277 237.098C342.967 237.067 342.675 236.937 342.377 236.832C342.092 236.696 341.832 236.516 341.591 236.318C341.109 235.922 340.709 235.457 340.278 235.036C339.847 234.615 339.372 234.225 338.794 234.07C338.224 233.896 337.602 233.946 337 234.113C336.397 234.28 335.814 234.547 335.218 234.807C334.622 235.067 334.013 235.339 333.348 235.5C332.688 235.668 331.953 235.686 331.287 235.451C329.949 234.949 329.118 233.828 328.027 233.209C327.489 232.887 326.88 232.732 326.265 232.751C325.65 232.769 325.047 232.943 324.464 233.166C323.304 233.612 322.207 234.231 320.97 234.479C319.734 234.732 318.491 234.497 317.375 234.169C316.253 233.841 315.2 233.426 314.147 233.147C313.101 232.874 312.036 232.738 311.047 232.949C310.058 233.16 309.182 233.636 308.295 234.008C307.419 234.392 306.481 234.677 305.568 234.578C304.661 234.485 303.881 234.138 303.139 233.884C302.398 233.618 301.681 233.444 300.996 233.512C299.62 233.624 298.46 233.983 297.521 234.25C296.602 234.528 295.879 234.751 295.359 234.912C295.124 234.98 294.941 235.03 294.795 235.073C294.687 235.129 294.624 235.141 294.617 235.135Z" fill="#FAFAFA"/>
<path fill-rule="evenodd" clip-rule="evenodd" d="M330.457 219.507C330.463 219.519 330.336 219.592 330.094 219.724C329.846 219.857 329.477 220.031 328.975 220.206C327.976 220.561 326.411 220.899 324.489 220.646C324.012 220.573 323.516 220.477 323.013 220.32C322.51 220.17 322.008 219.953 321.499 219.748C320.99 219.556 320.443 219.381 319.883 219.435C319.323 219.483 318.789 219.748 318.286 220.086C317.777 220.423 317.287 220.826 316.708 221.163C316.422 221.332 316.098 221.471 315.754 221.561C315.582 221.609 315.404 221.627 315.226 221.639C315.048 221.664 314.87 221.645 314.685 221.627C313.228 221.453 312.07 220.543 310.81 219.935C310.181 219.628 309.506 219.387 308.851 219.459L308.609 219.489C308.533 219.507 308.456 219.537 308.38 219.562C308.221 219.604 308.075 219.676 307.941 219.755C307.667 219.923 307.426 220.14 307.197 220.375C306.739 220.838 306.344 221.374 305.797 221.778C305.523 221.983 305.199 222.139 304.849 222.193C304.499 222.247 304.137 222.193 303.831 222.049C303.208 221.76 302.826 221.242 302.482 220.784C302.139 220.315 301.833 219.851 301.471 219.477C300.733 218.725 299.677 218.417 298.767 218.46C297.832 218.478 297.075 218.917 296.483 219.333C295.885 219.755 295.446 220.212 295.159 220.628C294.568 221.471 294.689 222.085 294.644 222.073C294.644 222.073 294.6 221.934 294.625 221.664C294.65 221.398 294.765 221.001 295.045 220.561C295.325 220.122 295.764 219.64 296.362 219.194C296.96 218.761 297.749 218.279 298.748 218.243C299.721 218.189 300.854 218.496 301.668 219.309C302.063 219.712 302.381 220.182 302.718 220.64C303.055 221.091 303.43 221.561 303.952 221.802C304.474 222.043 305.123 221.934 305.6 221.555C306.09 221.188 306.478 220.664 306.955 220.176C307.19 219.935 307.451 219.694 307.763 219.507C307.922 219.417 308.088 219.333 308.272 219.285C308.361 219.255 308.45 219.218 308.539 219.2L308.819 219.164C309.583 219.08 310.32 219.357 310.97 219.67C312.267 220.302 313.419 221.182 314.729 221.332C315.379 221.41 316.008 221.242 316.549 220.922C317.096 220.609 317.586 220.212 318.114 219.869C318.636 219.526 319.221 219.231 319.864 219.182C320.506 219.128 321.092 219.327 321.614 219.532C322.135 219.742 322.619 219.959 323.102 220.116C323.586 220.272 324.069 220.375 324.534 220.453C326.404 220.73 327.95 220.435 328.943 220.122C329.935 219.784 330.438 219.477 330.457 219.507Z" fill="#FAFAFA"/>
<path fill-rule="evenodd" clip-rule="evenodd" d="M295.184 252.135C295.184 252.129 295.253 252.147 295.375 252.183C295.444 252.202 295.521 252.226 295.604 252.256C295.699 252.274 295.807 252.286 295.935 252.305C296.438 252.365 297.195 252.226 298.068 251.814C298.953 251.445 299.946 250.754 301.334 250.445C301.684 250.372 302.053 250.36 302.435 250.396C302.817 250.451 303.193 250.572 303.55 250.748C304.269 251.099 304.899 251.632 305.6 252.117C306.287 252.596 307.115 253.02 308.044 252.94C308.967 252.874 309.84 252.401 310.782 252.002C311.253 251.802 311.756 251.614 312.297 251.523C312.839 251.432 313.405 251.457 313.953 251.553C315.054 251.747 316.092 252.195 317.187 252.48C318.276 252.789 319.46 252.777 320.619 252.529C321.784 252.292 322.93 251.856 324.101 251.432C325.273 251.008 326.489 250.572 327.807 250.415C329.119 250.221 330.513 250.475 331.735 251.008C332.97 251.517 334.097 252.177 335.288 252.632C336.465 253.092 337.745 253.28 338.923 252.953C341.305 252.305 343.036 250.469 345.296 249.76C346.411 249.385 347.646 249.403 348.696 249.742C349.766 250.063 350.683 250.615 351.549 251.147C352.408 251.686 353.217 252.232 354.038 252.674C354.859 253.122 355.7 253.443 356.534 253.625C358.221 253.976 359.825 253.807 361.137 253.444C362.455 253.068 363.493 252.48 364.257 251.923C365.791 250.772 366.243 249.779 366.294 249.827C366.301 249.827 366.268 249.888 366.199 249.99C366.116 250.112 366.014 250.269 365.886 250.463C365.575 250.851 365.11 251.438 364.333 252.02C363.569 252.601 362.525 253.219 361.188 253.613C359.857 254.001 358.221 254.194 356.483 253.849C355.617 253.667 354.745 253.346 353.911 252.892C353.07 252.444 352.255 251.905 351.396 251.372C350.536 250.851 349.632 250.312 348.607 250.015C347.595 249.694 346.449 249.682 345.392 250.045C344.322 250.384 343.336 251.014 342.323 251.638C341.311 252.262 340.254 252.928 339.006 253.262C337.752 253.613 336.37 253.413 335.16 252.935C333.938 252.468 332.811 251.808 331.602 251.311C330.404 250.796 329.112 250.56 327.845 250.742C326.578 250.887 325.381 251.311 324.21 251.735C323.038 252.159 321.879 252.596 320.676 252.838C319.486 253.092 318.225 253.104 317.098 252.777C315.971 252.48 314.94 252.032 313.889 251.838C313.367 251.741 312.839 251.717 312.335 251.796C311.833 251.874 311.349 252.05 310.884 252.244C309.961 252.632 309.057 253.116 308.057 253.189C307.045 253.268 306.147 252.795 305.46 252.305C304.753 251.808 304.135 251.275 303.454 250.936C303.117 250.766 302.76 250.645 302.41 250.596C302.053 250.56 301.703 250.566 301.372 250.633C300.035 250.911 299.029 251.578 298.125 251.941C297.24 252.341 296.45 252.468 295.935 252.383C295.807 252.359 295.693 252.347 295.597 252.323C295.508 252.286 295.432 252.262 295.368 252.232C295.241 252.165 295.184 252.141 295.184 252.135Z" fill="#FAFAFA"/>
<path fill-rule="evenodd" clip-rule="evenodd" d="M296.891 143.245C296.91 143.232 297.075 143.478 297.507 143.828C297.939 144.171 298.663 144.592 299.692 144.799C300.722 145.026 302.005 145.026 303.498 144.877C304.241 144.819 305.042 144.741 305.899 144.754C306.751 144.767 307.678 144.877 308.568 145.24C309.464 145.596 310.302 146.153 311.198 146.645C311.649 146.892 312.113 147.118 312.615 147.286C313.11 147.448 313.644 147.533 314.184 147.552C315.27 147.597 316.401 147.37 317.558 147.157C318.714 146.943 319.946 146.723 321.217 146.872C322.507 147.021 323.676 147.688 324.781 148.375C325.893 149.054 327.03 149.8 328.339 149.987C328.987 150.065 329.654 150.02 330.309 149.851C330.963 149.677 331.598 149.411 332.227 149.119C333.491 148.536 334.737 147.785 336.166 147.41C336.877 147.228 337.627 147.163 338.358 147.274C339.089 147.396 339.768 147.688 340.385 148.044C341.623 148.757 342.684 149.683 343.892 150.253C345.093 150.829 346.433 150.939 347.703 150.732C348.981 150.551 350.188 150.13 351.382 149.761C352.57 149.385 353.752 149.035 354.94 148.88C356.128 148.724 357.31 148.841 358.396 149.1C360.581 149.631 362.443 150.596 364.19 151.283C365.912 152.073 367.627 152.215 369.108 152.079C370.588 151.944 371.833 151.574 372.793 151.14C374.73 150.26 375.359 149.139 375.397 149.197C375.397 149.197 375.245 149.456 374.857 149.864C374.476 150.279 373.809 150.797 372.85 151.263C371.89 151.723 370.633 152.118 369.133 152.274C368.383 152.358 367.57 152.358 366.719 152.254C365.861 152.163 364.984 151.866 364.114 151.516C362.348 150.836 360.486 149.89 358.345 149.385C357.278 149.132 356.141 149.029 354.984 149.184C353.828 149.34 352.665 149.683 351.477 150.065C350.289 150.434 349.07 150.868 347.754 151.056C346.452 151.27 345.029 151.166 343.764 150.557C342.5 149.961 341.433 149.035 340.232 148.342C339.635 147.999 338.993 147.727 338.314 147.61C337.634 147.507 336.935 147.565 336.255 147.74C334.889 148.096 333.65 148.835 332.373 149.43C331.731 149.728 331.077 150 330.397 150.182C329.711 150.356 328.999 150.408 328.301 150.324C326.897 150.117 325.721 149.34 324.622 148.66C323.517 147.967 322.399 147.332 321.185 147.189C318.739 146.917 316.446 147.947 314.177 147.837C313.612 147.811 313.059 147.72 312.539 147.552C312.017 147.377 311.541 147.137 311.083 146.885C310.175 146.38 309.349 145.823 308.492 145.473C306.751 144.767 304.991 144.987 303.517 145.078C302.024 145.208 300.709 145.194 299.673 144.942C298.631 144.709 297.901 144.262 297.475 143.892C297.043 143.504 296.891 143.245 296.891 143.245Z" fill="#FAFAFA"/>
<g opacity="0.3">
<path opacity="0.3" fill-rule="evenodd" clip-rule="evenodd" d="M344.419 150.656L353.275 156.879C350.459 163.969 353.068 173.811 355.508 181.862C356.455 184.996 359.597 188.258 359.447 191.532C359.296 194.806 361.993 200.373 358.87 201.202C356.8 201.749 354.548 201.036 352.83 199.743C351.105 198.45 349.838 196.641 348.709 194.793C342.487 184.576 339.583 165.033 344.419 150.656Z" fill="black"/>
</g>
<path fill-rule="evenodd" clip-rule="evenodd" d="M296.891 246.65C296.891 246.638 297.012 246.65 297.236 246.687C297.499 246.731 297.819 246.793 298.209 246.861C299.098 247.028 300.307 247.245 301.779 247.517C304.792 248.062 308.97 248.769 313.603 249.394C318.241 250.02 322.451 250.447 325.509 250.72C327 250.85 328.222 250.955 329.131 251.03C329.527 251.067 329.854 251.098 330.116 251.122C330.34 251.147 330.461 251.166 330.455 251.178C330.455 251.191 330.333 251.191 330.11 251.191C329.847 251.184 329.521 251.172 329.124 251.159C328.267 251.129 327.026 251.054 325.497 250.949C322.432 250.739 318.209 250.342 313.564 249.716C308.926 249.09 304.748 248.347 301.741 247.746C300.237 247.443 299.021 247.183 298.189 246.984C297.806 246.892 297.486 246.817 297.23 246.755C297.006 246.693 296.891 246.662 296.891 246.65Z" fill="#263238"/>
<path fill-rule="evenodd" clip-rule="evenodd" d="M311.113 245.174C311.12 245.162 311.298 245.199 311.643 245.288C311.987 245.364 312.484 245.528 313.147 245.648C314.455 245.946 316.38 246.262 318.777 246.37C321.175 246.477 324.044 246.3 327.137 245.604C330.229 244.914 333.519 243.662 336.631 241.757C339.723 239.821 342.305 237.436 344.282 234.98C346.272 232.526 347.693 230.045 348.65 227.862C349.612 225.679 350.167 223.825 350.473 222.528C350.652 221.883 350.722 221.37 350.805 221.029C350.881 220.687 350.926 220.503 350.932 220.509C350.945 220.509 350.92 220.693 350.868 221.041C350.805 221.389 350.754 221.908 350.594 222.56C350.327 223.869 349.804 225.749 348.86 227.957C347.929 230.165 346.514 232.684 344.518 235.17C342.535 237.657 339.927 240.074 336.803 242.036C333.653 243.965 330.325 245.218 327.2 245.895C324.076 246.579 321.175 246.737 318.765 246.597C316.348 246.465 314.423 246.111 313.116 245.769C312.459 245.623 311.961 245.44 311.624 245.345C311.286 245.25 311.107 245.186 311.113 245.174Z" fill="#263238"/>
<path fill-rule="evenodd" clip-rule="evenodd" d="M316.935 133.669C316.947 133.669 316.947 133.828 316.947 134.128C316.947 134.459 316.941 134.899 316.941 135.441C316.954 136.576 316.928 138.253 317.419 140.216C317.683 141.186 318.073 142.237 318.778 143.187C319.457 144.15 320.438 144.972 321.589 145.61C322.74 146.254 324.068 146.713 325.47 147.019C326.873 147.331 328.364 147.491 329.892 147.453C332.943 147.389 335.824 146.528 338.063 145.113C340.321 143.71 341.85 141.746 342.755 139.955C343.655 138.138 343.925 136.48 343.982 135.352C344.019 134.217 343.906 133.586 343.944 133.586C343.956 133.586 343.982 133.739 344.026 134.039C344.076 134.338 344.101 134.785 344.108 135.358C344.089 136.5 343.856 138.195 342.963 140.057C342.069 141.9 340.529 143.921 338.227 145.374C335.949 146.84 333.012 147.727 329.905 147.784C328.351 147.822 326.835 147.663 325.407 147.338C323.98 147.025 322.633 146.547 321.451 145.878C320.269 145.215 319.256 144.354 318.564 143.353C317.841 142.365 317.45 141.275 317.199 140.28C316.727 138.266 316.797 136.582 316.815 135.441C316.834 134.868 316.866 134.428 316.884 134.128C316.903 133.828 316.922 133.669 316.935 133.669Z" fill="#263238"/>
<path fill-rule="evenodd" clip-rule="evenodd" d="M312.818 135.289C312.818 135.289 297.515 135.869 293.879 151.204C289.671 168.963 292.212 188.545 297.502 198.352L297.754 180.884C297.924 168.761 300.836 156.84 306.264 146.004L312.818 135.289Z" fill="#455A64"/>
<path fill-rule="evenodd" clip-rule="evenodd" d="M294.73 185.285C294.718 185.285 294.705 185.102 294.693 184.748C294.68 184.369 294.667 183.857 294.642 183.213C294.617 182.543 294.604 181.728 294.636 180.78C294.661 179.833 294.655 178.752 294.743 177.558C294.781 176.958 294.819 176.339 294.857 175.688C294.901 175.037 294.983 174.361 295.046 173.666C295.167 172.263 295.394 170.778 295.609 169.211C296.114 166.09 296.814 162.685 297.793 159.165C298.797 155.652 299.978 152.379 301.178 149.454C301.81 148.007 302.391 146.617 303.022 145.366C303.332 144.734 303.61 144.115 303.919 143.54C304.222 142.965 304.519 142.416 304.803 141.885C305.346 140.823 305.921 139.901 306.394 139.08C306.868 138.258 307.304 137.563 307.676 137.007C308.03 136.47 308.314 136.041 308.523 135.725C308.718 135.434 308.826 135.282 308.838 135.289C308.851 135.295 308.756 135.459 308.579 135.762C308.384 136.091 308.118 136.527 307.79 137.077C307.437 137.645 307.013 138.34 306.558 139.174C306.098 140.002 305.542 140.924 305.012 141.993C304.74 142.523 304.45 143.079 304.153 143.654C303.856 144.235 303.584 144.855 303.275 145.487C302.656 146.744 302.088 148.127 301.462 149.574C300.282 152.493 299.113 155.76 298.116 159.26C297.143 162.76 296.43 166.153 295.911 169.262C295.684 170.823 295.45 172.301 295.318 173.697C295.249 174.392 295.16 175.068 295.109 175.713C295.065 176.364 295.021 176.983 294.977 177.577C294.87 178.765 294.863 179.845 294.819 180.793C294.775 181.74 294.768 182.556 294.775 183.225C294.768 183.87 294.762 184.382 294.762 184.761C294.749 185.102 294.743 185.285 294.73 185.285Z" fill="#263238"/>
<path fill-rule="evenodd" clip-rule="evenodd" d="M302.007 138.7C302.02 138.707 301.951 138.845 301.828 139.111C301.679 139.401 301.493 139.786 301.252 140.259C300.738 141.243 300.045 142.7 299.233 144.517C298.843 145.432 298.391 146.429 297.989 147.527C297.784 148.075 297.549 148.637 297.345 149.224C297.14 149.817 296.936 150.423 296.72 151.047C295.902 153.552 295.134 156.346 294.54 159.331C293.376 165.312 293.134 170.851 293.147 174.844C293.159 176.844 293.196 178.459 293.252 179.576C293.271 180.106 293.283 180.535 293.296 180.863C293.302 181.159 293.302 181.311 293.289 181.311C293.277 181.311 293.258 181.159 293.234 180.863C293.209 180.535 293.172 180.112 293.129 179.576C293.035 178.459 292.961 176.838 292.918 174.838C292.85 170.838 293.054 165.267 294.225 159.255C294.819 156.252 295.605 153.444 296.441 150.934C296.658 150.309 296.874 149.703 297.079 149.11C297.289 148.523 297.53 147.962 297.741 147.413C298.156 146.315 298.626 145.325 299.029 144.41C299.871 142.599 300.596 141.155 301.146 140.183C301.407 139.723 301.617 139.35 301.772 139.06C301.914 138.827 302.001 138.694 302.007 138.7Z" fill="#263238"/>
<path fill-rule="evenodd" clip-rule="evenodd" d="M362.884 140.671C362.884 140.671 352.639 168.925 360.188 192.766L360.602 201.193C360.602 201.193 354.828 200.793 350.452 192.429C346.082 184.066 344.665 175.435 343.185 163C341.705 150.566 348.433 134.721 348.433 134.721C348.433 134.721 360.37 137.369 362.884 140.671Z" fill="#455A64"/>
<path fill-rule="evenodd" clip-rule="evenodd" d="M361.175 200.625C361.175 200.631 361.122 200.606 361.017 200.555C360.899 200.492 360.755 200.41 360.57 200.315C360.189 200.088 359.644 199.716 359.033 199.141C357.798 197.998 356.465 195.901 355.631 193.072C355.191 191.664 354.863 190.085 354.58 188.386C354.272 186.693 354.022 184.868 353.798 182.942C353.365 179.096 353.135 174.84 353.234 170.375C353.332 165.91 353.752 161.667 354.37 157.84C354.981 154.019 355.73 150.596 356.603 147.792C357.47 144.982 358.508 142.816 359.355 141.389C359.782 140.675 360.143 140.144 360.4 139.791C360.524 139.627 360.623 139.5 360.702 139.393C360.774 139.305 360.807 139.26 360.813 139.267C360.82 139.273 360.787 139.317 360.728 139.412C360.656 139.519 360.57 139.659 360.459 139.829C360.222 140.189 359.874 140.732 359.473 141.452C358.666 142.885 357.667 145.051 356.839 147.855C355.999 150.653 355.283 154.07 354.685 157.884C354.094 161.698 353.68 165.93 353.582 170.381C353.483 174.834 353.7 179.077 354.114 182.911C354.331 184.831 354.567 186.649 354.863 188.342C355.132 190.04 355.447 191.607 355.868 193.002C356.669 195.813 357.943 197.89 359.132 199.046C360.308 200.214 361.208 200.574 361.175 200.625Z" fill="#263238"/>
<path fill-rule="evenodd" clip-rule="evenodd" d="M360.606 200.625C360.606 200.631 360.548 200.612 360.432 200.568C360.303 200.517 360.135 200.447 359.935 200.364C359.509 200.154 358.883 199.836 358.16 199.301C356.702 198.244 354.948 196.271 353.36 193.503C351.831 190.715 350.076 187.336 348.74 183.339C347.366 179.367 346.263 174.854 345.695 170.043C345.121 165.231 345.134 160.591 345.528 156.409C345.882 152.222 346.747 148.517 347.566 145.456C348.025 143.935 348.412 142.547 348.883 141.376C349.328 140.192 349.676 139.161 350.063 138.366C350.418 137.57 350.702 136.946 350.902 136.501C350.992 136.303 351.07 136.145 351.128 136.017C351.179 135.909 351.212 135.858 351.218 135.858C351.225 135.858 351.205 135.922 351.16 136.03C351.108 136.157 351.044 136.322 350.967 136.526C350.779 136.978 350.515 137.608 350.186 138.41C349.818 139.219 349.489 140.25 349.063 141.433C348.611 142.611 348.244 143.992 347.798 145.513C347.005 148.575 346.173 152.26 345.837 156.428C345.469 160.591 345.463 165.206 346.031 169.992C346.598 174.778 347.682 179.272 349.037 183.224C350.347 187.202 352.076 190.582 353.567 193.369C355.115 196.132 356.825 198.105 358.244 199.18C358.948 199.728 359.554 200.059 359.967 200.288C360.167 200.383 360.322 200.46 360.451 200.523C360.554 200.593 360.606 200.625 360.606 200.625Z" fill="#263238"/>
<path fill-rule="evenodd" clip-rule="evenodd" d="M355.503 151.767L362.314 153.474L361.324 155.744L354.918 154.526L355.503 151.767Z" fill="#263238"/>
<path fill-rule="evenodd" clip-rule="evenodd" d="M356.057 153.657C356.021 153.617 356.379 153.155 356.961 152.465L357.071 152.337L357.156 152.491C357.404 152.92 357.665 153.369 357.933 153.838L357.726 153.778C357.957 153.631 358.194 153.483 358.436 153.329C358.691 153.175 358.934 153.027 359.171 152.88L359.304 152.8L359.377 152.947C359.62 153.443 359.85 153.912 360.075 154.361L359.911 154.308C360.664 153.885 361.156 153.644 361.174 153.691C361.198 153.738 360.755 154.066 360.027 154.542L359.924 154.609L359.857 154.489C359.62 154.046 359.371 153.59 359.104 153.108L359.31 153.175C359.074 153.322 358.831 153.476 358.582 153.631C358.333 153.785 358.096 153.926 357.866 154.073L357.732 154.154L357.66 154.013C357.404 153.53 357.162 153.068 356.931 152.632L357.125 152.659C356.506 153.302 356.087 153.698 356.057 153.657Z" fill="#E8505B"/>
<path fill-rule="evenodd" clip-rule="evenodd" d="M385.071 198.992V222.624C385.071 226.936 383.137 231.02 379.802 233.75C375.738 237.072 370.184 237.91 365.328 235.923L313.391 212.863L318.475 195.512L360.256 209.306L360.205 198.548L385.071 198.992Z" fill="#845D47"/>
<path fill-rule="evenodd" clip-rule="evenodd" d="M306.563 201.948L303.259 166.54L258.207 170.333L261.509 205.741L306.563 201.948Z" fill="white"/>
<path fill-rule="evenodd" clip-rule="evenodd" d="M304.289 200.062L301.908 168.816L260.484 172.228L262.865 203.473L304.289 200.062Z" fill="#D2ECFF"/>
<path fill-rule="evenodd" clip-rule="evenodd" d="M266.2 197.787L287.221 195.889L287.193 195.514L266.172 197.408L266.2 197.787Z" fill="#AEC3FF"/>
<path fill-rule="evenodd" clip-rule="evenodd" d="M300.875 178.495L300.849 178.089L296.324 178.495L296.352 178.897L300.875 178.495Z" fill="#AEC3FF"/>
<path fill-rule="evenodd" clip-rule="evenodd" d="M300.875 179.305L300.849 178.899L296.324 179.305L296.352 179.707L300.875 179.305Z" fill="#AEC3FF"/>
<path fill-rule="evenodd" clip-rule="evenodd" d="M300.875 180.114L300.849 179.708L296.324 180.114L296.352 180.516L300.875 180.114Z" fill="#AEC3FF"/>
<path fill-rule="evenodd" clip-rule="evenodd" d="M300.875 180.926L300.849 180.52L296.324 180.926L296.352 181.328L300.875 180.926Z" fill="#AEC3FF"/>
<path fill-rule="evenodd" clip-rule="evenodd" d="M300.875 181.74L300.849 181.334L296.324 181.74L296.352 182.142L300.875 181.74Z" fill="#AEC3FF"/>
<path fill-rule="evenodd" clip-rule="evenodd" d="M300.875 182.55L300.849 182.145L296.324 182.55L296.352 182.952L300.875 182.55Z" fill="#AEC3FF"/>
<path fill-rule="evenodd" clip-rule="evenodd" d="M266.2 198.922L287.221 197.024L287.193 196.649L266.172 198.543L266.2 198.922Z" fill="#AEC3FF"/>
<path fill-rule="evenodd" clip-rule="evenodd" d="M266.238 193.81L278.119 192.872L278.053 192.106L266.172 193.044L266.238 193.81Z" fill="#AEC3FF"/>
<path fill-rule="evenodd" clip-rule="evenodd" d="M289.179 169.849L289.561 173.039L289.917 173.028L289.536 169.838L289.179 169.849Z" fill="#AEC3FF"/>
<path fill-rule="evenodd" clip-rule="evenodd" d="M288.386 169.849L288.768 173.039L289.124 173.028L288.743 169.838L288.386 169.849Z" fill="#AEC3FF"/>
<path fill-rule="evenodd" clip-rule="evenodd" d="M287.593 169.849L287.975 173.039L288.331 173.028L287.95 169.838L287.593 169.849Z" fill="#AEC3FF"/>
<path fill-rule="evenodd" clip-rule="evenodd" d="M266.234 195.516L279.825 194.496L279.763 193.812L266.172 194.835L266.234 195.516Z" fill="#AEC3FF"/>
<path fill-rule="evenodd" clip-rule="evenodd" d="M269.531 180.537C269.531 180.537 269.988 178.956 271.467 178.9C272.946 178.843 276.185 180.481 278.04 179.445C279.896 178.41 280.729 175.404 283.088 175.057C285.447 174.71 284.973 177.035 287.007 178.157C289.042 179.278 289.172 178.726 289.86 178.401C290.548 178.076 288.951 179.331 287.831 179.158C286.711 178.985 284.063 177.032 282.968 177.098C281.873 177.163 281.324 177.419 279.209 179.174C277.094 180.929 276.758 180.47 275.763 180.575C274.768 180.679 271.676 179.521 270.928 179.698C270.18 179.876 269.531 180.537 269.531 180.537Z" fill="#D92840"/>
<path fill-rule="evenodd" clip-rule="evenodd" d="M267.988 183.737C267.988 183.737 269.871 180.992 272.247 180.695C274.624 180.398 274.742 182.319 276.64 182.073C278.539 181.826 280.597 179.298 281.425 178.645C282.254 177.992 284.028 177.806 285.502 179.255C286.976 180.703 288.081 180.446 288.902 180.171C289.723 179.896 288.253 181.182 286.175 180.269C284.096 179.355 282.605 179.087 281.538 179.718C280.472 180.349 277.142 182.35 277.142 182.35C277.142 182.35 275.203 183.214 274.215 182.799C273.227 182.384 272.879 181.76 271.594 181.66C270.309 181.559 267.988 183.737 267.988 183.737Z" fill="white"/>
<path fill-rule="evenodd" clip-rule="evenodd" d="M268.642 183.965C268.642 183.965 269.901 182.225 270.79 181.985C271.679 181.746 272.614 182.865 273.273 183.186C273.932 183.507 275.489 183.684 276.808 182.961C278.126 182.237 280.58 180.42 281.929 179.986C283.279 179.552 284.27 179.837 285.418 180.691C286.566 181.545 286.817 182.104 287.539 182.564C288.26 183.024 289.256 182.919 289.256 182.919C289.256 182.919 287.572 183.34 286.36 182.785C285.147 182.23 283.738 180.722 282.163 180.839C280.589 180.955 279.181 182.663 278.433 183.326C277.685 183.989 276.747 184.673 275.337 184.528C273.928 184.384 271.933 182.791 270.648 182.926C269.364 183.061 268.642 183.965 268.642 183.965Z" fill="#006FAB"/>
<path fill-rule="evenodd" clip-rule="evenodd" d="M262.188 174.037L267.244 173.355L267.876 179.491L262.82 180.173L262.188 174.037Z" fill="white"/>
<path fill-rule="evenodd" clip-rule="evenodd" d="M295.184 170.629L300.24 169.947L300.94 173.86L295.752 174.492L295.184 170.629Z" fill="white"/>
<path fill-rule="evenodd" clip-rule="evenodd" d="M320.785 197.661L317.24 193.265C314.902 190.369 311.382 188.692 307.657 188.692H304.559L302.444 191.065C302.444 191.065 287.278 191.722 286.722 193.591L286.71 194.197L286.703 194.548L299.672 195.422C299.672 195.422 288.639 195.389 287.974 195.409C287.246 195.434 284.895 195.224 284.946 196.519C284.985 197.584 286.243 198.42 288.153 198.7C288.939 198.815 298.496 199.644 298.496 199.644C298.496 199.644 288.46 199.549 287.974 199.549C286.793 199.542 286.946 201.43 287.642 201.666C288.198 201.851 301.671 205.781 301.671 205.781C301.671 205.781 299.403 207.299 297.557 207.165C295.704 207.031 292.536 204.658 291.878 205.781C291.22 206.903 291.348 207.56 291.744 207.828C292.14 208.09 296.503 210.335 297.953 210.73C299.403 211.126 311.273 213.001 311.273 213.001L315.553 213.69L320.785 197.661Z" fill="#845D47"/>
<path fill-rule="evenodd" clip-rule="evenodd" d="M255.931 192.668C255.931 192.668 255.46 193.492 256.798 194.621C256.798 194.621 255.149 195.031 256.177 197.799C256.177 197.799 255.042 200.668 258.136 201.897C258.136 201.897 257.312 204.255 260.299 205.384C263.286 206.512 266.171 204.564 266.171 204.564C266.171 204.564 259.183 192.1 257.069 192.1C256.5 192.1 255.931 192.1 255.931 192.668Z" fill="#845D47"/>
<path fill-rule="evenodd" clip-rule="evenodd" d="M257.202 192.1C259.304 192.703 261.606 193.185 263.551 193.969C264.192 194.23 264.821 194.243 265.243 194.812C265.665 195.381 265.765 196.292 265.281 196.808C264.853 197.256 264.173 197.249 263.576 197.176C261.336 196.888 259.191 196.071 257.07 195.254" fill="#845D47"/>
<path fill-rule="evenodd" clip-rule="evenodd" d="M257.769 195.508C259.87 196.11 262.173 196.593 264.117 197.376C264.759 197.637 265.388 197.65 265.81 198.22C266.231 198.789 266.332 199.7 265.847 200.215C265.419 200.664 264.74 200.657 264.142 200.583C261.902 200.295 259.757 199.478 257.637 198.662" fill="#845D47"/>
<path fill-rule="evenodd" clip-rule="evenodd" d="M258.909 198.916C261.011 199.519 263.313 200.001 265.258 200.784C265.899 201.045 266.529 201.059 266.95 201.628C267.372 202.197 267.472 203.108 266.988 203.624C266.56 204.072 265.881 204.065 265.283 203.992C263.043 203.704 260.898 202.887 258.777 202.07" fill="#845D47"/>
<path fill-rule="evenodd" clip-rule="evenodd" d="M257.071 194.956C257.109 194.878 258.602 195.337 260.484 195.797C262.359 196.263 263.916 196.549 263.897 196.633C263.884 196.711 262.295 196.549 260.395 196.078C258.494 195.612 257.039 195.023 257.071 194.956Z" fill="#5D4436"/>
<path fill-rule="evenodd" clip-rule="evenodd" d="M256.5 198.36C256.533 198.272 258.297 198.832 260.492 199.449C262.687 200.073 264.484 200.514 264.464 200.608C264.445 200.696 262.609 200.394 260.401 199.764C258.186 199.147 256.468 198.442 256.5 198.36Z" fill="#5D4436"/>
<path fill-rule="evenodd" clip-rule="evenodd" d="M258.207 202.348C258.227 202.265 259.903 202.574 261.944 203.036C263.985 203.498 265.622 203.943 265.602 204.026C265.583 204.109 263.907 203.801 261.866 203.338C259.818 202.876 258.181 202.432 258.207 202.348Z" fill="#5D4436"/>
<path fill-rule="evenodd" clip-rule="evenodd" d="M256.5 192.109C256.532 192.018 258.404 192.663 260.758 193.276C263.11 193.902 265.046 194.256 265.033 194.353C265.027 194.398 264.533 194.366 263.736 194.244C262.946 194.121 261.858 193.908 260.669 193.599C259.486 193.289 258.43 192.934 257.683 192.651C256.937 192.367 256.488 192.147 256.5 192.109Z" fill="#5D4436"/>
<path fill-rule="evenodd" clip-rule="evenodd" d="M297.461 191.287C297.461 191.17 299.881 191.053 302.865 191.036C305.85 191.02 308.27 191.095 308.27 191.22C308.27 191.337 305.85 191.454 302.865 191.471C299.881 191.487 297.461 191.412 297.461 191.287Z" fill="#5D4436"/>
<path fill-rule="evenodd" clip-rule="evenodd" d="M357.762 208.589C357.768 208.563 357.942 208.589 358.266 208.647C358.589 208.698 359.043 208.821 359.603 209.002C360.716 209.356 362.209 210.034 363.677 211.086C365.144 212.143 366.276 213.363 366.985 214.318C367.34 214.795 367.607 215.202 367.769 215.492C367.937 215.782 368.018 215.95 367.999 215.963C367.956 215.995 367.557 215.376 366.805 214.473C366.059 213.569 364.927 212.408 363.49 211.369C362.053 210.337 360.604 209.64 359.528 209.234C358.446 208.808 357.75 208.64 357.762 208.589Z" fill="#5D4436"/>
<path fill-rule="evenodd" clip-rule="evenodd" d="M329.355 146.612C322.502 146.066 317.329 140.154 317.671 133.269C317.912 128.438 318.16 124.084 318.16 124.084C318.16 124.084 307.832 122.475 307.706 112.12C307.579 101.765 309.367 77.9907 309.367 77.9907C321.323 72.8417 335.117 74.5771 345.425 82.536L346.953 83.7183L343.041 134.884C342.503 141.915 336.366 147.171 329.355 146.612Z" fill="#845D47"/>
<path fill-rule="evenodd" clip-rule="evenodd" d="M317.967 123.904C317.967 123.904 324.572 124.455 331.595 119.945C331.595 119.945 328.372 127.639 317.941 126.68L317.967 123.904Z" fill="#5D4436"/>
<path fill-rule="evenodd" clip-rule="evenodd" d="M312.251 94.0172C312.226 94.8013 312.839 95.4705 313.623 95.5151C314.407 95.5598 315.063 94.9605 315.094 94.1764C315.118 93.3923 314.506 92.7232 313.721 92.6785C312.931 92.6403 312.275 93.2392 312.251 94.0172Z" fill="black"/>
<path fill-rule="evenodd" clip-rule="evenodd" d="M311.706 92.6449C311.885 92.8498 312.97 91.9619 314.512 91.9688C316.053 91.9484 317.188 92.8294 317.354 92.6175C317.434 92.5218 317.256 92.1533 316.762 91.75C316.275 91.3541 315.449 90.9712 314.487 90.9712C313.525 90.9782 312.717 91.3675 312.255 91.7704C311.78 92.1737 311.62 92.5492 311.706 92.6449Z" fill="black"/>
<path fill-rule="evenodd" clip-rule="evenodd" d="M327.044 94.5862C327.019 95.37 327.632 96.0394 328.416 96.084C329.2 96.1282 329.856 95.5296 329.887 94.7458C329.911 93.9615 329.299 93.2926 328.514 93.2479C327.73 93.2033 327.068 93.8024 327.044 94.5862Z" fill="black"/>
<path fill-rule="evenodd" clip-rule="evenodd" d="M327.065 92.6449C327.244 92.8498 328.329 91.9619 329.871 91.9688C331.412 91.9484 332.547 92.8294 332.713 92.6175C332.794 92.5218 332.615 92.1533 332.122 91.75C331.634 91.3541 330.808 90.9712 329.846 90.9712C328.884 90.9782 328.077 91.3675 327.608 91.7704C327.139 92.1737 326.979 92.5492 327.065 92.6449Z" fill="black"/>
<path fill-rule="evenodd" clip-rule="evenodd" d="M321.213 104.545C321.218 104.457 320.284 104.289 318.759 104.089C318.373 104.046 318.011 103.971 317.945 103.697C317.855 103.41 318.017 102.979 318.204 102.518C318.566 101.551 318.945 100.541 319.344 99.4806C320.923 95.1586 322.075 91.6037 321.906 91.5414C321.737 91.479 320.32 94.9278 318.735 99.2498C318.355 100.316 317.987 101.333 317.643 102.306C317.499 102.761 317.246 103.272 317.444 103.871C317.547 104.17 317.83 104.383 318.078 104.451C318.325 104.526 318.542 104.532 318.735 104.545C320.26 104.626 321.206 104.632 321.213 104.545Z" fill="black"/>
<path fill-rule="evenodd" clip-rule="evenodd" d="M325.661 105.742C325.411 105.729 325.411 107.442 323.987 108.662C322.57 109.881 320.798 109.691 320.786 109.931C320.762 110.039 321.183 110.266 321.929 110.285C322.662 110.31 323.73 110.071 324.598 109.325C325.465 108.579 325.838 107.581 325.893 106.873C325.954 106.159 325.771 105.729 325.661 105.742Z" fill="black"/>
<path fill-rule="evenodd" clip-rule="evenodd" d="M326.482 86.5684C326.644 87.0306 328.261 86.8129 330.156 87.051C332.059 87.2479 333.592 87.8322 333.844 87.418C333.954 87.2206 333.689 86.7861 333.068 86.3372C332.453 85.8889 331.476 85.4677 330.331 85.3318C329.193 85.2024 328.144 85.3928 327.452 85.685C326.76 85.9841 326.411 86.3442 326.482 86.5684Z" fill="black"/>
<path fill-rule="evenodd" clip-rule="evenodd" d="M311.728 87.9821C312.019 88.3238 313.158 87.9698 314.536 87.9518C315.907 87.8918 317.073 88.1801 317.338 87.8257C317.457 87.6518 317.271 87.3096 316.762 86.9855C316.258 86.6617 315.423 86.4033 314.476 86.4273C313.536 86.4576 312.714 86.7634 312.238 87.1116C311.761 87.4656 311.595 87.82 311.728 87.9821Z" fill="black"/>
<path fill-rule="evenodd" clip-rule="evenodd" d="M345.652 94.1389C345.833 94.0629 352.862 92.0378 352.636 99.1087C352.404 106.18 345.253 104.491 345.246 104.288C345.233 104.085 345.652 94.1389 345.652 94.1389Z" fill="#845D47"/>
<path fill-rule="evenodd" clip-rule="evenodd" d="M347.531 102.27C347.564 102.25 347.658 102.36 347.872 102.462C348.085 102.565 348.446 102.636 348.839 102.514C349.634 102.263 350.335 101.079 350.414 99.787C350.454 99.1373 350.335 98.5134 350.114 97.9923C349.907 97.4585 349.567 97.0858 349.173 97.0022C348.786 96.9055 348.492 97.1243 348.399 97.3238C348.292 97.5228 348.332 97.6646 348.292 97.6773C348.272 97.6965 348.139 97.5552 348.206 97.2595C348.239 97.1177 348.332 96.9506 348.512 96.8219C348.693 96.6867 348.96 96.6224 349.233 96.6609C349.807 96.7191 350.301 97.2398 350.548 97.8125C350.822 98.3913 350.975 99.0922 350.928 99.8255C350.835 101.266 350.021 102.591 348.94 102.861C348.412 102.977 347.979 102.81 347.765 102.636C347.538 102.443 347.504 102.282 347.531 102.27Z" fill="#5D4436"/>
<path fill-rule="evenodd" clip-rule="evenodd" d="M305.295 68.9194C306.801 65.9422 309.725 63.7235 312.991 63.099C316.257 62.4676 319.797 63.4369 322.294 65.6425C323.857 62.5188 327.035 60.2554 330.492 59.8091C333.949 59.3568 337.597 60.7337 339.904 63.354C341.886 65.6105 342.916 68.6705 345.242 70.5704C347.256 72.2154 349.982 72.757 352.003 74.389C354.233 76.1805 355.339 79.2661 354.767 82.0772C354.195 84.8822 351.965 87.2857 349.213 88.0572C351.431 92.0735 349.353 97.8366 345.083 99.4941L344.053 99.0669C340.139 94.7575 339.243 87.9488 341.912 82.7659C341.784 82.7724 341.664 82.7533 341.543 82.7468C340.183 83.4927 338.614 83.8687 337.063 83.7733C334.591 83.6267 332.208 82.3005 330.772 80.2731C327.944 82.3196 323.896 82.4918 320.909 80.6877C320.439 80.4006 319.968 80.0693 319.422 80.012C318.774 79.9418 318.158 80.2796 317.566 80.5667C316.016 81.3317 314.268 81.8287 312.559 81.5802C310.964 81.3508 309.426 80.3499 308.797 78.8771C308.759 78.8706 308.72 78.8706 308.682 78.8645C306.687 78.5011 305.086 76.7924 304.539 74.8352C303.986 72.878 304.38 70.7361 305.295 68.9194Z" fill="black"/>
<path fill-rule="evenodd" clip-rule="evenodd" d="M278.686 51.7794C278.715 49.6454 278.267 47.5319 277.373 45.5898L272.447 51.087C272.506 51.5029 272.537 51.9222 272.541 52.342C272.547 54.433 271.851 56.4666 270.56 58.1227C269.271 59.7787 267.461 60.9629 265.417 61.489C263.372 62.0151 261.209 61.8528 259.267 61.028C257.326 60.2033 255.717 58.763 254.694 56.9337C253.671 55.104 253.291 52.9896 253.615 50.9234C253.94 48.8571 254.949 46.9563 256.484 45.5203C258.02 44.0843 259.994 43.1945 262.097 42.9913C264.199 42.7877 266.31 43.2826 268.097 44.3977L272.257 39.753C269.73 37.9312 266.951 37.0022 263.207 37.0022C259.567 36.941 256.02 38.1434 253.182 40.4007C249.081 43.5265 247.398 48.4391 247.398 51.4534C247.398 52.2035 247.444 52.9271 247.511 53.6325C247.564 55.2291 247.938 56.7992 248.612 58.2503C248.711 58.4869 248.819 58.697 248.932 58.9514C251.847 65.0472 258.493 71.4018 261.511 74.9031C261.694 75.131 261.926 75.3151 262.191 75.4414C262.456 75.5682 262.746 75.6337 263.04 75.6337C263.334 75.6337 263.624 75.5682 263.889 75.4414C264.154 75.3151 264.387 75.131 264.57 74.9031C268.485 70.357 278.555 60.979 278.555 53.6325C278.555 53.5791 278.555 53.5301 278.555 53.481C278.635 52.9171 278.678 52.3489 278.686 51.7794Z" fill="#041B54"/>
<path fill-rule="evenodd" clip-rule="evenodd" d="M260.49 48.282L257.07 51.5136L263.84 58.59L276.413 44.5069C275.699 43.3823 274.832 42.3612 273.835 41.4728C273.646 41.2976 273.451 41.1442 273.262 40.9775L263.721 51.6627L260.49 48.282Z" fill="#FF0029"/>
</svg>
