<svg width="448" height="380" viewBox="0 0 448 380" fill="none" xmlns="http://www.w3.org/2000/svg">
<g clip-path="url(#clip0)">
<path d="M448 363.672C448 363.859 379.895 364.019 295.899 364.019C211.903 364.019 143.777 363.859 143.777 363.672C143.777 363.485 211.867 363.324 295.899 363.324C379.931 363.324 448 363.471 448 363.672Z" fill="#FF0029"/>
<path d="M132.368 31.02L132.241 23.8773L126.581 15.1157C126.581 15.1157 125.396 15.1157 125.269 16.6606C125.299 18.179 125.509 19.6886 125.893 21.1578L114.796 8.09998C114.674 7.95636 114.525 7.83877 114.357 7.75427C114.189 7.66977 114.006 7.62011 113.818 7.60825C113.63 7.59639 113.442 7.62258 113.265 7.68526C113.087 7.74794 112.924 7.84581 112.786 7.973C112.536 8.20185 112.378 8.51371 112.341 8.85049C112.304 9.18727 112.391 9.52602 112.585 9.80363L117.642 17.0415C117.642 17.0415 114.256 16.3114 114.997 20.0996C114.997 20.0996 111.823 21.9091 114.309 26.163C116.795 30.4168 121.662 37.115 121.662 37.115L128.358 36.1839L132.368 31.02Z" fill="#FFBE9D"/>
<path d="M117.43 17.6992C118.132 18.2946 118.77 18.9613 119.334 19.6886L121.281 21.9636C121.716 22.405 122.074 22.9165 122.339 23.4768C122.478 23.8111 122.529 24.1754 122.487 24.535C122.439 24.9251 122.242 25.2815 121.937 25.5297C121.638 25.7555 121.285 25.8979 120.913 25.9426C120.542 25.9872 120.165 25.9323 119.821 25.7836C119.245 25.5188 118.738 25.124 118.34 24.6302C117.621 23.7414 117.028 22.9372 116.52 22.2599C115.927 21.5534 115.403 20.7916 114.955 19.9849C115.648 20.5921 116.272 21.2734 116.817 22.0166L118.7 24.334C119.048 24.7577 119.49 25.0946 119.99 25.3181C120.241 25.4164 120.512 25.4514 120.78 25.4201C121.047 25.3887 121.303 25.2919 121.524 25.1382C121.712 24.9596 121.838 24.7258 121.884 24.4708C121.929 24.2158 121.892 23.9528 121.778 23.7202C121.535 23.2163 121.222 22.7495 120.847 22.334L118.985 19.9955C118.397 19.2796 117.877 18.5109 117.43 17.6992Z" fill="#EB996E"/>
<path d="M116.023 21.9219C116.723 22.5229 117.361 23.193 117.927 23.9218L119.874 26.1863C120.307 26.6296 120.664 27.1408 120.932 27.6995C121.071 28.0337 121.122 28.3981 121.08 28.7577C121.032 29.1478 120.834 29.5042 120.53 29.7523C120.231 29.9781 119.878 30.1206 119.506 30.1652C119.134 30.2098 118.757 30.155 118.414 30.0063C117.836 29.7489 117.328 29.3571 116.933 28.8635C116.213 27.964 115.621 27.1704 115.103 26.4826C114.511 25.7767 113.99 25.0147 113.547 24.2075C114.237 24.8182 114.861 25.4991 115.409 26.2392C115.991 26.9376 116.636 27.6995 117.314 28.5249C117.662 28.9453 118.104 29.2787 118.604 29.4984C118.854 29.6011 119.125 29.6394 119.393 29.6098C119.661 29.5802 119.917 29.4837 120.138 29.3291C120.325 29.148 120.451 28.9124 120.496 28.6559C120.542 28.3994 120.505 28.1351 120.392 27.9005C120.152 27.3985 119.838 26.9349 119.461 26.5249L117.599 24.1758C117.003 23.4764 116.475 22.7217 116.023 21.9219Z" fill="#EB996E"/>
<path d="M127.322 30.5993C127.322 30.5993 126.761 30.2501 126.359 29.3083C125.852 28.0598 125.852 26.6628 126.359 25.4143C126.554 24.9537 126.818 24.5256 127.142 24.1445V24.4302C126.521 23.2554 126.038 22.0126 125.703 20.7266C126.475 21.8101 127.121 22.9781 127.629 24.2079L127.692 24.3561L127.586 24.4937C127.309 24.8381 127.082 25.2191 126.909 25.6259C126.453 26.7553 126.401 28.0073 126.761 29.1708C127.004 30.0702 127.396 30.5464 127.322 30.5993Z" fill="#EB996E"/>
<path d="M291.459 71.0429L288.433 78.6618V84.1748L298.24 86.2065L302.239 82.2172L308.142 72.8101C308.339 72.5117 308.419 72.1512 308.366 71.7977C308.313 71.4442 308.132 71.1227 307.857 70.8948L306.185 69.4874L306.27 69.0853C306.372 68.5392 306.282 67.9742 306.014 67.4876C305.745 67.001 305.316 66.623 304.799 66.4187L303.498 65.9002L306.428 59.5512C306.631 59.1137 306.686 58.6221 306.585 58.1506C306.484 57.6791 306.232 57.2533 305.868 56.9375L297.055 67.5192L292.432 68.5245L291.459 71.0429Z" fill="#FFBE9D"/>
<path d="M306.323 69.2968C306.04 69.8989 305.645 70.4413 305.159 70.8946C304.699 71.4452 304.185 71.9486 303.625 72.3972C303.248 72.6865 302.788 72.8462 302.313 72.8523C302.037 72.8615 301.764 72.7905 301.527 72.6478C301.291 72.505 301.101 72.2967 300.98 72.048C300.785 71.5625 300.785 71.0204 300.98 70.5349C301.133 70.128 301.321 69.7351 301.541 69.3603C301.908 68.7254 302.26 68.1117 302.599 67.5191C302.877 66.9281 303.233 66.3766 303.657 65.8789C303.499 66.5182 303.25 67.1312 302.916 67.699L301.975 69.6037C301.615 70.3021 301.16 71.1063 301.488 71.8153C301.565 71.9721 301.686 72.103 301.836 72.1914C301.987 72.2799 302.16 72.322 302.334 72.3126C302.714 72.3142 303.084 72.1957 303.392 71.974C303.95 71.5616 304.477 71.1089 304.968 70.6195C305.377 70.1363 305.83 69.6933 306.323 69.2968Z" fill="#EB996E"/>
<path d="M308.269 72.2068C307.997 72.8209 307.641 73.3943 307.211 73.9105C306.822 74.5307 306.357 75.0996 305.825 75.6035C305.652 75.7901 305.443 75.9401 305.211 76.0446C304.979 76.1491 304.729 76.2059 304.474 76.2119C304.22 76.2178 303.967 76.1726 303.73 76.079C303.493 75.9855 303.278 75.8454 303.096 75.667C302.94 75.4451 302.841 75.1879 302.807 74.9184C302.774 74.649 302.808 74.3754 302.906 74.1221C303.042 73.7036 303.219 73.2995 303.435 72.9158C303.786 72.2672 304.204 71.6572 304.683 71.0957C305.476 70.1328 306.111 69.6778 306.153 69.7307C305.798 70.2834 305.413 70.8168 305 71.3285C304.6 71.906 304.246 72.5146 303.942 73.1486C303.758 73.5084 303.606 73.8838 303.487 74.2703C303.418 74.442 303.391 74.6281 303.41 74.8124C303.428 74.9967 303.491 75.1738 303.593 75.3284C303.713 75.4632 303.866 75.565 304.036 75.6243C304.206 75.6835 304.389 75.6983 304.567 75.667C304.939 75.6247 305.29 75.4696 305.572 75.2226C306.089 74.7532 306.557 74.232 306.968 73.6671C307.334 73.1237 307.771 72.6324 308.269 72.2068Z" fill="#EB996E"/>
<path d="M296.568 79.0631C296.992 78.3739 297.31 77.6247 297.51 76.8409C297.674 75.9719 297.631 75.0763 297.383 74.2272C297.169 73.1642 296.633 72.1927 295.849 71.4442L295.31 71.0104H295.997C296.61 70.9628 297.211 70.8126 297.775 70.566C298.594 70.2486 299.321 69.7322 299.89 69.0633C300.134 68.7814 300.32 68.4538 300.436 68.0996C300.552 67.7453 300.597 67.3716 300.567 66.9999L300.864 67.201C299.277 67.5184 297.954 67.7724 297.023 67.9417C296.539 68.0646 296.042 68.1251 295.542 68.1216C295.997 67.9085 296.477 67.7555 296.971 67.6666C297.88 67.4232 299.182 67.0951 300.747 66.7354L301.001 66.6719V66.9364C301.049 67.376 301.008 67.8208 300.881 68.2444C300.754 68.6679 300.543 69.0615 300.261 69.402C299.655 70.1411 298.872 70.716 297.986 71.0739C297.366 71.3438 296.704 71.5049 296.029 71.5501L296.177 71.0633C297.055 71.8927 297.642 72.9841 297.849 74.1743C298.077 75.0951 298.077 76.0577 297.849 76.9785C297.689 77.5805 297.412 78.1451 297.034 78.6398C296.78 78.9361 296.59 79.0737 296.568 79.0631Z" fill="#EB996E"/>
<path d="M282.868 324.082L287.206 357.732L271.961 358.695L264.143 326.421L282.868 324.082Z" fill="#FFBE9D"/>
<path d="M270.544 352.179C270.544 352.179 282.181 358.274 286.413 351.047L288.179 354.031L297.278 375.745C297.581 376.423 297.626 377.189 297.404 377.899C297.181 378.608 296.708 379.212 296.072 379.596C295.581 379.873 295.022 380.003 294.46 379.974C293.898 379.944 293.356 379.754 292.898 379.427C287.957 375.861 269.877 362.655 269.75 360.549L269.063 355.004C268.991 354.443 269.09 353.874 269.347 353.37C269.603 352.866 270.006 352.451 270.502 352.179H270.544Z" fill="#FF0029"/>
<path opacity="0.6" d="M295.606 379.816L269.518 358.652L269.687 359.869C269.75 361.192 270.396 361.626 271.136 362.388C273.316 364.62 279.176 369.488 292.855 379.467C293.247 379.752 293.703 379.936 294.183 380.002C294.663 380.069 295.152 380.016 295.606 379.848V379.816Z" fill="white"/>
<g opacity="0.6">
<path opacity="0.6" d="M272.374 354.569C272.758 354.78 273.052 355.125 273.2 355.538C273.349 355.952 273.34 356.405 273.178 356.812C272.985 357.207 272.648 357.512 272.236 357.664C271.824 357.816 271.369 357.803 270.967 357.627C270.556 357.408 270.243 357.044 270.086 356.605C269.93 356.167 269.942 355.687 270.12 355.257C270.367 354.868 270.754 354.588 271.201 354.476C271.648 354.364 272.121 354.427 272.522 354.654" fill="white"/>
</g>
<path d="M287.354 368.24C287.911 367.249 288.654 366.376 289.544 365.669C290.526 365.118 291.603 364.759 292.718 364.611C292.718 364.537 292.348 364.367 291.66 364.367C290.767 364.391 289.899 364.674 289.163 365.182C288.421 365.674 287.84 366.373 287.492 367.192C287.259 367.827 287.28 368.24 287.354 368.24Z" fill="#542C10"/>
<path d="M289.872 371.805C290.031 371.911 290.814 370.853 292.231 370.218C293.125 369.915 294.037 369.668 294.961 369.477C295.024 369.318 293.564 368.906 291.967 369.646C290.369 370.387 289.756 371.742 289.872 371.805Z" fill="#542C10"/>
<path d="M282.89 363.903C283.971 362.922 285.128 362.027 286.349 361.226C288.465 360.02 290.464 359.84 290.443 359.649C288.912 359.563 287.388 359.916 286.05 360.665C284.712 361.415 283.616 362.531 282.89 363.882V363.903Z" fill="#542C10"/>
<path d="M281.409 357.108C281.504 357.277 282.985 356.399 285.027 356.05C287.068 355.7 288.761 355.954 288.793 355.775C287.578 355.21 286.204 355.09 284.91 355.436C282.763 355.806 281.334 356.991 281.409 357.108Z" fill="#542C10"/>
<path d="M286.233 355.815C286.205 355.445 286.101 355.084 285.926 354.757C285.52 353.838 284.934 353.01 284.202 352.323C283.714 351.775 283.06 351.403 282.34 351.265C282.097 351.239 281.853 351.289 281.641 351.409C281.429 351.528 281.259 351.711 281.155 351.931C280.986 352.374 280.986 352.864 281.155 353.307C281.53 354.2 282.2 354.937 283.053 355.395C283.906 355.853 284.89 356.005 285.841 355.825C286.777 355.615 287.63 355.132 288.291 354.437C288.952 353.742 289.392 352.866 289.555 351.921C289.595 351.683 289.582 351.44 289.518 351.208C289.454 350.976 289.34 350.76 289.184 350.577C289.012 350.404 288.788 350.291 288.546 350.255C288.304 350.219 288.057 350.261 287.841 350.376C287.216 350.746 286.702 351.275 286.349 351.91C285.806 352.749 285.412 353.677 285.186 354.651C285.081 354.993 285.045 355.353 285.08 355.709C285.453 354.455 285.998 353.258 286.698 352.153C287.032 351.619 287.489 351.172 288.031 350.852C288.148 350.79 288.282 350.766 288.414 350.785C288.545 350.804 288.667 350.865 288.761 350.958C288.855 351.086 288.92 351.232 288.953 351.387C288.986 351.542 288.985 351.702 288.952 351.857C288.789 352.669 288.394 353.417 287.816 354.01C287.238 354.604 286.501 355.017 285.693 355.201C284.886 355.355 284.049 355.23 283.322 354.845C282.595 354.46 282.021 353.839 281.694 353.085C281.585 352.773 281.585 352.433 281.694 352.122C281.751 351.998 281.844 351.895 281.962 351.827C282.079 351.759 282.215 351.728 282.35 351.741C282.959 351.865 283.516 352.172 283.948 352.619C284.894 353.539 285.668 354.622 286.233 355.815Z" fill="#542C10"/>
<path d="M236.066 322.602L236.489 357.077L217.88 356.368L215.119 323.014L236.066 322.602Z" fill="#FFBE9D"/>
<path d="M217.552 352.199C217.552 352.199 196.901 359.903 196.679 363.723L236.626 363.649V353.204L235.156 353.543C229.288 354.895 223.147 354.427 217.552 352.199Z" fill="#FF0029"/>
<g opacity="0.6">
<path opacity="0.6" d="M232.046 355.16C232.43 355.278 232.757 355.533 232.966 355.876C233.174 356.219 233.25 356.627 233.178 357.022C233.075 357.412 232.827 357.748 232.485 357.96C232.142 358.173 231.732 358.246 231.337 358.165C230.93 358.04 230.584 357.768 230.365 357.403C230.146 357.038 230.071 356.604 230.152 356.186C230.3 355.791 230.596 355.469 230.977 355.287C231.357 355.106 231.794 355.079 232.194 355.213" fill="white"/>
</g>
<g opacity="0.6">
<path opacity="0.6" d="M236.627 363.648V360.41L198.224 361.691C198.224 361.691 196.447 362.463 196.648 363.722L236.627 363.648Z" fill="white"/>
</g>
<path d="M216.875 351.998C216.875 352.199 217.859 352.283 218.822 352.908C219.784 353.532 220.292 354.357 220.472 354.273C220.652 354.188 220.356 353.077 219.181 352.336C218.007 351.596 216.875 351.818 216.875 351.998Z" fill="#542C10"/>
<path d="M212.717 353.744C212.717 353.934 213.521 354.262 214.188 355.088C214.854 355.913 215.045 356.781 215.246 356.77C215.447 356.759 215.563 355.659 214.717 354.654C213.87 353.648 212.728 353.553 212.717 353.744Z" fill="#542C10"/>
<path d="M210.348 358.714C210.528 358.714 210.803 357.783 210.295 356.714C209.787 355.646 208.877 355.222 208.793 355.392C208.708 355.561 209.279 356.122 209.681 357C210.083 357.878 210.157 358.714 210.348 358.714Z" fill="#542C10"/>
<path d="M217.34 351.892C217.995 352.071 218.685 352.071 219.34 351.892C220.069 351.765 220.78 351.548 221.456 351.246C221.851 351.071 222.233 350.865 222.598 350.632C222.824 350.512 223.028 350.355 223.201 350.167C223.335 350.028 223.418 349.847 223.435 349.654C223.453 349.462 223.404 349.269 223.296 349.109C223.199 348.972 223.071 348.86 222.922 348.783C222.773 348.706 222.607 348.665 222.44 348.664C222.185 348.662 221.932 348.698 221.688 348.77C221.261 348.874 220.843 349.016 220.44 349.193C219.768 349.502 219.147 349.912 218.599 350.41C217.679 351.267 217.361 351.997 217.425 352.04C217.488 352.082 217.965 351.489 218.906 350.78C219.454 350.366 220.055 350.028 220.694 349.775C221.063 349.621 221.445 349.5 221.837 349.415C222.26 349.299 222.619 349.299 222.736 349.49C222.852 349.68 222.736 349.585 222.683 349.712C222.557 349.847 222.411 349.962 222.249 350.05C221.889 350.283 221.54 350.484 221.191 350.664C220.571 350.973 219.923 351.221 219.255 351.405C218.605 351.518 217.965 351.681 217.34 351.892Z" fill="#542C10"/>
<path d="M217.594 352.169C217.668 352.169 218.049 351.502 218.123 350.232C218.152 349.492 218.059 348.752 217.848 348.042C217.716 347.623 217.542 347.219 217.33 346.836C217.23 346.561 217.059 346.318 216.834 346.132C216.609 345.946 216.338 345.824 216.05 345.777C215.872 345.783 215.699 345.839 215.552 345.938C215.404 346.037 215.287 346.176 215.214 346.338C215.118 346.576 215.051 346.825 215.013 347.079C214.944 347.524 214.944 347.977 215.013 348.423C215.125 349.17 215.42 349.879 215.87 350.486C216.653 351.544 217.467 351.756 217.489 351.693C217.51 351.629 216.875 351.312 216.272 350.253C215.924 349.68 215.707 349.037 215.637 348.37C215.585 347.987 215.585 347.599 215.637 347.216C215.701 346.793 215.859 346.444 216.018 346.497C216.177 346.55 216.558 346.804 216.716 347.142C216.915 347.479 217.081 347.833 217.213 348.201C217.443 348.84 217.575 349.511 217.605 350.19C217.7 351.407 217.489 352.137 217.594 352.169Z" fill="#542C10"/>
<path d="M272.289 175.737C271.464 157.113 257.161 136.754 257.161 136.754L235.145 134.913V134.828H234.669L209.364 136.944C209.364 136.944 198.224 161.282 201.112 190.234C204 219.186 213.807 325.807 213.807 325.807H236.976L237.494 171.557L260.991 331.034H284.265C284.265 331.034 273.114 194.361 272.289 175.737Z" fill="#1B2152"/>
<path d="M210.982 323.164L214.22 338.878L237.875 338.804L239.303 324.328L210.982 323.164Z" fill="#747AAA"/>
<path d="M259.467 328.18L264.651 345.894L286.655 342.825L285.513 322.91L259.467 328.18Z" fill="#747AAA"/>
<path d="M238.478 171.418C238.478 171.418 238.361 171.418 238.128 171.418C237.799 171.352 237.489 171.215 237.219 171.016C236.278 170.198 235.656 169.073 235.463 167.841C234.923 164.836 234.405 160.709 233.918 156.117C233.431 151.524 233.082 147.365 232.86 144.35C232.754 142.847 232.68 141.62 232.638 140.773C232.586 140.337 232.586 139.897 232.638 139.461C232.749 139.887 232.819 140.323 232.849 140.762C232.955 141.715 233.082 142.879 233.241 144.318C233.558 147.492 233.981 151.535 234.447 156.053C234.912 160.571 235.388 164.794 235.822 167.756C235.97 168.917 236.498 169.997 237.324 170.825C237.67 171.091 238.061 171.292 238.478 171.418Z" fill="#9DA3D1"/>
<path d="M236.51 138.363C236.51 138.363 236.68 138.226 237.061 138.173C237.609 138.101 238.166 138.22 238.637 138.511C238.99 138.727 239.295 139.015 239.53 139.356C239.765 139.697 239.926 140.083 240.002 140.49C240.104 140.997 240.018 141.524 239.758 141.972C239.481 142.457 239.043 142.831 238.52 143.03C238.036 143.232 237.502 143.281 236.989 143.169C236.476 143.058 236.01 142.791 235.654 142.406C235.39 142.08 235.208 141.695 235.123 141.285C235.039 140.874 235.054 140.449 235.167 140.046C235.291 139.512 235.575 139.028 235.981 138.66C236.288 138.416 236.5 138.363 236.51 138.395C236.025 138.866 235.69 139.469 235.548 140.13C235.475 140.471 235.482 140.823 235.566 141.16C235.65 141.498 235.81 141.811 236.034 142.078C236.331 142.365 236.706 142.56 237.112 142.637C237.518 142.714 237.938 142.67 238.319 142.511C238.712 142.387 239.047 142.127 239.264 141.778C239.481 141.429 239.566 141.013 239.504 140.607C239.452 140.262 239.332 139.93 239.15 139.632C238.969 139.334 238.729 139.076 238.446 138.871C237.866 138.514 237.192 138.337 236.51 138.363Z" fill="#9DA3D1"/>
<path d="M205.322 56.7771L166.253 52.9042L134.6 26.2383L120.847 40.4389L145.264 65.4859C150.94 71.31 158.376 75.103 166.422 76.2792C180.408 78.3109 201.217 81.2209 201.429 80.586C201.725 79.5913 205.322 56.7771 205.322 56.7771Z" fill="#FF0029"/>
<path d="M201.408 80.5545L204.455 114.278L204.18 132.13C204.18 132.13 206.444 136.976 209.131 136.934H256.018C257.063 136.821 258.034 136.341 258.758 135.579C260.159 134.279 261.121 132.576 261.514 130.706C261.906 128.835 261.708 126.889 260.948 125.135L254.96 110.49L256.96 76.0996L252.845 62.8195L251.522 58.9889L227.782 57.444L205.312 56.7773L201.408 80.5545Z" fill="#FF0029"/>
<path d="M249.1 58.8717C249.1 58.8717 264.164 58.6389 267.666 67.0937C269.719 72.0565 286.317 102.86 290.443 115.114C290.443 115.114 285.471 126.15 281.726 127.346C271.517 129.97 264.715 121.685 262.049 114.701L254.781 95.294L249.1 58.8717Z" fill="#FF0029"/>
<path d="M288.433 81.6016L284.614 89.0088L272.977 113.823L278.119 127.833C284.001 128.891 290.422 120.669 292.073 114.934L301.245 84.1729L288.433 81.6016Z" fill="#FF0029"/>
<path d="M288.444 81.5941C288.571 81.6682 284.625 89.8161 279.61 99.8053C274.596 109.794 270.417 117.794 270.279 117.794C270.142 117.794 274.098 109.572 279.113 99.583C284.128 89.5939 288.306 81.5306 288.444 81.5941Z" fill="#542C10"/>
<path d="M256.41 85.1172C256.569 85.1172 256.41 90.8102 255.966 97.8153C255.521 104.82 255.119 110.513 254.961 110.513C254.802 110.513 255.014 104.82 255.416 97.8153C255.818 90.8102 256.262 85.1066 256.41 85.1172Z" fill="#542C10"/>
<path d="M216.875 134.025C215.75 133.718 214.759 133.046 214.054 132.116C213.35 131.186 212.973 130.049 212.982 128.883C213.414 129.884 213.924 130.85 214.505 131.772C215.23 132.588 216.023 133.342 216.875 134.025Z" fill="#542C10"/>
<path d="M224.101 133.551C223.298 132.968 222.696 132.151 222.376 131.213C221.89 130.344 221.694 129.343 221.815 128.355C222.223 129.211 222.576 130.091 222.873 130.99C223.336 131.817 223.746 132.672 224.101 133.551Z" fill="#542C10"/>
<path d="M236.447 127.348C236.935 128.483 237.069 129.74 236.829 130.953C236.589 132.166 235.987 133.277 235.103 134.141C235.57 133.073 235.963 131.973 236.277 130.85C236.418 129.688 236.475 128.518 236.447 127.348Z" fill="#542C10"/>
<path d="M247.449 128.355C247.733 129.484 247.733 130.665 247.449 131.793C247.164 132.922 246.605 133.962 245.82 134.821C245.682 134.736 246.476 133.445 246.878 131.646C247.28 129.847 247.291 128.366 247.449 128.355Z" fill="#542C10"/>
<path d="M248.137 58.8723C248.159 59.055 248.159 59.2398 248.137 59.4225C248.137 59.7717 248.137 60.3008 248.137 60.978C248.085 62.9086 247.79 64.8249 247.259 66.6816C246.384 69.8023 244.501 72.5459 241.904 74.4847C239.308 76.4236 236.143 77.4489 232.903 77.4008C231.06 77.3931 229.239 76.9965 227.56 76.2369C225.985 75.5256 224.611 74.4349 223.561 73.0623C221.916 70.6861 220.877 67.9432 220.536 65.0732C220.258 63.1678 220.162 61.2402 220.25 59.3167C220.25 58.6289 220.335 58.1104 220.387 57.7506C220.394 57.5671 220.426 57.3855 220.483 57.2109C220.483 57.2109 220.483 57.9622 220.483 59.3273C220.483 61.234 220.635 63.1377 220.938 65.0202C221.324 67.8042 222.369 70.4559 223.984 72.7555C224.992 74.0523 226.304 75.0808 227.804 75.7501C229.424 76.4494 231.17 76.8095 232.934 76.8083C236.066 76.8503 239.126 75.8684 241.648 74.0119C244.171 72.1554 246.018 69.5258 246.91 66.5228C247.471 64.7025 247.826 62.8248 247.968 60.9251C248.084 59.6236 248.084 58.8723 248.137 58.8723Z" fill="#542C10"/>
<path d="M233.802 76.9171C233.518 78.2018 233.066 79.4434 232.458 80.6101L232.236 81.1075L231.961 80.6313L231.802 80.335C231.019 79.1355 230.4 77.8365 229.961 76.4727C230.88 77.5713 231.658 78.7798 232.278 80.0704L232.448 80.3667H231.95C232.414 79.1408 233.036 77.981 233.802 76.9171Z" fill="#542C10"/>
<path d="M242.731 93.6247C242.473 93.1308 242.112 92.6978 241.673 92.3549C241.264 92.0294 240.947 91.6026 240.753 91.1169C240.653 90.8751 240.647 90.605 240.735 90.3589C240.823 90.1127 240.999 89.9077 241.229 89.7836C241.443 89.7076 241.676 89.7026 241.893 89.7693C242.11 89.836 242.3 89.9708 242.435 90.1539C242.726 90.4666 242.965 90.8239 243.144 91.2121C243.292 90.7508 243.571 90.3427 243.948 90.0375C244.169 89.8618 244.448 89.7752 244.73 89.7948C245.012 89.8144 245.276 89.9387 245.471 90.1433C245.579 90.2957 245.644 90.4738 245.661 90.6596C245.678 90.8455 245.645 91.0324 245.566 91.2015C245.423 91.524 245.219 91.8153 244.963 92.0586C244.295 92.7509 243.524 93.3362 242.678 93.794" fill="#FAFAFA"/>
<path d="M226.068 70.8916C226.142 71.0291 225.656 71.4312 225.01 71.8016C224.365 72.1719 223.741 72.3624 223.667 72.2248C223.593 72.0873 224.079 71.6852 224.725 71.3148C225.37 70.9445 225.994 70.7857 226.068 70.8916Z" fill="#542C10"/>
<path d="M223.984 65.4864C223.984 65.6345 223.371 65.8885 222.556 66.0472C221.742 66.2059 221.054 66.2271 221.022 66.0472C220.99 65.8673 221.636 65.6557 222.45 65.4864C223.265 65.3171 223.953 65.3382 223.984 65.4864Z" fill="#542C10"/>
<path d="M223.921 60.6607C223.847 60.7983 223.085 60.5337 222.143 60.2692C221.202 60.0046 220.408 59.8459 220.419 59.6872C220.43 59.5285 221.276 59.4544 222.292 59.7401C223.307 60.0258 223.995 60.5337 223.921 60.6607Z" fill="#542C10"/>
<path d="M231.76 77.2427C231.601 77.2427 231.538 76.629 231.612 75.9094C231.686 75.1899 231.866 74.6185 232.014 74.6291C232.162 74.6396 232.225 75.2428 232.162 75.9623C232.098 76.6819 231.908 77.2427 231.76 77.2427Z" fill="#542C10"/>
<path d="M238.245 75.805C238.107 75.805 237.779 75.3817 237.526 74.7468C237.272 74.1119 237.176 73.5299 237.314 73.4664C237.452 73.4029 237.779 73.9003 238.033 74.5246C238.287 75.1489 238.393 75.7415 238.245 75.805Z" fill="#542C10"/>
<path d="M244.085 71.9543C243.968 72.0495 243.461 71.6157 242.868 71.0654C242.276 70.5152 241.81 70.0073 241.884 69.9226C241.958 69.838 242.614 70.0813 243.238 70.6633C243.863 71.2453 244.201 71.8379 244.085 71.9543Z" fill="#542C10"/>
<path d="M247.407 65.8984C247.343 66.036 246.656 65.8455 245.82 65.6021C244.984 65.3588 244.297 65.1471 244.307 64.9884C244.318 64.8297 245.09 64.8085 245.968 65.073C246.846 65.3376 247.481 65.7609 247.407 65.8984Z" fill="#542C10"/>
<path d="M247.555 60.6189C247.555 60.7671 246.825 61.0105 245.852 61.1586C244.879 61.3067 244.096 61.2962 244.064 61.1586C244.032 61.021 244.804 60.7671 245.778 60.6189C246.751 60.4708 247.555 60.4708 247.555 60.6189Z" fill="#542C10"/>
<path d="M193.114 65.9766C193.9 66.4156 194.613 66.9723 195.23 67.6273C196.78 69.1321 198.128 70.8324 199.24 72.6854C200.347 74.5459 201.201 76.5459 201.779 78.6323C202.06 79.4795 202.213 80.364 202.234 81.2566C201.376 78.3908 200.208 75.6268 198.753 73.0134C197.142 70.4645 195.251 68.1042 193.114 65.9766Z" fill="#542C10"/>
<g opacity="0.3">
<path opacity="0.3" d="M281.504 95.2302L280.901 93.9922C278.404 97.8122 274.088 104.045 271.602 107.865C270.645 109.135 269.928 110.57 269.486 112.097C269.282 112.857 269.286 113.657 269.496 114.414C269.707 115.171 270.116 115.859 270.681 116.404L281.504 95.2302Z" fill="black"/>
</g>
<g opacity="0.3">
<path opacity="0.3" d="M201.705 78.9786C200.959 75.4422 199.369 72.1386 197.071 69.3493C194.759 66.5601 191.663 64.5291 188.184 63.5187C187.404 63.2643 186.575 63.1919 185.762 63.3071C185.356 63.3752 184.977 63.5518 184.664 63.8183C184.351 64.0847 184.116 64.431 183.984 64.8203C183.656 66.1218 184.852 67.2647 185.931 68.0689C191.03 71.8712 196.221 75.5396 201.504 79.0739" fill="black"/>
</g>
<path d="M248.285 100.809C247.652 101.11 246.964 101.279 246.264 101.306C244.576 101.472 242.872 101.295 241.254 100.786C239.636 100.277 238.138 99.4463 236.849 98.3434C236.287 97.9245 235.822 97.3906 235.484 96.7773C236.046 97.1632 236.583 97.5838 237.092 98.0366C238.399 99.0153 239.862 99.7665 241.419 100.259C242.979 100.745 244.609 100.97 246.243 100.925C246.921 100.844 247.602 100.805 248.285 100.809Z" fill="#542C10"/>
<path d="M248.613 121.135C248.475 121.191 248.328 121.219 248.179 121.219C247.904 121.219 247.481 121.314 246.941 121.325C245.417 121.411 243.888 121.368 242.371 121.198C237.318 120.661 232.478 118.878 228.284 116.008C224.091 113.138 220.676 109.271 218.346 104.754C217.635 103.394 217.037 101.979 216.558 100.521C216.378 100.013 216.283 99.6007 216.209 99.3256C216.162 99.1889 216.133 99.0466 216.124 98.9023C216.376 99.3998 216.588 99.9164 216.759 100.447C217.312 101.854 217.959 103.222 218.695 104.542C221.087 108.93 224.487 112.686 228.614 115.503C232.741 118.319 237.478 120.115 242.435 120.743C243.935 120.946 245.448 121.049 246.963 121.05C247.514 121.043 248.065 121.071 248.613 121.135Z" fill="#542C10"/>
<g opacity="0.2">
<path opacity="0.2" d="M243.736 121.686C245.725 121.845 243.154 117.697 241.387 116.766C239.62 115.835 237.547 115.782 235.579 115.496C232.038 114.956 228.651 113.673 225.64 111.731C222.63 109.789 220.065 107.231 218.113 104.227C218.113 104.227 225.825 120.184 243.736 121.686Z" fill="black"/>
</g>
<path d="M252.464 23.024C252.916 21.9273 253.765 21.0416 254.841 20.5439C255.918 20.0462 257.142 19.9732 258.27 20.3395C259.398 20.7057 260.346 21.4843 260.925 22.5195C261.504 23.5547 261.671 24.7704 261.393 25.9234C261.171 26.7699 260.8 27.8704 261.52 28.3783C262.239 28.8863 263.001 28.2937 263.763 28.1032C264.371 27.9895 264.999 28.0493 265.575 28.2757C266.152 28.5021 266.652 28.886 267.021 29.3836C267.74 30.3907 268.182 31.5695 268.301 32.8015C268.703 35.7009 268.216 38.886 266.185 41.0447C264.154 43.2033 260.472 43.8277 258.325 41.8383C258.36 42.8595 258.026 43.8591 257.382 44.6526C256.738 45.4461 255.829 45.98 254.823 46.1556C253.812 46.2787 252.787 46.1264 251.856 45.7147C250.925 45.3031 250.123 44.6474 249.533 43.8171C248.389 42.1388 247.862 40.1157 248.042 38.0924C248.238 36.06 248.741 34.0692 249.533 32.1878" fill="#542C10"/>
<path d="M212.093 34.9163C209.978 35.456 208.073 33.2444 207.862 31.0963C207.65 28.9483 208.37 26.8637 208.602 24.6627C208.951 21.34 208.01 18.0173 207.862 14.6735C207.714 11.3297 208.634 7.54144 211.533 5.88011C214.431 4.21878 217.933 5.28753 221.107 4.22936C223.307 3.52039 225.074 1.86964 227.169 0.896119C229.105 0.0434865 231.25 -0.221507 233.335 0.134034C235.421 0.489576 237.356 1.44999 238.901 2.89606C240.361 4.3246 241.493 6.21872 243.387 6.98061C245.281 7.74249 247.439 7.13933 249.428 7.54144C250.538 7.80979 251.572 8.33152 252.447 9.06581C253.323 9.80011 254.016 10.7271 254.474 11.7741C255.354 13.9031 255.582 16.2453 255.13 18.5041C254.717 20.9379 253.755 23.3188 253.934 25.7737C254.188 29.4456 256.939 32.9799 255.817 36.4719C254.485 40.6199 248.751 41.5617 246.465 45.2653C245.873 46.2282 245.545 47.3287 245.037 48.3445C244.814 48.8666 244.485 49.3371 244.072 49.7267C243.659 50.1163 243.17 50.4167 242.636 50.609C242.368 50.69 242.087 50.7148 241.809 50.6821C241.532 50.6493 241.264 50.5596 241.023 50.4185C240.781 50.2775 240.572 50.0882 240.407 49.8624C240.242 49.6366 240.126 49.3793 240.065 49.1064" fill="#542C10"/>
<path d="M243.323 11.2418V14.5221L244.254 63.8012C244.339 69.5047 239.737 73.5681 233.675 73.6104C227.507 73.6104 224.154 69.8116 223.942 64.0869C223.752 58.0341 223.445 51.664 223.445 51.664C223.445 51.664 215.616 50.6058 213.723 40.4473C212.77 35.4104 212.802 27.1038 213.045 20.3421C213.095 18.8922 213.438 17.4673 214.053 16.1534C214.668 14.8395 215.543 13.6637 216.624 12.6968C217.705 11.7299 218.971 10.9919 220.345 10.5272C221.719 10.0626 223.173 9.88092 224.619 9.99316L243.323 11.2418Z" fill="#FFBE9D"/>
<path d="M217.627 26.1784C217.624 26.5274 217.759 26.8634 218.003 27.1131C218.246 27.3629 218.579 27.5061 218.928 27.5117C219.094 27.5203 219.261 27.4953 219.418 27.4384C219.574 27.3814 219.718 27.2937 219.84 27.1802C219.963 27.0668 220.061 26.93 220.13 26.7779C220.198 26.6259 220.236 26.4616 220.24 26.2948C220.245 25.9539 220.118 25.6241 219.885 25.3752C219.652 25.1264 219.332 24.978 218.991 24.9615C218.821 24.9471 218.649 24.9675 218.487 25.0217C218.324 25.0758 218.175 25.1624 218.047 25.2763C217.919 25.3902 217.816 25.5289 217.744 25.684C217.672 25.8391 217.632 26.0074 217.627 26.1784Z" fill="#542C10"/>
<path d="M214.907 24.5329C215.077 24.7022 216.039 23.9403 217.446 23.9086C218.853 23.8769 219.901 24.5435 220.049 24.3742C220.197 24.2049 219.943 23.9933 219.488 23.6758C218.862 23.2621 218.121 23.0583 217.372 23.0938C216.641 23.1119 215.934 23.3599 215.352 23.8028C214.96 24.152 214.823 24.4589 214.907 24.5329Z" fill="#542C10"/>
<path d="M231.57 26.1736C231.566 26.3463 231.596 26.518 231.659 26.6789C231.721 26.8398 231.816 26.9866 231.936 27.1107C232.056 27.2348 232.2 27.3338 232.358 27.4018C232.517 27.4698 232.688 27.5055 232.86 27.5069C233.027 27.5154 233.194 27.4905 233.35 27.4335C233.507 27.3766 233.651 27.2888 233.773 27.1754C233.895 27.0619 233.994 26.9251 234.062 26.7731C234.131 26.621 234.168 26.4567 234.172 26.29C234.167 25.9503 234.029 25.6262 233.787 25.387C233.546 25.1477 233.221 25.0123 232.882 25.0096C232.554 24.9922 232.232 25.1045 231.987 25.3224C231.741 25.5402 231.592 25.846 231.57 26.1736Z" fill="#542C10"/>
<path d="M228.713 24.4177C228.883 24.5871 229.856 23.8252 231.252 23.7934C232.649 23.7617 233.707 24.4283 233.855 24.2484C234.003 24.0686 233.76 23.8675 233.294 23.5606C232.679 23.1588 231.956 22.9556 231.222 22.9783C230.488 23.001 229.778 23.2486 229.19 23.6876C228.777 24.0368 228.639 24.3331 228.713 24.4177Z" fill="#542C10"/>
<path d="M223.91 34.9807C223.163 34.7646 222.392 34.6472 221.614 34.6315C221.255 34.6315 220.916 34.5363 220.842 34.2929C220.81 33.9272 220.884 33.5601 221.054 33.2347C221.371 32.3565 221.699 31.4464 222.038 30.4729C222.975 28.1378 223.725 25.7316 224.28 23.2773C223.174 25.5382 222.25 27.8843 221.519 30.293L220.578 33.0654C220.366 33.5067 220.313 34.0078 220.43 34.4834C220.486 34.6074 220.57 34.7174 220.674 34.8052C220.778 34.893 220.901 34.9566 221.033 34.9913C221.233 35.0412 221.44 35.0626 221.646 35.0548C222.401 35.1203 223.161 35.0954 223.91 34.9807Z" fill="#542C10"/>
<path d="M223.392 51.6238C228.205 51.5759 232.909 50.1871 236.976 47.6133C236.976 47.6133 233.866 54.6925 223.657 54.0258L223.392 51.6238Z" fill="#EB996E"/>
<path d="M224.598 38.3452C224.851 37.9924 225.19 37.7101 225.582 37.525C225.975 37.3398 226.408 37.2579 226.841 37.287C227.151 37.3094 227.454 37.3929 227.731 37.5327C228.009 37.6726 228.257 37.866 228.459 38.1018C228.653 38.3314 228.771 38.6151 228.798 38.9143C228.824 39.2135 228.758 39.5136 228.608 39.7737C228.39 40.0315 228.101 40.2186 227.777 40.311C227.453 40.4034 227.108 40.3968 226.788 40.2922C226.115 40.0611 225.494 39.7018 224.958 39.234C224.8 39.1222 224.661 38.9866 224.545 38.8319C224.494 38.7552 224.466 38.665 224.466 38.5727C224.466 38.4803 224.494 38.3901 224.545 38.3134" fill="#EB996E"/>
<path d="M228.068 35.8362C227.835 35.8362 227.878 37.3493 226.597 38.471C225.317 39.5927 223.699 39.4657 223.699 39.6773C223.699 39.889 224.069 39.963 224.757 39.963C225.65 39.9469 226.51 39.6216 227.19 39.0424C227.842 38.4815 228.248 37.6877 228.322 36.8308C228.354 36.1959 228.174 35.8256 228.068 35.8362Z" fill="#542C10"/>
<path d="M228.269 20.3331C228.417 20.7141 229.814 20.4919 231.443 20.64C233.072 20.7881 234.447 21.2114 234.617 20.8622C234.701 20.6929 234.468 20.3437 233.918 19.9839C233.192 19.547 232.373 19.2861 231.527 19.2221C230.682 19.1439 229.83 19.2672 229.041 19.5818C228.512 19.8464 228.206 20.1532 228.269 20.3331Z" fill="#542C10"/>
<path d="M214.854 21.6999C215.161 22.0174 216.335 21.647 217.742 21.5941C219.149 21.5412 220.366 21.7317 220.631 21.3931C220.747 21.2343 220.557 20.9169 220.017 20.6312C219.284 20.2748 218.471 20.1144 217.658 20.1656C216.844 20.1959 216.052 20.4404 215.362 20.8745C214.875 21.2132 214.759 21.5518 214.854 21.6999Z" fill="#542C10"/>
<path d="M234.712 7.9647C233.928 9.38311 233.63 11.0196 233.865 12.6232C234.1 14.2269 234.855 15.7091 236.013 16.8428C236.997 17.7739 238.277 18.4935 238.753 19.7527C239.345 21.2977 238.478 22.9272 237.843 24.4828C236.997 26.4615 236.521 28.8001 237.484 30.726C238.105 31.6328 238.677 32.5724 239.197 33.5407C239.896 35.4243 238.922 37.4665 238.732 39.4665C238.489 42.0802 240.224 45.1171 242.858 45.1277C243.654 45.0764 244.424 44.8206 245.093 44.3851C245.762 43.9495 246.308 43.3488 246.677 42.641C247.389 41.221 247.817 39.6752 247.936 38.0908C248.825 31.0117 248.581 23.8267 248.348 16.6946C248.424 14.7178 248.063 12.7486 247.291 10.9276C246.148 8.92459 244.282 7.43613 242.075 6.76896C239.892 6.11001 237.635 5.72958 235.357 5.63672" fill="#542C10"/>
<path d="M225.243 5.83751C226.623 9.83525 229.253 13.2823 232.744 15.6679C236.223 18.0241 240.363 19.2068 244.561 19.0435C244.473 16.7133 243.846 14.4354 242.728 12.3889C241.611 10.3424 240.034 8.58317 238.121 7.24975C236.209 5.91633 234.013 5.04506 231.707 4.70452C229.401 4.36398 227.047 4.56346 224.831 5.28726" fill="#542C10"/>
<path d="M224.831 5.287C224.598 4.5886 225.085 3.6045 226.481 2.68389C228.524 1.47398 230.883 0.906217 233.252 1.05431C234.939 1.11319 236.606 1.43817 238.192 2.01725C240.083 2.70675 241.838 3.72403 243.376 5.02245C246.951 8.06699 249.276 12.3254 249.904 16.9798C249.999 17.6147 250.02 18.2602 250.052 18.8633L250.348 24.387L244.783 24.5669C240.59 24.697 236.445 23.6368 232.829 21.5088C229.97 19.8338 227.591 17.4504 225.92 14.5883C224.796 12.7512 224.162 10.6562 224.08 8.50384C224.08 6.95891 224.556 6.04888 225.243 5.81608C226.682 5.35049 228.618 7.53032 231.728 9.68899C233.429 10.8992 235.292 11.8645 237.261 12.5566C239.532 13.3385 241.93 13.6797 244.328 13.5619L239.039 19.2654C239.039 19.0009 239.039 18.7152 238.954 18.4295C238.635 16.2055 237.726 14.1079 236.32 12.3556C235.066 10.8086 233.483 9.56133 231.686 8.70489C228.385 7.00123 225.339 6.77902 224.831 5.287Z" fill="#542C10"/>
<path d="M210.802 22.9814C216.143 19.1405 220.812 14.4423 224.619 9.07705C222.714 8.6773 220.739 8.75252 218.869 9.29608C217 9.83964 215.293 10.8348 213.898 12.194C212.504 13.5531 211.465 15.2345 210.874 17.0899C210.282 18.9452 210.156 20.9176 210.506 22.8333" fill="#542C10"/>
<path d="M266.672 40.2899C266.672 40.2899 266.851 40.1205 267.084 39.7925C267.41 39.3192 267.556 38.7451 267.497 38.1735C267.443 37.7616 267.294 37.3679 267.06 37.0243C266.827 36.6806 266.516 36.3965 266.153 36.1947C265.246 35.6791 264.185 35.5028 263.159 35.6974C262.736 35.7589 262.319 35.8544 261.911 35.9831L261.604 36.0677V35.7609C261.532 34.8643 261.201 34.0079 260.652 33.2953C260.436 33.0273 260.162 32.8118 259.85 32.6652C259.539 32.5185 259.198 32.4445 258.854 32.4488C258.386 32.4813 257.948 32.6892 257.626 33.0308C257.394 33.2848 257.341 33.4752 257.298 33.4646C257.256 33.4541 257.298 33.2424 257.468 32.9144C257.622 32.6911 257.821 32.5025 258.053 32.3604C258.284 32.2183 258.542 32.1259 258.811 32.089C259.222 32.0512 259.636 32.1121 260.019 32.2668C260.402 32.4214 260.742 32.6652 261.012 32.9779C261.659 33.7428 262.054 34.6888 262.144 35.6868L261.795 35.4646C262.226 35.3229 262.668 35.2168 263.117 35.1471C264.274 34.9378 265.467 35.1599 266.471 35.7715C266.888 36.0212 267.239 36.3681 267.493 36.7827C267.747 37.1972 267.897 37.6672 267.931 38.1523C267.946 38.4742 267.899 38.796 267.79 39.0993C267.681 39.4026 267.513 39.6813 267.296 39.9195C266.936 40.2052 266.682 40.311 266.672 40.2899Z" fill="#835E44"/>
<path d="M260.25 43.6016C260.155 43.6016 260.25 43.009 259.848 42.1942C259.627 41.6775 259.272 41.2288 258.82 40.8941C258.369 40.5595 257.836 40.3508 257.277 40.2895C257.136 40.2792 256.995 40.2792 256.854 40.2895H256.336L256.621 39.8662C256.896 39.432 257.063 38.9388 257.109 38.4273C257.155 37.9158 257.078 37.4007 256.886 36.9245C256.59 36.1732 256.188 35.8663 256.241 35.7711C256.293 35.6759 256.791 35.9721 257.224 36.7658C257.504 37.2957 257.638 37.8907 257.612 38.4895C257.586 39.0883 257.401 39.6694 257.076 40.1731L256.844 39.7498C257.009 39.7395 257.175 39.7395 257.341 39.7498C258.059 39.8372 258.734 40.1396 259.277 40.6175C259.713 41.0089 260.038 41.5091 260.218 42.0672C260.515 43.009 260.303 43.6227 260.25 43.6016Z" fill="#835E44"/>
<path d="M255.246 14.9609C255.479 15.329 255.573 15.768 255.511 16.199C255.39 17.3403 255.145 18.4651 254.781 19.5534C254.548 20.28 254.412 21.0344 254.379 21.7967C254.454 22.1758 254.605 22.5357 254.823 22.8549C255.035 23.2358 255.288 23.6274 255.542 24.0295C256.137 24.8753 256.564 25.8271 256.801 26.8336C256.997 27.9566 256.807 29.1128 256.262 30.114C255.639 30.9899 254.968 31.8307 254.252 32.6324C253.828 33.4893 253.628 34.4393 253.67 35.3942C253.558 37.1309 252.957 38.8003 251.935 40.2089C251.255 41.1498 250.4 41.9509 249.417 42.5686C249.069 42.8109 248.683 42.9933 248.274 43.1083C249.581 42.2994 250.714 41.2382 251.607 39.9867C252.54 38.6167 253.082 37.0178 253.173 35.3625C253.11 34.3197 253.325 33.2789 253.797 32.3467C254.4 31.4049 255.31 30.7806 255.786 29.86C256.263 28.9583 256.43 27.9245 256.262 26.9183C256.047 25.9915 255.655 25.1149 255.109 24.3363C254.865 23.9342 254.611 23.5321 254.4 23.13C254.287 22.9309 254.185 22.726 254.093 22.5163C253.99 22.2937 253.932 22.0526 253.924 21.8073C253.965 20.9971 254.129 20.1979 254.41 19.437C254.8 18.3753 255.093 17.2811 255.288 16.1673C255.324 15.7649 255.31 15.3598 255.246 14.9609Z" fill="#835E44"/>
<path d="M212.453 9.5761C212.215 8.78768 212.108 7.96547 212.136 7.1423C212.115 6.22409 212.288 5.31177 212.644 4.46513C212.862 3.92901 213.193 3.4463 213.615 3.05001C214.036 2.65371 214.539 2.35316 215.087 2.16889C216.183 1.84944 217.352 1.87903 218.43 2.25355C219.281 2.53872 220.1 2.91106 220.874 3.36463C221.625 3.70632 222.335 4.13232 222.99 4.63443C222.204 4.41685 221.447 4.10415 220.737 3.70324C219.954 3.32246 219.144 3.00059 218.314 2.74031C217.327 2.44564 216.275 2.44564 215.288 2.74031C214.816 2.90543 214.384 3.16781 214.019 3.51048C213.655 3.85315 213.366 4.2685 213.172 4.72967C212.828 5.51133 212.638 6.35204 212.612 7.20579C212.606 7.99833 212.553 8.78981 212.453 9.5761Z" fill="#542C10"/>
<path d="M264.196 31.1299C264.196 31.077 264.641 31.1299 265.36 30.8231C266.369 30.4231 267.2 29.6714 267.698 28.7067C268.038 28.0567 268.175 27.3192 268.089 26.5904C267.975 25.7581 267.605 24.9817 267.032 24.3682C266.434 23.6707 265.61 23.2061 264.704 23.0561C264.245 22.958 263.768 22.9925 263.327 23.1555C262.887 23.3185 262.503 23.6033 262.218 23.9767C262.095 24.1655 262.015 24.379 261.984 24.6021C261.953 24.8253 261.972 25.0525 262.038 25.2677C262.109 25.4635 262.231 25.637 262.391 25.7707C262.551 25.9045 262.743 25.9938 262.948 26.0296C263.138 26.0754 263.338 26.0578 263.518 25.9795C263.697 25.9012 263.847 25.7665 263.942 25.5957C264.123 25.2167 264.171 24.7884 264.08 24.3788C263.881 23.6216 263.504 22.9226 262.982 22.3394C262.46 21.7561 261.806 21.3054 261.075 21.0244C260.062 20.6369 258.954 20.5704 257.902 20.8339C257.151 21.0138 256.77 21.236 256.749 21.1937C257.055 20.9273 257.416 20.7321 257.806 20.6223C258.898 20.2561 260.079 20.2561 261.171 20.6223C262.01 20.9032 262.766 21.3905 263.369 22.0394C263.971 22.6883 264.401 23.4781 264.619 24.3365C264.748 24.8633 264.684 25.4187 264.44 25.9026C264.287 26.1661 264.057 26.3759 263.78 26.5028C263.503 26.6298 263.194 26.6678 262.895 26.6116C262.595 26.5567 262.314 26.4244 262.08 26.2277C261.846 26.031 261.668 25.7767 261.562 25.4899C261.467 25.1983 261.439 24.8892 261.479 24.5852C261.52 24.2812 261.627 23.9901 261.795 23.7333C262.132 23.2643 262.6 22.9042 263.139 22.6974C263.678 22.4906 264.267 22.4461 264.831 22.5693C265.856 22.7428 266.786 23.2755 267.455 24.0719C268.063 24.7795 268.433 25.6606 268.513 26.5904C268.585 27.4 268.408 28.2125 268.005 28.9184C267.445 29.9389 266.506 30.6989 265.392 31.0347C265.097 31.1274 264.791 31.1773 264.482 31.1829C264.302 31.1617 264.196 31.1511 264.196 31.1299Z" fill="#542C10"/>
<path d="M253.902 11.6354C253.967 11.7968 253.999 11.9694 253.997 12.1433C254.009 12.6404 253.904 13.1334 253.691 13.5824C253.359 14.3084 252.766 14.8826 252.03 15.1909C251.539 15.3928 251.009 15.4778 250.48 15.4393C249.951 15.4007 249.439 15.2396 248.983 14.9686L249.279 14.9051C248.752 15.6842 248.037 16.3174 247.199 16.7462C246.362 17.175 245.431 17.3854 244.49 17.358C243.55 17.3305 242.632 17.0661 241.822 16.5892C241.011 16.1124 240.334 15.4385 239.853 14.63L240.255 14.7147C239.969 14.9051 239.663 15.1168 239.345 15.2967C237.132 16.5616 234.537 16.9896 232.035 16.503C230.352 16.1583 228.782 15.3964 227.469 14.2871C226.157 13.1778 225.144 11.7566 224.524 10.154C224.389 9.80946 224.28 9.45584 224.196 9.09579C224.196 8.85241 224.132 8.71484 224.196 8.71484C224.259 8.71484 224.376 9.22277 224.756 10.0799C225.305 11.3011 226.081 12.407 227.042 13.3391C228.443 14.7319 230.231 15.6719 232.172 16.0374C234.551 16.4508 237 16.0164 239.091 14.8099C239.398 14.6406 239.684 14.4396 239.948 14.2597L240.192 14.0798L240.35 14.3337C240.825 15.1202 241.501 15.7661 242.307 16.205C243.114 16.6438 244.024 16.8599 244.942 16.831C245.73 16.7901 246.5 16.573 247.194 16.1958C247.887 15.8186 248.488 15.2908 248.951 14.6512L249.068 14.4819L249.237 14.5877C249.635 14.8327 250.084 14.9846 250.549 15.0323C251.014 15.0799 251.484 15.022 251.924 14.8628C252.6 14.6019 253.16 14.106 253.5 13.466C253.772 12.8946 253.91 12.2683 253.902 11.6354Z" fill="#835E44"/>
<path d="M253.828 20.5586C253.828 20.5586 253.828 20.7914 253.744 21.1829C253.531 21.7424 253.164 22.2303 252.686 22.5903C252.001 23.1385 251.177 23.4832 250.306 23.585C249.252 23.6828 248.189 23.5454 247.195 23.1829C246.375 22.8772 245.573 22.5239 244.794 22.1247L245.164 21.9342C245.005 22.6842 244.603 23.361 244.021 23.8601C243.586 24.2418 243.079 24.5332 242.53 24.7172C242.062 24.9261 241.543 24.9924 241.038 24.9077C241.038 24.8336 241.588 24.7913 242.413 24.4209C242.966 24.2027 243.458 23.8539 243.847 23.4043C244.235 22.9547 244.51 22.4176 244.646 21.839L244.709 21.5215L245.016 21.6485C245.781 22.0105 246.565 22.3319 247.365 22.6114C248.287 22.9532 249.27 23.1009 250.253 23.0453C251.039 22.968 251.793 22.6912 252.443 22.2411C253.04 21.8067 253.516 21.2278 253.828 20.5586Z" fill="#835E44"/>
<path d="M239.388 1.79453C238.511 1.46943 237.583 1.30803 236.648 1.31835C235.647 1.36446 234.682 1.70698 233.876 2.30245C232.894 3.03867 232.198 4.0936 231.908 5.2865L231.845 5.56162L231.559 5.47697L231.115 5.34999C229.866 5.04541 228.552 5.15306 227.37 5.65686C226.4 6.07231 225.562 6.7457 224.947 7.60389C224.407 8.42993 224.004 9.33743 223.752 10.2916C223.682 10.0209 223.682 9.73702 223.752 9.46628C223.888 8.71081 224.176 7.99083 224.598 7.34993C225.219 6.39284 226.1 5.63291 227.137 5.15952C228.42 4.5876 229.856 4.45735 231.221 4.78916C231.39 4.78916 231.549 4.88439 231.697 4.92672L231.348 5.12777C231.659 3.80627 232.441 2.64368 233.548 1.85802C234.443 1.22848 235.511 0.892047 236.606 0.895085C237.334 0.884258 238.056 1.03231 238.721 1.32894C239.187 1.5829 239.399 1.76279 239.388 1.79453Z" fill="#835E44"/>
<path d="M223.424 9.63672C222.872 10.3175 222.24 10.9286 221.541 11.4568C219.962 12.8729 218.222 14.0983 216.357 15.1075C214.476 16.1395 212.385 16.7293 210.242 16.8323C209.357 16.9152 208.464 16.7996 207.629 16.4937C207.629 16.3984 208.687 16.5889 210.221 16.4408C212.282 16.227 214.281 15.6085 216.103 14.6207C217.928 13.6147 219.666 12.4572 221.297 11.1605C221.954 10.5833 222.666 10.0729 223.424 9.63672Z" fill="#835E44"/>
</g>
<defs>
<clipPath id="clip0">
<rect width="448" height="380" fill="white"/>
</clipPath>
</defs>
</svg>
