<svg width="265" height="272" viewBox="0 0 265 272" fill="none" xmlns="http://www.w3.org/2000/svg">
<path d="M21.5615 270.252L21.8618 270.631L22.345 270.631L239.763 270.614L240.653 270.614L240.756 269.729C243.017 250.275 237.08 237.028 232.2 226.136C231.801 225.246 231.409 224.372 231.03 223.512C228.507 217.793 226.566 212.779 226.467 207.716C226.368 202.717 228.069 197.554 233.109 191.571C243.426 179.322 254.078 166.111 259.681 151.689C265.31 137.199 265.844 121.482 255.966 104.319C251.993 97.4105 247.986 92.9484 243.812 89.8891C239.638 86.8304 235.355 85.2171 230.911 83.9331C229.354 83.4834 227.78 83.0735 226.179 82.657C218.639 80.6944 210.532 78.5843 201.102 71.4697C190.013 63.1038 186.574 55.6635 182.671 47.2192C182.557 46.9737 182.443 46.7273 182.329 46.48C178.233 37.6338 173.428 27.7627 158.989 15.0469L158.988 15.0464C144.975 2.72489 123.466 -0.607796 103.561 2.32653C83.6755 5.25795 65.0144 14.5021 56.7815 27.7911L56.7813 27.7915C46.9553 43.6696 45.6516 58.1785 46.575 71.911C46.9115 76.9149 47.5463 81.8401 48.1691 86.6716C48.3968 88.4388 48.623 90.1936 48.8324 91.935C49.6174 98.4644 50.1725 104.847 49.7486 111.209C49.3343 117.427 46.7428 123.229 42.8775 129.113C39.5271 134.212 35.2688 139.303 30.7194 144.742C30.009 145.591 29.2914 146.449 28.5692 147.316C17.9135 160.116 6.35384 174.905 2.42845 195.389C-1.49441 215.859 3.30432 234.581 9.05224 248.151C11.9281 254.941 15.0479 260.456 17.4506 264.276C18.6523 266.187 19.6755 267.675 20.4003 268.689C20.7628 269.195 21.0507 269.583 21.2492 269.846C21.3484 269.977 21.4253 270.078 21.478 270.146C21.5043 270.18 21.5246 270.206 21.5386 270.223L21.5548 270.244L21.5594 270.25L21.5607 270.251C21.5611 270.252 21.5615 270.252 22.3449 269.631L21.5615 270.252Z" fill="#F5F5F5" stroke="#FF0029" stroke-width="2"/>
<path d="M217.652 92.6048L179.97 104.586L191.945 142.287L229.626 130.306L217.652 92.6048Z" fill="#E0E0E0"/>
<path d="M145.127 96.0582L107.566 107.926L119.427 145.507L156.989 133.639L145.127 96.0582Z" fill="#F8CACE"/>
<path d="M99.3029 111.109L61.6216 123.09L73.5965 160.791L111.278 148.809L99.3029 111.109Z" fill="#EBEBEB"/>
<mask id="mask0" mask-type="alpha" maskUnits="userSpaceOnUse" x="2" y="2" width="261" height="268">
<path d="M22.4777 269.44C22.4777 269.44 -4.20248 235.805 3.54339 195.385C11.2892 154.966 49.1579 136.917 50.8792 111.084C52.6005 85.2514 38.3998 59.4185 57.7644 28.1263C73.7898 2.25903 131.04 -8.50465 158.461 15.606C187.051 40.7844 177.395 54.5447 200.633 72.0766C223.87 89.6085 239.551 77.3637 255.232 104.626C274.649 138.364 253.132 166.212 232.477 190.735C211.821 215.259 244.715 227.952 239.895 269.422L22.4777 269.44Z" fill="#EBEBEB"/>
</mask>
<g mask="url(#mask0)">
<path d="M161.205 90.3878L284.157 51.9141" stroke="white" stroke-width="9" stroke-miterlimit="10"/>
<path d="M178.28 242.493L301.232 204.02" stroke="white" stroke-width="6" stroke-miterlimit="10"/>
<path d="M123.335 211.871L156.47 317.889" stroke="white" stroke-width="4" stroke-miterlimit="10"/>
<path d="M42.0215 236.941L75.1566 342.959" stroke="white" stroke-width="4" stroke-miterlimit="10"/>
<path d="M35.3076 64.9805L68.4427 170.998" stroke="white" stroke-width="4" stroke-miterlimit="10"/>
<path d="M51.918 117.408L93.9178 104.268C97.2034 103.245 100.255 101.585 102.899 99.3811C105.543 97.1775 107.727 94.474 109.325 91.4254C110.924 88.3768 111.906 85.0428 112.216 81.614C112.526 78.1852 112.157 74.729 111.131 71.4429L88.4268 -0.90625" stroke="white" stroke-width="5.06" stroke-miterlimit="10"/>
<path d="M152.374 170.638L275.326 132.164" stroke="white" stroke-width="6" stroke-miterlimit="10"/>
<path d="M-11.0293 199.677L164.371 144.791C165.561 144.422 166.666 143.822 167.623 143.024C168.579 142.225 169.368 141.246 169.944 140.141C170.52 139.036 170.872 137.828 170.979 136.587C171.086 135.345 170.947 134.095 170.568 132.908L102.835 -83.7266" stroke="white" stroke-width="9" stroke-miterlimit="10"/>
<path d="M-12.1826 248.345L159.018 194.785" stroke="white" stroke-width="9" stroke-miterlimit="10"/>
<path d="M201.518 331.478L145.231 151.406" stroke="white" stroke-width="9" stroke-miterlimit="10"/>
<path d="M220.205 161.689L170.023 177.645L185.971 227.852L236.152 211.896L220.205 161.689Z" fill="#F8CACE"/>
<path d="M277.633 144.164L227.611 159.969L243.407 210.016L293.429 194.212L277.633 144.164Z" fill="#6779A7"/>
<path d="M115.993 224.435L54.6567 243.938L74.1492 305.306L135.486 285.803L115.993 224.435Z" fill="#6779A7"/>
<path d="M267.301 77.0111L229.62 88.9922L241.595 126.693L279.276 114.712L267.301 77.0111Z" fill="#EBEBEB"/>
</g>
<path fill-rule="evenodd" clip-rule="evenodd" d="M151.008 90.9595C151.043 88.4008 150.505 85.8665 149.434 83.5378L143.527 90.1293C143.597 90.628 143.635 91.1307 143.64 91.6341C143.647 94.1413 142.812 96.5798 141.265 98.5654C139.719 100.551 137.549 101.971 135.097 102.602C132.646 103.233 130.052 103.038 127.724 102.049C125.397 101.06 123.468 99.3332 122.24 97.1398C121.013 94.9459 120.558 92.4106 120.947 89.9331C121.336 87.4556 122.546 85.1763 124.387 83.4545C126.228 81.7328 128.595 80.6658 131.117 80.4222C133.638 80.1781 136.169 80.7714 138.312 82.1086L143.299 76.5393C140.27 74.3548 136.938 73.241 132.448 73.241C128.083 73.1676 123.831 74.6093 120.428 77.3159C115.51 81.0639 113.493 86.9543 113.493 90.5686C113.493 91.468 113.547 92.3357 113.628 93.1815C113.691 95.0958 114.14 96.9785 114.948 98.7185C115.067 99.0021 115.197 99.254 115.332 99.5591C118.826 106.868 126.795 114.488 130.414 118.686C130.633 118.959 130.912 119.18 131.229 119.331C131.547 119.483 131.895 119.562 132.248 119.562C132.6 119.562 132.948 119.483 133.266 119.331C133.584 119.18 133.862 118.959 134.082 118.686C138.777 113.235 150.851 101.99 150.851 93.1815C150.851 93.1175 150.851 93.0586 150.851 92.9998C150.947 92.3237 150.999 91.6424 151.008 90.9595Z" fill="#041B54"/>
<path fill-rule="evenodd" clip-rule="evenodd" d="M129.189 86.7701L125.088 90.645L133.205 99.1299L148.281 82.2436C147.425 80.8951 146.385 79.6708 145.19 78.6056C144.963 78.3955 144.73 78.2116 144.502 78.0117L133.062 90.8238L129.189 86.7701Z" fill="#FF0029"/>
</svg>
