<svg width="355" height="145" viewBox="0 0 355 145" fill="none" xmlns="http://www.w3.org/2000/svg">
<path fill-rule="evenodd" clip-rule="evenodd" d="M119.685 59.0921L119.526 52.9458C119.523 52.304 118.969 51.7937 118.314 51.8621C117.745 51.9213 117.335 52.4447 117.337 53.017L117.349 55.8353C117.351 56.3255 116.777 56.5915 116.405 56.272C116.089 56.0014 115.869 55.636 115.778 55.2303L114.408 49.1208C114.267 48.4945 113.616 48.1152 112.992 48.3227C112.448 48.5031 112.16 49.1018 112.286 49.6609L113.604 55.54C113.702 55.9778 113.427 56.4128 112.989 56.5105C112.646 56.5875 112.298 56.4036 112.168 56.0761L109.684 49.8062C109.448 49.2098 108.746 48.9363 108.161 49.2386C107.653 49.5017 107.462 50.1384 107.673 50.6704L110.226 57.1161C110.331 57.3827 110.212 57.6855 109.953 57.8096L109.8 57.8826C109.578 57.9889 109.31 57.9245 109.16 57.7286L105.8 53.3353C105.427 52.8469 104.667 52.6636 104.112 52.9285C103.631 53.2951 103.54 53.9823 103.907 54.4627L108.752 60.7848C109.091 61.3197 109.426 62.0253 109.456 62.7499C109.476 63.248 108.851 63.4951 108.511 63.1303C107.696 62.2552 106.458 60.9279 106.458 60.9279C106.019 60.459 105.265 60.4619 104.832 60.9578C104.455 61.3887 104.511 62.0512 104.902 62.4689L107.066 64.7805C107.052 64.7787 110.149 68.0257 112.74 69.257L110.094 97.1984C110.844 98.4545 111.584 99.7749 112.309 101.172L110.564 102.158L97.32 109.651L109.919 115.454C114.776 117.134 119.839 113.526 119.837 108.387L119.825 67.4408C119.825 67.4408 120.038 62.8338 119.685 59.0921Z" fill="#F7D8C9"/>
<path fill-rule="evenodd" clip-rule="evenodd" d="M37.5634 144.476C37.5634 144.476 45.0329 144.795 48.4804 144.22C51.9693 142.202 52.4198 110.106 52.4198 110.106L37.5634 101.701V110.106L37.5634 144.476Z" fill="#F7D8C9"/>
<path fill-rule="evenodd" clip-rule="evenodd" d="M112.694 101.084C111.969 99.687 111.229 98.3666 110.479 97.1106C97.7176 75.7527 81.7844 74.233 81.7844 74.233L72.1481 74.1428L70.0813 74.1238C69.3654 74.1169 68.6609 74.1577 67.9668 74.2335C68.0214 74.2221 68.0013 74.2232 67.8984 74.233L67.895 74.2422C65.0991 74.5593 62.4991 75.5252 60.2525 76.9904C53.7229 80.2006 44.3015 86.9864 36.9887 101.084L37.6863 101.479L52.5427 109.883L52.6645 109.952L97.0832 109.915L97.5188 109.669L97.7049 109.564L110.949 102.07L112.694 101.084Z" fill="#648BBB"/>
<path fill-rule="evenodd" clip-rule="evenodd" d="M64.1282 74.6111C77.1689 74.6111 97.7447 72.6454 98.3596 59.9402C98.3596 59.9402 97.0357 25.7192 85.7653 21.3133C82.3517 19.9791 78.7594 19.4235 75.5733 19.5562C72.3872 19.4235 68.795 19.9791 65.3814 21.3133C54.1109 25.7192 53.9063 41.1904 53.9063 41.1904C54.5206 53.8956 52.1642 52.5637 47.5538 60.6579C47.444 60.8498 47.3412 61.0423 47.2446 61.2342C43.8075 68.0844 49.1603 75.9154 56.8241 75.8303C61.0846 75.7832 63.907 74.6111 64.1282 74.6111Z" fill="#87888F"/>
<path fill-rule="evenodd" clip-rule="evenodd" d="M89.0276 42.4054H89.023V37.8111C89.023 31.2091 83.8443 25.8574 77.4555 25.8574H74.5487C68.1599 25.8574 62.9806 31.2091 62.9806 37.8111V42.4054H62.976C60.6823 42.4054 58.8229 44.2648 58.8229 46.5585C58.8229 48.8522 60.6823 50.7116 62.976 50.7116H62.9806V53.5638C62.9806 58.796 66.2397 63.2318 70.7702 64.8515V73.8874C70.7702 76.777 73.1122 79.1196 76.0018 79.1196C78.8914 79.1196 81.234 76.777 81.234 73.8874V64.844C85.764 63.2249 89.023 58.7954 89.023 53.5638V50.7116H89.0276C91.3214 50.7116 93.1807 48.8522 93.1807 46.5585C93.1807 44.2648 91.3214 42.4054 89.0276 42.4054Z" fill="#F7D8C9"/>
<path fill-rule="evenodd" clip-rule="evenodd" d="M70.8892 69.3551V64.9297C72.0659 65.3463 73.3225 65.583 74.636 65.583H77.5428C78.6156 65.583 79.6504 65.4204 80.6358 65.1377L80.8093 65.252L70.8892 69.3551Z" fill="#F0C4BA"/>
<path fill-rule="evenodd" clip-rule="evenodd" d="M85.2526 51.7659H82.6939C81.8867 51.7659 81.2316 51.1114 81.2316 50.3041C81.2316 49.4962 81.8867 48.8418 82.6939 48.8418H85.2526C86.0599 48.8418 86.7143 49.4962 86.7143 50.3041C86.7143 51.1114 86.0599 51.7659 85.2526 51.7659Z" fill="#F0BFB8"/>
<path fill-rule="evenodd" clip-rule="evenodd" d="M70.3128 51.7659H67.7548C66.9469 51.7659 66.2925 51.1114 66.2925 50.3041C66.2925 49.4962 66.9469 48.8418 67.7548 48.8418H70.3128C71.1207 48.8418 71.7752 49.4962 71.7752 50.3041C71.7752 51.1114 71.1207 51.7659 70.3128 51.7659Z" fill="#F0BFB8"/>
<path fill-rule="evenodd" clip-rule="evenodd" d="M78.1063 56.8834C78.0069 56.8834 77.911 56.9351 77.8575 57.027C77.5501 57.5585 76.9779 57.8883 76.3648 57.8883C75.7517 57.8883 75.18 57.5585 74.8726 57.027C74.7927 56.8897 74.6175 56.8431 74.4801 56.9224C74.3428 57.0017 74.2957 57.1775 74.3756 57.3149C74.7853 58.0228 75.5477 58.4629 76.3648 58.4629C77.1824 58.4629 77.9449 58.0228 78.3546 57.3149C78.4344 57.1775 78.3873 57.0017 78.25 56.9224L78.1063 56.8834Z" fill="#E58A92"/>
<path fill-rule="evenodd" clip-rule="evenodd" d="M82.5687 47.8702C82.9899 47.8702 83.3312 47.5289 83.3312 47.1077V45.5828C83.3312 45.161 82.9899 44.8203 82.5687 44.8203C82.1476 44.8203 81.8063 45.161 81.8063 45.5828V47.1077C81.8063 47.5289 82.1476 47.8702 82.5687 47.8702Z" fill="#2F2D3A"/>
<path fill-rule="evenodd" clip-rule="evenodd" d="M71.077 47.8702C71.4982 47.8702 71.8395 47.5289 71.8395 47.1077V45.5828C71.8395 45.161 71.4982 44.8203 71.077 44.8203C70.6559 44.8203 70.3146 45.161 70.3146 45.5828V47.1077C70.3146 47.5289 70.6559 47.8702 71.077 47.8702Z" fill="#2F2D3A"/>
<path fill-rule="evenodd" clip-rule="evenodd" d="M80.2915 41.6809C80.5834 41.9067 81.0183 41.9757 81.4349 42.0665C81.8561 42.1486 82.2772 42.2417 82.6404 42.3359C83.0047 42.4296 83.4189 42.552 83.8275 42.6836C84.236 42.806 84.6526 42.9565 85.0122 42.899C85.3581 42.8473 85.5828 42.502 85.3334 41.9412C85.103 41.3988 84.3216 40.6725 83.1184 40.3582C81.9152 40.0508 80.8948 40.3128 80.4437 40.6794C79.9691 41.0529 80.0099 41.4672 80.2915 41.6809Z" fill="#87888F"/>
<path fill-rule="evenodd" clip-rule="evenodd" d="M68.4763 43.5338C68.836 43.5734 69.2359 43.4085 69.6307 43.2712C70.0254 43.1247 70.4259 42.9868 70.7781 42.8799C71.1309 42.7719 71.5394 42.6621 71.9491 42.5639C72.3542 42.457 72.7794 42.3703 73.0512 42.1376C73.3143 41.9175 73.3258 41.513 72.83 41.1717C72.3594 40.8355 71.3343 40.627 70.1662 40.9803C69.0009 41.3389 68.281 42.0801 68.0914 42.6173C67.8857 43.1735 68.131 43.4987 68.4763 43.5338Z" fill="#87888F"/>
<path fill-rule="evenodd" clip-rule="evenodd" d="M72.0113 48.0201L71.8826 47.9897C70.5851 47.3404 69.6216 47.9656 69.6118 47.9719C69.4797 48.0592 69.3015 48.0236 69.2136 47.892C69.1257 47.7599 69.1613 47.5817 69.2935 47.4938C69.3435 47.4599 70.5467 46.6796 72.14 47.476C72.2819 47.5467 72.3394 47.7191 72.2681 47.8616C72.2175 47.9621 72.1164 48.0201 72.0113 48.0201Z" fill="#E58A92"/>
<path fill-rule="evenodd" clip-rule="evenodd" d="M84.0775 48.0201L83.9488 47.9897C82.6508 47.3404 81.6884 47.9656 81.678 47.9719C81.5459 48.0592 81.3678 48.0236 81.2798 47.892C81.1919 47.7599 81.2276 47.5817 81.3597 47.4938C81.4097 47.4599 82.6129 46.6796 84.2062 47.476C84.3481 47.5467 84.4056 47.7191 84.3343 47.8616C84.2838 47.9621 84.1826 48.0201 84.0775 48.0201Z" fill="#E58A92"/>
<path fill-rule="evenodd" clip-rule="evenodd" d="M76.3086 50.83H75.1985C75.0399 50.83 74.9112 50.7013 74.9112 50.5427C74.9112 50.3835 75.0399 50.2554 75.1985 50.2554H76.3086C77.4675 50.2554 78.4104 49.4303 78.4104 48.4156V47.8002C78.4104 47.5077 78.1272 47.2693 77.779 47.2693C76.8947 47.2693 76.1759 46.6154 76.1759 45.811V42.8088C76.1759 42.6496 76.304 42.5215 76.4632 42.5215C76.6218 42.5215 76.7505 42.6496 76.7505 42.8088V45.811C76.7505 46.2982 77.2119 46.6947 77.779 46.6947C78.4438 46.6947 78.985 47.1905 78.985 47.8002V48.4156C78.985 49.7469 77.7841 50.83 76.3086 50.83Z" fill="#E58A92"/>
<path fill-rule="evenodd" clip-rule="evenodd" d="M91.9016 46.8012C91.743 46.8012 91.6143 46.6725 91.6143 46.5139C91.6143 44.281 89.6458 44.2431 89.5619 44.2426C89.4033 44.2414 89.2752 44.1127 89.2758 43.9541C89.2764 43.7955 89.4045 43.668 89.5625 43.668C89.5889 43.668 92.1889 43.7001 92.1889 46.5139C92.1889 46.6725 92.0608 46.8012 91.9016 46.8012Z" fill="#E58A92"/>
<path fill-rule="evenodd" clip-rule="evenodd" d="M59.6847 46.8012C59.5261 46.8012 59.3974 46.6725 59.3974 46.5139C59.3974 43.7001 61.9974 43.668 62.0239 43.668C62.1819 43.668 62.31 43.7955 62.3106 43.9541C62.3111 44.1127 62.183 44.2414 62.0244 44.2426C61.9411 44.2431 59.972 44.281 59.972 46.5139C59.972 46.6725 59.8433 46.8012 59.6847 46.8012Z" fill="#E58A92"/>
<path fill-rule="evenodd" clip-rule="evenodd" d="M61.0983 56.0753C60.7938 56.0753 60.5467 55.8288 60.5467 55.5243V51.1155C60.5467 50.8109 60.7938 50.5645 61.0983 50.5645C61.4029 50.5645 61.6493 50.8109 61.6493 51.1155V55.5243C61.6493 55.8288 61.4029 56.0753 61.0983 56.0753Z" fill="#2F2D3A"/>
<path fill-rule="evenodd" clip-rule="evenodd" d="M90.4019 56.0753C90.0974 56.0753 89.8503 55.8288 89.8503 55.5243V51.1155C89.8503 50.8109 90.0974 50.5645 90.4019 50.5645C90.7065 50.5645 90.953 50.8109 90.953 51.1155V55.5243C90.953 55.8288 90.7065 56.0753 90.4019 56.0753Z" fill="#2F2D3A"/>
<path fill-rule="evenodd" clip-rule="evenodd" d="M72.3568 22.7009C62.7113 24.304 60.1314 36.2473 60.1314 36.2473C58.6352 46.1807 68.1658 44.307 68.1658 44.307C70.9853 44.3466 73.2216 38.9725 74.4638 35.1119C78.7899 34.858 86.1284 33.8714 87.3874 30.109C89.095 25.0056 80.6372 21.3248 72.3568 22.7009Z" fill="#87888F"/>
<path fill-rule="evenodd" clip-rule="evenodd" d="M65.1709 75.887C65.3266 76.6897 66.104 77.2143 66.9067 77.058C67.7099 76.9023 68.234 76.1249 68.0782 75.3222C67.922 74.5189 67.1446 73.9943 66.3419 74.1506C65.5392 74.3063 65.0146 75.0837 65.1709 75.887Z" fill="#2F2D3A"/>
<path fill-rule="evenodd" clip-rule="evenodd" d="M66.8946 78.7581C67.0503 79.5608 67.8277 80.0854 68.6304 79.9291C69.4337 79.7728 69.9583 78.996 69.802 78.1927C69.6463 77.39 68.8689 76.8654 68.0656 77.0217C67.2629 77.1774 66.7383 77.9548 66.8946 78.7581Z" fill="#2F2D3A"/>
<path fill-rule="evenodd" clip-rule="evenodd" d="M69.7676 81.0567C69.9233 81.8594 70.7007 82.384 71.504 82.2277C72.3061 82.072 72.8312 81.2946 72.675 80.4914C72.5187 79.6887 71.7418 79.1646 70.9386 79.3204C70.1359 79.4766 69.6113 80.2541 69.7676 81.0567Z" fill="#2F2D3A"/>
<path fill-rule="evenodd" clip-rule="evenodd" d="M72.6404 82.2071C72.7967 83.0098 73.5736 83.5344 74.3768 83.3787C75.1795 83.2224 75.7041 82.445 75.5478 81.6423C75.3921 80.8396 74.6147 80.315 73.8114 80.4707C73.0087 80.627 72.4841 81.4044 72.6404 82.2071Z" fill="#2F2D3A"/>
<path fill-rule="evenodd" clip-rule="evenodd" d="M76.0878 81.6329C76.2441 82.4356 77.0215 82.9602 77.8242 82.8039C78.6269 82.6482 79.1515 81.8708 78.9952 81.0675C78.8395 80.2648 78.0621 79.7408 77.2588 79.8965C76.4561 80.0528 75.9321 80.8302 76.0878 81.6329Z" fill="#2F2D3A"/>
<path fill-rule="evenodd" clip-rule="evenodd" d="M79.5354 80.4821C79.6911 81.2854 80.4685 81.8094 81.2718 81.6537C82.0745 81.4974 82.5991 80.72 82.4428 79.9173C82.2865 79.1146 81.5097 78.59 80.7064 78.7463C79.9037 78.902 79.3791 79.6794 79.5354 80.4821Z" fill="#2F2D3A"/>
<path fill-rule="evenodd" clip-rule="evenodd" d="M81.8337 78.7579C81.9899 79.5606 82.7674 80.0852 83.5701 79.9289C84.3733 79.7732 84.8973 78.9958 84.7416 78.1925C84.5853 77.3898 83.8079 76.8658 83.0052 77.0215C82.202 77.1778 81.6779 77.9552 81.8337 78.7579Z" fill="#2F2D3A"/>
<path fill-rule="evenodd" clip-rule="evenodd" d="M84.132 75.887C84.2883 76.6897 85.0657 77.2143 85.8684 77.058C86.6711 76.9023 87.1956 76.1249 87.0394 75.3216C86.8837 74.5189 86.1062 73.9943 85.3035 74.1506C84.5003 74.3063 83.9763 75.0837 84.132 75.887Z" fill="#2F2D3A"/>
<rect x="54.2262" y="104.576" width="43.0937" height="38.4971" fill="#648BBB"/>
<path fill-rule="evenodd" clip-rule="evenodd" d="M263.263 83.3466C263.263 89.3842 258.522 94.2777 252.674 94.2777C246.825 94.2777 242.084 89.3842 242.084 83.3466C242.084 77.3096 246.825 72.416 252.674 72.416C258.522 72.416 263.263 77.3096 263.263 83.3466Z" fill="#FFFFFE"/>
<path fill-rule="evenodd" clip-rule="evenodd" d="M256.431 81.2983C256.431 83.5623 254.749 85.3974 252.674 85.3974C250.598 85.3974 248.916 83.5623 248.916 81.2983C248.916 79.0349 250.598 77.1992 252.674 77.1992C254.749 77.1992 256.431 79.0349 256.431 81.2983Z" fill="#EFF3F5"/>
<path fill-rule="evenodd" clip-rule="evenodd" d="M257.798 89.4264C257.798 89.5221 247.55 89.5181 247.55 89.4264C247.55 86.4468 249.844 84.0312 252.674 84.0312C255.504 84.0312 257.798 86.4468 257.798 89.4264Z" fill="#EFF3F5"/>
<path fill-rule="evenodd" clip-rule="evenodd" d="M269.411 78.5659H298.788V74.4668H269.411V78.5659Z" fill="#FFFFFE"/>
<path fill-rule="evenodd" clip-rule="evenodd" d="M269.411 85.3968H305.62V82.6641H269.411V85.3968Z" fill="#FFFFFE"/>
<path fill-rule="evenodd" clip-rule="evenodd" d="M269.411 92.2288H305.62V89.4961H269.411V92.2288Z" fill="#FFFFFE"/>
<path fill-rule="evenodd" clip-rule="evenodd" d="M310.205 72.7475C307.787 72.0511 304.988 71.5926 301.98 71.4415L301.976 71.4369C301.865 71.4323 301.843 71.4317 301.903 71.4374C301.155 71.4012 300.397 71.3817 299.627 71.3852L297.402 71.3943L294.348 71.407L291.294 71.3943L289.069 71.3852C288.299 71.3817 287.541 71.4012 286.794 71.4374C286.853 71.4317 286.831 71.4323 286.72 71.4369L286.716 71.4415C283.708 71.5926 280.909 72.0511 278.491 72.7475C277.757 72.9072 276.989 73.0848 276.194 73.2836C263.934 76.3415 255.051 87.0454 253.808 99.7362C253.69 99.958 253.572 100.176 253.454 100.401L253.733 100.558C253.672 101.408 253.645 102.266 253.654 103.13L253.73 110.321H289.354L289.478 109.929L299.216 109.921L299.342 110.321H334.966L335.042 103.13C335.191 88.9887 325.843 76.611 312.502 73.2836C311.706 73.0848 310.939 72.9072 310.205 72.7475Z" fill="#FF0029"/>
<path fill-rule="evenodd" clip-rule="evenodd" d="M328.207 69.5231C324.803 67.9045 320.734 63.6388 320.753 63.6417L317.91 60.6044C317.419 60.0798 317.321 59.2564 317.761 58.6882C318.319 57.9694 319.358 57.9435 319.954 58.5796C319.954 58.5796 321.583 60.3263 322.654 61.476C323.099 61.9547 323.919 61.6306 323.893 60.9773C323.855 60.0241 323.414 59.0961 322.969 58.3923L316.603 50.0861C316.121 49.4558 316.241 48.5531 316.871 48.0704C317.867 48.0704 319.176 48.7174 319.781 49.5086L323.503 54.3765C323.701 54.6351 324.053 54.7195 324.345 54.5793L324.546 54.4834C324.887 54.3208 325.043 53.9226 324.904 53.5721L321.55 45.1044C321.285 44.4362 321.495 43.6341 322.113 43.2669C322.897 42.8027 323.872 43.1589 324.193 43.9696L327.43 52.1408C327.608 52.589 328.145 52.8958 328.607 52.7579C329.14 52.5987 329.466 52.0523 329.343 51.5019L327.611 43.7783C327.452 43.0762 327.786 42.3166 328.454 42.0505C329.299 41.7144 330.207 42.2183 330.398 43.0687L332.198 51.0951C332.317 51.6283 332.607 52.1092 333.023 52.4649C333.509 52.882 334.265 52.5321 334.262 51.8903L334.247 48.1877C334.243 47.4355 334.782 46.7483 335.53 46.6702C336.39 46.5805 337.118 47.2505 337.122 48.0934L337.331 56.168C337.795 61.0842 337.515 67.1368 337.515 67.1368L337.531 120.93C337.534 127.68 330.881 132.42 324.502 130.213C321.866 131.956 318.418 129.727 318.925 126.608L328.207 69.5231Z" fill="#A67479"/>
<path fill-rule="evenodd" clip-rule="evenodd" d="M336.922 65.224L336.962 65.2021C337.13 65.0987 337.182 64.8786 337.079 64.7109C336.191 63.2767 335.08 62.4367 333.776 62.2137C331.598 61.8408 329.706 63.3422 329.625 63.406C329.472 63.5289 329.448 63.753 329.571 63.907C329.694 64.0599 329.919 64.0851 330.073 63.9616C330.089 63.9484 331.802 62.5981 333.661 62.9182C334.752 63.1061 335.697 63.8358 336.471 65.0866C336.567 65.2406 336.761 65.2975 336.922 65.224Z" fill="#2F2D3A"/>
<path fill-rule="evenodd" clip-rule="evenodd" d="M269.968 25.3368C269.818 22.4926 271.007 19.8909 272.979 18.1321C272.663 17.3731 272.462 16.5526 272.416 15.6844C272.201 11.6146 275.327 8.14182 279.396 7.9275C280.525 7.86832 281.603 8.07345 282.583 8.47623C283.669 5.67514 286.311 3.62273 289.506 3.45437C292.7 3.2866 295.543 5.05057 296.917 7.72123C297.85 7.21789 298.9 6.90072 300.029 6.84154C304.098 6.62722 307.571 9.75238 307.785 13.8222C307.811 14.3065 307.785 14.7811 307.72 15.2442C310.787 16.5526 313.011 19.5077 313.198 23.0609C313.444 27.7345 310.085 31.7629 305.552 32.4496C305.76 37.3186 279.068 38.7298 278.758 33.8705C274.089 33.7625 270.218 30.0783 269.968 25.3368Z" fill="#2F2D3A"/>
<path fill-rule="evenodd" clip-rule="evenodd" d="M312.436 45.9102C312.274 42.8408 310.008 40.4649 307.373 40.6034L306.754 40.6361L306.403 33.9681C306.327 32.5218 305.966 31.1601 305.386 29.9253C304.825 30.062 304.245 30.1546 303.647 30.1862C300.041 30.3758 296.807 28.5078 295.074 25.6113C293.678 26.4835 292.05 27.0265 290.291 27.1196C288.531 27.2121 286.855 26.8427 285.376 26.1221C283.964 29.168 280.967 31.3554 277.388 31.5657C276.98 32.8074 276.78 34.1399 276.853 35.5235L277.204 42.2064C274.693 42.4897 272.816 45.0156 272.972 47.9879C273.129 50.9602 275.261 53.2752 277.788 53.293L277.911 55.6333C278.12 59.5922 282.178 62.8397 285.952 64.5388L286.63 75.7173C286.869 79.6629 290.139 82.741 294.092 82.741C298.384 82.741 301.794 79.1355 301.556 74.8508L300.901 63.042C304.09 60.8907 307.647 57.5875 307.462 54.0773L307.34 51.7514L307.959 51.7187C310.593 51.5802 312.598 48.9796 312.436 45.9102Z" fill="#A67479"/>
<path fill-rule="evenodd" clip-rule="evenodd" d="M285.964 64.7364L285.942 64.5335C285.946 64.5353 285.949 64.5364 285.952 64.5381L285.964 64.7364Z" fill="#BBBDBB"/>
<path fill-rule="evenodd" clip-rule="evenodd" d="M286.481 69.525L285.964 64.7364L285.952 64.5382C285.949 64.5365 285.946 64.5353 285.942 64.5336L285.941 64.521C286.77 64.737 287.639 64.8536 288.531 64.8536C288.711 64.8536 288.893 64.8485 289.075 64.8393L296.507 64.4474C296.951 64.4244 297.383 64.3641 297.809 64.2871L286.481 69.525Z" fill="#876366"/>
<path fill-rule="evenodd" clip-rule="evenodd" d="M274.54 47.1932C274.32 47.2047 274.132 47.0352 274.12 46.8157C273.991 44.3576 275.837 43.609 276.831 43.5572C277.052 43.5452 277.239 43.7147 277.251 43.9347C277.262 44.1542 277.094 44.3416 276.875 44.3542C276.662 44.3668 274.8 44.5461 274.917 46.7732C274.929 46.9938 274.76 47.1811 274.54 47.1932Z" fill="#2F2D3A"/>
<path fill-rule="evenodd" clip-rule="evenodd" d="M310.537 45.2969C310.316 45.3084 310.129 45.1394 310.117 44.9194C309.997 42.636 308.003 42.7141 307.919 42.7187C307.698 42.7302 307.511 42.5613 307.498 42.3412C307.488 42.1212 307.656 41.9327 307.876 41.9212C308.871 41.8695 310.785 42.4194 310.914 44.8769C310.926 45.0975 310.758 45.2848 310.537 45.2969Z" fill="#2F2D3A"/>
<path fill-rule="evenodd" clip-rule="evenodd" d="M285.488 46.9158C285.043 46.9388 284.662 46.5969 284.639 46.151L284.554 44.5364C284.53 44.0906 284.873 43.7102 285.319 43.6866C285.764 43.6637 286.145 44.0055 286.168 44.4514L286.253 46.066C286.277 46.5119 285.934 46.8922 285.488 46.9158Z" fill="#2F2D3A"/>
<path fill-rule="evenodd" clip-rule="evenodd" d="M297.595 46.2791C297.149 46.3021 296.768 45.9597 296.745 45.5138L296.66 43.8998C296.637 43.4539 296.979 43.0735 297.425 43.05C297.87 43.0264 298.251 43.3689 298.274 43.8147L298.36 45.4293C298.383 45.8746 298.04 46.255 297.595 46.2791Z" fill="#2F2D3A"/>
<path fill-rule="evenodd" clip-rule="evenodd" d="M287.15 41.0416C286.785 41.2559 286.275 41.2674 285.782 41.3076C285.285 41.3369 284.787 41.3794 284.356 41.4306C283.924 41.4823 283.43 41.5587 282.942 41.6466C282.454 41.7242 281.955 41.8328 281.547 41.7115C281.153 41.5995 280.937 41.1703 281.295 40.5681C281.629 39.9832 282.622 39.2724 284.051 39.0977C285.479 38.9305 286.625 39.3862 287.1 39.874C287.601 40.3739 287.502 40.8405 287.15 41.0416Z" fill="#2F2D3A"/>
<path fill-rule="evenodd" clip-rule="evenodd" d="M300.099 40.4004C299.689 40.5452 299.191 40.4647 298.703 40.4153C298.213 40.355 297.719 40.3073 297.288 40.2809C296.855 40.2539 296.357 40.2401 295.859 40.2389C295.367 40.2269 294.854 40.2441 294.489 40.0516C294.137 39.8706 294.039 39.4098 294.545 38.8823C295.021 38.3675 296.169 37.8475 297.601 37.9331C299.03 38.0256 300.022 38.6789 300.355 39.2438C300.712 39.8252 300.494 40.2659 300.099 40.4004Z" fill="#2F2D3A"/>
<path fill-rule="evenodd" clip-rule="evenodd" d="M293.702 58.607L292.399 58.6759C291.766 58.7092 291.232 58.326 291.206 57.8204L291.077 55.3824L298.219 54.166L298.24 54.5676C298.35 56.6609 296.319 58.4691 293.702 58.607Z" fill="#FFFFFE"/>
<path fill-rule="evenodd" clip-rule="evenodd" d="M293.85 51.8061L292.085 51.8992C290.36 51.99 288.884 50.661 288.793 48.9366C288.751 48.1431 289.363 47.4634 290.156 47.422C291.161 47.3692 291.935 46.5084 291.882 45.5035L291.755 43.0862C291.746 42.9058 291.884 42.7524 292.065 42.7426C292.244 42.7334 292.398 42.8713 292.408 43.0517L292.535 45.469C292.607 46.8337 291.555 48.0024 290.191 48.0742C289.756 48.0972 289.423 48.4683 289.445 48.9022C289.517 50.2668 290.686 51.3183 292.05 51.2465L293.816 51.1539C293.996 51.1442 294.15 51.2821 294.158 51.4625C294.168 51.6429 294.03 51.7963 293.85 51.8061Z" fill="#2F2D3A"/>
<path fill-rule="evenodd" clip-rule="evenodd" d="M275.584 97.2796C276.565 93.7322 276.199 89.6509 274.688 86.4729C273.632 84.2515 272.09 81.7825 273.087 79.3618C273.399 78.6034 273.931 77.9736 274.361 77.2818C276.538 73.7803 275.845 69.9128 274.929 66.1746C274.503 64.4399 273.65 62.8581 273.052 61.1619C272.387 59.2721 271.837 57.3415 271.221 55.4345C270.136 52.0668 268.798 48.6888 266.45 46.082C264.262 43.6532 261.295 42.0306 258.161 41.1584C254.282 40.0781 250.099 40.1235 246.21 41.2595C242.261 42.4133 238.81 45.019 235.642 47.6132C232.381 50.285 229.501 53.6665 228.031 57.6926C227.484 59.1905 227.141 60.7597 227.006 62.3467C226.798 64.7973 227.098 67.2508 226.93 69.7014C226.59 74.656 223.283 77.726 220.82 81.7078C219.345 84.0912 218.297 86.9538 218.907 89.6767C219.744 93.4104 223.337 95.7081 226.724 97.3652C234.38 101.112 242.588 103.667 250.978 105.139C257.632 106.307 266.099 107.78 271.923 103.117C273.746 101.657 274.949 99.5808 275.584 97.2796Z" fill="#2F2D3A"/>
<path fill-rule="evenodd" clip-rule="evenodd" d="M273.276 109.942C269.012 102.271 263.922 97.5548 259.95 94.767C258.119 93.1191 255.896 91.8739 253.406 91.1902L253.404 91.181C253.311 91.1574 253.293 91.1534 253.341 91.1718C252.722 91.0046 252.089 90.8678 251.439 90.7725L249.56 90.4967L244.552 89.7618L242.673 89.4865C242.025 89.3912 241.381 89.34 240.741 89.3228L240.805 89.2125C240.805 89.2125 224.356 88.2213 208.952 109.192C208.952 109.192 274.883 112.832 273.276 109.942Z" fill="#4C5D9A"/>
<path fill-rule="evenodd" clip-rule="evenodd" d="M244.254 53.5723C243.767 56.9939 242.519 60.5517 239.564 62.0388L238.625 60.5391L238.381 60.5012C236.074 60.1403 233.898 61.802 233.521 64.2124C233.145 66.6228 234.71 68.8688 237.017 69.2291L237.58 69.317L237.501 69.8232C236.697 74.9652 238.968 79.8767 242.945 82.6939L241.215 93.7678C240.761 96.6746 242.749 99.3993 245.655 99.8538C248.562 100.308 251.286 98.3197 251.74 95.4128L253.395 84.8296C258.599 83.7063 262.827 79.4917 263.699 73.9165L263.784 73.3684C265.874 73.404 267.738 71.8268 268.084 69.6129C268.43 67.3996 267.136 65.3282 265.135 64.7255L265.57 61.9434C255.033 61.1665 247.788 56.471 244.254 53.5723Z" fill="#F7D8C9"/>
<path fill-rule="evenodd" clip-rule="evenodd" d="M242.254 86.5537L242.854 82.627C242.884 82.6488 242.914 82.6706 242.945 82.6919L242.345 86.5312L242.254 86.5537Z" fill="#A16A73"/>
<path fill-rule="evenodd" clip-rule="evenodd" d="M242.345 86.533L242.945 82.6937C242.914 82.6724 242.884 82.6506 242.854 82.6287L242.888 82.4023C243.675 82.7919 244.524 83.0964 245.426 83.2958L247.993 83.8647C248.801 84.0434 249.606 84.1284 250.396 84.1284C250.768 84.1284 251.136 84.1094 251.5 84.0727L251.686 84.241L242.345 86.533Z" fill="#EBA7A6"/>
<path fill-rule="evenodd" clip-rule="evenodd" d="M259.766 75.2955C259.691 75.2955 259.616 75.2898 259.54 75.2788L256.894 74.887C256.059 74.7634 255.482 73.986 255.606 73.1506C255.718 72.3916 256.37 71.8457 257.116 71.8457C257.19 71.8457 257.266 71.8514 257.341 71.8624L259.988 72.2542C260.823 72.3778 261.4 73.1546 261.276 73.99C261.163 74.7496 260.511 75.2955 259.766 75.2955Z" fill="#F2CCC0"/>
<path fill-rule="evenodd" clip-rule="evenodd" d="M245.55 73.207C245.476 73.207 245.4 73.2019 245.325 73.1904L242.679 72.7985C241.843 72.675 241.266 71.8981 241.39 71.0627C241.502 70.3031 242.155 69.7578 242.9 69.7578C242.975 69.7578 243.05 69.763 243.126 69.7745L245.772 70.1658C246.607 70.2893 247.184 71.0667 247.061 71.9016C246.948 72.6612 246.296 73.207 245.55 73.207Z" fill="#F2CCC0"/>
<path fill-rule="evenodd" clip-rule="evenodd" d="M251.737 72.9692C251.634 72.964 251.529 72.9543 251.425 72.9387L250.424 72.7905C250.248 72.7646 250.126 72.6003 250.152 72.4239C250.179 72.2487 250.337 72.1263 250.519 72.1533L251.52 72.301C252.025 72.3745 252.521 72.2969 252.913 72.0786C253.277 71.8752 253.505 71.5753 253.555 71.2334L253.626 70.7542C253.64 70.6605 253.576 70.5784 253.538 70.5381C253.449 70.4468 253.312 70.3813 253.164 70.3594C252.332 70.2365 251.739 69.5837 251.839 68.9046L252.186 66.5643C252.212 66.3879 252.372 66.2667 252.551 66.2925C252.727 66.3184 252.849 66.4827 252.823 66.658L252.476 68.9988C252.429 69.3212 252.787 69.6521 253.258 69.7222C253.549 69.7653 253.813 69.8957 254.001 70.09C254.208 70.3043 254.303 70.5807 254.264 70.8478L254.193 71.3276C254.112 71.8717 253.769 72.3383 253.226 72.6411C252.794 72.8819 252.275 72.9956 251.737 72.9692Z" fill="#E58A92"/>
<path fill-rule="evenodd" clip-rule="evenodd" d="M258.111 70.5795C258.547 70.6501 258.958 70.3531 259.028 69.9176L259.282 68.3375C259.353 67.9013 259.057 67.4905 258.62 67.4204C258.184 67.3503 257.773 67.6468 257.703 68.0829L257.449 69.6624C257.378 70.0985 257.675 70.5094 258.111 70.5795Z" fill="#2F2D3A"/>
<path fill-rule="evenodd" clip-rule="evenodd" d="M245.834 68.6029C246.27 68.6736 246.68 68.3765 246.751 67.9404L247.005 66.3609C247.075 65.9248 246.779 65.514 246.343 65.4439C245.907 65.3738 245.496 65.6702 245.426 66.1063L245.171 67.6859C245.1 68.1226 245.398 68.5328 245.834 68.6029Z" fill="#2F2D3A"/>
<path fill-rule="evenodd" clip-rule="evenodd" d="M256.913 70.1627L257.054 70.215C258.289 71.1383 259.419 70.6649 259.43 70.6603C259.566 70.6022 259.722 70.6637 259.78 70.7988C259.839 70.9332 259.777 71.0906 259.643 71.1493C259.585 71.174 258.215 71.7485 256.735 70.6419C256.617 70.5534 256.593 70.3868 256.681 70.2684C256.738 70.1937 256.825 70.1569 256.913 70.1627Z" fill="#E58A92"/>
<path fill-rule="evenodd" clip-rule="evenodd" d="M244.345 67.901L244.487 67.9533C245.722 68.8766 246.851 68.4037 246.863 68.3986C246.996 68.3411 247.155 68.4014 247.213 68.537C247.272 68.6721 247.21 68.8289 247.075 68.8875C247.017 68.9128 245.649 69.4874 244.168 68.3807C244.05 68.2923 244.026 68.1256 244.114 68.0073C244.17 67.9326 244.259 67.8952 244.345 67.901Z" fill="#E58A92"/>
<path fill-rule="evenodd" clip-rule="evenodd" d="M248.085 73.5469C247.93 73.5469 247.802 73.6698 247.798 73.8255C247.781 74.3886 247.972 74.8477 248.365 75.189C249.514 76.1859 252.036 75.7671 252.143 75.7487C252.299 75.7222 252.404 75.5734 252.378 75.4171C252.351 75.2609 252.204 75.1557 252.046 75.1827C252.022 75.1862 249.685 75.574 248.742 74.7546C248.481 74.5283 248.361 74.2301 248.372 73.8428C248.377 73.6842 248.252 73.5515 248.093 73.5469H248.085Z" fill="#E58A92"/>
<path fill-rule="evenodd" clip-rule="evenodd" d="M249.52 63.6977C249.213 63.7598 248.857 63.6472 248.506 63.5587C248.155 63.4622 247.8 63.3743 247.489 63.3082C247.178 63.2421 246.817 63.1789 246.457 63.1243C246.101 63.0628 245.727 63.0203 245.476 62.8405C245.233 62.6704 245.193 62.3233 245.594 61.9924C245.974 61.6672 246.841 61.4103 247.873 61.6269C248.903 61.8482 249.578 62.4319 249.782 62.8807C250.001 63.3432 249.814 63.642 249.52 63.6977Z" fill="#2F2D3A"/>
<path fill-rule="evenodd" clip-rule="evenodd" d="M260.733 64.7958C260.44 64.9032 260.07 64.8463 259.71 64.8119C259.348 64.7694 258.985 64.736 258.668 64.7182C258.349 64.6998 257.983 64.6912 257.619 64.6924C257.258 64.6855 256.882 64.6998 256.607 64.5596C256.34 64.4286 256.249 64.0919 256.594 63.7035C256.921 63.3254 257.74 62.9405 258.792 62.9979C259.844 63.0605 260.6 63.5357 260.869 63.9483C261.156 64.3723 261.016 64.6958 260.733 64.7958Z" fill="#2F2D3A"/>
<path fill-rule="evenodd" clip-rule="evenodd" d="M144.371 32.9004C144.241 32.9004 144.112 32.8998 143.984 32.8993V26.029C143.984 24.8902 144.907 23.9668 146.046 23.9668H146.519C147.658 23.9668 148.581 24.8902 148.581 26.029V32.7499C147.115 32.8562 145.704 32.9004 144.371 32.9004Z" fill="#384185"/>
<path fill-rule="evenodd" clip-rule="evenodd" d="M321.865 105.614C321.782 107.526 322.028 138.39 314.186 140.951C310.186 142.257 305.832 139.794 301.626 139.702C286.825 139.378 271.323 144.185 257.213 139.702C253.059 138.382 261.737 107.228 263.681 106.243C281.015 97.4645 301.78 97.2582 319.257 104.268L321.865 105.614Z" fill="#FF0029"/>
<path fill-rule="evenodd" clip-rule="evenodd" d="M265.658 115.203C263.761 124.032 262.885 132.619 260.658 139.244C252.006 140.771 235.918 140.771 220.626 141.167C219.277 132.729 219.571 116.875 219.368 116.531C217.946 114.121 213.537 119.155 211.075 117.826C196.661 110.041 224.526 94.1663 227.181 92.625C227.181 92.625 237.724 99.4913 243.962 101.674C248.723 103.34 260.092 104.142 262.6 105.02C264.313 105.619 267.198 102.909 268.669 103.423C269.92 103.861 265.884 114.154 265.658 115.203Z" fill="#4C5D9A"/>
<path fill-rule="evenodd" clip-rule="evenodd" d="M156.189 47.0239C156.188 47.6698 155.637 48.1932 154.956 48.1926C154.276 48.1926 153.725 47.6686 153.725 47.0228C153.726 46.3764 154.277 45.8529 154.958 45.8535C155.638 45.8535 156.19 46.3775 156.189 47.0239Z" fill="#2F2D3A"/>
<path fill-rule="evenodd" clip-rule="evenodd" d="M173.24 67.5089L158.919 67.502L173.24 67.5089ZM138.405 67.492L135.484 67.4908V67.4902L138.405 67.492Z" fill="#E0EAF1"/>
<path fill-rule="evenodd" clip-rule="evenodd" d="M193.201 110.097L199.876 119.773C199.991 119.889 199.782 119.292 199.876 119.16L210.349 101.994L210.318 101.981L211.23 100.549L214.532 95.1364C212.153 92.6386 211.564 87.2605 211.58 87.2709L210.412 83.5918C210.202 82.9265 210.488 82.1686 211.128 81.8922C211.866 81.575 212.696 81.9669 212.933 82.7127C212.933 82.7127 213.598 84.8232 214.036 86.2142C214.218 86.794 215.035 86.8503 215.275 86.2918C215.623 85.4788 215.624 84.5272 215.533 83.7602L213.521 74.2612C213.369 73.5406 213.831 72.8333 214.551 72.6811C215.302 72.6816 216.041 73.2821 216.196 74.0158L217.585 80.6126C217.647 80.9074 217.907 81.1182 218.209 81.1182H218.416C218.765 81.1182 219.055 80.847 219.079 80.4983L219.654 72.0674C219.702 71.371 220.246 70.7711 220.943 70.7487C221.745 70.7235 222.375 71.3928 222.321 72.1726L221.762 80.3742C221.733 80.8016 222.019 81.1872 222.437 81.2831C222.97 81.405 223.501 81.0717 223.624 80.5379L225.259 73.3786C225.415 72.6977 226.046 72.1904 226.738 72.2771C227.534 72.3771 228.052 73.1361 227.877 73.8986L226.177 81.3389C226.064 81.833 226.114 82.3502 226.319 82.8138C226.561 83.3603 227.333 83.37 227.587 82.8294L229.054 79.7232C229.352 79.0917 230.078 78.7309 230.735 78.9653C231.491 79.233 231.833 80.0857 231.5 80.793L228.447 87.638C226.19 93.801 223.745 97.3853 222.901 98.5212L220.126 104.341L219.522 105.668L219.498 105.658L205.16 135.726C202.92 140.421 196.721 141.509 193.017 137.857L180.85 124.06L193.201 110.097Z" fill="#F7D8C9"/>
<path fill-rule="evenodd" clip-rule="evenodd" d="M176.604 123.988L180.47 125.279L195.361 109.2C184.521 88.7456 171.182 81.0307 163.435 78.1549C160.409 77.0316 157.203 76.4829 153.976 76.4812L143.192 76.4766C140.274 76.4748 137.362 76.9443 134.636 77.986C111.073 86.9914 102.491 123.306 102.491 123.306L105.688 123.839L121.179 126.425L121.17 143.052L176.595 143.08L176.604 123.988Z" fill="#BD3F4B"/>
<path fill-rule="evenodd" clip-rule="evenodd" d="M120.95 126.427L105.812 123.984L105.803 143.048L120.942 143.055L120.95 126.427Z" fill="#F7D8C9"/>
<path fill-rule="evenodd" clip-rule="evenodd" d="M176.549 132.956C176.719 132.956 176.856 132.82 176.856 132.65L176.863 119.149C176.863 118.979 176.726 118.842 176.556 118.842C176.387 118.842 176.249 118.979 176.249 119.148L176.242 132.65C176.242 132.819 176.38 132.956 176.549 132.956Z" fill="#1E4487"/>
<path fill-rule="evenodd" clip-rule="evenodd" d="M121.009 133.234C121.179 133.234 121.316 133.098 121.316 132.928L121.323 119.427C121.323 119.256 121.186 119.119 121.016 119.119C120.846 119.119 120.709 119.256 120.709 119.426L120.702 132.928C120.702 133.097 120.839 133.234 121.009 133.234Z" fill="#1E4487"/>
<path fill-rule="evenodd" clip-rule="evenodd" d="M170.241 29.5151C167.003 22.4144 161.256 25.2845 161.256 25.2845C159.601 21.0946 154.905 16.1325 148.41 15.5654C143.679 15.1528 141.336 17.1512 139.775 17.7258C136.102 15.6677 132.486 15.5683 129.849 18.3814C125.976 22.5138 127.546 26.2532 128.568 27.8477C128.856 28.4671 130.239 30.5994 131.489 31.2906C129.365 36.3331 127.686 44.5985 139.011 45.384L162.703 46.5854C162.703 46.5854 164.514 45.0559 166.436 42.7242C169.266 39.2905 172.341 34.1164 170.241 29.5151Z" fill="#2F2D3A"/>
<path fill-rule="evenodd" clip-rule="evenodd" d="M166.435 42.7268C164.513 45.0584 162.703 46.588 162.703 46.588L161.895 37.5366C158.384 37.2838 157.494 34.8062 157.44 32.5021L151.42 32.4711C142.815 33.5582 135.431 32.2872 133.776 31.9648L133.389 31.9953C133.356 32.0648 133.296 32.1556 133.202 32.2211L133.197 42.1907H132.799C130.21 42.1896 128.111 44.2862 128.11 46.8747V47.3832C128.108 49.9711 130.206 52.0707 132.794 52.0718L133.192 52.0724L133.188 58.8525C133.185 64.026 136.86 67.493 140.153 68.0544L138.982 81.3129C138.98 84.8943 141.882 87.7988 145.463 87.8005L149.765 87.8028C153.626 87.8046 156.757 84.676 156.759 80.8153L155.601 68.1711H155.621C160.32 68.1734 164.166 64.3311 164.168 59.6322L164.172 52.0873H164.293C166.881 52.0885 168.981 49.9912 168.982 47.4033V46.8948C168.983 45.0774 167.947 43.5048 166.435 42.7268Z" fill="#F7D8C9"/>
<path fill-rule="evenodd" clip-rule="evenodd" d="M156.06 73.9753L140.549 68.0605C140.859 68.1209 141.175 68.1599 141.5 68.1605L155.489 68.1674L156.06 73.9753Z" fill="#F0C4BA"/>
<path fill-rule="evenodd" clip-rule="evenodd" d="M167.181 47.1752C167.29 47.1752 167.378 47.0873 167.379 46.9781C167.38 44.8481 165.413 44.8223 165.393 44.8223C165.283 44.8223 165.196 44.9102 165.196 45.0188C165.195 45.1279 165.283 45.2164 165.392 45.217C165.457 45.2176 166.985 45.2469 166.984 46.9775C166.984 47.0867 167.072 47.1752 167.181 47.1752Z" fill="#E58A92"/>
<path fill-rule="evenodd" clip-rule="evenodd" d="M129.767 47.1559C129.658 47.1559 129.57 47.0674 129.57 46.9582C129.571 44.8282 131.538 44.8047 131.558 44.8047C131.667 44.8047 131.755 44.8926 131.755 45.0012C131.755 45.1104 131.667 45.1989 131.559 45.1994C131.493 45.1994 129.966 45.2276 129.965 46.9588C129.965 47.0674 129.877 47.1559 129.767 47.1559Z" fill="#E58A92"/>
<path fill-rule="evenodd" clip-rule="evenodd" d="M140.526 46.9283C140.061 46.9283 139.683 46.5508 139.684 46.0854L139.685 44.3996C139.685 43.9336 140.063 43.5566 140.528 43.5566C140.994 43.5572 141.371 43.9347 141.37 44.4001L141.37 46.086C141.369 46.5519 140.992 46.9289 140.526 46.9283Z" fill="#0A0B09"/>
<path fill-rule="evenodd" clip-rule="evenodd" d="M153.455 46.9347C152.99 46.9342 152.613 46.5567 152.613 46.0912L152.613 44.4054C152.614 43.94 152.991 43.5625 153.457 43.5625C153.922 43.5631 154.3 43.9406 154.3 44.406L154.299 46.0918C154.299 46.5572 153.92 46.9347 153.455 46.9347Z" fill="#0A0B09"/>
<path fill-rule="evenodd" clip-rule="evenodd" d="M143.66 40.4635C143.269 40.733 142.731 40.725 142.212 40.7554C141.688 40.7721 141.162 40.806 140.707 40.8554C140.251 40.9036 139.729 40.9829 139.213 41.0783C138.698 41.1593 138.169 41.2811 137.743 41.1002C137.332 40.933 137.116 40.3503 137.509 39.5626C137.877 38.7967 138.941 37.8934 140.45 37.7268C141.958 37.5688 143.152 38.2295 143.637 38.9029C144.152 39.593 144.035 40.2113 143.66 40.4635Z" fill="#2F2D3A"/>
<path fill-rule="evenodd" clip-rule="evenodd" d="M157.795 41.8566C157.296 41.9991 156.759 41.817 156.226 41.6796C155.694 41.5262 155.154 41.3895 154.678 41.2912C154.201 41.1924 153.646 41.1022 153.09 41.0304C152.541 40.9442 151.961 40.8948 151.607 40.5759C151.263 40.2754 151.283 39.6232 151.996 38.9636C152.674 38.3178 154.107 37.7604 155.687 38.0822C157.262 38.4131 158.191 39.46 158.406 40.2903C158.642 41.1464 158.275 41.7268 157.795 41.8566Z" fill="#2F2D3A"/>
<path fill-rule="evenodd" clip-rule="evenodd" d="M140.442 47.2856C140.902 47.2856 141.443 47.1868 142.032 46.8926C142.184 46.8168 142.245 46.6329 142.169 46.4812C142.093 46.3295 141.909 46.2681 141.758 46.3433C140.332 47.057 139.28 46.3893 139.236 46.3606C139.094 46.2681 138.904 46.3077 138.811 46.4479C138.718 46.5892 138.756 46.7783 138.896 46.8719C138.933 46.8966 139.531 47.2851 140.442 47.2856Z" fill="#E58A92"/>
<path fill-rule="evenodd" clip-rule="evenodd" d="M153.371 47.2894C153.831 47.2894 154.372 47.1905 154.961 46.8964C155.112 46.8205 155.174 46.6366 155.098 46.485C155.022 46.3333 154.838 46.2718 154.686 46.3476C153.26 47.0607 152.208 46.393 152.165 46.3643C152.022 46.2718 151.833 46.312 151.74 46.4522C151.647 46.593 151.684 46.782 151.825 46.8757C151.862 46.9004 152.459 47.2888 153.371 47.2894Z" fill="#E58A92"/>
<path fill-rule="evenodd" clip-rule="evenodd" d="M147.802 52.3854L151.103 52.3871C151.241 52.3871 151.352 52.2756 151.352 52.1377C151.352 52.0004 151.241 51.8889 151.103 51.8889L147.802 51.8872C146.561 51.8866 145.552 50.876 145.552 49.6354L145.553 49.012C145.553 48.6569 145.842 48.3685 146.197 48.3685C147.238 48.369 147.885 47.5905 147.886 46.3356L147.982 43.1357C147.986 42.9984 147.878 42.8835 147.74 42.8789C147.612 42.8829 147.488 42.9835 147.484 43.1208L147.387 46.3281C147.387 46.6959 147.301 47.8709 146.197 47.8703C145.568 47.8703 145.055 48.3823 145.055 49.0114L145.055 49.6349C145.054 51.1506 146.287 52.3842 147.802 52.3854Z" fill="#E58A92"/>
<path fill-rule="evenodd" clip-rule="evenodd" d="M148.279 61.5276L146.91 61.527C146.246 61.527 145.708 60.988 145.708 60.3244L145.71 57.1251L153.256 55.2422L153.256 56.5557C153.255 59.3028 151.026 61.5293 148.279 61.5276Z" fill="#FFFFFE"/>
<path fill-rule="evenodd" clip-rule="evenodd" d="M139.56 41.0499C136.708 41.0482 134.386 43.3678 134.385 46.2194C134.384 49.0717 136.703 51.393 139.555 51.3947C142.407 51.3959 144.729 49.0768 144.73 46.2246C144.732 43.3724 142.413 41.0511 139.56 41.0499ZM139.555 51.9686C136.386 51.9668 133.809 49.3875 133.811 46.2187C133.812 43.0499 136.392 40.4729 139.56 40.4746C142.729 40.4758 145.306 43.0556 145.305 46.2245C145.303 49.3933 142.724 51.9697 139.555 51.9686Z" fill="#374084"/>
<path fill-rule="evenodd" clip-rule="evenodd" d="M155.616 40.4755C154.234 40.4749 152.935 41.0127 151.957 41.9889C150.98 42.9651 150.441 44.2643 150.441 45.6456C150.44 47.0269 150.977 48.326 151.954 49.3039C152.93 50.2813 154.229 50.8197 155.61 50.8203C156.992 50.8214 158.291 50.2836 159.269 49.3074C160.246 48.3306 160.785 47.032 160.786 45.6507C160.786 44.2689 160.249 42.9697 159.272 41.9924C158.296 41.015 156.997 40.4766 155.616 40.4755ZM155.61 51.3963C154.075 51.3957 152.632 50.797 151.547 49.7111C150.462 48.6251 149.865 47.1817 149.866 45.6465C149.867 44.1117 150.466 42.6684 151.551 41.5841C152.637 40.4988 154.081 39.9018 155.616 39.9023C157.151 39.9035 158.594 40.5016 159.678 41.5876C160.764 42.6736 161.361 44.1169 161.36 45.6522C161.359 47.1875 160.761 48.6303 159.675 49.7151C158.588 50.7999 157.145 51.3975 155.61 51.3963Z" fill="#374084"/>
<path fill-rule="evenodd" clip-rule="evenodd" d="M144.845 45.1699C144.76 45.1699 144.677 45.1325 144.62 45.0613C144.521 44.9372 144.542 44.7562 144.666 44.6574C144.697 44.6326 147.855 42.1769 150.357 44.6821C150.469 44.7941 150.469 44.9762 150.357 45.0883C150.244 45.2009 150.063 45.2003 149.951 45.0883C147.806 42.9428 145.136 45.0182 145.024 45.1078C144.971 45.1492 144.908 45.1699 144.845 45.1699Z" fill="#374084"/>
<path fill-rule="evenodd" clip-rule="evenodd" d="M91.8306 17.7613C91.7527 17.6431 91.7828 17.4896 91.9078 17.4012C91.931 17.3845 92.1305 17.2465 92.4578 17.0781C92.4612 17.1134 92.4632 17.1492 92.4653 17.185C92.481 17.526 92.164 17.7535 91.8306 17.7613Z" fill="#E2B1B8"/>
<path fill-rule="evenodd" clip-rule="evenodd" d="M206.559 54.6541C206.559 55.0319 206.253 55.3375 205.875 55.3371C205.498 55.3371 205.193 55.0309 205.193 54.6536C205.193 54.2763 205.499 53.9702 205.876 53.9707C206.254 53.9707 206.559 54.2768 206.559 54.6541Z" fill="#FFFFFE"/>
<path fill-rule="evenodd" clip-rule="evenodd" d="M209.975 54.6544C209.974 55.032 209.515 55.3375 208.95 55.3371C208.384 55.3371 207.925 55.0311 207.926 54.6539C207.926 54.2762 208.385 53.9707 208.951 53.9707C209.517 53.9712 209.975 54.2772 209.975 54.6544Z" fill="#FFFFFE"/>
<path fill-rule="evenodd" clip-rule="evenodd" d="M213.391 54.6544C213.39 55.0315 212.931 55.3375 212.365 55.3371C211.799 55.3371 211.341 55.0311 211.341 54.6539C211.341 54.2762 211.8 53.9707 212.366 53.9707C212.932 53.9712 213.391 54.2767 213.391 54.6544Z" fill="#FFFFFE"/>
</svg>
