<svg width="486" height="380" viewBox="0 0 486 380" fill="none" xmlns="http://www.w3.org/2000/svg">
<path d="M21.5615 363.252L21.8618 363.631L22.345 363.631L239.763 363.614L240.653 363.614L240.756 362.729C243.017 343.275 237.08 330.028 232.2 319.136C231.801 318.246 231.409 317.372 231.03 316.512C228.507 310.793 226.566 305.779 226.467 300.716C226.368 295.717 228.069 290.554 233.109 284.571C243.426 272.322 254.078 259.111 259.681 244.689C265.31 230.199 265.844 214.482 255.966 197.319C251.993 190.41 247.986 185.948 243.812 182.889C239.638 179.83 235.355 178.217 230.911 176.933C229.354 176.483 227.78 176.074 226.179 175.657C218.639 173.694 210.532 171.584 201.102 164.47C190.013 156.104 186.574 148.663 182.671 140.219C182.557 139.974 182.443 139.727 182.329 139.48C178.233 130.634 173.428 120.763 158.989 108.047L158.988 108.046C144.975 95.7249 123.466 92.3922 103.561 95.3265C83.6755 98.258 65.0144 107.502 56.7815 120.791L56.7813 120.792C46.9553 136.67 45.6516 151.179 46.575 164.911C46.9115 169.915 47.5463 174.84 48.1691 179.672C48.3968 181.439 48.623 183.194 48.8324 184.935C49.6174 191.464 50.1725 197.847 49.7486 204.209C49.3343 210.427 46.7428 216.229 42.8775 222.113C39.5271 227.212 35.2688 232.303 30.7194 237.742C30.009 238.591 29.2914 239.449 28.5692 240.316C17.9135 253.116 6.35384 267.905 2.42845 288.389C-1.49441 308.859 3.30432 327.581 9.05224 341.151C11.9281 347.941 15.0479 353.456 17.4506 357.276C18.6523 359.187 19.6755 360.675 20.4003 361.689C20.7628 362.195 21.0507 362.583 21.2492 362.846C21.3484 362.977 21.4253 363.078 21.478 363.146C21.5043 363.18 21.5246 363.206 21.5386 363.223L21.5548 363.244L21.5594 363.25L21.5607 363.251C21.5611 363.252 21.5615 363.252 22.3449 362.631L21.5615 363.252Z" fill="#F5F5F5" stroke="#FF0029" stroke-width="2"/>
<path d="M217.652 185.605L179.97 197.586L191.945 235.287L229.626 223.306L217.652 185.605Z" fill="#E0E0E0"/>
<path d="M145.127 189.058L107.566 200.926L119.427 238.507L156.989 226.639L145.127 189.058Z" fill="#F8CACE"/>
<path d="M99.3031 204.109L61.6218 216.09L73.5968 253.791L111.278 241.809L99.3031 204.109Z" fill="#EBEBEB"/>
<mask id="mask0" mask-type="alpha" maskUnits="userSpaceOnUse" x="2" y="95" width="261" height="268">
<path d="M22.4777 362.44C22.4777 362.44 -4.20248 328.805 3.54339 288.385C11.2892 247.966 49.1579 229.917 50.8792 204.084C52.6005 178.251 38.3998 152.419 57.7644 121.126C73.7898 95.259 131.04 84.4953 158.461 108.606C187.051 133.784 177.395 147.545 200.633 165.077C223.87 182.608 239.551 170.364 255.232 197.626C274.649 231.364 253.132 259.212 232.477 283.735C211.821 308.259 244.715 320.952 239.895 362.422L22.4777 362.44Z" fill="#EBEBEB"/>
</mask>
<g mask="url(#mask0)">
<path d="M161.205 183.388L284.157 144.914" stroke="white" stroke-width="9" stroke-miterlimit="10"/>
<path d="M178.28 335.493L301.232 297.02" stroke="white" stroke-width="6" stroke-miterlimit="10"/>
<path d="M123.335 304.871L156.47 410.889" stroke="white" stroke-width="4" stroke-miterlimit="10"/>
<path d="M42.0215 329.941L75.1566 435.959" stroke="white" stroke-width="4" stroke-miterlimit="10"/>
<path d="M35.3076 157.98L68.4427 263.998" stroke="white" stroke-width="4" stroke-miterlimit="10"/>
<path d="M51.918 210.408L93.9178 197.268C97.2034 196.245 100.255 194.585 102.899 192.381C105.543 190.177 107.727 187.474 109.325 184.425C110.924 181.377 111.906 178.043 112.216 174.614C112.526 171.185 112.157 167.729 111.131 164.443L88.4268 92.0938" stroke="white" stroke-width="5.06" stroke-miterlimit="10"/>
<path d="M152.373 263.638L275.326 225.164" stroke="white" stroke-width="6" stroke-miterlimit="10"/>
<path d="M-11.0295 292.677L164.371 237.791C165.561 237.422 166.666 236.822 167.622 236.024C168.579 235.225 169.368 234.246 169.944 233.141C170.52 232.036 170.872 230.828 170.979 229.587C171.086 228.345 170.946 227.095 170.568 225.908L102.835 9.27344" stroke="white" stroke-width="9" stroke-miterlimit="10"/>
<path d="M-12.1829 341.345L159.018 287.785" stroke="white" stroke-width="9" stroke-miterlimit="10"/>
<path d="M201.517 424.478L145.231 244.406" stroke="white" stroke-width="9" stroke-miterlimit="10"/>
<path d="M220.205 254.689L170.023 270.645L185.971 320.852L236.152 304.896L220.205 254.689Z" fill="#F8CACE"/>
<path d="M277.633 237.164L227.611 252.969L243.407 303.016L293.429 287.212L277.633 237.164Z" fill="#6779A7"/>
<path d="M115.993 317.435L54.6567 336.938L74.1492 398.306L135.486 378.803L115.993 317.435Z" fill="#6779A7"/>
<path d="M267.301 170.011L229.62 181.992L241.595 219.693L279.276 207.712L267.301 170.011Z" fill="#EBEBEB"/>
</g>
<path fill-rule="evenodd" clip-rule="evenodd" d="M151.008 183.96C151.043 181.401 150.506 178.866 149.434 176.538L143.527 183.129C143.598 183.628 143.636 184.131 143.64 184.634C143.648 187.141 142.812 189.58 141.265 191.565C139.719 193.551 137.549 194.971 135.097 195.602C132.646 196.233 130.052 196.038 127.724 195.049C125.397 194.06 123.468 192.333 122.241 190.14C121.014 187.946 120.559 185.411 120.947 182.933C121.336 180.456 122.546 178.176 124.387 176.455C126.228 174.733 128.596 173.666 131.117 173.422C133.638 173.178 136.169 173.771 138.312 175.109L143.3 169.539C140.27 167.355 136.938 166.241 132.448 166.241C128.083 166.168 123.831 167.609 120.428 170.316C115.51 174.064 113.493 179.954 113.493 183.569C113.493 184.468 113.547 185.336 113.628 186.181C113.691 188.096 114.14 189.978 114.948 191.718C115.067 192.002 115.197 192.254 115.332 192.559C118.827 199.868 126.795 207.488 130.414 211.686C130.633 211.959 130.912 212.18 131.23 212.331C131.547 212.483 131.896 212.562 132.248 212.562C132.601 212.562 132.949 212.483 133.266 212.331C133.584 212.18 133.863 211.959 134.082 211.686C138.777 206.235 150.852 194.99 150.852 186.181C150.852 186.117 150.852 186.059 150.852 186C150.947 185.324 150.999 184.642 151.008 183.96Z" fill="#041B54"/>
<path fill-rule="evenodd" clip-rule="evenodd" d="M129.19 179.77L125.089 183.645L133.205 192.13L148.281 175.244C147.425 173.895 146.385 172.671 145.191 171.606C144.963 171.395 144.73 171.212 144.503 171.012L133.063 183.824L129.19 179.77Z" fill="#FF0029"/>
<g clip-path="url(#clip0)">
<path d="M486 363.672C486 363.859 417.895 364.019 333.899 364.019C249.903 364.019 181.777 363.859 181.777 363.672C181.777 363.485 249.867 363.324 333.899 363.324C417.931 363.324 486 363.471 486 363.672Z" fill="#FF0029"/>
<path d="M170.368 31.02L170.241 23.8773L164.581 15.1157C164.581 15.1157 163.396 15.1157 163.269 16.6606C163.299 18.179 163.509 19.6886 163.893 21.1578L152.796 8.09998C152.674 7.95636 152.525 7.83877 152.357 7.75427C152.189 7.66977 152.006 7.62011 151.818 7.60825C151.63 7.59639 151.442 7.62258 151.265 7.68526C151.087 7.74794 150.924 7.84581 150.786 7.973C150.536 8.20185 150.378 8.51371 150.341 8.85049C150.304 9.18727 150.391 9.52602 150.585 9.80363L155.642 17.0415C155.642 17.0415 152.256 16.3114 152.997 20.0996C152.997 20.0996 149.823 21.9091 152.309 26.163C154.795 30.4168 159.662 37.115 159.662 37.115L166.358 36.1839L170.368 31.02Z" fill="#FFBE9D"/>
<path d="M155.43 17.6992C156.132 18.2946 156.77 18.9613 157.334 19.6886L159.281 21.9636C159.716 22.405 160.074 22.9165 160.339 23.4768C160.478 23.8111 160.529 24.1754 160.487 24.535C160.439 24.9251 160.241 25.2815 159.937 25.5297C159.638 25.7555 159.285 25.8979 158.913 25.9426C158.541 25.9872 158.164 25.9323 157.821 25.7836C157.245 25.5188 156.738 25.124 156.34 24.6302C155.62 23.7414 155.028 22.9372 154.52 22.2599C153.927 21.5534 153.402 20.7916 152.954 19.9849C153.647 20.5921 154.272 21.2734 154.816 22.0166L156.699 24.334C157.047 24.7577 157.489 25.0946 157.99 25.3181C158.241 25.4164 158.512 25.4514 158.78 25.4201C159.047 25.3887 159.303 25.2919 159.524 25.1382C159.712 24.9596 159.838 24.7258 159.883 24.4708C159.929 24.2158 159.892 23.9528 159.778 23.7202C159.535 23.2163 159.222 22.7495 158.847 22.334L156.985 19.9955C156.397 19.2796 155.877 18.5109 155.43 17.6992Z" fill="#EB996E"/>
<path d="M154.023 21.9219C154.723 22.5229 155.361 23.193 155.927 23.9218L157.874 26.1863C158.307 26.6296 158.664 27.1408 158.932 27.6995C159.071 28.0337 159.122 28.3981 159.08 28.7577C159.032 29.1478 158.834 29.5042 158.53 29.7523C158.231 29.9781 157.878 30.1206 157.506 30.1652C157.134 30.2098 156.757 30.155 156.414 30.0063C155.836 29.7489 155.328 29.3571 154.933 28.8635C154.213 27.964 153.621 27.1704 153.103 26.4826C152.511 25.7767 151.99 25.0147 151.547 24.2075C152.237 24.8182 152.861 25.4991 153.409 26.2392C153.991 26.9376 154.636 27.6995 155.314 28.5249C155.662 28.9453 156.104 29.2787 156.604 29.4984C156.854 29.6011 157.125 29.6394 157.393 29.6098C157.661 29.5802 157.917 29.4837 158.138 29.3291C158.325 29.148 158.451 28.9124 158.496 28.6559C158.542 28.3994 158.505 28.1351 158.392 27.9005C158.152 27.3985 157.838 26.9349 157.461 26.5249L155.599 24.1758C155.003 23.4764 154.475 22.7217 154.023 21.9219Z" fill="#EB996E"/>
<path d="M165.322 30.5993C165.322 30.5993 164.761 30.2501 164.359 29.3083C163.852 28.0598 163.852 26.6628 164.359 25.4143C164.554 24.9537 164.818 24.5256 165.142 24.1445V24.4302C164.521 23.2554 164.038 22.0126 163.703 20.7266C164.475 21.8101 165.121 22.9781 165.629 24.2079L165.692 24.3561L165.586 24.4937C165.309 24.8381 165.082 25.2191 164.909 25.6259C164.453 26.7553 164.401 28.0073 164.761 29.1708C165.004 30.0702 165.396 30.5464 165.322 30.5993Z" fill="#EB996E"/>
<path d="M329.459 71.0429L326.433 78.6618V84.1748L336.24 86.2065L340.239 82.2172L346.142 72.8101C346.339 72.5117 346.419 72.1512 346.366 71.7977C346.313 71.4442 346.132 71.1227 345.857 70.8948L344.185 69.4874L344.27 69.0853C344.373 68.5392 344.282 67.9742 344.014 67.4876C343.745 67.001 343.316 66.623 342.799 66.4187L341.498 65.9002L344.429 59.5512C344.631 59.1137 344.686 58.6221 344.585 58.1506C344.484 57.6791 344.232 57.2533 343.868 56.9375L335.055 67.5192L330.432 68.5245L329.459 71.0429Z" fill="#FFBE9D"/>
<path d="M344.323 69.2968C344.04 69.8989 343.645 70.4413 343.159 70.8946C342.699 71.4452 342.185 71.9486 341.625 72.3972C341.248 72.6865 340.788 72.8462 340.313 72.8523C340.037 72.8615 339.764 72.7905 339.527 72.6478C339.291 72.505 339.101 72.2967 338.98 72.048C338.785 71.5625 338.785 71.0204 338.98 70.5349C339.133 70.128 339.321 69.7351 339.541 69.3603C339.908 68.7254 340.26 68.1117 340.599 67.5191C340.877 66.9281 341.233 66.3766 341.657 65.8789C341.499 66.5182 341.25 67.1312 340.916 67.699L339.975 69.6037C339.615 70.3021 339.16 71.1063 339.488 71.8153C339.565 71.9721 339.686 72.103 339.836 72.1914C339.987 72.2799 340.16 72.322 340.334 72.3126C340.714 72.3142 341.084 72.1957 341.392 71.974C341.95 71.5616 342.477 71.1089 342.968 70.6195C343.377 70.1363 343.83 69.6933 344.323 69.2968Z" fill="#EB996E"/>
<path d="M346.269 72.2068C345.997 72.8209 345.641 73.3943 345.211 73.9105C344.822 74.5307 344.357 75.0996 343.825 75.6035C343.652 75.7901 343.443 75.9401 343.211 76.0446C342.979 76.1491 342.729 76.2059 342.474 76.2119C342.22 76.2178 341.967 76.1726 341.73 76.079C341.493 75.9855 341.278 75.8454 341.096 75.667C340.94 75.4451 340.841 75.1879 340.807 74.9184C340.774 74.649 340.808 74.3754 340.906 74.1221C341.042 73.7036 341.219 73.2995 341.435 72.9158C341.786 72.2672 342.204 71.6572 342.683 71.0957C343.476 70.1328 344.111 69.6778 344.153 69.7307C343.798 70.2834 343.413 70.8168 343 71.3285C342.6 71.906 342.246 72.5146 341.942 73.1486C341.758 73.5084 341.606 73.8838 341.487 74.2703C341.418 74.442 341.391 74.6281 341.41 74.8124C341.428 74.9967 341.491 75.1738 341.593 75.3284C341.713 75.4632 341.866 75.565 342.036 75.6243C342.206 75.6835 342.389 75.6983 342.567 75.667C342.939 75.6247 343.29 75.4696 343.572 75.2226C344.089 74.7532 344.557 74.232 344.968 73.6671C345.334 73.1237 345.771 72.6324 346.269 72.2068Z" fill="#EB996E"/>
<path d="M334.568 79.0631C334.992 78.3739 335.31 77.6247 335.51 76.8409C335.674 75.9719 335.631 75.0763 335.383 74.2272C335.169 73.1642 334.633 72.1927 333.849 71.4442L333.31 71.0104H333.997C334.61 70.9628 335.211 70.8126 335.775 70.566C336.594 70.2486 337.321 69.7322 337.89 69.0633C338.134 68.7814 338.32 68.4538 338.436 68.0996C338.552 67.7453 338.597 67.3716 338.567 66.9999L338.864 67.201C337.277 67.5184 335.954 67.7724 335.023 67.9417C334.539 68.0646 334.042 68.1251 333.542 68.1216C333.997 67.9085 334.477 67.7555 334.971 67.6666C335.88 67.4232 337.182 67.0951 338.747 66.7354L339.001 66.6719V66.9364C339.049 67.376 339.008 67.8208 338.881 68.2444C338.754 68.6679 338.543 69.0615 338.261 69.402C337.655 70.1411 336.872 70.716 335.986 71.0739C335.366 71.3438 334.704 71.5049 334.029 71.5501L334.177 71.0633C335.055 71.8927 335.642 72.9841 335.849 74.1743C336.077 75.0951 336.077 76.0577 335.849 76.9785C335.689 77.5805 335.412 78.1451 335.034 78.6398C334.78 78.9361 334.59 79.0737 334.568 79.0631Z" fill="#EB996E"/>
<path d="M320.869 324.082L325.206 357.732L309.961 358.695L302.143 326.421L320.869 324.082Z" fill="#FFBE9D"/>
<path d="M308.544 352.179C308.544 352.179 320.181 358.274 324.413 351.047L326.179 354.031L335.278 375.745C335.581 376.423 335.626 377.189 335.404 377.899C335.181 378.608 334.708 379.212 334.072 379.596C333.581 379.873 333.022 380.003 332.46 379.974C331.898 379.944 331.356 379.754 330.898 379.427C325.957 375.861 307.877 362.655 307.75 360.549L307.063 355.004C306.991 354.443 307.09 353.874 307.347 353.37C307.603 352.866 308.006 352.451 308.502 352.179H308.544Z" fill="#FF0029"/>
<path opacity="0.6" d="M333.606 379.816L307.518 358.652L307.687 359.869C307.75 361.192 308.396 361.626 309.136 362.388C311.316 364.62 317.176 369.488 330.855 379.467C331.247 379.752 331.703 379.936 332.183 380.002C332.663 380.069 333.152 380.016 333.606 379.848V379.816Z" fill="white"/>
<g opacity="0.6">
<path opacity="0.6" d="M310.374 354.569C310.758 354.78 311.052 355.125 311.2 355.538C311.349 355.952 311.34 356.405 311.178 356.812C310.985 357.207 310.648 357.512 310.236 357.664C309.824 357.816 309.369 357.803 308.967 357.627C308.556 357.408 308.243 357.044 308.086 356.605C307.93 356.167 307.942 355.687 308.12 355.257C308.367 354.868 308.754 354.588 309.201 354.476C309.648 354.364 310.121 354.427 310.522 354.654" fill="white"/>
</g>
<path d="M325.354 368.24C325.911 367.249 326.654 366.376 327.544 365.669C328.526 365.118 329.603 364.759 330.718 364.611C330.718 364.537 330.348 364.367 329.66 364.367C328.767 364.391 327.899 364.674 327.163 365.182C326.421 365.674 325.84 366.373 325.492 367.192C325.259 367.827 325.28 368.24 325.354 368.24Z" fill="#542C10"/>
<path d="M327.872 371.805C328.031 371.911 328.814 370.853 330.231 370.218C331.125 369.915 332.037 369.668 332.961 369.477C333.024 369.318 331.564 368.906 329.967 369.646C328.369 370.387 327.756 371.742 327.872 371.805Z" fill="#542C10"/>
<path d="M320.89 363.903C321.971 362.922 323.128 362.027 324.349 361.226C326.465 360.02 328.464 359.84 328.443 359.649C326.912 359.563 325.388 359.916 324.05 360.665C322.712 361.415 321.616 362.531 320.89 363.882V363.903Z" fill="#542C10"/>
<path d="M319.409 357.108C319.504 357.277 320.985 356.399 323.027 356.05C325.068 355.7 326.761 355.954 326.793 355.775C325.578 355.21 324.204 355.09 322.91 355.436C320.763 355.806 319.334 356.991 319.409 357.108Z" fill="#542C10"/>
<path d="M324.233 355.815C324.205 355.445 324.101 355.084 323.926 354.757C323.52 353.838 322.934 353.01 322.202 352.323C321.714 351.775 321.06 351.403 320.34 351.265C320.097 351.239 319.853 351.289 319.641 351.409C319.429 351.528 319.259 351.711 319.155 351.931C318.986 352.374 318.986 352.864 319.155 353.307C319.53 354.2 320.2 354.937 321.053 355.395C321.906 355.853 322.89 356.005 323.841 355.825C324.777 355.615 325.63 355.132 326.291 354.437C326.952 353.742 327.392 352.866 327.555 351.921C327.595 351.683 327.582 351.44 327.518 351.208C327.454 350.976 327.34 350.76 327.184 350.577C327.012 350.404 326.788 350.291 326.546 350.255C326.304 350.219 326.057 350.261 325.841 350.376C325.216 350.746 324.702 351.275 324.349 351.91C323.806 352.749 323.412 353.677 323.186 354.651C323.081 354.993 323.045 355.353 323.08 355.709C323.453 354.455 323.998 353.258 324.698 352.153C325.032 351.619 325.489 351.172 326.031 350.852C326.148 350.79 326.282 350.766 326.414 350.785C326.545 350.804 326.667 350.865 326.761 350.958C326.855 351.086 326.92 351.232 326.953 351.387C326.986 351.542 326.985 351.702 326.952 351.857C326.789 352.669 326.394 353.417 325.816 354.01C325.238 354.604 324.501 355.017 323.693 355.201C322.886 355.355 322.049 355.23 321.322 354.845C320.595 354.46 320.021 353.839 319.694 353.085C319.585 352.773 319.585 352.433 319.694 352.122C319.751 351.998 319.844 351.895 319.962 351.827C320.079 351.759 320.215 351.728 320.35 351.741C320.959 351.865 321.516 352.172 321.948 352.619C322.894 353.539 323.668 354.622 324.233 355.815Z" fill="#542C10"/>
<path d="M274.066 322.602L274.489 357.077L255.88 356.368L253.119 323.014L274.066 322.602Z" fill="#FFBE9D"/>
<path d="M255.552 352.199C255.552 352.199 234.901 359.903 234.679 363.723L274.626 363.649V353.204L273.156 353.543C267.288 354.895 261.147 354.427 255.552 352.199Z" fill="#FF0029"/>
<g opacity="0.6">
<path opacity="0.6" d="M270.046 355.16C270.43 355.278 270.757 355.533 270.966 355.876C271.174 356.219 271.25 356.627 271.178 357.022C271.075 357.412 270.827 357.748 270.485 357.96C270.142 358.173 269.732 358.246 269.337 358.165C268.93 358.04 268.584 357.768 268.365 357.403C268.146 357.038 268.071 356.604 268.152 356.186C268.3 355.791 268.596 355.469 268.977 355.287C269.357 355.106 269.794 355.079 270.194 355.213" fill="white"/>
</g>
<g opacity="0.6">
<path opacity="0.6" d="M274.626 363.648V360.41L236.224 361.691C236.224 361.691 234.446 362.463 234.647 363.722L274.626 363.648Z" fill="white"/>
</g>
<path d="M254.875 351.998C254.875 352.199 255.859 352.283 256.822 352.908C257.784 353.532 258.292 354.357 258.472 354.273C258.652 354.188 258.356 353.077 257.181 352.336C256.007 351.596 254.875 351.818 254.875 351.998Z" fill="#542C10"/>
<path d="M250.717 353.744C250.717 353.934 251.521 354.262 252.188 355.088C252.854 355.913 253.045 356.781 253.246 356.77C253.447 356.759 253.563 355.659 252.717 354.654C251.87 353.648 250.728 353.553 250.717 353.744Z" fill="#542C10"/>
<path d="M248.348 358.714C248.528 358.714 248.803 357.783 248.295 356.714C247.787 355.646 246.877 355.222 246.793 355.392C246.708 355.561 247.279 356.122 247.681 357C248.083 357.878 248.157 358.714 248.348 358.714Z" fill="#542C10"/>
<path d="M255.34 351.892C255.995 352.071 256.685 352.071 257.34 351.892C258.069 351.765 258.78 351.548 259.456 351.246C259.851 351.071 260.233 350.865 260.598 350.632C260.824 350.512 261.028 350.355 261.201 350.167C261.335 350.028 261.418 349.847 261.435 349.654C261.453 349.462 261.404 349.269 261.296 349.109C261.199 348.972 261.071 348.86 260.922 348.783C260.773 348.706 260.607 348.665 260.44 348.664C260.185 348.662 259.932 348.698 259.688 348.77C259.261 348.874 258.843 349.016 258.44 349.193C257.768 349.502 257.147 349.912 256.599 350.41C255.679 351.267 255.361 351.997 255.425 352.04C255.488 352.082 255.965 351.489 256.906 350.78C257.454 350.366 258.055 350.028 258.694 349.775C259.063 349.621 259.445 349.5 259.837 349.415C260.26 349.299 260.619 349.299 260.736 349.49C260.852 349.68 260.736 349.585 260.683 349.712C260.557 349.847 260.411 349.962 260.249 350.05C259.889 350.283 259.54 350.484 259.191 350.664C258.571 350.973 257.923 351.221 257.255 351.405C256.605 351.518 255.965 351.681 255.34 351.892Z" fill="#542C10"/>
<path d="M255.594 352.169C255.668 352.169 256.049 351.502 256.123 350.232C256.152 349.492 256.059 348.752 255.848 348.042C255.716 347.623 255.542 347.219 255.33 346.836C255.23 346.561 255.059 346.318 254.834 346.132C254.609 345.946 254.338 345.824 254.05 345.777C253.872 345.783 253.699 345.839 253.552 345.938C253.404 346.037 253.287 346.176 253.214 346.338C253.118 346.576 253.051 346.825 253.013 347.079C252.944 347.524 252.944 347.977 253.013 348.423C253.125 349.17 253.42 349.879 253.87 350.486C254.653 351.544 255.467 351.756 255.489 351.693C255.51 351.629 254.875 351.312 254.272 350.253C253.924 349.68 253.707 349.037 253.637 348.37C253.585 347.987 253.585 347.599 253.637 347.216C253.701 346.793 253.859 346.444 254.018 346.497C254.177 346.55 254.558 346.804 254.716 347.142C254.915 347.479 255.081 347.833 255.213 348.201C255.443 348.84 255.575 349.511 255.605 350.19C255.7 351.407 255.489 352.137 255.594 352.169Z" fill="#542C10"/>
<path d="M310.289 175.737C309.464 157.113 295.161 136.754 295.161 136.754L273.145 134.913V134.828H272.669L247.364 136.944C247.364 136.944 236.224 161.282 239.112 190.234C242 219.186 251.807 325.807 251.807 325.807H274.976L275.494 171.557L298.991 331.034H322.265C322.265 331.034 311.114 194.361 310.289 175.737Z" fill="#1B2152"/>
<path d="M248.982 323.164L252.22 338.878L275.875 338.804L277.303 324.328L248.982 323.164Z" fill="#747AAA"/>
<path d="M297.467 328.18L302.651 345.894L324.656 342.825L323.513 322.91L297.467 328.18Z" fill="#747AAA"/>
<path d="M276.478 171.418C276.478 171.418 276.361 171.418 276.128 171.418C275.799 171.352 275.489 171.215 275.219 171.016C274.278 170.198 273.656 169.073 273.463 167.841C272.923 164.836 272.405 160.709 271.918 156.117C271.431 151.524 271.082 147.365 270.86 144.35C270.754 142.847 270.68 141.62 270.638 140.773C270.586 140.337 270.586 139.897 270.638 139.461C270.749 139.887 270.819 140.323 270.849 140.762C270.955 141.715 271.082 142.879 271.241 144.318C271.558 147.492 271.981 151.535 272.447 156.053C272.912 160.571 273.388 164.794 273.822 167.756C273.97 168.917 274.498 169.997 275.324 170.825C275.67 171.091 276.061 171.292 276.478 171.418Z" fill="#9DA3D1"/>
<path d="M274.51 138.363C274.51 138.363 274.679 138.226 275.06 138.173C275.609 138.101 276.166 138.22 276.637 138.511C276.99 138.727 277.294 139.015 277.529 139.356C277.765 139.697 277.925 140.083 278.001 140.49C278.104 140.997 278.017 141.524 277.758 141.972C277.481 142.457 277.043 142.831 276.52 143.03C276.036 143.232 275.501 143.281 274.988 143.169C274.476 143.058 274.01 142.791 273.653 142.406C273.39 142.08 273.208 141.695 273.123 141.285C273.039 140.874 273.053 140.449 273.167 140.046C273.291 139.512 273.575 139.028 273.981 138.66C274.288 138.416 274.5 138.363 274.51 138.395C274.025 138.866 273.69 139.469 273.547 140.13C273.475 140.471 273.481 140.823 273.566 141.16C273.65 141.498 273.81 141.811 274.034 142.078C274.331 142.365 274.706 142.56 275.112 142.637C275.518 142.714 275.938 142.67 276.319 142.511C276.711 142.387 277.046 142.127 277.264 141.778C277.481 141.429 277.566 141.013 277.504 140.607C277.452 140.262 277.332 139.93 277.15 139.632C276.968 139.334 276.729 139.076 276.446 138.871C275.865 138.514 275.192 138.337 274.51 138.363Z" fill="#9DA3D1"/>
<path d="M243.322 56.7771L204.253 52.9042L172.6 26.2383L158.847 40.4389L183.264 65.4859C188.94 71.31 196.376 75.103 204.422 76.2792C218.408 78.3109 239.218 81.2209 239.429 80.586C239.725 79.5913 243.322 56.7771 243.322 56.7771Z" fill="#FF0029"/>
<path d="M239.408 80.5545L242.455 114.278L242.18 132.13C242.18 132.13 244.444 136.976 247.131 136.934H294.018C295.063 136.821 296.034 136.341 296.758 135.579C298.159 134.279 299.121 132.576 299.514 130.706C299.906 128.835 299.708 126.889 298.948 125.135L292.96 110.49L294.96 76.0996L290.845 62.8195L289.522 58.9889L265.782 57.444L243.312 56.7773L239.408 80.5545Z" fill="#FF0029"/>
<path d="M287.1 58.8717C287.1 58.8717 302.164 58.6389 305.666 67.0937C307.719 72.0565 324.317 102.86 328.443 115.114C328.443 115.114 323.471 126.15 319.726 127.346C309.517 129.97 302.715 121.685 300.049 114.701L292.781 95.294L287.1 58.8717Z" fill="#FF0029"/>
<path d="M326.433 81.6016L322.614 89.0088L310.977 113.823L316.119 127.833C322.001 128.891 328.422 120.669 330.073 114.934L339.245 84.1729L326.433 81.6016Z" fill="#FF0029"/>
<path d="M326.444 81.5941C326.571 81.6682 322.625 89.8161 317.61 99.8053C312.596 109.794 308.417 117.794 308.279 117.794C308.142 117.794 312.098 109.572 317.113 99.583C322.128 89.5939 326.306 81.5306 326.444 81.5941Z" fill="#542C10"/>
<path d="M294.41 85.1172C294.569 85.1172 294.41 90.8102 293.966 97.8153C293.521 104.82 293.119 110.513 292.961 110.513C292.802 110.513 293.014 104.82 293.416 97.8153C293.818 90.8102 294.262 85.1066 294.41 85.1172Z" fill="#542C10"/>
<path d="M254.875 134.025C253.75 133.718 252.759 133.046 252.054 132.116C251.35 131.186 250.973 130.049 250.982 128.883C251.414 129.884 251.924 130.85 252.505 131.772C253.23 132.588 254.023 133.342 254.875 134.025Z" fill="#542C10"/>
<path d="M262.101 133.551C261.298 132.968 260.696 132.151 260.376 131.213C259.89 130.344 259.694 129.343 259.815 128.355C260.223 129.211 260.576 130.091 260.873 130.99C261.336 131.817 261.746 132.672 262.101 133.551Z" fill="#542C10"/>
<path d="M274.447 127.348C274.935 128.483 275.069 129.74 274.829 130.953C274.589 132.166 273.987 133.277 273.103 134.141C273.57 133.073 273.963 131.973 274.277 130.85C274.418 129.688 274.475 128.518 274.447 127.348Z" fill="#542C10"/>
<path d="M285.449 128.355C285.733 129.484 285.733 130.665 285.449 131.793C285.164 132.922 284.605 133.962 283.82 134.821C283.682 134.736 284.476 133.445 284.878 131.646C285.28 129.847 285.291 128.366 285.449 128.355Z" fill="#542C10"/>
<path d="M286.137 58.8723C286.159 59.055 286.159 59.2398 286.137 59.4225C286.137 59.7717 286.137 60.3008 286.137 60.978C286.085 62.9086 285.79 64.8249 285.259 66.6816C284.384 69.8023 282.501 72.5459 279.905 74.4847C277.308 76.4236 274.143 77.4489 270.903 77.4008C269.06 77.3931 267.24 76.9965 265.56 76.2369C263.986 75.5256 262.612 74.4349 261.561 73.0623C259.916 70.6861 258.878 67.9432 258.536 65.0732C258.258 63.1678 258.162 61.2402 258.25 59.3167C258.25 58.6289 258.335 58.1104 258.388 57.7506C258.394 57.5671 258.426 57.3855 258.483 57.2109C258.483 57.2109 258.483 57.9622 258.483 59.3273C258.483 61.234 258.635 63.1377 258.938 65.0202C259.324 67.8042 260.369 70.4559 261.985 72.7555C262.992 74.0523 264.304 75.0808 265.804 75.7501C267.424 76.4494 269.17 76.8095 270.935 76.8083C274.066 76.8503 277.126 75.8684 279.648 74.0119C282.171 72.1554 284.018 69.5258 284.91 66.5228C285.471 64.7025 285.826 62.8248 285.968 60.9251C286.084 59.6236 286.084 58.8723 286.137 58.8723Z" fill="#542C10"/>
<path d="M271.802 76.9171C271.518 78.2018 271.066 79.4434 270.458 80.6101L270.236 81.1075L269.961 80.6313L269.802 80.335C269.019 79.1355 268.4 77.8365 267.961 76.4727C268.88 77.5713 269.658 78.7798 270.278 80.0704L270.448 80.3667H269.95C270.414 79.1408 271.036 77.981 271.802 76.9171Z" fill="#542C10"/>
<path d="M280.731 93.6247C280.473 93.1308 280.112 92.6978 279.673 92.3549C279.264 92.0294 278.947 91.6026 278.753 91.1169C278.653 90.8751 278.647 90.605 278.735 90.3589C278.823 90.1127 278.999 89.9077 279.229 89.7836C279.443 89.7076 279.676 89.7026 279.893 89.7693C280.11 89.836 280.3 89.9708 280.435 90.1539C280.726 90.4666 280.965 90.8239 281.144 91.2121C281.292 90.7508 281.571 90.3427 281.948 90.0375C282.169 89.8618 282.448 89.7752 282.73 89.7948C283.012 89.8144 283.276 89.9387 283.471 90.1433C283.579 90.2957 283.644 90.4738 283.661 90.6596C283.678 90.8455 283.645 91.0324 283.566 91.2015C283.423 91.524 283.219 91.8153 282.963 92.0586C282.295 92.7509 281.524 93.3362 280.678 93.794" fill="#FAFAFA"/>
<path d="M264.068 70.8916C264.142 71.0291 263.656 71.4312 263.01 71.8016C262.365 72.1719 261.741 72.3624 261.667 72.2248C261.593 72.0873 262.079 71.6852 262.725 71.3148C263.37 70.9445 263.994 70.7857 264.068 70.8916Z" fill="#542C10"/>
<path d="M261.984 65.4864C261.984 65.6345 261.371 65.8885 260.556 66.0472C259.742 66.2059 259.054 66.2271 259.022 66.0472C258.99 65.8673 259.636 65.6557 260.45 65.4864C261.265 65.3171 261.953 65.3382 261.984 65.4864Z" fill="#542C10"/>
<path d="M261.921 60.6607C261.847 60.7983 261.085 60.5337 260.143 60.2692C259.202 60.0046 258.408 59.8459 258.419 59.6872C258.43 59.5285 259.276 59.4544 260.292 59.7401C261.307 60.0258 261.995 60.5337 261.921 60.6607Z" fill="#542C10"/>
<path d="M269.76 77.2427C269.602 77.2427 269.538 76.629 269.612 75.9094C269.686 75.1899 269.866 74.6185 270.014 74.6291C270.162 74.6396 270.226 75.2428 270.162 75.9623C270.099 76.6819 269.908 77.2427 269.76 77.2427Z" fill="#542C10"/>
<path d="M276.245 75.805C276.107 75.805 275.779 75.3817 275.526 74.7468C275.272 74.1119 275.176 73.5299 275.314 73.4664C275.452 73.4029 275.779 73.9003 276.033 74.5246C276.287 75.1489 276.393 75.7415 276.245 75.805Z" fill="#542C10"/>
<path d="M282.085 71.9543C281.968 72.0495 281.461 71.6157 280.868 71.0654C280.276 70.5152 279.81 70.0073 279.884 69.9226C279.958 69.838 280.614 70.0813 281.238 70.6633C281.863 71.2453 282.201 71.8379 282.085 71.9543Z" fill="#542C10"/>
<path d="M285.407 65.8984C285.343 66.036 284.656 65.8455 283.82 65.6021C282.984 65.3588 282.297 65.1471 282.307 64.9884C282.318 64.8297 283.09 64.8085 283.968 65.073C284.846 65.3376 285.481 65.7609 285.407 65.8984Z" fill="#542C10"/>
<path d="M285.555 60.6189C285.555 60.7671 284.825 61.0105 283.852 61.1586C282.879 61.3067 282.096 61.2962 282.064 61.1586C282.032 61.021 282.804 60.7671 283.778 60.6189C284.751 60.4708 285.555 60.4708 285.555 60.6189Z" fill="#542C10"/>
<path d="M231.114 65.9766C231.9 66.4156 232.613 66.9723 233.23 67.6273C234.78 69.1321 236.128 70.8324 237.24 72.6854C238.347 74.5459 239.201 76.5459 239.779 78.6323C240.06 79.4795 240.213 80.364 240.234 81.2566C239.376 78.3908 238.208 75.6268 236.753 73.0134C235.142 70.4645 233.251 68.1042 231.114 65.9766Z" fill="#542C10"/>
<g opacity="0.3">
<path opacity="0.3" d="M319.504 95.2302L318.901 93.9922C316.404 97.8122 312.088 104.045 309.602 107.865C308.645 109.135 307.928 110.57 307.486 112.097C307.282 112.857 307.286 113.657 307.496 114.414C307.707 115.171 308.116 115.859 308.681 116.404L319.504 95.2302Z" fill="black"/>
</g>
<g opacity="0.3">
<path opacity="0.3" d="M239.704 78.9786C238.958 75.4422 237.369 72.1386 235.071 69.3493C232.759 66.5601 229.663 64.5291 226.184 63.5187C225.403 63.2643 224.575 63.1919 223.761 63.3071C223.356 63.3752 222.977 63.5518 222.664 63.8183C222.351 64.0847 222.116 64.431 221.984 64.8203C221.656 66.1218 222.852 67.2647 223.931 68.0689C229.03 71.8712 234.221 75.5396 239.503 79.0739" fill="black"/>
</g>
<path d="M286.285 100.809C285.652 101.11 284.965 101.279 284.264 101.306C282.576 101.472 280.872 101.295 279.254 100.786C277.636 100.277 276.138 99.4463 274.849 98.3434C274.288 97.9245 273.822 97.3906 273.484 96.7773C274.046 97.1632 274.583 97.5838 275.092 98.0366C276.399 99.0153 277.862 99.7665 279.419 100.259C280.98 100.745 282.609 100.97 284.243 100.925C284.921 100.844 285.603 100.805 286.285 100.809Z" fill="#542C10"/>
<path d="M286.613 121.135C286.475 121.191 286.328 121.219 286.179 121.219C285.904 121.219 285.481 121.314 284.941 121.325C283.417 121.411 281.888 121.368 280.371 121.198C275.318 120.661 270.478 118.878 266.284 116.008C262.091 113.138 258.676 109.271 256.346 104.754C255.635 103.394 255.037 101.979 254.558 100.521C254.378 100.013 254.283 99.6007 254.209 99.3256C254.162 99.1889 254.133 99.0466 254.124 98.9023C254.376 99.3998 254.588 99.9164 254.759 100.447C255.312 101.854 255.959 103.222 256.695 104.542C259.087 108.93 262.487 112.686 266.614 115.503C270.741 118.319 275.478 120.115 280.435 120.743C281.935 120.946 283.448 121.049 284.963 121.05C285.514 121.043 286.065 121.071 286.613 121.135Z" fill="#542C10"/>
<g opacity="0.2">
<path opacity="0.2" d="M281.736 121.686C283.725 121.845 281.154 117.697 279.387 116.766C277.62 115.835 275.547 115.782 273.579 115.496C270.038 114.956 266.651 113.673 263.64 111.731C260.63 109.789 258.065 107.231 256.113 104.227C256.113 104.227 263.825 120.184 281.736 121.686Z" fill="black"/>
</g>
<path d="M290.464 23.024C290.916 21.9273 291.765 21.0416 292.841 20.5439C293.918 20.0462 295.142 19.9732 296.27 20.3395C297.398 20.7057 298.346 21.4843 298.925 22.5195C299.504 23.5547 299.671 24.7704 299.393 25.9234C299.171 26.7699 298.8 27.8704 299.52 28.3783C300.239 28.8863 301.001 28.2937 301.763 28.1032C302.371 27.9895 302.999 28.0493 303.575 28.2757C304.152 28.5021 304.652 28.886 305.021 29.3836C305.74 30.3907 306.182 31.5695 306.301 32.8015C306.703 35.7009 306.216 38.886 304.185 41.0447C302.154 43.2033 298.472 43.8277 296.325 41.8383C296.36 42.8595 296.026 43.8591 295.382 44.6526C294.738 45.4461 293.829 45.98 292.823 46.1556C291.812 46.2787 290.787 46.1264 289.856 45.7147C288.925 45.3031 288.123 44.6474 287.533 43.8171C286.389 42.1388 285.862 40.1157 286.042 38.0924C286.238 36.06 286.741 34.0692 287.533 32.1878" fill="#542C10"/>
<path d="M250.093 34.9163C247.977 35.456 246.073 33.2444 245.861 31.0963C245.65 28.9483 246.369 26.8637 246.602 24.6627C246.951 21.34 246.01 18.0173 245.861 14.6735C245.713 11.3297 246.634 7.54144 249.532 5.88011C252.431 4.21878 255.933 5.28753 259.107 4.22936C261.307 3.52039 263.074 1.86964 265.169 0.896119C267.105 0.0434865 269.249 -0.221507 271.335 0.134034C273.421 0.489576 275.356 1.44999 276.901 2.89606C278.361 4.3246 279.493 6.21872 281.387 6.98061C283.28 7.74249 285.438 7.13933 287.427 7.54144C288.538 7.80979 289.571 8.33152 290.447 9.06581C291.322 9.80011 292.016 10.7271 292.474 11.7741C293.353 13.9031 293.582 16.2453 293.13 18.5041C292.717 20.9379 291.754 23.3188 291.934 25.7737C292.188 29.4456 294.939 32.9799 293.817 36.4719C292.484 40.6199 286.75 41.5617 284.465 45.2653C283.873 46.2282 283.545 47.3287 283.037 48.3445C282.814 48.8666 282.485 49.3371 282.072 49.7267C281.659 50.1163 281.17 50.4167 280.636 50.609C280.368 50.69 280.087 50.7148 279.809 50.6821C279.532 50.6493 279.264 50.5596 279.022 50.4185C278.781 50.2775 278.572 50.0882 278.407 49.8624C278.242 49.6366 278.126 49.3793 278.065 49.1064" fill="#542C10"/>
<path d="M281.323 11.2418V14.5221L282.254 63.8012C282.339 69.5047 277.737 73.5681 271.675 73.6104C265.507 73.6104 262.154 69.8116 261.942 64.0869C261.752 58.0341 261.445 51.664 261.445 51.664C261.445 51.664 253.616 50.6058 251.723 40.4473C250.77 35.4104 250.802 27.1038 251.045 20.3421C251.095 18.8922 251.438 17.4673 252.053 16.1534C252.668 14.8395 253.543 13.6637 254.624 12.6968C255.705 11.7299 256.971 10.9919 258.345 10.5272C259.719 10.0626 261.173 9.88092 262.619 9.99316L281.323 11.2418Z" fill="#FFBE9D"/>
<path d="M255.627 26.1784C255.624 26.5274 255.759 26.8634 256.003 27.1131C256.246 27.3629 256.579 27.5061 256.928 27.5117C257.094 27.5203 257.261 27.4953 257.418 27.4384C257.574 27.3814 257.718 27.2937 257.84 27.1802C257.963 27.0668 258.061 26.93 258.13 26.7779C258.198 26.6259 258.236 26.4616 258.24 26.2948C258.245 25.9539 258.118 25.6241 257.885 25.3752C257.652 25.1264 257.332 24.978 256.991 24.9615C256.821 24.9471 256.649 24.9675 256.487 25.0217C256.324 25.0758 256.175 25.1624 256.047 25.2763C255.919 25.3902 255.816 25.5289 255.744 25.684C255.672 25.8391 255.632 26.0074 255.627 26.1784Z" fill="#542C10"/>
<path d="M252.907 24.5329C253.077 24.7022 254.039 23.9403 255.446 23.9086C256.853 23.8769 257.901 24.5435 258.049 24.3742C258.197 24.2049 257.943 23.9933 257.488 23.6758C256.862 23.2621 256.121 23.0583 255.372 23.0938C254.641 23.1119 253.934 23.3599 253.352 23.8028C252.96 24.152 252.823 24.4589 252.907 24.5329Z" fill="#542C10"/>
<path d="M269.57 26.1736C269.566 26.3463 269.596 26.518 269.659 26.6789C269.721 26.8398 269.816 26.9866 269.936 27.1107C270.056 27.2348 270.2 27.3338 270.358 27.4018C270.517 27.4698 270.688 27.5055 270.86 27.5069C271.027 27.5154 271.194 27.4905 271.35 27.4335C271.507 27.3766 271.651 27.2888 271.773 27.1754C271.895 27.0619 271.994 26.9251 272.062 26.7731C272.131 26.621 272.168 26.4567 272.172 26.29C272.167 25.9503 272.029 25.6262 271.787 25.387C271.546 25.1477 271.221 25.0123 270.882 25.0096C270.554 24.9922 270.232 25.1045 269.987 25.3224C269.741 25.5402 269.592 25.846 269.57 26.1736Z" fill="#542C10"/>
<path d="M266.713 24.4177C266.883 24.5871 267.856 23.8252 269.252 23.7934C270.649 23.7617 271.707 24.4283 271.855 24.2484C272.003 24.0686 271.76 23.8675 271.294 23.5606C270.679 23.1588 269.956 22.9556 269.222 22.9783C268.488 23.001 267.778 23.2486 267.19 23.6876C266.777 24.0368 266.639 24.3331 266.713 24.4177Z" fill="#542C10"/>
<path d="M261.91 34.9807C261.164 34.7646 260.392 34.6472 259.615 34.6315C259.255 34.6315 258.916 34.5363 258.842 34.2929C258.811 33.9272 258.884 33.5601 259.054 33.2347C259.371 32.3565 259.699 31.4464 260.038 30.4729C260.975 28.1378 261.725 25.7316 262.281 23.2773C261.174 25.5382 260.251 27.8843 259.519 30.293L258.578 33.0654C258.366 33.5067 258.314 34.0078 258.43 34.4834C258.486 34.6074 258.57 34.7174 258.674 34.8052C258.778 34.893 258.901 34.9566 259.033 34.9913C259.233 35.0412 259.44 35.0626 259.646 35.0548C260.401 35.1203 261.161 35.0954 261.91 34.9807Z" fill="#542C10"/>
<path d="M261.392 51.6238C266.205 51.5759 270.909 50.1871 274.976 47.6133C274.976 47.6133 271.866 54.6925 261.657 54.0258L261.392 51.6238Z" fill="#EB996E"/>
<path d="M262.598 38.3452C262.851 37.9924 263.19 37.7101 263.582 37.525C263.975 37.3398 264.408 37.2579 264.841 37.287C265.151 37.3094 265.454 37.3929 265.731 37.5327C266.009 37.6726 266.257 37.866 266.459 38.1018C266.653 38.3314 266.771 38.6151 266.798 38.9143C266.824 39.2135 266.758 39.5136 266.608 39.7737C266.39 40.0315 266.101 40.2186 265.777 40.311C265.453 40.4034 265.108 40.3968 264.788 40.2922C264.115 40.0611 263.494 39.7018 262.958 39.234C262.8 39.1222 262.661 38.9866 262.545 38.8319C262.494 38.7552 262.466 38.665 262.466 38.5727C262.466 38.4803 262.494 38.3901 262.545 38.3134" fill="#EB996E"/>
<path d="M266.068 35.8362C265.835 35.8362 265.878 37.3493 264.597 38.471C263.317 39.5927 261.699 39.4657 261.699 39.6773C261.699 39.889 262.069 39.963 262.757 39.963C263.65 39.9469 264.51 39.6216 265.19 39.0424C265.842 38.4815 266.248 37.6877 266.322 36.8308C266.354 36.1959 266.174 35.8256 266.068 35.8362Z" fill="#542C10"/>
<path d="M266.269 20.3331C266.417 20.7141 267.814 20.4919 269.443 20.64C271.072 20.7881 272.447 21.2114 272.617 20.8622C272.701 20.6929 272.468 20.3437 271.918 19.9839C271.192 19.547 270.373 19.2861 269.527 19.2221C268.682 19.1439 267.83 19.2672 267.041 19.5818C266.512 19.8464 266.206 20.1532 266.269 20.3331Z" fill="#542C10"/>
<path d="M252.854 21.6999C253.161 22.0174 254.335 21.647 255.742 21.5941C257.149 21.5412 258.366 21.7317 258.631 21.3931C258.747 21.2343 258.557 20.9169 258.017 20.6312C257.284 20.2748 256.471 20.1144 255.658 20.1656C254.844 20.1959 254.052 20.4404 253.362 20.8745C252.875 21.2132 252.759 21.5518 252.854 21.6999Z" fill="#542C10"/>
<path d="M272.712 7.9647C271.928 9.38311 271.63 11.0196 271.865 12.6232C272.1 14.2269 272.855 15.7091 274.013 16.8428C274.997 17.7739 276.277 18.4935 276.753 19.7527C277.345 21.2977 276.478 22.9272 275.843 24.4828C274.997 26.4615 274.521 28.8001 275.484 30.726C276.105 31.6328 276.677 32.5724 277.197 33.5407C277.896 35.4243 276.922 37.4665 276.732 39.4665C276.489 42.0802 278.224 45.1171 280.858 45.1277C281.654 45.0764 282.424 44.8206 283.093 44.3851C283.762 43.9495 284.308 43.3488 284.677 42.641C285.389 41.221 285.817 39.6752 285.936 38.0908C286.825 31.0117 286.581 23.8267 286.348 16.6946C286.424 14.7178 286.063 12.7486 285.291 10.9276C284.148 8.92459 282.282 7.43613 280.075 6.76896C277.892 6.11001 275.635 5.72958 273.357 5.63672" fill="#542C10"/>
<path d="M263.243 5.83751C264.623 9.83525 267.253 13.2823 270.744 15.6679C274.223 18.0241 278.363 19.2068 282.561 19.0435C282.473 16.7133 281.846 14.4354 280.728 12.3889C279.611 10.3424 278.034 8.58317 276.121 7.24975C274.209 5.91633 272.013 5.04506 269.707 4.70452C267.401 4.36398 265.047 4.56346 262.831 5.28726" fill="#542C10"/>
<path d="M262.831 5.287C262.598 4.5886 263.085 3.6045 264.481 2.68389C266.524 1.47398 268.883 0.906217 271.252 1.05431C272.939 1.11319 274.606 1.43817 276.192 2.01725C278.083 2.70675 279.838 3.72403 281.376 5.02245C284.951 8.06699 287.276 12.3254 287.904 16.9798C287.999 17.6147 288.02 18.2602 288.052 18.8633L288.348 24.387L282.783 24.5669C278.59 24.697 274.445 23.6368 270.829 21.5088C267.97 19.8338 265.591 17.4504 263.92 14.5883C262.796 12.7512 262.162 10.6562 262.08 8.50384C262.08 6.95891 262.556 6.04888 263.243 5.81608C264.682 5.35049 266.618 7.53032 269.728 9.68899C271.429 10.8992 273.292 11.8645 275.261 12.5566C277.532 13.3385 279.93 13.6797 282.328 13.5619L277.039 19.2654C277.039 19.0009 277.039 18.7152 276.954 18.4295C276.635 16.2055 275.726 14.1079 274.32 12.3556C273.066 10.8086 271.483 9.56133 269.686 8.70489C266.385 7.00123 263.339 6.77902 262.831 5.287Z" fill="#542C10"/>
<path d="M248.802 22.9814C254.143 19.1405 258.812 14.4423 262.619 9.07705C260.714 8.6773 258.739 8.75252 256.869 9.29608C255 9.83964 253.293 10.8348 251.898 12.194C250.504 13.5531 249.465 15.2345 248.874 17.0899C248.282 18.9452 248.156 20.9176 248.506 22.8333" fill="#542C10"/>
<path d="M304.672 40.2899C304.672 40.2899 304.851 40.1205 305.084 39.7925C305.41 39.3192 305.556 38.7451 305.497 38.1735C305.443 37.7616 305.294 37.3679 305.06 37.0243C304.827 36.6806 304.516 36.3965 304.153 36.1947C303.246 35.6791 302.185 35.5028 301.159 35.6974C300.736 35.7589 300.319 35.8544 299.911 35.9831L299.604 36.0677V35.7609C299.532 34.8643 299.201 34.0079 298.652 33.2953C298.436 33.0273 298.162 32.8118 297.85 32.6652C297.539 32.5185 297.198 32.4445 296.854 32.4488C296.386 32.4813 295.948 32.6892 295.626 33.0308C295.394 33.2848 295.341 33.4752 295.298 33.4646C295.256 33.4541 295.298 33.2424 295.468 32.9144C295.622 32.6911 295.821 32.5025 296.053 32.3604C296.284 32.2183 296.542 32.1259 296.811 32.089C297.222 32.0512 297.636 32.1121 298.019 32.2668C298.402 32.4214 298.742 32.6652 299.012 32.9779C299.659 33.7428 300.054 34.6888 300.144 35.6868L299.795 35.4646C300.226 35.3229 300.668 35.2168 301.117 35.1471C302.274 34.9378 303.467 35.1599 304.471 35.7715C304.888 36.0212 305.239 36.3681 305.493 36.7827C305.747 37.1972 305.897 37.6672 305.931 38.1523C305.946 38.4742 305.899 38.796 305.79 39.0993C305.681 39.4026 305.513 39.6813 305.296 39.9195C304.936 40.2052 304.682 40.311 304.672 40.2899Z" fill="#835E44"/>
<path d="M298.25 43.6016C298.155 43.6016 298.25 43.009 297.848 42.1942C297.627 41.6775 297.272 41.2288 296.82 40.8941C296.369 40.5595 295.836 40.3508 295.277 40.2895C295.136 40.2792 294.995 40.2792 294.854 40.2895H294.336L294.621 39.8662C294.896 39.432 295.063 38.9388 295.109 38.4273C295.155 37.9158 295.078 37.4007 294.886 36.9245C294.59 36.1732 294.188 35.8663 294.241 35.7711C294.293 35.6759 294.791 35.9721 295.224 36.7658C295.504 37.2957 295.638 37.8907 295.612 38.4895C295.586 39.0883 295.401 39.6694 295.076 40.1731L294.844 39.7498C295.009 39.7395 295.175 39.7395 295.341 39.7498C296.059 39.8372 296.734 40.1396 297.277 40.6175C297.713 41.0089 298.038 41.5091 298.218 42.0672C298.515 43.009 298.303 43.6227 298.25 43.6016Z" fill="#835E44"/>
<path d="M293.246 14.9609C293.479 15.329 293.573 15.768 293.511 16.199C293.39 17.3403 293.145 18.4651 292.781 19.5534C292.548 20.28 292.412 21.0344 292.379 21.7967C292.454 22.1758 292.605 22.5357 292.823 22.8549C293.035 23.2358 293.288 23.6274 293.542 24.0295C294.137 24.8753 294.564 25.8271 294.801 26.8336C294.997 27.9566 294.807 29.1128 294.262 30.114C293.639 30.9899 292.968 31.8307 292.252 32.6324C291.828 33.4893 291.628 34.4393 291.67 35.3942C291.558 37.1309 290.957 38.8003 289.935 40.2089C289.255 41.1498 288.4 41.9509 287.417 42.5686C287.069 42.8109 286.683 42.9933 286.274 43.1083C287.581 42.2994 288.714 41.2382 289.607 39.9867C290.54 38.6167 291.082 37.0178 291.173 35.3625C291.11 34.3197 291.325 33.2789 291.797 32.3467C292.4 31.4049 293.31 30.7806 293.786 29.86C294.263 28.9583 294.43 27.9245 294.262 26.9183C294.047 25.9915 293.655 25.1149 293.109 24.3363C292.865 23.9342 292.611 23.5321 292.4 23.13C292.287 22.9309 292.185 22.726 292.093 22.5163C291.99 22.2937 291.932 22.0526 291.924 21.8073C291.965 20.9971 292.129 20.1979 292.41 19.437C292.8 18.3753 293.093 17.2811 293.288 16.1673C293.324 15.7649 293.31 15.3598 293.246 14.9609Z" fill="#835E44"/>
<path d="M250.453 9.5761C250.215 8.78768 250.108 7.96547 250.136 7.1423C250.115 6.22409 250.288 5.31177 250.644 4.46513C250.862 3.92901 251.193 3.4463 251.615 3.05001C252.036 2.65371 252.539 2.35316 253.087 2.16889C254.183 1.84944 255.352 1.87903 256.43 2.25355C257.281 2.53872 258.1 2.91106 258.874 3.36463C259.625 3.70632 260.335 4.13232 260.99 4.63443C260.204 4.41685 259.447 4.10415 258.737 3.70324C257.954 3.32246 257.144 3.00059 256.314 2.74031C255.327 2.44564 254.275 2.44564 253.288 2.74031C252.816 2.90543 252.384 3.16781 252.019 3.51048C251.655 3.85315 251.366 4.2685 251.172 4.72967C250.828 5.51133 250.638 6.35204 250.612 7.20579C250.606 7.99833 250.553 8.78981 250.453 9.5761Z" fill="#542C10"/>
<path d="M302.196 31.1299C302.196 31.077 302.641 31.1299 303.36 30.8231C304.369 30.4231 305.2 29.6714 305.698 28.7067C306.038 28.0567 306.175 27.3192 306.089 26.5904C305.975 25.7581 305.605 24.9817 305.032 24.3682C304.434 23.6707 303.61 23.2061 302.704 23.0561C302.245 22.958 301.768 22.9925 301.327 23.1555C300.887 23.3185 300.503 23.6033 300.218 23.9767C300.095 24.1655 300.015 24.379 299.984 24.6021C299.953 24.8253 299.972 25.0525 300.038 25.2677C300.109 25.4635 300.231 25.637 300.391 25.7707C300.551 25.9045 300.743 25.9938 300.948 26.0296C301.138 26.0754 301.338 26.0578 301.518 25.9795C301.697 25.9012 301.847 25.7665 301.942 25.5957C302.123 25.2167 302.171 24.7884 302.08 24.3788C301.881 23.6216 301.504 22.9226 300.982 22.3394C300.46 21.7561 299.806 21.3054 299.075 21.0244C298.062 20.6369 296.954 20.5704 295.902 20.8339C295.151 21.0138 294.77 21.236 294.749 21.1937C295.055 20.9273 295.416 20.7321 295.806 20.6223C296.898 20.2561 298.079 20.2561 299.171 20.6223C300.01 20.9032 300.766 21.3905 301.369 22.0394C301.971 22.6883 302.401 23.4781 302.619 24.3365C302.748 24.8633 302.684 25.4187 302.44 25.9026C302.287 26.1661 302.057 26.3759 301.78 26.5028C301.503 26.6298 301.194 26.6678 300.895 26.6116C300.595 26.5567 300.314 26.4244 300.08 26.2277C299.846 26.031 299.668 25.7767 299.562 25.4899C299.467 25.1983 299.439 24.8892 299.479 24.5852C299.52 24.2812 299.627 23.9901 299.795 23.7333C300.132 23.2643 300.6 22.9042 301.139 22.6974C301.678 22.4906 302.267 22.4461 302.831 22.5693C303.856 22.7428 304.786 23.2755 305.455 24.0719C306.063 24.7795 306.433 25.6606 306.513 26.5904C306.585 27.4 306.408 28.2125 306.005 28.9184C305.445 29.9389 304.506 30.6989 303.392 31.0347C303.097 31.1274 302.791 31.1773 302.482 31.1829C302.302 31.1617 302.196 31.1511 302.196 31.1299Z" fill="#542C10"/>
<path d="M291.902 11.6354C291.967 11.7968 291.999 11.9694 291.997 12.1433C292.009 12.6404 291.904 13.1334 291.691 13.5824C291.359 14.3084 290.766 14.8826 290.03 15.1909C289.539 15.3928 289.009 15.4778 288.48 15.4393C287.951 15.4007 287.439 15.2396 286.983 14.9686L287.279 14.9051C286.752 15.6842 286.037 16.3174 285.199 16.7462C284.362 17.175 283.431 17.3854 282.49 17.358C281.55 17.3305 280.632 17.0661 279.822 16.5892C279.011 16.1124 278.334 15.4385 277.853 14.63L278.255 14.7147C277.969 14.9051 277.663 15.1168 277.345 15.2967C275.132 16.5616 272.537 16.9896 270.035 16.503C268.352 16.1583 266.782 15.3964 265.469 14.2871C264.157 13.1778 263.144 11.7566 262.524 10.154C262.389 9.80946 262.28 9.45584 262.196 9.09579C262.196 8.85241 262.132 8.71484 262.196 8.71484C262.259 8.71484 262.376 9.22277 262.756 10.0799C263.305 11.3011 264.081 12.407 265.042 13.3391C266.443 14.7319 268.231 15.6719 270.172 16.0374C272.551 16.4508 275 16.0164 277.091 14.8099C277.398 14.6406 277.684 14.4396 277.948 14.2597L278.192 14.0798L278.35 14.3337C278.825 15.1202 279.501 15.7661 280.307 16.205C281.114 16.6438 282.024 16.8599 282.942 16.831C283.73 16.7901 284.5 16.573 285.194 16.1958C285.887 15.8186 286.488 15.2908 286.951 14.6512L287.068 14.4819L287.237 14.5877C287.635 14.8327 288.084 14.9846 288.549 15.0323C289.014 15.0799 289.484 15.022 289.924 14.8628C290.6 14.6019 291.16 14.106 291.5 13.466C291.772 12.8946 291.91 12.2683 291.902 11.6354Z" fill="#835E44"/>
<path d="M291.828 20.5586C291.828 20.5586 291.828 20.7914 291.744 21.1829C291.531 21.7424 291.164 22.2303 290.686 22.5903C290.001 23.1385 289.177 23.4832 288.306 23.585C287.252 23.6828 286.189 23.5454 285.195 23.1829C284.375 22.8772 283.573 22.5239 282.794 22.1247L283.164 21.9342C283.005 22.6842 282.603 23.361 282.021 23.8601C281.586 24.2418 281.079 24.5332 280.53 24.7172C280.062 24.9261 279.543 24.9924 279.038 24.9077C279.038 24.8336 279.588 24.7913 280.413 24.4209C280.966 24.2027 281.458 23.8539 281.847 23.4043C282.235 22.9547 282.51 22.4176 282.646 21.839L282.709 21.5215L283.016 21.6485C283.781 22.0105 284.565 22.3319 285.365 22.6114C286.287 22.9532 287.27 23.1009 288.253 23.0453C289.039 22.968 289.793 22.6912 290.443 22.2411C291.04 21.8067 291.516 21.2278 291.828 20.5586Z" fill="#835E44"/>
<path d="M277.388 1.79453C276.511 1.46943 275.583 1.30803 274.648 1.31835C273.647 1.36446 272.682 1.70698 271.876 2.30245C270.894 3.03867 270.198 4.0936 269.908 5.2865L269.845 5.56162L269.559 5.47697L269.115 5.34999C267.866 5.04541 266.552 5.15306 265.37 5.65686C264.4 6.07231 263.562 6.7457 262.947 7.60389C262.407 8.42993 262.004 9.33743 261.752 10.2916C261.682 10.0209 261.682 9.73702 261.752 9.46628C261.888 8.71081 262.176 7.99083 262.598 7.34993C263.219 6.39284 264.1 5.63291 265.137 5.15952C266.42 4.5876 267.856 4.45735 269.221 4.78916C269.39 4.78916 269.549 4.88439 269.697 4.92672L269.348 5.12777C269.659 3.80627 270.441 2.64368 271.548 1.85802C272.443 1.22848 273.511 0.892047 274.606 0.895085C275.334 0.884258 276.056 1.03231 276.721 1.32894C277.187 1.5829 277.399 1.76279 277.388 1.79453Z" fill="#835E44"/>
<path d="M261.424 9.63672C260.872 10.3175 260.24 10.9286 259.54 11.4568C257.962 12.8729 256.222 14.0983 254.357 15.1075C252.476 16.1395 250.385 16.7293 248.242 16.8323C247.356 16.9152 246.464 16.7996 245.629 16.4937C245.629 16.3984 246.687 16.5889 248.221 16.4408C250.282 16.227 252.281 15.6085 254.103 14.6207C255.928 13.6147 257.665 12.4572 259.297 11.1605C259.954 10.5833 260.666 10.0729 261.424 9.63672Z" fill="#835E44"/>
</g>
<defs>
<clipPath id="clip0">
<rect width="448" height="380" fill="white" transform="translate(38)"/>
</clipPath>
</defs>
</svg>
