<svg width="111" height="111" viewBox="0 0 111 111" fill="none" xmlns="http://www.w3.org/2000/svg">
<mask id="mask0" mask-type="alpha" maskUnits="userSpaceOnUse" x="0" y="0" width="111" height="111">
<path d="M59.2902 110.886L53.0404 110.992C24.2998 111.485 0.603736 88.4685 0.113888 59.5862L0.00771402 53.3041C-0.482134 24.4219 22.4189 0.60795 51.1594 0.115667L57.4092 0.00775237C86.1498 -0.484531 109.846 22.5303 110.334 51.4138L110.442 57.6959C110.932 86.5793 88.0307 110.392 59.2902 110.886Z" fill="white"/>
</mask>
<g mask="url(#mask0)">
<path d="M59.2902 110.886L53.0404 110.992C24.2998 111.485 0.603736 88.4685 0.113888 59.5862L0.00771402 53.3041C-0.482134 24.4219 22.4189 0.60795 51.1594 0.115667L57.4092 0.00775237C86.1498 -0.484531 109.846 22.5303 110.334 51.4138L110.442 57.6959C110.932 86.5793 88.0307 110.392 59.2902 110.886Z" fill="#EBF3FA"/>
<path fill-rule="evenodd" clip-rule="evenodd" d="M-6.03271 -6.05859H116.482V117.067H-6.03271V-6.05859Z" fill="#EBF3FA"/>
</g>
<path fill-rule="evenodd" clip-rule="evenodd" d="M55.0963 34.3789C43.1208 34.3789 33.3789 44.1693 33.3789 56.2044C33.3789 68.2394 43.1208 78.0299 55.0963 78.0299C67.0717 78.0299 76.8137 68.2394 76.8137 56.2044C76.8137 44.1693 67.0717 34.3789 55.0963 34.3789Z" fill="#041B54"/>
<path fill-rule="evenodd" clip-rule="evenodd" d="M65.4133 50.8808L53.3998 62.9342C53.0394 63.2958 52.5663 63.4778 52.0932 63.4778C51.6201 63.4778 51.1469 63.2958 50.7865 62.9342L44.7799 56.9075C44.0571 56.1825 44.0571 55.0104 44.7799 54.2855C45.5025 53.5602 46.6703 53.5602 47.3932 54.2855L52.0932 59.0011L62.8 48.2588C63.5226 47.5335 64.6904 47.5335 65.4133 48.2588C66.1358 48.9837 66.1358 50.1555 65.4133 50.8808Z" fill="#FAFAFA"/>
</svg>
