<svg width="112" height="111" viewBox="0 0 112 111" fill="none" xmlns="http://www.w3.org/2000/svg">
<path fill-rule="evenodd" clip-rule="evenodd" d="M111.596 55.5005C111.596 86.1519 86.7483 111 56.0962 111C25.4449 111 0.596191 86.1519 0.596191 55.5005C0.596191 24.8481 25.4449 0 56.0962 0C86.7483 0 111.596 24.8481 111.596 55.5005Z" fill="#EBF3FA"/>
<path d="M56.0124 34.1016C65.0787 34.1016 72.4545 41.4391 72.4545 50.4584C72.4545 63.8966 57.6489 77.0177 57.0187 77.5696C56.7311 77.8215 56.3718 77.9474 56.0124 77.9474C55.653 77.9474 55.2937 77.8213 55.0063 77.5696C54.3758 77.0175 39.5703 63.8964 39.5703 50.4584C39.5703 41.4391 46.9461 34.1016 56.0124 34.1016ZM56.6214 43.8451C52.5919 43.8451 49.3138 47.1233 49.3138 51.1527C49.3138 55.1823 52.5919 58.4604 56.6214 58.4604C60.6509 58.4604 63.929 55.1823 63.929 51.1527C63.929 47.1233 60.6509 43.8451 56.6214 43.8451Z" fill="#041B54"/>
</svg>
