<svg xmlns="http://www.w3.org/2000/svg" viewBox="0 0 436.66 622.28"><defs><style>.cls-1{fill:#041b54;}.cls-2{fill:#455a64;}.cls-3{fill:#e0e0e0;}.cls-4{fill:#263238;}.cls-5{fill:#e8505b;}.cls-6{fill:#ff0029;}.cls-7,.cls-8{opacity:0.3;}.cls-8{isolation:isolate;}.cls-9{fill:#fafafa;}.cls-10{fill:#d1ebff;}.cls-11{fill:#aec2ff;}.cls-12{fill:#fff;}.cls-13{fill:#fc4141;}.cls-14{fill:#4c80cd;}.cls-15{fill:#5d4436;}.cls-16{fill:#845d47;}</style></defs><title>Asset 1</title><g id="Layer_2" data-name="Layer 2"><g id="svg3247"><path class="cls-1" d="M246.4,229.18c29.88.75,60.08,1.55,89,9.2s56.79,22.92,73.94,47.41c18.86,26.95,22.61,61.4,24.51,94.27,3.15,54.49,2.78,109.24-2.56,163.54-2.7,27.54-12.47,53.1-38.07,63.59-30.78,12.61-72.16,0-72.16,0"/><path class="cls-2" d="M326.53,600.61s.38,0,1.13-.06,1.89,0,3.33-.06l12.77-.1a144.53,144.53,0,0,0,20.13-1c1.94-.32,3.95-.54,6-1.07l3.11-.68c1.05-.29,2.1-.61,3.14-.93,2.16-.57,4.26-1.47,6.46-2.28a62.53,62.53,0,0,0,6.46-3.21,46.84,46.84,0,0,0,12-9.6A36.86,36.86,0,0,0,409,567c2.86-11.25,4.07-23.7,4.54-36.77s.26-26.87.38-41.13.14-29.06.2-44.19.22-29.91-.26-44.15A304,304,0,0,0,410,359.92c-4.36-25.8-13.4-48.17-25-64.19a142.07,142.07,0,0,0-17.83-19.81c-5.75-5.39-10.92-9.78-15.15-13.35s-7.53-6.3-9.81-8.19l-2.54-2.16c-.56-.49-.85-.77-.85-.77s.33.22.91.69,1.47,1.17,2.6,2.05l9.93,8c4.28,3.53,9.5,7.89,15.29,13.24a141.7,141.7,0,0,1,18,19.81c11.8,16.06,21,38.55,25.39,64.45a302.91,302.91,0,0,1,3.94,41c.5,14.29.36,29.07.28,44.2s-.14,29.9-.22,44.18,0,28-.45,41.16-1.71,25.62-4.66,37a37.06,37.06,0,0,1-8.13,14.82,47,47,0,0,1-12.24,9.71,61.84,61.84,0,0,1-6.56,3.2,67.6,67.6,0,0,1-6.53,2.26c-1.09.31-2.14.65-3.19.91s-2.12.47-3.15.69c-2.06.5-4.09.73-6.05,1a140.13,140.13,0,0,1-20.21.89L331,600.65l-3.33-.06A6.65,6.65,0,0,1,326.53,600.61Z"/><path class="cls-2" d="M414.52,452.82c-.08-.26,4.56-1.61,10.48-1.87s10.65.62,10.61.88-4.76-.12-10.55.16S414.59,453.13,414.52,452.82Z"/><path class="cls-3" d="M285.43,230.73a4.59,4.59,0,0,1,.77,0l2.28,0c2,.08,5,.06,8.76.32a136.53,136.53,0,0,1,31.47,6.72l4.9,1.82c.83.3,1.67.62,2.54.95s1.67.74,2.52,1.15q2.55,1.14,5.19,2.36c1.77.78,3.45,1.81,5.24,2.72a143.54,143.54,0,0,1,21.39,14,146.77,146.77,0,0,1,20.57,19.35,108.15,108.15,0,0,1,16.65,25.31c9,18.87,12.89,38.6,14.88,56.45s2,34.13,2.1,47.73.08,24.59.28,32.18q.16,5.63.25,8.75c0,1,0,1.72.06,2.28a5,5,0,0,1,0,.79,5.85,5.85,0,0,1-.1-.77c0-.56-.1-1.31-.17-2.28-.14-2-.28-4.94-.44-8.73-.32-7.61-.46-18.6-.6-32.2s-.37-29.77-2.3-47.63-6-37.38-14.87-56.08a107.41,107.41,0,0,0-16.48-25.1,147.89,147.89,0,0,0-20.4-19.26,144.82,144.82,0,0,0-21.2-14c-1.76-.93-3.45-1.94-5.19-2.75l-5.14-2.36c-.85-.38-1.67-.76-2.5-1.15s-1.68-.64-2.52-.94c-1.66-.63-3.29-1.26-4.87-1.84a139.65,139.65,0,0,0-31.26-7c-3.78-.32-6.74-.38-8.72-.53l-2.28-.14A5.17,5.17,0,0,1,285.43,230.73Z"/><path class="cls-4" d="M266.75,230.67s7.33-19.35,33.41-15.67c0,0,11.62-.65,13.74,5.83,0,0-24.29-6-34.64,10.77Z"/><path class="cls-2" d="M341.09,254.23H325.82s-3-40.4-40-38.83C285.82,215.4,331.85,200,341.09,254.23Z"/><path class="cls-2" d="M414.75,477.45l21.91,3.05-2.2,7.79L414,486.71Z"/><path class="cls-5" d="M416.08,484.52c-.14-.11.87-1.64,2.56-3.94l.3-.42.35.42c1,1.19,2,2.42,3.06,3.71l-.7-.1c.7-.52,1.43-1.07,2.19-1.61s1.54-1.11,2.26-1.64l.43-.3.3.41c1,1.37,1.92,2.68,2.8,3.95l-.56-.08c2.34-1.56,3.85-2.46,3.95-2.34s-1.25,1.29-3.47,3l-.3.25-.26-.33c-.95-1.21-1.94-2.48-3-3.83l.71.1-2.24,1.66c-.77.54-1.49,1.09-2.2,1.59l-.4.3-.3-.38c-1-1.33-2-2.62-2.91-3.83h.65C417.45,483.28,416.2,484.64,416.08,484.52Z"/><path class="cls-6" d="M96.33,621.66s-4.24-13.8-3.39-19.63,8.69-11.14,8.69-11.14l-8.51-221.2S92,272.93,143.23,242.86l30.56-7.71,75.39-4.46c2.44.81,91.05,34.14,103.23,47.15L314.2,472.92s4.64,57.63,9.28,99.07c.95,8.47,7.3,50.29,7.3,50.29Z"/><g class="cls-7"><path class="cls-8" d="M322.09,558.93c-.71,5.39-2.76,12-7.93,13.6s-10.77,1.19-16.12.22c-18.9-3.36-36.29-12.24-53.36-21-31.91-16.38-64.11-33-91.64-55.94-3.88-3.23-8-8.27-5.63-12.71,2.68-5,10.25-3.35,15.43-1C217,507.07,268,534,322.09,558.93Z"/></g><path class="cls-6" d="M131.79,248.87S98,260.13,87.13,291.39c-12.07,34.54-20,101.6-20,101.6l33.34,4.19Z"/><path class="cls-6" d="M352.41,277.82s18.1,23.8,26.91,52.73,13.84,112.77,13.84,112.77l-90.78-1.27-4.82-73.75S288.4,245.2,352.41,277.82Z"/><path class="cls-9" d="M79,321.51a10.19,10.19,0,0,1,2.5-2.36A12.38,12.38,0,0,1,91,317.32c4.4.64,8.68,4.09,14.31,6.25a16.19,16.19,0,0,0,9.36,1.15c3.32-.73,6.19-3.11,9.24-5.41a24.86,24.86,0,0,1,5-3.16,8,8,0,0,1,6.27-.27,10.69,10.69,0,0,1,4.88,4.36c1.26,1.82,2.26,3.81,3.58,5.59a9.81,9.81,0,0,0,5.12,3.95,11.9,11.9,0,0,0,6.74-.06,25.47,25.47,0,0,0,6.57-2.82c2.1-1.23,4.12-2.74,6.3-4.08a29.63,29.63,0,0,1,7-3.4,13.4,13.4,0,0,1,8.05,0,21,21,0,0,1,7,4.26c2.08,1.78,4,3.69,6.17,5.37a15.74,15.74,0,0,0,7.18,3.53,15,15,0,0,0,8.05-.83c5.25-2,9.89-5.53,15-8.37a28.9,28.9,0,0,1,8.21-3.27,16.41,16.41,0,0,1,8.76.69c5.5,2.14,9.58,6.29,14.46,8.63a17,17,0,0,0,3.75,1.33A15.19,15.19,0,0,0,266,331a21.63,21.63,0,0,0,7.52-2.15c4.78-2.16,9.1-5.19,14-6.8a15.36,15.36,0,0,1,7.63-.69,14.42,14.42,0,0,1,6.64,3.39c3.71,3.09,6.61,7,10.85,8.33a12.67,12.67,0,0,0,6.35.18,47.38,47.38,0,0,0,6.08-1.81c3.89-1.37,8-2.79,11.92-1.88a12.62,12.62,0,0,1,5.12,2.52c1.48,1.13,2.75,2.36,4,3.51a22.41,22.41,0,0,0,4,2.93,13.68,13.68,0,0,0,4.38,1.41,18.06,18.06,0,0,0,8.23-.85,24.09,24.09,0,0,0,6.27-3.2,54.34,54.34,0,0,0,7.43-6.44c.76-.77,1.37-1.37,1.81-1.81A6.4,6.4,0,0,1,379,327a4.2,4.2,0,0,1-.57.67l-1.73,1.89a51.6,51.6,0,0,1-7.34,6.62,24.7,24.7,0,0,1-6.36,3.33,18.43,18.43,0,0,1-8.47.95,14,14,0,0,1-4.58-1.44,23.28,23.28,0,0,1-4.14-3c-2.6-2.22-5.18-5.07-8.89-5.81s-7.61.52-11.5,1.91a47.13,47.13,0,0,1-6.17,1.88,13.58,13.58,0,0,1-6.78-.18,16.56,16.56,0,0,1-6-3.67c-1.76-1.56-3.39-3.29-5.21-4.78a13,13,0,0,0-6.23-3.17,14.45,14.45,0,0,0-7.14.67c-4.75,1.57-9.06,4.57-13.92,6.79a22.58,22.58,0,0,1-7.85,2.26,16.44,16.44,0,0,1-4.2-.26,18.39,18.39,0,0,1-4-1.41c-5.09-2.44-9.16-6.58-14.39-8.58a15.32,15.32,0,0,0-8.17-.64,27.38,27.38,0,0,0-7.9,3.17c-5.07,2.78-9.73,6.39-15.19,8.45a15.9,15.9,0,0,1-8.6.87,16.7,16.7,0,0,1-7.62-3.74c-4.38-3.4-7.87-7.84-12.83-9.48a12.38,12.38,0,0,0-7.45,0,29.12,29.12,0,0,0-6.78,3.29c-2.16,1.31-4.15,2.8-6.31,4.08a26.88,26.88,0,0,1-6.82,2.9,12.92,12.92,0,0,1-7.24,0,10.88,10.88,0,0,1-5.55-4.3c-1.35-1.85-2.36-3.85-3.57-5.62a9.88,9.88,0,0,0-4.48-4.08,7.29,7.29,0,0,0-5.67.22,24.23,24.23,0,0,0-4.9,3c-3,2.26-6,4.72-9.54,5.47a16.64,16.64,0,0,1-9.71-1.27c-5.7-2.27-9.9-5.71-14.16-6.4a12.27,12.27,0,0,0-9.36,1.61A21.37,21.37,0,0,0,79,321.51Z"/><path class="cls-9" d="M68.29,376.06a4.85,4.85,0,0,1,.88.06l2.61.27c2.3.14,5.69,1.1,9.92-.27,2.14-.46,4.54-.91,7.16-1.35s5.45-1.09,8.56-1.47a23.56,23.56,0,0,1,10,.72c3.43,1,6.76,2.77,10.43,4a20.16,20.16,0,0,0,11.89.34c4.11-1,8.15-2.86,12.5-4.38s9.28-2.74,14.23-1.37,8.81,5,13.71,6.18a12.15,12.15,0,0,0,3.71.26,17.23,17.23,0,0,0,3.72-.89c2.46-.85,4.84-2.1,7.44-3a11.92,11.92,0,0,1,8.35-.28c2.73,1.05,4.84,3.05,7.06,4.68a16.66,16.66,0,0,0,3.51,2.12,10.14,10.14,0,0,0,4,.75,21.47,21.47,0,0,0,8-2.4,46.39,46.39,0,0,1,8.23-3.31,12.79,12.79,0,0,1,4.58-.3,12.66,12.66,0,0,1,4.39,1.43c2.73,1.43,5,3.43,7.39,5.06a19.09,19.09,0,0,0,3.75,2.06,10.09,10.09,0,0,0,2,.56l1,.18,1,0a22.74,22.74,0,0,0,8.23-1.71c2.66-1,5.28-2.1,8-2.92a15.92,15.92,0,0,1,8.49-.61c2.86.61,5.2,2.46,7.16,4.3a55.71,55.71,0,0,0,5.89,5.32,11,11,0,0,0,7.1,2,19.31,19.31,0,0,0,7.1-2.16c2.24-1.09,4.38-2.36,6.52-3.55,4.24-2.34,8.9-4.52,13.72-4s8.67,3.21,12.1,5.67,6.64,5.14,10.13,6.77a28.91,28.91,0,0,0,10.57,2.87,36.56,36.56,0,0,0,9.8-.77,35.17,35.17,0,0,0,14.11-6.88,31.35,31.35,0,0,0,6.55-7.5c.57-1,.95-1.8,1.23-2.3a3.72,3.72,0,0,1,.45-.77,5.72,5.72,0,0,1-.35.83c-.26.52-.6,1.35-1.15,2.36a30.67,30.67,0,0,1-6.47,7.71,35.48,35.48,0,0,1-14.22,7.14,36.92,36.92,0,0,1-10,.84,29.88,29.88,0,0,1-10.85-2.86c-3.62-1.68-6.82-4.34-10.27-6.8s-7.24-5-11.72-5.47-9,1.56-13.18,3.92c-2.13,1.19-4.25,2.48-6.55,3.59a20.23,20.23,0,0,1-7.45,2.28,12.05,12.05,0,0,1-7.7-2.18,54.48,54.48,0,0,1-6-5.41c-1.93-1.81-4.11-3.51-6.71-4.05a15.22,15.22,0,0,0-8,.6c-2.66.79-5.27,1.94-8,2.91a23.7,23.7,0,0,1-8.61,1.79l-1.13,0-1.13-.2a9.36,9.36,0,0,1-2.2-.62,21,21,0,0,1-4-2.16c-2.46-1.68-4.7-3.65-7.26-5a11.79,11.79,0,0,0-4-1.32,12.79,12.79,0,0,0-4.22.29,47.58,47.58,0,0,0-8,3.22,22.48,22.48,0,0,1-8.43,2.49,11.12,11.12,0,0,1-4.38-.83,18,18,0,0,1-3.73-2.26c-2.26-1.7-4.32-3.61-6.8-4.56a10.92,10.92,0,0,0-7.67.28c-2.52.87-4.9,2.1-7.44,3A18.62,18.62,0,0,1,174,380a12.44,12.44,0,0,1-4-.28c-5.24-1.33-9.12-4.94-13.74-6.23s-9.42-.2-13.67,1.31-8.4,3.37-12.61,4.34a20.81,20.81,0,0,1-12.31-.43c-3.75-1.29-7-3-10.39-4.05a22.81,22.81,0,0,0-9.72-.77c-3.07.33-5.89,1-8.53,1.37s-5,.81-7.17,1.25c-1.07.21-2.07.45-3,.59a11.54,11.54,0,0,1-2.75,0c-1.67-.18-3.08-.38-4.23-.54s-2-.29-2.61-.37A3.22,3.22,0,0,1,68.29,376.06Z"/><path class="cls-9" d="M101.88,423.63a3.38,3.38,0,0,1,.6,0l1.76.18c1.53.16,3.81.47,6.71.91,5.83.81,14.19,2.54,24.64,3.39a86.62,86.62,0,0,0,17.08-.3,40.49,40.49,0,0,1,9.67-.08,17.32,17.32,0,0,1,4.92,1.45,23.55,23.55,0,0,1,4.38,2.86c2.74,2.12,5.34,4.68,8.71,5.71a9.07,9.07,0,0,0,5.16,0,35.75,35.75,0,0,0,5.13-2.1,18.8,18.8,0,0,1,5.55-1.85,8.7,8.7,0,0,1,5.89,1.27c3.49,2.12,5.77,5.65,9.32,7.14s7.6.59,11.25-.5,7.39-2.55,11.34-2.63a13,13,0,0,1,5.67,1.17,21.66,21.66,0,0,1,4.66,3.15c2.78,2.36,5.25,5,8.31,6.42s6.52,1.05,9.56,0,6-2.49,9.06-3.19,6.32-.75,9,.67a7.44,7.44,0,0,1,3.09,3.12,28.1,28.1,0,0,1,1.41,3.84,8.69,8.69,0,0,0,1.73,3.22,6.7,6.7,0,0,0,2.89,1.86,10.55,10.55,0,0,0,6.37,0,11.49,11.49,0,0,0,4.78-2.95,19,19,0,0,0,2.93-3.83,42.6,42.6,0,0,0,2.84-6.11c.27-.67.49-1.21.65-1.64a4.85,4.85,0,0,1,.24-.54,3.25,3.25,0,0,1-.14.58l-.54,1.68a40.5,40.5,0,0,1-2.69,6.23,18.46,18.46,0,0,1-2.9,4,12.05,12.05,0,0,1-5,3.16,11.13,11.13,0,0,1-6.77.1,7.61,7.61,0,0,1-3.21-2,9.54,9.54,0,0,1-1.92-3.47,27.46,27.46,0,0,0-1.39-3.71,6.47,6.47,0,0,0-2.76-2.77c-2.44-1.27-5.53-1.21-8.46-.54s-5.79,2.2-9,3.2a18.49,18.49,0,0,1-5,1,11.47,11.47,0,0,1-5.22-1c-3.31-1.51-5.83-4.21-8.56-6.51a21.37,21.37,0,0,0-4.43-3,12,12,0,0,0-5.23-1.07c-3.67.08-7.3,1.47-11,2.61a32,32,0,0,1-5.85,1.29,12.07,12.07,0,0,1-6.12-.83c-3.93-1.72-6.23-5.31-9.44-7.22a7.67,7.67,0,0,0-5.22-1.15,18.7,18.7,0,0,0-5.25,1.77,35.79,35.79,0,0,1-5.28,2.14,10.09,10.09,0,0,1-5.71,0c-3.69-1.15-6.32-3.81-9-5.91a22.19,22.19,0,0,0-4.2-2.76,16.47,16.47,0,0,0-4.64-1.4,40.25,40.25,0,0,0-9.44,0,86.89,86.89,0,0,1-17.23.19c-10.51-1-18.82-2.81-24.63-3.74-2.84-.46-5.08-.82-6.67-1.09l-1.74-.28A2.17,2.17,0,0,1,101.88,423.63Z"/><path class="cls-9" d="M99.05,558.17a2.92,2.92,0,0,1,.59-.24l1.77-.63c1.55-.54,3.83-1.37,6.82-2.34a53.21,53.21,0,0,1,11.14-2.6,16.39,16.39,0,0,1,7.08,1.17,32.72,32.72,0,0,0,7.56,2.16,16.57,16.57,0,0,0,8.27-1.88c2.77-1.21,5.59-2.82,8.9-3.57a21.87,21.87,0,0,1,10.29.6c3.43.91,6.78,2.26,10.31,3.29s7.26,1.74,10.95,1,7.16-2.76,10.93-4.25a18.41,18.41,0,0,1,6.08-1.44,11,11,0,0,1,6.17,1.62c3.69,2.2,6.33,5.77,10.19,7.2a10.13,10.13,0,0,0,6,.14,32.42,32.42,0,0,0,5.77-2.2,42.8,42.8,0,0,1,5.81-2.3,11,11,0,0,1,6.29-.12,12.14,12.14,0,0,1,5.13,3.41c1.41,1.41,2.66,2.93,4.09,4.14,2.81,2.6,6.76,2.94,10.27,2.13s6.92-2.07,10.35-3a20.55,20.55,0,0,1,5.22-.79,9.59,9.59,0,0,1,5,1.21,10.27,10.27,0,0,1,3.65,3.39,46.35,46.35,0,0,1,2.4,4.06c1.45,2.62,3.25,5,5.87,5.87a10,10,0,0,0,7.46-.77,17.09,17.09,0,0,0,5.51-4.22c2.83-3.35,4.32-7,5.83-9.68a40.52,40.52,0,0,1,3.79-6.13,13.67,13.67,0,0,1,1.72-1.86s-.57.67-1.53,2a44.3,44.3,0,0,0-3.61,6.19c-1.46,2.74-2.87,6.38-5.75,9.89a18.06,18.06,0,0,1-5.67,4.41,10.61,10.61,0,0,1-8,.87c-2.89-.89-4.86-3.55-6.34-6.17s-2.92-5.63-5.77-7.08c-2.74-1.64-6.29-1.17-9.58-.31s-6.7,2.3-10.39,3.05a15.16,15.16,0,0,1-5.75.22,12.36,12.36,0,0,1-2.86-.86,12.16,12.16,0,0,1-2.5-1.68c-1.54-1.29-2.81-2.8-4.18-4.17a11,11,0,0,0-4.72-3.15,9.94,9.94,0,0,0-5.71.14,43.46,43.46,0,0,0-5.67,2.26,35.53,35.53,0,0,1-5.95,2.26,11.29,11.29,0,0,1-6.56-.16c-4.25-1.64-6.89-5.29-10.36-7.31a10.13,10.13,0,0,0-5.61-1.49,17.43,17.43,0,0,0-5.73,1.35c-3.69,1.46-7.18,3.47-11.12,4.28s-7.89.06-11.44-1-6.92-2.42-10.26-3.33a21.12,21.12,0,0,0-9.87-.64c-3.15.68-5.93,2.24-8.75,3.45s-5.77,2.18-8.68,1.85a33.11,33.11,0,0,1-7.73-2.26,15.65,15.65,0,0,0-6.81-1.21,55,55,0,0,0-11.06,2.4l-6.88,2.16-1.79.53C99.27,558.15,99.07,558.19,99.05,558.17Z"/><path class="cls-9" d="M212.39,508.2a6.31,6.31,0,0,1-1.15.72,24.26,24.26,0,0,1-3.55,1.62,29,29,0,0,1-18.91.38c-1.59-.5-3.18-1.23-4.8-1.91a9,9,0,0,0-10.19,1.13c-1.61,1.13-3.16,2.48-5,3.61a11.81,11.81,0,0,1-3,1.33,7.75,7.75,0,0,1-1.67.26,7,7,0,0,1-1.71,0c-4.62-.58-8.3-3.63-12.29-5.67a11.2,11.2,0,0,0-6.21-1.59l-.77.1c-.24.06-.48.16-.73.24A5.35,5.35,0,0,0,141,509a12.79,12.79,0,0,0-2.36,2.07,39.32,39.32,0,0,1-4.44,4.7,6.64,6.64,0,0,1-3,1.4,5.33,5.33,0,0,1-3.23-.49,11.92,11.92,0,0,1-4.28-4.24,41.19,41.19,0,0,0-3.2-4.37,11.11,11.11,0,0,0-8.58-3.41,12.69,12.69,0,0,0-7.24,2.92,17.6,17.6,0,0,0-4.2,4.34,9.46,9.46,0,0,0-1.63,4.84,4,4,0,0,1-.06-1.37,9,9,0,0,1,1.33-3.69,17.51,17.51,0,0,1,4.18-4.58,13.3,13.3,0,0,1,7.56-3.19,11.89,11.89,0,0,1,9.26,3.57,41,41,0,0,1,3.33,4.46,11.4,11.4,0,0,0,3.91,3.9,4.91,4.91,0,0,0,5.23-.83,44,44,0,0,0,4.29-4.62,12.93,12.93,0,0,1,2.57-2.24,6.57,6.57,0,0,1,1.61-.75,7,7,0,0,1,.85-.28l.89-.12a12.15,12.15,0,0,1,6.81,1.69c4.12,2.12,7.77,5.07,11.93,5.57a8.81,8.81,0,0,0,5.77-1.37c1.73-1.05,3.28-2.38,5-3.53a11.51,11.51,0,0,1,5.55-2.3,11.66,11.66,0,0,1,5.54,1.17c1.66.7,3.19,1.43,4.73,2a31.89,31.89,0,0,0,4.53,1.13,30,30,0,0,0,14-1.11C210.73,509.13,212.33,508.1,212.39,508.2Z"/><path class="cls-9" d="M101,612.07a2.64,2.64,0,0,1,.6.16c.22.06.47.15.73.25s.64.1,1,.16a12.73,12.73,0,0,0,6.76-1.64c2.8-1.23,6-3.53,10.35-4.56a11.24,11.24,0,0,1,3.49-.16,11.46,11.46,0,0,1,3.53,1.17A53.21,53.21,0,0,1,134,612c2.18,1.59,4.8,3,7.75,2.75s5.69-1.8,8.67-3.13a21,21,0,0,1,4.8-1.6,14.72,14.72,0,0,1,5.25.11c3.49.64,6.78,2.13,10.25,3.08a21.49,21.49,0,0,0,10.87.16,76.64,76.64,0,0,0,11-3.65,51.18,51.18,0,0,1,11.74-3.39,22.19,22.19,0,0,1,12.44,2c3.92,1.7,7.49,3.89,11.26,5.41a17.59,17.59,0,0,0,11.52,1.07c7.54-2.16,13-8.28,20.19-10.64a16.73,16.73,0,0,1,10.78-.06,37.62,37.62,0,0,1,9,4.68c2.73,1.8,5.29,3.62,7.89,5.09a28.88,28.88,0,0,0,7.91,3.16,29.54,29.54,0,0,0,14.59-.6,30.86,30.86,0,0,0,9.88-5.06c4.86-3.84,6.29-7.15,6.46-7a2,2,0,0,1-.31.54c-.26.4-.58.93-1,1.57a26.65,26.65,0,0,1-4.92,5.19,30.31,30.31,0,0,1-24.87,6.09,28.74,28.74,0,0,1-8.15-3.19c-2.66-1.49-5.25-3.28-8-5.06A36.31,36.31,0,0,0,270.3,605a15.59,15.59,0,0,0-10.18.1c-3.39,1.13-6.52,3.23-9.73,5.31s-6.55,4.3-10.51,5.4a18.5,18.5,0,0,1-12.18-1.09c-3.88-1.55-7.45-3.75-11.28-5.4a21.25,21.25,0,0,0-11.9-1.9A49.56,49.56,0,0,0,193,610.74a76.72,76.72,0,0,1-11.2,3.67,22.39,22.39,0,0,1-11.33-.2c-3.58-1-6.84-2.48-10.17-3.13a14.08,14.08,0,0,0-4.92-.14,20,20,0,0,0-4.6,1.49c-2.93,1.3-5.79,2.91-9,3.15s-6-1.31-8.23-2.94a53.15,53.15,0,0,0-6.36-4.56,10.24,10.24,0,0,0-3.31-1.13,10.55,10.55,0,0,0-3.28.12c-4.24.93-7.43,3.15-10.29,4.36a12.56,12.56,0,0,1-6.94,1.47c-.41-.08-.77-.12-1.07-.2s-.53-.2-.73-.3C101.21,612.17,101,612.09,101,612.07Z"/><path class="cls-9" d="M106,265.21c.06,0,.59.72,2,1.81a16.51,16.51,0,0,0,6.94,3,40.16,40.16,0,0,0,12.08.24c2.36-.18,4.9-.42,7.63-.38a23.63,23.63,0,0,1,8.47,1.51,79.73,79.73,0,0,1,8.35,4.38,28.48,28.48,0,0,0,4.5,2,18.67,18.67,0,0,0,5,.82,49.35,49.35,0,0,0,10.72-1.23c3.67-.66,7.58-1.35,11.62-.88s7.8,2.54,11.31,4.68,7.14,4.43,11.3,5a17.41,17.41,0,0,0,6.25-.42,39.79,39.79,0,0,0,6.1-2.28c4-1.82,8-4.16,12.5-5.33a17.75,17.75,0,0,1,7-.42,19.59,19.59,0,0,1,6.44,2.4c3.93,2.22,7.3,5.1,11.14,6.88a20.76,20.76,0,0,0,12.1,1.49,77.56,77.56,0,0,0,11.68-3,67.09,67.09,0,0,1,11.3-2.74,30.81,30.81,0,0,1,11,.69c6.94,1.65,12.85,4.66,18.4,6.79a31,31,0,0,0,15.61,2.49A37.39,37.39,0,0,0,347,289.8a22.79,22.79,0,0,0,8.28-6.05,14,14,0,0,1-1.72,2.08,21.68,21.68,0,0,1-6.37,4.35,36.31,36.31,0,0,1-11.81,3.15,34,34,0,0,1-7.66-.06,32,32,0,0,1-8.27-2.3c-5.61-2.12-11.52-5.06-18.32-6.64a29.89,29.89,0,0,0-10.67-.62,66,66,0,0,0-11.14,2.74,77.18,77.18,0,0,1-11.82,3.09A21.74,21.74,0,0,1,254.85,288c-4-1.85-7.4-4.74-11.21-6.9a19.31,19.31,0,0,0-6.1-2.28,16.6,16.6,0,0,0-6.53.41c-4.34,1.11-8.27,3.41-12.33,5.26a38.49,38.49,0,0,1-6.27,2.34,18.47,18.47,0,0,1-6.66.45c-4.46-.65-8.19-3.07-11.68-5.19s-7.06-4.13-10.92-4.58c-7.76-.84-15,2.36-22.25,2a19.94,19.94,0,0,1-5.2-.89,28.07,28.07,0,0,1-4.62-2.07,82.47,82.47,0,0,0-8.23-4.4c-5.53-2.2-11.12-1.51-15.8-1.23a40,40,0,0,1-12.2-.43,16.08,16.08,0,0,1-7-3.26A10.12,10.12,0,0,1,106,265.21Z"/><g class="cls-7"><path class="cls-8" d="M257.33,288.41l28.49,19.71c-9.06,22.45-.67,53.62,7.18,79.12,3.05,9.92,13.15,20.25,12.67,30.62s8.19,28-1.86,30.62c-6.66,1.74-13.9-.52-19.42-4.62s-9.63-9.82-13.26-15.67C251.12,395.83,241.78,333.94,257.33,288.41Z"/></g><path class="cls-4" d="M107.38,594.9a4.05,4.05,0,0,1,1.09.13c.83.14,1.84.34,3.07.56,2.8.55,6.62,1.25,11.26,2.14,9.5,1.77,22.67,4.07,37.28,6.11s27.9,3.43,37.54,4.32l11.42,1,3.1.3a3.62,3.62,0,0,1,1.07.18,4.6,4.6,0,0,1-1.09,0l-3.1-.1c-2.71-.1-6.62-.34-11.44-.68-9.66-.69-23-2-37.63-4s-27.79-4.46-37.28-6.42c-4.74-1-8.57-1.83-11.19-2.48l-3-.74A4.38,4.38,0,0,1,107.38,594.9Z"/><path class="cls-4" d="M151.72,589.64a8.5,8.5,0,0,1,1.68.36c1.09.24,2.66.77,4.76,1.15a101.22,101.22,0,0,0,44.26-.14,95.56,95.56,0,0,0,54.25-33.87,101.58,101.58,0,0,0,19.59-39.7c.56-2.06.78-3.69,1-4.78s.39-1.68.41-1.66a10.74,10.74,0,0,1-.2,1.7c-.21,1.11-.37,2.76-.87,4.84a91.4,91.4,0,0,1-5.49,17.21,96.41,96.41,0,0,1-68.53,57.19,98.69,98.69,0,0,1-26.69,2.24,90.92,90.92,0,0,1-17.87-2.64c-2.08-.47-3.65-1-4.72-1.36A7.56,7.56,0,0,1,151.72,589.64Z"/><path class="cls-4" d="M169.6,235a8.07,8.07,0,0,1,0,1.45c0,1.05,0,2.44,0,4.16a60.25,60.25,0,0,0,1.53,15.11,27.73,27.73,0,0,0,4.36,9.4,26.69,26.69,0,0,0,9,7.66A45.68,45.68,0,0,0,197,277.27a58.89,58.89,0,0,0,14.19,1.37,52,52,0,0,0,26.2-7.4,41.39,41.39,0,0,0,15-16.32,36.69,36.69,0,0,0,3.93-14.57c.13-3.59-.24-5.58-.12-5.58a7.87,7.87,0,0,1,.27,1.43,29.5,29.5,0,0,1,.26,4.18,35.67,35.67,0,0,1-3.67,14.86,41.66,41.66,0,0,1-15.19,16.83,52.07,52.07,0,0,1-26.69,7.62,59.37,59.37,0,0,1-14.43-1.41,45.87,45.87,0,0,1-12.69-4.62A26.44,26.44,0,0,1,170.45,256a57.31,57.31,0,0,1-1.24-15.31c.06-1.82.17-3.21.23-4.16A6.45,6.45,0,0,1,169.6,235Z"/><path class="cls-2" d="M157.27,238.54s-49.08,1.86-60.74,50.88C83,346.18,91.18,408.78,108.15,440.13l.81-55.84a256.22,256.22,0,0,1,27.29-111.5Z"/><path class="cls-4" d="M99.58,399.67a8.88,8.88,0,0,1-.13-1.72c0-1.21-.08-2.84-.16-4.9s-.12-4.74,0-7.77.06-6.47.35-10.29c.12-1.91.24-3.89.36-6s.4-4.23.6-6.45c.39-4.48,1.11-9.22,1.8-14.23a295.35,295.35,0,0,1,7-32.07,298.35,298.35,0,0,1,10.81-31c2-4.62,3.88-9.06,5.89-13.05,1-2,1.88-4,2.87-5.83s1.91-3.59,2.82-5.29c1.74-3.39,3.57-6.33,5.09-8.95s2.9-4.85,4.09-6.62l2.7-4.1a10,10,0,0,1,1-1.39,9.58,9.58,0,0,1-.82,1.51l-2.53,4.2c-1.13,1.82-2.48,4-3.93,6.7s-3.25,5.59-4.94,9c-.87,1.69-1.8,3.47-2.75,5.3s-1.81,3.84-2.8,5.85c-2,4-3.79,8.43-5.79,13.05a282.62,282.62,0,0,0-17.73,62.87c-.73,5-1.47,9.7-1.9,14.16-.22,2.22-.5,4.37-.66,6.43s-.29,4.06-.43,5.95c-.34,3.8-.36,7.25-.5,10.27s-.16,5.63-.14,7.77,0,3.69,0,4.9A11.17,11.17,0,0,1,99.58,399.67Z"/><path class="cls-4" d="M122,251a7.53,7.53,0,0,1-.59,1.31c-.48.93-1.09,2.16-1.87,3.67-1.68,3.15-3.94,7.81-6.58,13.62-1.27,2.92-2.74,6.11-4,9.62-.67,1.75-1.44,3.55-2.1,5.42s-1.33,3.84-2,5.84a228.87,228.87,0,0,0-7.1,26.48,253.79,253.79,0,0,0-4.54,49.61c0,6.39.16,11.56.34,15.13.06,1.69.1,3.07.15,4.12a5.79,5.79,0,0,1,0,1.43,6.81,6.81,0,0,1-.18-1.43c-.08-1.05-.2-2.4-.34-4.12-.3-3.57-.54-8.75-.69-15.15a238.68,238.68,0,0,1,4.26-49.83,217.66,217.66,0,0,1,7.22-26.61c.71-2,1.42-3.93,2.08-5.83s1.47-3.67,2.16-5.42c1.35-3.51,2.88-6.68,4.2-9.61,2.74-5.79,5.1-10.41,6.89-13.51.85-1.48,1.54-2.67,2-3.59A9,9,0,0,1,122,251Z"/><path class="cls-2" d="M315.86,257.44s-33,89.75-8.68,165.48l1.33,26.78s-18.58-1.28-32.66-27.84-18.62-54-23.38-93.49,16.89-89.83,16.89-89.83S307.77,247,315.86,257.44Z"/><path class="cls-4" d="M309.38,447.52a2.25,2.25,0,0,1-.48-.22c-.37-.21-.81-.47-1.38-.77a28.26,28.26,0,0,1-4.72-3.75c-3.79-3.66-7.88-10.35-10.45-19.39a115.8,115.8,0,0,1-3.22-15c-.95-5.41-1.72-11.24-2.4-17.39A312.09,312.09,0,0,1,285,350.89a304.14,304.14,0,0,1,3.49-40.05,245.21,245.21,0,0,1,6.86-32.1,98.59,98.59,0,0,1,8.45-20.45c1.31-2.28,2.42-4,3.21-5.11.38-.52.69-.92.93-1.27s.32-.42.34-.4-.08.16-.26.47-.49.78-.83,1.33c-.72,1.15-1.79,2.88-3,5.18A101.46,101.46,0,0,0,296.07,279a253.36,253.36,0,0,0-6.62,32,317.2,317.2,0,0,0-3.39,39.93,324.21,324.21,0,0,0,1.63,40c.67,6.13,1.4,11.94,2.3,17.35a119,119,0,0,0,3.09,14.89c2.46,9,6.38,15.61,10,19.3A36.93,36.93,0,0,0,309.38,447.52Z"/><path class="cls-4" d="M308.15,446.59a2.21,2.21,0,0,1-.55-.18l-1.55-.65a33.85,33.85,0,0,1-5.55-3.37c-4.56-3.35-10-9.6-15-18.37a196,196,0,0,1-14.44-32.22,204,204,0,0,1-9.52-42.14,207.53,207.53,0,0,1-.53-43.22,199.85,199.85,0,0,1,6.38-34.71c1.43-4.83,2.64-9.22,4.11-12.94s2.49-7,3.7-9.54,2-4.5,2.62-5.91c.28-.63.52-1.13.7-1.53a2.08,2.08,0,0,1,.29-.51,1.86,1.86,0,0,1-.18.55c-.17.4-.37.92-.61,1.57-.58,1.43-1.41,3.43-2.44,6s-2.18,5.83-3.51,9.59-2.56,8.1-3.95,12.93A202,202,0,0,0,262,306.5a212.63,212.63,0,0,0,.61,43,206.26,206.26,0,0,0,9.4,41.94c4.09,12.61,9.5,23.33,14.16,32.16,4.84,8.76,10.19,15,14.63,18.42a39.54,39.54,0,0,0,5.38,3.51c.63.3,1.11.54,1.52.75Z"/><path class="cls-4" d="M292.52,291.41,313.9,297l-3.11,7.49-20.11-4Z"/><path class="cls-5" d="M293,298.58c-.12-.13,1.07-1.52,3-3.6l.36-.38.28.47c.83,1.29,1.7,2.64,2.58,4.05l-.68-.18c.76-.45,1.55-.89,2.36-1.35l2.44-1.36.44-.24.24.45,2.32,4.25-.54-.16c2.5-1.27,4.14-2,4.2-1.85s-1.4,1.13-3.82,2.56l-.34.2-.22-.36c-.79-1.34-1.62-2.71-2.5-4.16l.68.2-2.42,1.37c-.83.47-1.61.89-2.38,1.34l-.44.24-.24-.43-2.43-4.15.65.08C294.49,297.51,293.1,298.7,293,298.58Z"/><path class="cls-10" d="M37.75,482.32l115.67,4.76-37.75-90.32L0,392Z"/><path class="cls-11" d="M43.14,475.87,106,478.45l-.33-.79-62.85-2.58Z"/><path class="cls-11" d="M41.39,471.2l62.85,2.58-.33-.79-62.85-2.58Z"/><path class="cls-11" d="M104.38,420.93l15.3.63-.44-1.06-15.3-.62Z"/><path class="cls-11" d="M105.5,423.61l15.3.62-.44-1.05-15.3-.63Z"/><path class="cls-11" d="M106.56,426.25l15.3.63-.44-1.05-15.3-.63Z"/><path class="cls-11" d="M107.68,428.93l15.3.62-.44-1.05-15.3-.63Z"/><path class="cls-11" d="M108.56,431.59l15.3.63-.44-1.06-15.3-.63Z"/><path class="cls-11" d="M109.68,434.26l15.3.63-.44-1.05-15.3-.63Z"/><path class="cls-11" d="M35.25,454.6,77,456.32l-1.27-3.05L34,451.56Z"/><path class="cls-11" d="M38.16,461l47.44,2-1.27-3.05-47.44-1.95Z"/><path class="cls-11" d="M65.46,396.9l3.18,7.72-1.81-.18-3.19-7.72Z"/><path class="cls-11" d="M70.36,396.89l3.19,7.72-1.82-.17-3.18-7.72Z"/><path class="cls-11" d="M74.35,397.21l3.19,7.72-1.82-.17L72.54,397Z"/><path class="cls-12" d="M12.5,412.72l13.32-.48L17.5,395.57l-13.32.48Z"/><path class="cls-12" d="M103.81,408.47l13.52,1-3.82-10-13.52-1Z"/><path class="cls-13" d="M60.23,425.32c-1.78.35-10.82-2-18.66-4.35-3.55-1.08-6.72-.49-8.11,1.66l.39-.06a23.42,23.42,0,0,1,10,.91l9.88,2.93c5.32,1.58,10.2,1.15,13.38-1.18l.49-.36c3.95-2.89,10.61-2.57,17.13.82a22.75,22.75,0,0,0,10.58,2.79l1,0-1.47-.3A25.59,25.59,0,0,1,85,423.54c-8-6-17.28-6.48-21.24-1.49C62.3,423.84,61,425.16,60.23,425.32Z"/><path class="cls-14" d="M66.24,441.33c-1.51.3-7.06-.38-13.08-1.73-5.55-1.24-10.93-1.41-14.91.37l4.89-.15a24.22,24.22,0,0,1,6.19.67l11.1,2.61c5,1.17,9.52.77,12.83-1.11,4.26-2.43,10.53-2.35,17,.22l.72.28a27.26,27.26,0,0,0,10,2.06l5.43,0-6.42-.85a17.66,17.66,0,0,1-8.35-3.74c-5.66-4.48-12.95-5.35-17-2.82A38.76,38.76,0,0,1,66.24,441.33Z"/><path class="cls-12" d="M59.33,433.68c-1.35.27-3.79.06-7.34-.77-5.23-1.22-10.05-.66-12.42,2.31l2.88-.55a19.84,19.84,0,0,1,5.16-.24l12.83,1c3.85.31,7.15-.58,9.4-2.52l.21-.19a8.63,8.63,0,0,1,5.38-1.88,22.29,22.29,0,0,1,10.83,2.81l9.59,5.07a33.69,33.69,0,0,0,4.23,1.9l3.34,1.24-6-3.5-7.08-4.26c-10.47-6.29-21.6-6.2-28.38-1.77A9.09,9.09,0,0,1,59.33,433.68Z"/><path class="cls-15" d="M299.72,474.13a4.78,4.78,0,0,1,1.63.18,31.79,31.79,0,0,1,4.34,1.11A49.67,49.67,0,0,1,329.63,492a36.67,36.67,0,0,1,2.55,3.67,4.86,4.86,0,0,1,.74,1.47c-.14.11-1.43-1.83-3.87-4.66a58.78,58.78,0,0,0-10.75-9.7,57.93,57.93,0,0,0-12.85-6.68C301.94,474.81,299.68,474.29,299.72,474.13Z"/><path class="cls-16" d="M387.35,443.3v75.07a45.6,45.6,0,0,1-62.82,42.24L159.27,487.36l16.18-55.12,132.94,43.82-.16-34.17Z"/><path class="cls-16" d="M181.94,438.16l-11.19-13.9a38.85,38.85,0,0,0-30.26-14.47H121l3,7.51s-47.9,2.08-49.65,8l0,1.91,0,1.11,41,2.77s-34.84-.11-36.94,0c-2.3.08-9.72-.59-9.56,3.51.12,3.36,4.1,6,10.13,6.89,2.48.37,32.66,3,32.66,3s-31.69-.3-33.23-.3c-3.73,0-3.25,5.95-1,6.7,1.76.58,44.3,13,44.3,13s-7.16,4.8-13,4.37-15.85-7.92-17.93-4.37-1.68,5.62-.42,6.47,15,7.93,19.6,9.18,42.07,7.18,42.07,7.18l13.51,2.18Z"/><path class="cls-16" d="M17.5,433.5s-3-1.84-5-1.5c-2.95.5-3.4,3.89-3.4,3.89a8.74,8.74,0,0,0,3,8.53s-5.25,1.31-2,10.17c0,0-3.61,9.18,6.23,13.11,0,0-2.62,7.55,6.88,11.16s18.68-2.62,18.68-2.62Z"/><path class="cls-16" d="M12.71,435.16c6.74,1.82,14.12,3.27,20.36,5.63,2,.79,4.07.83,5.42,2.54s1.68,4.46.12,6c-1.37,1.36-3.55,1.34-5.46,1.11-7.18-.86-14.06-3.32-20.86-5.79"/><path class="cls-16" d="M15.41,446.4c6.74,1.81,14.13,3.27,20.36,5.63,2.06.78,4.07.83,5.43,2.54s1.67,4.46.12,6c-1.37,1.35-3.55,1.33-5.47,1.11-7.18-.87-14.06-3.33-20.86-5.79"/><path class="cls-16" d="M19.23,458c6.74,1.81,14.12,3.27,20.35,5.63,2.06.78,4.08.82,5.43,2.54s1.67,4.46.12,6c-1.37,1.35-3.55,1.33-5.47,1.11-7.18-.87-14.06-3.33-20.86-5.79"/><path class="cls-15" d="M12.69,444.89c.12-.29,4.86,1.37,10.83,3s10.9,2.7,10.84,3-5.09-.31-11.12-2S12.59,445.13,12.69,444.89Z"/><path class="cls-15" d="M11.44,454.79c.1-.28,5.55,1.51,12.33,3.49S36.09,461.69,36,462s-5.73-.68-12.55-2.7S11.34,455.05,11.44,454.79Z"/><path class="cls-15" d="M15.86,467.54c.06-.28,5.24.77,11.56,2.34S38.8,473,38.74,473.25s-5.25-.77-11.56-2.34S15.78,467.82,15.86,467.54Z"/><path class="cls-15" d="M10,434c.09-.28,5.36,1.7,12,3.59s12.07,3,12,3.32c0,.14-1.41,0-3.65-.34a81.11,81.11,0,0,1-17-4.9A13.62,13.62,0,0,1,10,434Z"/><path class="cls-15" d="M111,418.61c0-.28,7.52-.56,16.8-.6s16.81.14,16.81.44-7.53.56-16.81.6S111,418.91,111,418.61Z"/><path class="cls-16" d="M209.56,275.27a40.43,40.43,0,0,1-37.18-42.34c.77-15.33,1.55-29.15,1.55-29.15s-32.86-5.1-33.26-38S146,57.5,146,57.5A114.2,114.2,0,0,1,260.7,71.93l4.86,3.75L253.12,238.05A40.47,40.47,0,0,1,209.56,275.27Z"/><path class="cls-15" d="M173.87,203.3s20.76,1.69,42.83-12.17c0,0-10.12,23.64-42.91,20.7Z"/><path d="M154.06,109a4.69,4.69,0,0,0,4.52,4.73,4.48,4.48,0,0,0,4.84-4.23,4.69,4.69,0,0,0-4.51-4.74A4.5,4.5,0,0,0,154.06,109Z"/><path d="M152.17,103.72c.58.6,4.13-2,9.18-2s8.75,2.54,9.3,1.92c.26-.28-.33-1.37-1.94-2.56a13,13,0,0,0-7.44-2.3,12.33,12.33,0,0,0-7.31,2.36C152.41,102.33,151.89,103.44,152.17,103.72Z"/><path d="M201.67,110.18a4.71,4.71,0,0,0,4.52,4.74,4.5,4.5,0,0,0,4.84-4.24,4.69,4.69,0,0,0-4.51-4.74A4.49,4.49,0,0,0,201.67,110.18Z"/><path d="M201.8,104.67c.58.6,4.13-2,9.17-2s8.76,2.54,9.3,1.92c.27-.29-.32-1.38-1.93-2.56a13,13,0,0,0-7.45-2.31,12.41,12.41,0,0,0-7.32,2.37C202,103.28,201.51,104.39,201.8,104.67Z"/><path d="M183.48,142.11c0-.28-3.11-.83-8.21-1.47-1.29-.14-2.5-.39-2.73-1.27s.25-2.32.87-3.82l3.81-9.82c5.29-14,9.14-25.48,8.58-25.68s-5.31,11-10.61,24.93c-1.28,3.45-2.51,6.74-3.66,9.89-.48,1.47-1.33,3.12-.66,5.06a3.18,3.18,0,0,0,2.12,1.88,9.37,9.37,0,0,0,2.2.3C180.29,142.37,183.46,142.39,183.48,142.11Z"/><path d="M198.34,145.6c-.82,0-.82,5.43-5.52,9.32s-10.53,3.29-10.57,4.06c-.08.34,1.31,1.06,3.77,1.12a13.59,13.59,0,0,0,8.81-3.06,11.81,11.81,0,0,0,4.28-7.83C199.31,146.93,198.71,145.56,198.34,145.6Z"/><path d="M200.5,84.88c.51,1.37,5.55.72,11.46,1.43s10.71,2.32,11.5,1.09c.34-.59-.48-1.88-2.42-3.21a19.2,19.2,0,0,0-8.53-3,19.5,19.5,0,0,0-9,1C201.37,83.14,200.28,84.21,200.5,84.88Z"/><path d="M154,89.09c.89,1.15,4.36,0,8.56-.1s7.72.77,8.53-.42c.36-.59-.2-1.74-1.75-2.83a12.43,12.43,0,0,0-13.78.43C154.12,87.36,153.62,88.55,154,89.09Z"/><path class="cls-16" d="M261.53,109.69c.56-.24,22.57-6.68,21.87,15.8s-23.12,17.1-23.14,16.46S261.53,109.69,261.53,109.69Z"/><path class="cls-15" d="M267.38,133.66c.1-.06.38.28,1,.6a3.89,3.89,0,0,0,2.92.16c2.4-.78,4.52-4.49,4.76-8.55a13.14,13.14,0,0,0-.9-5.63c-.63-1.67-1.66-2.84-2.85-3.1a2,2,0,0,0-2.34,1c-.32.63-.2,1.07-.32,1.11s-.47-.38-.26-1.31a2.39,2.39,0,0,1,.92-1.37,2.9,2.9,0,0,1,2.18-.5c1.74.18,3.23,1.81,4,3.61a13.46,13.46,0,0,1,1.15,6.31c-.29,4.52-2.75,8.67-6,9.52a4.19,4.19,0,0,1-3.56-.7C267.4,134.2,267.3,133.7,267.38,133.66Z"/><path d="M133.37,29.1a34.74,34.74,0,0,1,54-10.37,34,34,0,0,1,55.9-7.24c6.3,7.14,9.56,16.82,17,22.83,6.39,5.21,15.05,6.92,21.46,12.09a25.35,25.35,0,0,1,8.78,24.33,25.39,25.39,0,0,1-17.63,18.92c7,12.71.44,30.94-13.12,36.19l-3.27-1.35c-12.42-13.64-15.27-35.18-6.79-51.59a11,11,0,0,1-1.17-.06,26.53,26.53,0,0,1-14.23,3.25,26.85,26.85,0,0,1-20-11.07,29.14,29.14,0,0,1-31.31,1.31c-1.49-.91-3-2-4.72-2.14-2.06-.22-4,.85-5.89,1.75-4.92,2.43-10.47,4-15.9,3.21-5.06-.72-9.94-3.89-11.94-8.55l-.36,0C137.78,59.42,132.7,54,131,47.82S130.46,34.85,133.37,29.1Z"/></g></g></svg>