<svg xmlns="http://www.w3.org/2000/svg" viewBox="0 0 553.79 122.7"><defs><style>.cls-1{fill:#041b54;}.cls-2{fill:#ff0029;}</style></defs><g id="Layer_2" data-name="Layer 2"><g id="Layer_1-2" data-name="Layer 1"><path class="cls-1" d="M291.25,69.27a32.38,32.38,0,0,0-2.91-13.86L277.42,67.72a21.73,21.73,0,0,1,.21,2.81,21.1,21.1,0,1,1-9.85-17.79L277,42.34h0c-5.6-4.08-11.76-6.16-20.06-6.16a34.54,34.54,0,0,0-22.22,7.61c-9.09,7-12.82,18-12.82,24.75,0,1.68.1,3.3.25,4.88v0a26.86,26.86,0,0,0,2.44,10.34c.22.53.46,1,.71,1.57,6.46,13.65,21.19,27.88,27.88,35.72a4.33,4.33,0,0,0,6.78,0c8.68-10.18,31-31.18,31-47.63,0-.12,0-.23,0-.34A30.51,30.51,0,0,0,291.25,69.27Z"/><path class="cls-1" d="M14.61,102.53a2,2,0,0,1-1.79.3l-2.08-.74c-.6-.15-.75-.45-.6-1.2.45-2.08.45-14.46.45-25.64V32c0-10-1.94-14.88-6.56-16.22l-2.09-.6C.3,14.76,0,14.46,0,14V12.23c0-.45.3-1.05,1.64-1.5A171,171,0,0,0,24.3,2.24C26.84.9,28,0,29.52,0s1.79,1,1.79,2.54c0,1.19-1,15.09-1.19,29.7L29.82,43c5.37-5.37,12.53-7.16,20-7.16,9.69,0,17.3,6.41,21.17,12.68,2.54,4,4.33,9.54,4.33,19.23,0,15.66-14.91,34.89-34.15,34.89-9.84,0-15.5-1.79-20.42-3.87ZM30,68.84c0,12.37-.15,17.89,1.79,21.76S36.38,97,40.41,97c4.32,0,9.54-1.5,12.37-7.76,3.13-6.86,2.39-10.58,2.39-16.55,0-19.68-8.2-26.24-16-26.24A18,18,0,0,0,30,49.3Z"/><path class="cls-1" d="M111.44,53c0-3-.3-6.41-2.24-8.2-1.49-1.34-3.87-1.79-6.26-1.79A13.55,13.55,0,0,0,95,45.43c-2.24,1.49-.45,4-.45,8.79,0,5.07-3.73,8.5-9.69,8.5-3.43,0-6.41-2.08-6.41-5.36s1-7.76,4.17-10.44a43.61,43.61,0,0,1,28.63-11c9.54,0,12.08,1.5,15.21,4.33,3.28,3,4.17,7.3,4.17,12.67l.3,29.67c.15,7.76.6,10.14,3.43,10.14A5.44,5.44,0,0,0,138.73,90c.59-.9,1-1.05,1.49-.75l2.08,1.2c.6.29,1,.74.45,2.08-1.34,3.14-5.81,10.14-15.06,10.14-5.81,0-11.33-2.09-14.16-9.09h-.75A34.71,34.71,0,0,1,100,101.34c-3,1-6.41,1.34-10.74,1.34C84,102.68,79.38,97,79.38,89c0-6.56,3.13-13.41,12.82-18.19,11.63-5.51,15.36-7.15,19.24-9.84Zm.15,13.87c-7.31,4.17-13.42,6.41-13.42,16.7,0,6.86,3.13,9.69,6.41,9.84,4-.3,7-4,7-5.37Z"/><path class="cls-1" d="M173.22,70.77c0,6,0,15.66.45,20,.15,2.54.6,4.63,3.73,4.63h5.07c1.34,0,1.64.44,1.64,1.34v2.83c0,.9-.3,1.49-.9,1.49-1,0-7.6-.45-19.38-.45-12.53,0-18.49.45-19.83.45-.75,0-1.05-.59-1.05-1.79V96.72c0-1,.3-1.34,1.94-1.34h4.48c1.64,0,4-1,4-6.42V41.55c0-10.59,0-10.27-.3-14.15-.29-5.07-3.43-7.16-8.2-8.65l-2.68-.89c-1.05-.45-1.19-.9-1.19-1.64V14c0-.44.29-1,1.34-1.19,6.71-1.34,22.21-6.41,26.54-8.65a8.64,8.64,0,0,1,3.28-1c.89,0,1.49.74,1.34,2.68-.15,8.2-.3,26.82-.3,37.11Z"/><path class="cls-1" d="M212.73,70.77c0,6,0,15.66.45,20,.15,2.54.6,4.63,3.73,4.63H222c1.34,0,1.64.44,1.64,1.34v2.83c0,.9-.3,1.49-.9,1.49-1,0-7.6-.45-19.38-.45-12.53,0-18.49.45-19.83.45-.75,0-1-.59-1-1.79V96.72c0-1,.3-1.34,1.94-1.34h4.48c1.64,0,4-1,4-6.42V41.55c0-10.59,0-10.27-.3-14.15-.3-5.07-3.43-7.16-8.2-8.65l-2.68-.89c-1.05-.45-1.19-.9-1.19-1.64V14c0-.44.29-1,1.34-1.19,6.71-1.34,22.21-6.41,26.54-8.65a8.64,8.64,0,0,1,3.28-1c.89,0,1.49.74,1.34,2.68-.15,8.2-.3,26.82-.3,37.11Z"/><path class="cls-1" d="M317.16,78.83c0,12.22,4.62,14.91,8.2,14.91A14.56,14.56,0,0,0,333.11,92c.45-.3.9-.3,1.34.59l1.05,2.24a1.48,1.48,0,0,1-.6,1.94c-2.53,1.79-9.25,6-20.88,6-10.13,0-16.55-7-16.55-13.86,0-5.22.3-35.33.3-41l.15-7.29h-8.2c-1.34,0-2.39-.59-2.39-2.09s.9-2.53,3.28-3.72c16.15-13.5,17.24-18.35,22.76-24.62a3.78,3.78,0,0,1,2.83-1.49c1.35,0,1.94,1.05,1.94,2.24l-.39,20.74h18.94c.89,0,1.34.74,1,1.34l-1.49,6.41a1.31,1.31,0,0,1-1.34,1.19H317.46c-.3,6.12-.3,19.66-.3,26.52Z"/><path class="cls-2" d="M366.22,44.09h1.19a25,25,0,0,1,7.16-5.37,22.16,22.16,0,0,1,11.48-2.84c5.81,0,11.48.6,15.36,4.18,6.26,5.81,6.71,9.54,6.71,17v15.8c0,5.07-.3,12.08-.6,17.3-.15,4.47,2.24,5.22,3.58,5.22h4c1.34,0,1.64.44,1.64,1.34V99.4c0,1-.3,1.64-1.2,1.64s-5.66-.45-17.59-.45c-9.84,0-14.61.45-15.66.45-.89,0-1.19-.45-1.19-1.64V96.72c0-1,.45-1.34,1.94-1.34h1.64c1,0,2.38-.75,2.68-3.43a102.32,102.32,0,0,0,.9-15.51V60.49c0-5.67-.45-9.55-3.58-12.38a9.58,9.58,0,0,0-7.31-2.68c-2.68,0-4.62.74-7.6,3-1.79,1.34-3,5.37-3,11.48l-.3,30.57c0,2.68,1,4.92,2.38,4.92h1.94c1.19,0,1.49.44,1.49,1.49V99.7c0,.89-.3,1.34-1,1.34-1.05,0-5.07-.45-14.91-.45-10.59,0-15.36.45-16.25.45s-1.05-.45-1.05-1.34v-3c0-.9.3-1.34,1.49-1.34h2.24c1.64,0,4.18-.45,4.18-3V59.29c0-4.47-2.54-7-6-8.64l-1.34-.6a1.63,1.63,0,0,1-1-1.64V47.07c0-.75.59-1.2,1.34-1.5l19.08-8.64a10.11,10.11,0,0,1,3.43-1,2.36,2.36,0,0,1,2.09,1.79Z"/><path class="cls-2" d="M452.55,53c0-3-.3-6.41-2.24-8.2-1.49-1.34-3.88-1.79-6.26-1.79a13.55,13.55,0,0,0-7.9,2.39c-2.24,1.49-.45,4-.45,8.79,0,5.07-3.73,8.5-9.69,8.5-3.43,0-6.41-2.08-6.41-5.36s1-7.76,4.17-10.44a43.61,43.61,0,0,1,28.63-11c9.54,0,12.08,1.5,15.21,4.33s4.17,7.3,4.17,12.67l.3,29.67c.15,7.76.6,10.14,3.43,10.14A5.41,5.41,0,0,0,479.83,90c.6-.9,1.05-1.05,1.5-.75l2.08,1.2c.6.29,1,.74.45,2.08-1.34,3.14-5.81,10.14-15.06,10.14-5.82,0-11.33-2.09-14.16-9.09h-.75a34.71,34.71,0,0,1-12.82,7.75c-3,1-6.41,1.34-10.74,1.34-5.22,0-9.84-5.66-9.84-13.72,0-6.56,3.13-13.41,12.82-18.19,11.63-5.51,15.36-7.15,19.24-9.84Zm.15,13.87c-7.31,4.17-13.42,6.41-13.42,16.7,0,6.86,3.13,9.69,6.41,9.84,4-.3,7-4,7-5.37Z"/><path class="cls-2" d="M475.06,38.72c0-1,.3-1.2,1.64-1.2,1.64,0,4.17.45,19.68.45,10.14,0,14-.45,15.66-.45,1.19,0,1.49.3,1.49,1.2v3c0,.89-.15,1.49-1,1.49h-1.94c-1.94,0-3.88.9-3.88,2.54,0,2.68,4.47,14.61,5.52,17.29l6.41,16.1h.89c1.19-2.53,9-21,11.93-29.22,1.34-3.73-1-6.71-3.73-6.71H525c-.45,0-.6-.74-.6-1.49v-3c0-.9.3-1.2.9-1.2,2.09,0,5.37.45,14.46.45,7.75,0,11.33-.45,12.67-.45s1.35.15,1.35,1.35V41.7c0,1,0,1.49-.75,1.49h-2.53c-2.09,0-5.07.3-6.86,2.24-2.69,3-9.25,16.25-12.68,23.41l-14.46,31c-.89,1.64-1.79,3-3.88,3-1.94,0-3-1.49-4.32-3.73-1.49-2.23-13.57-28.92-14.17-30.41s-7.6-18.19-8.64-20c-2.54-4.18-3.88-5.52-6.56-5.52h-3c-.74,0-.89-.6-.89-1.49Z"/><path class="cls-2" d="M250.49,61.14l-7.75,7.37,15.34,16.14,28.49-32.12a32.8,32.8,0,0,0-5.84-6.92c-.43-.4-.87-.75-1.3-1.13L257.81,68.85Z"/></g></g></svg>