<svg width="58" height="36" viewBox="0 0 58 36" fill="none" xmlns="http://www.w3.org/2000/svg">
<rect width="58" height="35.8072" rx="17.9036" fill="#EFF1F4"/>
<path d="M25.2863 10C24.2291 10 23.3304 10.7137 23.0396 11.6916H20.6344C20.2643 11.6916 20 11.9824 20 12.3524C20 12.7225 20.2907 13.0132 20.6608 13.0132H23.0661C23.3304 13.9912 24.2555 14.7048 25.3128 14.7048C26.3965 14.7048 27.2952 13.9912 27.5859 13.0132H37.3392C37.7093 13.0132 38 12.7225 38 12.3524C38 11.9824 37.7093 11.6916 37.3392 11.6916H27.5859C27.2687 10.7137 26.37 10 25.2863 10ZM25.3128 11.3216C25.8678 11.3216 26.3436 11.7709 26.3436 12.3524C26.3436 12.9339 25.8678 13.3833 25.3128 13.3833C24.7577 13.3833 24.2819 12.9339 24.2819 12.3524C24.2819 11.7709 24.7577 11.3216 25.3128 11.3216Z" fill="#9194A8"/>
<path d="M33.2423 15.2871C32.185 15.2871 31.2863 16.0008 30.9956 16.9787H20.6608C20.2643 16.9787 20 17.2695 20 17.6395C20 18.0096 20.2907 18.3003 20.6608 18.3003H30.9956C31.2599 19.2783 32.185 19.992 33.2423 19.992C34.326 19.992 35.2247 19.2783 35.5154 18.3003H37.3392C37.7093 18.3003 38 18.0096 38 17.6395C38 17.2695 37.7093 16.9787 37.3392 16.9787H35.5154C35.2247 16.0008 34.326 15.2871 33.2423 15.2871ZM33.2687 16.6087C33.8238 16.6087 34.2996 17.058 34.2996 17.6395C34.2996 18.221 33.8238 18.6704 33.2687 18.6704C32.7137 18.6704 32.2379 18.221 32.2379 17.6395C32.2379 17.058 32.6872 16.6087 33.2687 16.6087Z" fill="#9194A8"/>
<path d="M28.4581 21.1025C27.4009 21.1025 26.5022 21.8162 26.2115 22.7942H20.6608C20.2643 22.7942 20 23.0849 20 23.455C20 23.825 20.2907 24.1158 20.6608 24.1158H26.2379C26.5022 25.0937 27.4273 25.8074 28.4846 25.8074C29.5683 25.8074 30.467 25.0937 30.7577 24.1158H37.3392C37.7093 24.1158 38 23.825 38 23.455C38 23.0849 37.7093 22.7942 37.3392 22.7942H30.7313C30.4405 21.8162 29.5419 21.1025 28.4581 21.1025ZM28.4846 22.4241C29.0396 22.4241 29.5154 22.8735 29.5154 23.455C29.5154 24.0365 29.0396 24.4858 28.4846 24.4858C27.9295 24.4858 27.4537 24.0365 27.4537 23.455C27.4802 22.8735 27.9295 22.4241 28.4846 22.4241Z" fill="#9194A8"/>
</svg>
