<svg width="12" height="12" viewBox="0 0 12 12" fill="none" xmlns="http://www.w3.org/2000/svg">
<path fill-rule="evenodd" clip-rule="evenodd" d="M6.0013 0.166992C2.7813 0.166992 0.167969 2.78033 0.167969 6.00033C0.167969 9.22033 2.7813 11.8337 6.0013 11.8337C9.2213 11.8337 11.8346 9.22033 11.8346 6.00033C11.8346 2.78033 9.2213 0.166992 6.0013 0.166992ZM6.00134 10.667C3.42884 10.667 1.33468 8.57287 1.33468 6.00037C1.33468 3.42787 3.42884 1.3337 6.00134 1.3337C8.57384 1.3337 10.668 3.42787 10.668 6.00037C10.668 8.57287 8.57384 10.667 6.00134 10.667ZM4.83459 7.26617L8.67876 3.422L9.50126 4.25033L4.83459 8.917L2.50126 6.58367L3.32376 5.76117L4.83459 7.26617Z" fill="#9194A8"/>
</svg>
