<svg width="128" height="168" viewBox="0 0 128 168" fill="none" xmlns="http://www.w3.org/2000/svg">
<path fill-rule="evenodd" clip-rule="evenodd" d="M6.97953 136.801H3.92578V144.207H6.97953V136.801Z" fill="#E0E0E0"/>
<path fill-rule="evenodd" clip-rule="evenodd" d="M1.74714 51.8418C1.73208 51.8318 1.87966 51.6306 2.1554 51.2719C2.45523 50.8835 2.85379 50.3775 3.32596 49.7682C4.31481 48.4957 5.67243 46.7366 7.11371 44.7518C8.56001 42.7667 9.82427 40.9387 10.7244 39.6074C11.1575 38.9687 11.5212 38.4379 11.7969 38.0301C12.0526 37.6568 12.2002 37.4602 12.2149 37.4649C12.2296 37.475 12.1068 37.6912 11.8756 38.0793C11.6444 38.4673 11.3 39.0178 10.8623 39.6957C9.99158 41.052 8.74707 42.8994 7.30077 44.8845C5.85447 46.8743 4.47711 48.6187 3.45379 49.8664C2.94246 50.4858 2.52417 50.9868 2.224 51.3257C1.92885 51.6697 1.76187 51.8515 1.74714 51.8418Z" fill="#E0E0E0"/>
<path fill-rule="evenodd" clip-rule="evenodd" d="M85.5049 123.513C85.5049 124.355 84.8219 125.038 83.9782 125.038C83.1346 125.038 82.4512 124.355 82.4512 123.513C82.4512 122.67 83.1346 121.988 83.9782 121.988C84.8219 121.988 85.5049 122.67 85.5049 123.513Z" fill="#E0E0E0"/>
<path fill-rule="evenodd" clip-rule="evenodd" d="M83.9779 126.784C83.888 126.784 83.8112 126.101 83.8112 125.262C83.8112 124.418 83.888 123.734 83.9779 123.734C84.0673 123.734 84.1445 124.418 84.1445 125.262C84.1445 126.101 84.0673 126.784 83.9779 126.784Z" fill="#E0E0E0"/>
<path fill-rule="evenodd" clip-rule="evenodd" d="M0 137.584L33.6568 120.25L83.76 149.83L71.8239 160.332H29.0684L0 142.505V137.584Z" fill="#EBEBEB"/>
<path fill-rule="evenodd" clip-rule="evenodd" d="M40.1348 118.771L81.7374 143.337L86.3773 142.814V119.193L63.577 107.176L40.1348 118.771Z" fill="#EBEBEB"/>
<path fill-rule="evenodd" clip-rule="evenodd" d="M47.1152 95.1769L86.3778 117.198V88.4108L72.1721 82.3438L47.1152 95.1769Z" fill="#EBEBEB"/>
<path fill-rule="evenodd" clip-rule="evenodd" d="M5.23438 107.21L28.2936 119.814L56.2756 105.374L34.045 94.1094L5.23438 107.21Z" fill="#EBEBEB"/>
<path fill-rule="evenodd" clip-rule="evenodd" d="M39.6992 64.0329L72.4165 80.163L87.5891 72.455L87.6867 61.6434L65.5871 50.9727L39.6992 64.0329Z" fill="#EBEBEB"/>
<path fill-rule="evenodd" clip-rule="evenodd" d="M6.10742 77.9704L38.8247 94.1005L53.9973 86.3925L54.0949 75.5809L31.9903 64.9102L6.10742 77.9704Z" fill="#EBEBEB"/>
<path fill-rule="evenodd" clip-rule="evenodd" d="M10.9062 49.0923L37.54 62.2984L62.3838 49.0923L36.6425 37.4648L10.9062 49.0923Z" fill="#EBEBEB"/>
<path fill-rule="evenodd" clip-rule="evenodd" d="M61.9557 134.187C61.9508 134.197 61.7857 134.114 61.4753 133.944C61.1645 133.769 60.7032 133.511 60.1012 133.171C58.8976 132.476 57.1256 131.45 54.8396 130.123C50.2667 127.439 43.631 123.54 35.3449 118.674L34.942 118.436L35.3644 118.222C42.6166 114.527 51.296 110.108 60.9363 105.198L60.9314 105.786C55.0192 102.631 48.5777 99.1942 41.835 95.5918L41.233 95.271L41.8399 94.9502C50.1406 90.5844 59.0964 85.8787 68.3679 81.0073L68.3728 81.683C67.3729 81.1776 66.2905 80.6283 65.208 80.0787C42.9808 68.7855 22.4136 58.3333 5.79277 49.8888L5.23438 49.6071L5.79739 49.3395C18.9476 43.0586 29.7774 37.8859 37.3255 34.2788C41.1022 32.4946 44.0583 31.1043 46.0776 30.1512C47.0874 29.6895 47.8591 29.3297 48.3835 29.0916C48.6407 28.9798 48.8395 28.8922 48.9756 28.829C49.1116 28.7708 49.1793 28.7463 49.1843 28.7559C49.1892 28.7609 49.1261 28.8049 48.995 28.8727C48.8639 28.9408 48.6698 29.043 48.4221 29.1743C47.9076 29.4365 47.1455 29.8159 46.1552 30.3166C44.1554 31.3034 41.2234 32.7473 37.4761 34.5947C29.9521 38.2603 19.1613 43.5157 6.05959 49.8938L6.06454 49.3395C22.7048 57.7499 43.2912 68.1535 65.5429 79.403C66.6253 79.9523 67.7078 80.5017 68.7077 81.0073L69.3632 81.338L68.7126 81.6783C59.4365 86.5398 50.4754 91.2409 42.1701 95.5918L42.1747 94.9502C48.9075 98.5669 55.3395 102.023 61.2421 105.198L61.8051 105.5L61.2326 105.786C51.5678 110.648 42.8642 115.023 35.5925 118.674L35.6071 118.222C43.8397 123.171 50.4414 127.138 54.9852 129.87C57.2422 131.246 58.9897 132.311 60.1792 133.035C60.7617 133.4 61.2081 133.682 61.5139 133.871C61.8147 134.071 61.9604 134.177 61.9557 134.187Z" fill="#FF0029"/>
<path fill-rule="evenodd" clip-rule="evenodd" d="M48.9754 65.8006L48.8594 60.1211L63.6919 67.2902V73.1914L48.9754 65.8006Z" fill="#F5F5F5"/>
<path fill-rule="evenodd" clip-rule="evenodd" d="M63.6934 67.6474L82.4521 58.3828V64.8315L63.6934 73.6315V67.6474Z" fill="#E0E0E0"/>
<path fill-rule="evenodd" clip-rule="evenodd" d="M48.4238 60.3939L66.6854 51.4102L82.0151 58.4358L63.407 67.5302L48.4238 60.3939Z" fill="#F5F5F5"/>
<path fill-rule="evenodd" clip-rule="evenodd" d="M50.6055 62.7383V65.5574L51.9142 66.2237V63.5282L50.6055 62.7383Z" fill="#FAFAFA"/>
<path fill-rule="evenodd" clip-rule="evenodd" d="M52.7852 63.6055V66.4252L54.0939 67.0909V64.3993L52.7852 63.6055Z" fill="#FAFAFA"/>
<path fill-rule="evenodd" clip-rule="evenodd" d="M1.74609 29.7113V22.2188L19.6323 30.8258V37.9031L1.74609 29.7113Z" fill="#E0E0E0"/>
<path fill-rule="evenodd" clip-rule="evenodd" d="M19.6309 30.896L41.4434 20.0391V27.5965L19.6309 37.9018V30.896Z" fill="#F5F5F5"/>
<path fill-rule="evenodd" clip-rule="evenodd" d="M1.74609 22.4409L23.3222 11.7617L41.4449 20.1122L19.45 30.9315L1.74609 22.4409Z" fill="#FAFAFA"/>
<path fill-rule="evenodd" clip-rule="evenodd" d="M3.92578 25.2695V28.4411L5.67078 29.1906V26.1596L3.92578 25.2695Z" fill="#FAFAFA"/>
<path fill-rule="evenodd" clip-rule="evenodd" d="M6.98047 26.5781V29.7452L8.72547 30.4992V27.4683L6.98047 26.5781Z" fill="#FAFAFA"/>
<path fill-rule="evenodd" clip-rule="evenodd" d="M54.9668 91.9297C54.9668 92.2865 54.9668 97.9137 54.9668 97.9137L61.0743 101.079V94.8971L54.9668 91.9297Z" fill="#E0E0E0"/>
<path fill-rule="evenodd" clip-rule="evenodd" d="M69.3642 91.0586L61.5117 94.9461V101.079L69.3642 96.5381V91.0586Z" fill="#E0E0E0"/>
<path fill-rule="evenodd" clip-rule="evenodd" d="M54.9668 91.9831L62.9701 88.0078L69.3631 91.0231L61.2867 94.9786L54.9668 91.9831Z" fill="#F5F5F5"/>
<path fill-rule="evenodd" clip-rule="evenodd" d="M57.584 96.2852V99.1002L58.8927 99.7706V97.0739L57.584 96.2852Z" fill="#FAFAFA"/>
<path fill-rule="evenodd" clip-rule="evenodd" d="M4.36328 88.8789C4.36328 89.2354 4.36328 94.8626 4.36328 94.8626L10.4708 98.0281V91.846L4.36328 88.8789Z" fill="#E0E0E0"/>
<path fill-rule="evenodd" clip-rule="evenodd" d="M18.3232 88.0078L10.4707 91.8952V98.0284L18.3232 93.4875V88.0078Z" fill="#E0E0E0"/>
<path fill-rule="evenodd" clip-rule="evenodd" d="M3.92578 88.9326L11.9313 84.957L18.322 87.9723L10.2431 91.9279L3.92578 88.9326Z" fill="#F5F5F5"/>
<path fill-rule="evenodd" clip-rule="evenodd" d="M6.54492 93.2383V96.053L7.85367 96.7237V94.0317L6.54492 93.2383Z" fill="#FAFAFA"/>
<path fill-rule="evenodd" clip-rule="evenodd" d="M30.5371 50.0977C30.5371 50.4542 30.5371 56.0817 30.5371 56.0817L36.6446 59.2469V53.0698L30.5371 50.0977Z" fill="#F5F5F5"/>
<path fill-rule="evenodd" clip-rule="evenodd" d="M44.497 49.2344L36.6445 53.1246V59.255L44.497 54.7162V49.2344Z" fill="#E0E0E0"/>
<path fill-rule="evenodd" clip-rule="evenodd" d="M30.1016 50.5877L38.107 46.6172L44.4978 49.6277L36.4191 53.588L30.1016 50.5877Z" fill="#F5F5F5"/>
<path fill-rule="evenodd" clip-rule="evenodd" d="M32.7188 54.457V57.2717L34.0275 57.9424V55.2458L32.7188 54.457Z" fill="#E0E0E0"/>
<path fill-rule="evenodd" clip-rule="evenodd" d="M23.5566 100.641C23.5566 100.997 23.5566 106.625 23.5566 106.625L29.6641 109.79V103.608L23.5566 100.641Z" fill="#E0E0E0"/>
<path fill-rule="evenodd" clip-rule="evenodd" d="M37.5166 99.7695L29.6641 103.662V109.79L37.5166 105.254V99.7695Z" fill="#EBEBEB"/>
<path fill-rule="evenodd" clip-rule="evenodd" d="M23.1211 100.689L31.1266 96.7188L37.5173 99.7293L29.4388 103.69L23.1211 100.689Z" fill="#F5F5F5"/>
<path fill-rule="evenodd" clip-rule="evenodd" d="M25.7383 105V107.82L27.047 108.485V105.794L25.7383 105Z" fill="#FAFAFA"/>
<path fill-rule="evenodd" clip-rule="evenodd" d="M49.2969 115.02C49.2969 115.459 49.2969 122.417 49.2969 122.417L62.3844 130.268V122.627L49.2969 115.02Z" fill="#F5F5F5"/>
<path fill-rule="evenodd" clip-rule="evenodd" d="M72.8541 117.195L62.8203 122.644V130.266L72.8541 124.622V117.195Z" fill="#E0E0E0"/>
<path fill-rule="evenodd" clip-rule="evenodd" d="M49.2969 114.987L59.3847 110.227L72.8544 117.088L62.6785 122.426L49.2969 114.987Z" fill="#FAFAFA"/>
<path fill-rule="evenodd" clip-rule="evenodd" d="M54.5312 121.555V125.197L56.2763 126.347V122.745L54.5312 121.555Z" fill="#FAFAFA"/>
<path fill-rule="evenodd" clip-rule="evenodd" d="M17.4492 129.83C17.4492 130.27 17.4492 137.227 17.4492 137.227L30.5367 145.079V137.442L17.4492 129.83Z" fill="#E0E0E0"/>
<path fill-rule="evenodd" clip-rule="evenodd" d="M46.1989 128.961L30.5371 137.505V145.081L46.2421 136.314L46.1989 128.961Z" fill="#FAFAFA"/>
<path fill-rule="evenodd" clip-rule="evenodd" d="M17.4492 130.1L34.2446 121.988L46.678 129.123L30.7549 137.673L17.4492 130.1Z" fill="#F5F5F5"/>
<path fill-rule="evenodd" clip-rule="evenodd" d="M22.248 136.801V140.44L23.993 141.593V137.99L22.248 136.801Z" fill="#FAFAFA"/>
<path fill-rule="evenodd" clip-rule="evenodd" d="M67.6191 102.387V131.67L75.9079 135.934V106.282L67.6191 102.387Z" fill="#F5F5F5"/>
<path fill-rule="evenodd" clip-rule="evenodd" d="M73.7859 99.7695L67.6191 102.506L75.9658 106.305L81.5791 103.257L73.7859 99.7695Z" fill="#FAFAFA"/>
<path fill-rule="evenodd" clip-rule="evenodd" d="M75.9082 106.416V136.369L81.0401 133.641L81.5795 103.258L75.9082 106.416Z" fill="#E0E0E0"/>
<path fill-rule="evenodd" clip-rule="evenodd" d="M32.7188 78.8594V108.143L41.0075 112.407V82.755L32.7188 78.8594Z" fill="#F5F5F5"/>
<path fill-rule="evenodd" clip-rule="evenodd" d="M38.8809 75.8086L32.7188 78.5482L41.0654 82.3438L46.6788 79.2978L38.8809 75.8086Z" fill="#FAFAFA"/>
<path fill-rule="evenodd" clip-rule="evenodd" d="M41.0078 82.4549V112.408L46.1347 109.91L46.6791 79.2969L41.0078 82.4549Z" fill="#E0E0E0"/>
<path fill-rule="evenodd" clip-rule="evenodd" d="M36.6445 134.625C36.6445 135.064 36.6445 142.022 36.6445 142.022L49.732 149.874V142.237L36.6445 134.625Z" fill="#E0E0E0"/>
<path fill-rule="evenodd" clip-rule="evenodd" d="M59.7662 136.801L49.7324 142.249V149.871L59.7662 144.228V136.801Z" fill="#FAFAFA"/>
<path fill-rule="evenodd" clip-rule="evenodd" d="M36.209 134.504L46.4144 128.961L59.7665 136.633L49.5954 142.031L36.209 134.504Z" fill="#F5F5F5"/>
<path fill-rule="evenodd" clip-rule="evenodd" d="M41.4434 141.156V144.8L43.1884 145.949V142.346L41.4434 141.156Z" fill="#FAFAFA"/>
<path fill-rule="evenodd" clip-rule="evenodd" d="M65.7377 46.6177L41.4434 35.7787L75.2755 18.7344L86.3771 35.121L65.7377 46.6177Z" fill="#EBEBEB"/>
<path fill-rule="evenodd" clip-rule="evenodd" d="M87.521 56.6365L87.6865 37.9023L68.9277 48.4959L87.521 56.6365Z" fill="#6779A7"/>
<path fill-rule="evenodd" clip-rule="evenodd" d="M73.2901 75.5911C73.2901 76.434 72.6067 77.1161 71.763 77.1161C70.9194 77.1161 70.2363 76.434 70.2363 75.5911C70.2363 74.7486 70.9194 74.0664 71.763 74.0664C72.6017 74.0664 73.2901 74.7486 73.2901 75.5911Z" fill="#E0E0E0"/>
<path fill-rule="evenodd" clip-rule="evenodd" d="M71.763 78.8583C71.6732 78.8583 71.5964 78.1739 71.5964 77.3335C71.5964 76.4885 71.6732 75.8086 71.763 75.8086C71.8529 75.8086 71.9297 76.4933 71.9297 77.3335C71.9297 78.1739 71.8529 78.8583 71.763 78.8583Z" fill="#E0E0E0"/>
<path fill-rule="evenodd" clip-rule="evenodd" d="M34.0284 72.1067C34.0284 72.9492 33.3449 73.6318 32.5013 73.6318C31.6577 73.6318 30.9746 72.9492 30.9746 72.1067C30.9746 71.2642 31.6577 70.582 32.5013 70.582C33.3449 70.582 34.0284 71.2642 34.0284 72.1067Z" fill="#E0E0E0"/>
<path fill-rule="evenodd" clip-rule="evenodd" d="M32.5013 75.374C32.4119 75.374 32.3347 74.6906 32.3347 73.8515C32.3347 73.0079 32.4119 72.3242 32.5013 72.3242C32.5912 72.3242 32.668 73.0079 32.668 73.8515C32.668 74.6906 32.5912 75.374 32.5013 75.374Z" fill="#E0E0E0"/>
<path fill-rule="evenodd" clip-rule="evenodd" d="M14.833 92.1461C14.833 92.9887 14.15 93.6708 13.3063 93.6708C12.4627 93.6708 11.7793 92.9887 11.7793 92.1461C11.7793 91.3036 12.4627 90.6211 13.3063 90.6211C14.15 90.6211 14.833 91.3036 14.833 92.1461Z" fill="#E0E0E0"/>
<path fill-rule="evenodd" clip-rule="evenodd" d="M13.306 95.413C13.2161 95.413 13.1394 94.7294 13.1394 93.8906C13.1394 93.0466 13.2161 92.3633 13.306 92.3633C13.3959 92.3633 13.4727 93.0466 13.4727 93.8906C13.4727 94.7294 13.402 95.413 13.306 95.413Z" fill="#E0E0E0"/>
<path fill-rule="evenodd" clip-rule="evenodd" d="M16.1416 76.8958C16.1416 77.7383 15.4586 78.4208 14.6146 78.4208C13.771 78.4208 13.0879 77.7383 13.0879 76.8958C13.0879 76.0533 13.771 75.3711 14.6146 75.3711C15.4586 75.3711 16.1416 76.0533 16.1416 76.8958Z" fill="#E0E0E0"/>
<path fill-rule="evenodd" clip-rule="evenodd" d="M14.6144 79.7294C14.525 79.7294 14.4477 79.0461 14.4477 78.207C14.4477 77.3633 14.525 76.6797 14.6144 76.6797C14.7043 76.6797 14.7815 77.3633 14.7815 78.207C14.7815 79.0461 14.7043 79.7294 14.6144 79.7294Z" fill="#E0E0E0"/>
<path fill-rule="evenodd" clip-rule="evenodd" d="M51.9131 75.1579C51.9131 76.0004 51.2301 76.6826 50.3861 76.6826C49.5424 76.6826 48.8594 76.0004 48.8594 75.1579C48.8594 74.3153 49.5424 73.6328 50.3861 73.6328C51.2301 73.6381 51.9131 74.3206 51.9131 75.1579Z" fill="#E0E0E0"/>
<path fill-rule="evenodd" clip-rule="evenodd" d="M50.3859 78.4208C50.2964 78.4208 50.2192 77.7361 50.2192 76.896C50.2192 76.0507 50.2964 75.3711 50.3859 75.3711C50.4757 75.3711 50.553 76.0555 50.553 76.896C50.553 77.7409 50.4757 78.4208 50.3859 78.4208Z" fill="#E0E0E0"/>
<path fill-rule="evenodd" clip-rule="evenodd" d="M74.5987 86.0446C74.5987 86.8871 73.9156 87.5693 73.072 87.5693C72.2283 87.5693 71.5449 86.8871 71.5449 86.0446C71.5449 85.2021 72.2283 84.5195 73.072 84.5195C73.9156 84.5195 74.5987 85.2021 74.5987 86.0446Z" fill="#E0E0E0"/>
<path fill-rule="evenodd" clip-rule="evenodd" d="M73.0719 89.3154C72.982 89.3154 72.9048 88.6317 72.9048 87.7929C72.9048 86.9489 72.982 86.2656 73.0719 86.2656C73.1613 86.2656 73.2385 86.9489 73.2385 87.7929C73.2385 88.6317 73.1613 89.3154 73.0719 89.3154Z" fill="#E0E0E0"/>
<path fill-rule="evenodd" clip-rule="evenodd" d="M75.4717 94.3255C75.4717 95.1683 74.7883 95.8505 73.9447 95.8505C73.101 95.8505 72.418 95.1683 72.418 94.3255C72.418 93.483 73.101 92.8008 73.9447 92.8008C74.7883 92.8008 75.4717 93.483 75.4717 94.3255Z" fill="#E0E0E0"/>
<path fill-rule="evenodd" clip-rule="evenodd" d="M73.9447 97.5888C73.8548 97.5888 73.778 96.9055 73.778 96.0663C73.778 95.2227 73.8548 94.5391 73.9447 94.5391C74.0346 94.5391 74.1113 95.2227 74.1113 96.0663C74.1113 96.9055 74.0411 97.5888 73.9447 97.5888Z" fill="#E0E0E0"/>
<path fill-rule="evenodd" clip-rule="evenodd" d="M34.8995 112.189C34.8995 113.031 34.2164 113.714 33.3728 113.714C32.5291 113.714 31.8457 113.031 31.8457 112.189C31.8457 111.346 32.5291 110.664 33.3728 110.664C34.2164 110.664 34.8995 111.346 34.8995 112.189Z" fill="#E0E0E0"/>
<path fill-rule="evenodd" clip-rule="evenodd" d="M33.3726 115.022C33.2828 115.022 33.2056 114.339 33.2056 113.5C33.2056 112.656 33.2828 111.973 33.3726 111.973C33.4621 111.973 33.5393 112.656 33.5393 113.5C33.5393 114.339 33.4686 115.022 33.3726 115.022Z" fill="#E0E0E0"/>
<path fill-rule="evenodd" clip-rule="evenodd" d="M80.9232 138.546C81.7665 138.546 82.4502 137.863 82.4502 137.021C82.4502 136.179 81.7665 135.496 80.9232 135.496C80.0799 135.496 79.3965 136.179 79.3965 137.021C79.3965 137.863 80.0799 138.546 80.9232 138.546Z" fill="#E0E0E0"/>
<path fill-rule="evenodd" clip-rule="evenodd" d="M80.9249 140.288C80.8355 140.288 80.7583 139.605 80.7583 138.766C80.7583 137.922 80.8355 137.238 80.9249 137.238C81.0148 137.238 81.092 137.922 81.092 138.766C81.092 139.605 81.0148 140.288 80.9249 140.288Z" fill="#E0E0E0"/>
<path fill-rule="evenodd" clip-rule="evenodd" d="M54.9678 152.701C54.9678 153.543 54.2847 154.226 53.4408 154.226C52.5971 154.226 51.9141 153.543 51.9141 152.701C51.9141 151.858 52.5971 151.176 53.4408 151.176C54.2847 151.176 54.9678 151.858 54.9678 152.701Z" fill="#E0E0E0"/>
<path fill-rule="evenodd" clip-rule="evenodd" d="M53.4406 155.976C53.3511 155.976 53.2739 155.291 53.2739 154.45C53.2739 153.606 53.3511 152.926 53.4406 152.926C53.5304 152.926 53.6076 153.61 53.6076 154.45C53.6076 155.291 53.5304 155.976 53.4406 155.976Z" fill="#E0E0E0"/>
<path fill-rule="evenodd" clip-rule="evenodd" d="M43.6241 148.349C43.6241 149.192 42.941 149.874 42.0974 149.874C41.2537 149.874 40.5703 149.192 40.5703 148.349C40.5703 147.506 41.2537 146.824 42.0974 146.824C42.941 146.824 43.6241 147.506 43.6241 148.349Z" fill="#E0E0E0"/>
<path fill-rule="evenodd" clip-rule="evenodd" d="M42.0968 151.612C42.007 151.612 41.9302 150.929 41.9302 150.09C41.9302 149.246 42.007 148.562 42.0968 148.562C42.1867 148.562 42.2635 149.246 42.2635 150.09C42.27 150.929 42.1928 151.612 42.0968 151.612Z" fill="#E0E0E0"/>
<path fill-rule="evenodd" clip-rule="evenodd" d="M68.9268 145.298C68.9268 146.141 68.2436 146.823 67.3999 146.823C66.5562 146.823 65.873 146.141 65.873 145.298C65.873 144.456 66.5562 143.773 67.3999 143.773C68.2436 143.773 68.9268 144.456 68.9268 145.298Z" fill="#E0E0E0"/>
<path fill-rule="evenodd" clip-rule="evenodd" d="M67.3998 148.128C67.3099 148.128 67.2331 147.443 67.2331 146.603C67.2331 145.758 67.3099 145.078 67.3998 145.078C67.4896 145.078 67.5664 145.763 67.5664 146.603C67.5664 147.443 67.4962 148.128 67.3998 148.128Z" fill="#E0E0E0"/>
<path fill-rule="evenodd" clip-rule="evenodd" d="M46.0247 118.94C46.868 118.94 47.5518 118.257 47.5518 117.415C47.5518 116.573 46.868 115.891 46.0247 115.891C45.1815 115.891 44.498 116.573 44.498 117.415C44.498 118.257 45.1815 118.94 46.0247 118.94Z" fill="#E0E0E0"/>
<path fill-rule="evenodd" clip-rule="evenodd" d="M46.0245 120.683C45.9351 120.683 45.8579 119.999 45.8579 119.16C45.8579 118.316 45.9351 117.633 46.0245 117.633C46.1144 117.633 46.1916 118.316 46.1916 119.16C46.1916 119.999 46.1144 120.683 46.0245 120.683Z" fill="#E0E0E0"/>
<path fill-rule="evenodd" clip-rule="evenodd" d="M51.042 103.474C51.042 104.316 50.3586 104.999 49.515 104.999C48.6714 104.999 47.9883 104.316 47.9883 103.474C47.9883 102.631 48.6714 101.949 49.515 101.949C50.3586 101.949 51.042 102.631 51.042 103.474Z" fill="#E0E0E0"/>
<path fill-rule="evenodd" clip-rule="evenodd" d="M49.515 106.741C49.4251 106.741 49.3484 106.058 49.3484 105.219C49.3484 104.375 49.4251 103.691 49.515 103.691C49.6049 103.691 49.6816 104.375 49.6816 105.219C49.6816 106.058 49.6049 106.741 49.515 106.741Z" fill="#E0E0E0"/>
<path fill-rule="evenodd" clip-rule="evenodd" d="M16.1416 105.216C16.1416 106.059 15.4586 106.741 14.6146 106.741C13.771 106.741 13.0879 106.059 13.0879 105.216C13.0879 104.374 13.771 103.691 14.6146 103.691C15.4586 103.691 16.1416 104.374 16.1416 105.216Z" fill="#E0E0E0"/>
<path fill-rule="evenodd" clip-rule="evenodd" d="M14.6144 108.483C14.525 108.483 14.4477 107.8 14.4477 106.961C14.4477 106.117 14.525 105.434 14.6144 105.434C14.7043 105.434 14.7815 106.117 14.7815 106.961C14.7815 107.8 14.7043 108.483 14.6144 108.483Z" fill="#E0E0E0"/>
<path fill-rule="evenodd" clip-rule="evenodd" d="M82.4522 92.1461C82.4522 92.9887 81.7691 93.6708 80.9255 93.6708C80.0819 93.6708 79.3984 92.9887 79.3984 92.1461C79.3984 91.3036 80.0819 90.6211 80.9255 90.6211C81.7691 90.6211 82.4522 91.3036 82.4522 92.1461Z" fill="#E0E0E0"/>
<path fill-rule="evenodd" clip-rule="evenodd" d="M80.9252 95.413C80.8353 95.413 80.7585 94.7294 80.7585 93.8906C80.7585 93.0466 80.8353 92.3633 80.9252 92.3633C81.015 92.3633 81.0918 93.0466 81.0918 93.8906C81.0918 94.7294 81.015 95.413 80.9252 95.413Z" fill="#E0E0E0"/>
<path fill-rule="evenodd" clip-rule="evenodd" d="M78.962 70.7985C78.962 71.641 78.2785 72.3232 77.4349 72.3232C76.5913 72.3232 75.9082 71.641 75.9082 70.7985C75.9082 69.956 76.5913 69.2734 77.4349 69.2734C78.2785 69.2734 78.962 69.956 78.962 70.7985Z" fill="#E0E0E0"/>
<path fill-rule="evenodd" clip-rule="evenodd" d="M77.4349 74.0654C77.3451 74.0654 77.2683 73.3817 77.2683 72.5429C77.2683 71.6989 77.3451 71.0156 77.4349 71.0156C77.5248 71.0156 77.6016 71.6989 77.6016 72.5429C77.6016 73.3817 77.5248 74.0654 77.4349 74.0654Z" fill="#E0E0E0"/>
<path fill-rule="evenodd" clip-rule="evenodd" d="M48.2066 53.1474C49.0499 53.1474 49.7334 52.4649 49.7334 51.6227C49.7334 50.7805 49.0499 50.0977 48.2066 50.0977C47.3632 50.0977 46.6797 50.7805 46.6797 51.6227C46.6797 52.4649 47.3632 53.1474 48.2066 53.1474Z" fill="#E0E0E0"/>
<path fill-rule="evenodd" clip-rule="evenodd" d="M48.2064 54.8935C48.1165 54.8935 48.0398 54.2099 48.0398 53.371C48.0398 52.5271 48.1165 51.8438 48.2064 51.8438C48.2963 51.8438 48.3731 52.5271 48.3731 53.371C48.3731 54.2099 48.2963 54.8935 48.2064 54.8935Z" fill="#E0E0E0"/>
<path fill-rule="evenodd" clip-rule="evenodd" d="M22.2491 78.6419C22.2491 79.4844 21.5657 80.1669 20.7222 80.1669C19.8787 80.1669 19.1953 79.4844 19.1953 78.6419C19.1953 77.7994 19.8787 77.1172 20.7222 77.1172C21.5657 77.1172 22.2491 77.7994 22.2491 78.6419Z" fill="#E0E0E0"/>
<path fill-rule="evenodd" clip-rule="evenodd" d="M20.7218 81.9091C20.632 81.9091 20.5552 81.2258 20.5552 80.3867C20.5552 79.543 20.632 78.8594 20.7218 78.8594C20.8117 78.8594 20.8885 79.543 20.8885 80.3867C20.895 81.2258 20.8182 81.9091 20.7218 81.9091Z" fill="#E0E0E0"/>
<path fill-rule="evenodd" clip-rule="evenodd" d="M39.2627 41.6067C39.2627 42.4492 38.5793 43.1318 37.7357 43.1318C36.8921 43.1318 36.209 42.4492 36.209 41.6067C36.209 40.7642 36.8921 40.082 37.7357 40.082C38.5793 40.082 39.2627 40.7642 39.2627 41.6067Z" fill="#E0E0E0"/>
<path fill-rule="evenodd" clip-rule="evenodd" d="M37.7357 44.874C37.6458 44.874 37.5691 44.1906 37.5691 43.3515C37.5691 42.5079 37.6458 41.8242 37.7357 41.8242C37.8256 41.8242 37.9024 42.5079 37.9024 43.3515C37.9024 44.1906 37.8256 44.874 37.7357 44.874Z" fill="#E0E0E0"/>
<path fill-rule="evenodd" clip-rule="evenodd" d="M68.4913 38.5559C68.4913 39.3988 67.8082 40.081 66.9646 40.081C66.1209 40.081 65.4375 39.3988 65.4375 38.5559C65.4375 37.7134 66.1209 37.0312 66.9646 37.0312C67.8082 37.0312 68.4913 37.7134 68.4913 38.5559Z" fill="#E0E0E0"/>
<path fill-rule="evenodd" clip-rule="evenodd" d="M66.9642 41.3896C66.8744 41.3896 66.7976 40.7063 66.7976 39.8671C66.7976 39.0235 66.8744 38.3398 66.9642 38.3398C67.0541 38.3398 67.1309 39.0235 67.1309 39.8671C67.1309 40.7063 67.0602 41.3896 66.9642 41.3896Z" fill="#E0E0E0"/>
<path fill-rule="evenodd" clip-rule="evenodd" d="M76.3448 37.2513C76.3448 38.0938 75.6617 38.7763 74.8181 38.7763C73.9744 38.7763 73.291 38.0938 73.291 37.2513C73.291 36.4087 73.9744 35.7266 74.8181 35.7266C75.6617 35.7266 76.3448 36.4087 76.3448 37.2513Z" fill="#E0E0E0"/>
<path fill-rule="evenodd" clip-rule="evenodd" d="M74.8177 40.081C74.7279 40.081 74.6511 39.3974 74.6511 38.5585C74.6511 37.7149 74.7279 37.0312 74.8177 37.0312C74.9076 37.0312 74.9844 37.7149 74.9844 38.5585C74.9844 39.3974 74.9076 40.081 74.8177 40.081Z" fill="#E0E0E0"/>
<path fill-rule="evenodd" clip-rule="evenodd" d="M73.2901 26.3571C73.2901 27.1996 72.6067 27.8818 71.763 27.8818C70.9194 27.8818 70.2363 27.1996 70.2363 26.3571C70.2363 25.5146 70.9194 24.832 71.763 24.832C72.6017 24.832 73.2901 25.5146 73.2901 26.3571Z" fill="#E0E0E0"/>
<path fill-rule="evenodd" clip-rule="evenodd" d="M71.763 29.6279C71.6732 29.6279 71.5964 28.9442 71.5964 28.1054C71.5964 27.2614 71.6732 26.5781 71.763 26.5781C71.8529 26.5781 71.9297 27.2614 71.9297 28.1054C71.9297 28.9442 71.8529 29.6279 71.763 29.6279Z" fill="#E0E0E0"/>
<path fill-rule="evenodd" clip-rule="evenodd" d="M28.3565 50.7594C28.3565 51.6019 27.6731 52.2841 26.8294 52.2841C25.9858 52.2841 25.3027 51.6019 25.3027 50.7594C25.3027 49.9169 25.9858 49.2344 26.8294 49.2344C27.6731 49.2344 28.3565 49.9169 28.3565 50.7594Z" fill="#E0E0E0"/>
<path fill-rule="evenodd" clip-rule="evenodd" d="M26.8295 54.0224C26.7396 54.0224 26.6628 53.3388 26.6628 52.4999C26.6628 51.656 26.7396 50.9727 26.8295 50.9727C26.9193 50.9727 26.9961 51.656 26.9961 52.4999C26.9961 53.3388 26.9259 54.0224 26.8295 54.0224Z" fill="#E0E0E0"/>
<path fill-rule="evenodd" clip-rule="evenodd" d="M61.5108 37.2513C61.5108 38.0938 60.8274 38.7763 59.9837 38.7763C59.1401 38.7763 58.457 38.0938 58.457 37.2513C58.457 36.4087 59.1401 35.7266 59.9837 35.7266C60.8274 35.7266 61.5108 36.4087 61.5108 37.2513Z" fill="#E0E0E0"/>
<path fill-rule="evenodd" clip-rule="evenodd" d="M59.9835 40.5146C59.8941 40.5146 59.8169 39.8313 59.8169 38.9921C59.8169 38.1485 59.8941 37.4648 59.9835 37.4648C60.0734 37.4648 60.1506 38.1485 60.1506 38.9921C60.1506 39.8313 60.0799 40.5146 59.9835 40.5146Z" fill="#E0E0E0"/>
<path fill-rule="evenodd" clip-rule="evenodd" d="M21.376 5.00907C21.376 5.85159 20.6926 6.53412 19.849 6.53412C19.0053 6.53412 18.3223 5.85159 18.3223 5.00907C18.3223 4.16655 19.0053 3.48438 19.849 3.48438C20.6926 3.48438 21.376 4.16655 21.376 5.00907Z" fill="#E0E0E0"/>
<path fill-rule="evenodd" clip-rule="evenodd" d="M19.849 8.2763C19.7591 8.2763 19.6823 7.59267 19.6823 6.75384C19.6823 5.90988 19.7591 5.22656 19.849 5.22656C19.9389 5.22656 20.0156 5.90988 20.0156 6.75384C20.0156 7.59748 19.9454 8.2763 19.849 8.2763Z" fill="#E0E0E0"/>
<path fill-rule="evenodd" clip-rule="evenodd" d="M37.5166 12.8532C37.5166 13.6957 36.8336 14.3779 35.9899 14.3779C35.1463 14.3779 34.4629 13.6957 34.4629 12.8532C34.4629 12.0107 35.1463 11.3281 35.9899 11.3281C36.8336 11.3281 37.5166 12.0107 37.5166 12.8532Z" fill="#E0E0E0"/>
<path fill-rule="evenodd" clip-rule="evenodd" d="M35.9916 16.1161C35.9017 16.1161 35.8249 15.4325 35.8249 14.5937C35.8249 13.7497 35.9017 13.0664 35.9916 13.0664C36.0814 13.0664 36.1582 13.7497 36.1582 14.5937C36.1582 15.4325 36.0814 16.1161 35.9916 16.1161Z" fill="#E0E0E0"/>
<path fill-rule="evenodd" clip-rule="evenodd" d="M11.3428 37.6849C11.3428 38.5274 10.6597 39.2099 9.81611 39.2099C8.97249 39.2099 8.28906 38.5274 8.28906 37.6849C8.28906 36.8423 8.97249 36.1602 9.81611 36.1602C10.6597 36.1602 11.3428 36.8423 11.3428 37.6849Z" fill="#E0E0E0"/>
<path fill-rule="evenodd" clip-rule="evenodd" d="M9.816 40.9521C9.72613 40.9521 9.64892 40.2688 9.64892 39.4296C9.64892 38.586 9.72613 37.9023 9.816 37.9023C9.90543 37.9023 9.98265 38.586 9.98265 39.4296C9.98265 40.2688 9.90543 40.9521 9.816 40.9521Z" fill="#E0E0E0"/>
<path fill-rule="evenodd" clip-rule="evenodd" d="M13.087 14.1614C13.087 15.0043 12.4035 15.6865 11.5599 15.6865C10.7163 15.6865 10.0332 15.0043 10.0332 14.1614C10.0332 13.3189 10.7163 12.6367 11.5599 12.6367C12.4035 12.6367 13.087 13.3189 13.087 14.1614Z" fill="#E0E0E0"/>
<path fill-rule="evenodd" clip-rule="evenodd" d="M11.5599 17.4286C11.4701 17.4286 11.3933 16.7453 11.3933 15.9062C11.3933 15.0625 11.4701 14.3789 11.5599 14.3789C11.6498 14.3789 11.7266 15.0625 11.7266 15.9062C11.7266 16.7453 11.6498 17.4286 11.5599 17.4286Z" fill="#E0E0E0"/>
<path fill-rule="evenodd" clip-rule="evenodd" d="M74.5996 81.2176L86.3784 74.9375L86.3299 86.2651L74.5996 81.2176Z" fill="#EBEBEB"/>
<path fill-rule="evenodd" clip-rule="evenodd" d="M64.1287 134.626C64.1287 135.589 63.3487 136.368 62.3837 136.368C61.4187 136.368 60.6387 135.589 60.6387 134.626C60.6387 133.662 61.4187 132.883 62.3837 132.883C63.3487 132.883 64.1287 133.662 64.1287 134.626Z" fill="#E8505B"/>
<path fill-rule="evenodd" clip-rule="evenodd" d="M79.3984 16.5586L87.6872 19.0959V32.243L79.3984 16.5586Z" fill="#EBEBEB"/>
<path fill-rule="evenodd" clip-rule="evenodd" d="M107.754 72.7539C114.979 72.9337 122.283 73.1279 129.269 74.9687C136.255 76.8098 143.002 80.4868 147.149 86.3835C151.711 92.8726 152.618 101.169 153.077 109.081C153.838 122.2 153.75 135.383 152.457 148.459C151.803 155.088 149.442 161.243 143.251 163.768C135.806 166.804 125.8 163.768 125.8 163.768" fill="#041B54"/>
<path fill-rule="evenodd" clip-rule="evenodd" d="M127.385 162.469C127.385 162.469 127.477 162.46 127.657 162.455C127.847 162.45 128.114 162.45 128.459 162.44C129.174 162.435 130.21 162.426 131.537 162.416C132.875 162.406 134.513 162.426 136.39 162.164C136.857 162.086 137.343 162.032 137.835 161.906C138.082 161.853 138.331 161.794 138.583 161.741C138.836 161.673 139.089 161.595 139.342 161.517C139.862 161.382 140.368 161.163 140.898 160.969C141.409 160.731 141.948 160.508 142.454 160.197C143.485 159.609 144.491 158.857 145.347 157.885C146.198 156.919 146.889 155.729 147.254 154.389C147.944 151.679 148.236 148.683 148.347 145.537C148.445 142.385 148.411 139.068 148.44 135.635C148.454 132.202 148.474 128.642 148.488 125C148.503 121.358 148.542 117.799 148.425 114.371C148.304 110.942 148.036 107.635 147.497 104.533C146.446 98.3219 144.268 92.9363 141.462 89.0809C140.067 87.1531 138.535 85.6137 137.164 84.3122C135.778 83.0156 134.533 81.9572 133.512 81.0976C132.49 80.2477 131.698 79.5824 131.148 79.1262C130.886 78.9025 130.682 78.7327 130.536 78.6065C130.4 78.4899 130.331 78.4219 130.331 78.4219C130.331 78.4219 130.409 78.4754 130.55 78.587C130.701 78.7037 130.905 78.8685 131.178 79.0822C131.732 79.5292 132.539 80.1796 133.57 81.015C134.601 81.8647 135.86 82.9138 137.256 84.2005C138.642 85.4971 140.183 87.0315 141.603 88.969C144.448 92.8346 146.655 98.2489 147.725 104.484C148.275 107.601 148.547 110.918 148.673 114.356C148.795 117.794 148.761 121.354 148.741 124.996C148.722 128.638 148.707 132.192 148.688 135.63C148.659 139.064 148.688 142.375 148.581 145.537C148.464 148.693 148.168 151.704 147.458 154.438C147.083 155.812 146.368 157.026 145.498 158.007C144.623 158.992 143.592 159.755 142.546 160.342C142.031 160.653 141.486 160.877 140.966 161.114C140.426 161.309 139.916 161.527 139.391 161.659C139.128 161.731 138.875 161.814 138.622 161.877C138.365 161.93 138.112 161.989 137.864 162.042C137.368 162.164 136.877 162.217 136.405 162.29C134.514 162.542 132.87 162.508 131.533 162.504C130.205 162.494 129.169 162.484 128.455 162.479C128.11 162.474 127.842 162.469 127.652 162.465C127.477 162.479 127.385 162.469 127.385 162.469Z" fill="#455A64"/>
<path fill-rule="evenodd" clip-rule="evenodd" d="M117.352 73.2003C117.352 73.1953 117.415 73.1953 117.536 73.1953C117.672 73.2003 117.851 73.2003 118.083 73.2052C118.563 73.2247 119.275 73.2197 120.187 73.2827C121.999 73.4718 124.645 73.8212 127.746 74.8978C128.129 75.0383 128.521 75.1838 128.923 75.3343C129.122 75.4072 129.326 75.4847 129.534 75.5623C129.733 75.6543 129.936 75.7417 130.14 75.8387C130.547 76.0232 130.964 76.2122 131.385 76.4062C131.811 76.5953 132.214 76.8427 132.645 77.0608C134.351 77.9533 136.076 79.0932 137.782 80.4222C139.487 81.7508 141.174 83.2933 142.724 85.0733C144.275 86.8483 145.666 88.8949 146.722 91.1599C148.883 95.6949 149.818 100.438 150.298 104.73C150.754 109.037 150.773 112.937 150.802 116.206C150.812 119.475 150.822 122.118 150.87 123.942C150.894 124.844 150.914 125.547 150.928 126.046C150.933 126.279 150.938 126.459 150.943 126.595C150.943 126.716 150.943 126.779 150.938 126.784C150.933 126.784 150.928 126.721 150.914 126.599C150.904 126.464 150.889 126.284 150.875 126.051C150.841 125.571 150.807 124.863 150.768 123.951C150.691 122.123 150.657 119.48 150.623 116.211C150.575 112.946 150.536 109.052 150.071 104.759C149.581 100.487 148.641 95.7724 146.499 91.2764C145.448 89.0259 144.081 87.0034 142.54 85.2429C141.004 83.4728 139.332 81.9402 137.641 80.6113C135.95 79.2872 134.239 78.1473 132.548 77.2502C132.127 77.0272 131.72 76.7843 131.303 76.5903C130.881 76.3963 130.474 76.2073 130.067 76.0232C129.864 75.9308 129.665 75.8387 129.466 75.7467C129.263 75.6688 129.064 75.5913 128.86 75.5187C128.463 75.3683 128.071 75.2178 127.693 75.0773C124.62 73.9862 121.989 73.6077 120.182 73.3943C119.275 73.3167 118.563 73.3022 118.088 73.2682C117.861 73.2537 117.676 73.2441 117.541 73.2342C117.415 73.2148 117.352 73.2052 117.352 73.2003Z" fill="#E0E0E0"/>
<path fill-rule="evenodd" clip-rule="evenodd" d="M112.988 72.9814C112.988 72.9814 114.75 68.5365 121.025 69.3799C121.025 69.3799 123.821 69.2317 124.331 70.7193C124.331 70.7193 118.487 69.3336 115.997 73.1945L112.988 72.9814Z" fill="#263238"/>
<path fill-rule="evenodd" clip-rule="evenodd" d="M130.875 78.8526H127.139C127.139 78.8526 126.413 68.9426 117.352 69.3283C117.352 69.3283 128.615 65.5483 130.875 78.8526Z" fill="#455A64"/>
<path fill-rule="evenodd" clip-rule="evenodd" d="M71.5193 167.587C71.5193 167.587 70.494 164.255 70.699 162.847C70.9039 161.44 72.8032 160.159 72.8032 160.159L70.7428 106.753C70.7428 106.753 70.4744 83.3943 82.8699 76.1322L90.2664 74.2715L108.51 73.1953C109.101 73.3901 130.543 81.4361 133.492 84.5778L124.246 131.676C124.246 131.676 125.368 145.591 126.491 155.595C126.72 157.641 128.258 167.737 128.258 167.737L71.5193 167.587Z" fill="#FF0029"/>
<g opacity="0.3">
<path opacity="0.3" fill-rule="evenodd" clip-rule="evenodd" d="M126.264 152.42C126.094 153.708 125.597 155.277 124.35 155.673C123.103 156.073 121.748 155.958 120.457 155.726C115.892 154.92 111.693 152.796 107.571 150.697C99.8641 146.777 92.0888 142.81 85.4386 137.312C84.5033 136.54 83.5045 135.334 84.0795 134.272C84.7274 133.065 86.5545 133.471 87.8066 134.04C100.873 140.011 113.198 146.449 126.264 152.42Z" fill="black"/>
</g>
<path fill-rule="evenodd" clip-rule="evenodd" d="M80.2695 77.5508C80.2695 77.5508 72.0791 80.2624 69.4305 87.7942C66.5031 96.1132 64.5645 112.265 64.5645 112.265L72.6569 113.276L80.2695 77.5508Z" fill="#FF0029"/>
<path fill-rule="evenodd" clip-rule="evenodd" d="M133.719 84.5466C133.719 84.5466 138.074 90.3081 140.196 97.31C142.314 104.312 143.528 124.604 143.528 124.604L121.676 124.297L120.515 106.446C120.515 106.441 118.311 76.6512 133.719 84.5466Z" fill="#FF0029"/>
<path fill-rule="evenodd" clip-rule="evenodd" d="M67.6191 95.1589C67.6191 95.1589 67.7798 94.9103 68.2227 94.5887C68.661 94.2721 69.4842 93.9406 70.531 94.1455C71.5928 94.3013 72.625 95.1347 73.9839 95.6562C74.6557 95.9145 75.4448 96.114 76.2432 95.9337C77.0468 95.7583 77.7382 95.1835 78.4736 94.6278C78.8436 94.35 79.2332 94.0626 79.691 93.8627C80.1439 93.6581 80.7041 93.5898 81.2056 93.7993C81.7118 93.9843 82.0918 94.4133 82.384 94.8519C82.6858 95.2905 82.9292 95.7729 83.2459 96.2019C83.5527 96.6309 83.9618 97.0058 84.4829 97.157C84.9941 97.3278 85.5688 97.2837 86.1095 97.1424C86.6597 97.0012 87.1904 96.7575 87.6969 96.4602C88.2034 96.1628 88.6904 95.7974 89.2161 95.4759C89.7372 95.1493 90.2924 94.8423 90.9109 94.652C91.5244 94.4717 92.2158 94.4279 92.8538 94.6474C93.4919 94.8569 94.0421 95.2468 94.5387 95.6754C95.0402 96.1044 95.508 96.5672 96.0287 96.972C96.5402 97.3765 97.115 97.7272 97.7626 97.8247C98.4003 97.9513 99.0774 97.8589 99.7055 97.6248C100.972 97.1474 102.092 96.2898 103.333 95.6025C103.957 95.2663 104.609 94.9444 105.315 94.8128C106.017 94.6815 106.767 94.7253 107.429 94.9786C108.758 95.4951 109.742 96.4993 110.92 97.0645C111.213 97.2107 111.519 97.3132 111.826 97.3861C112.138 97.4494 112.455 97.464 112.771 97.4444C113.404 97.4007 114.013 97.1912 114.587 96.9233C115.741 96.4018 116.784 95.6708 117.977 95.2809C118.566 95.086 119.204 94.9981 119.817 95.1152C120.436 95.2222 120.972 95.5587 121.419 95.9337C122.316 96.6796 123.017 97.6298 124.04 97.9467C124.541 98.1025 125.072 98.0929 125.573 97.9905C126.08 97.888 126.562 97.7176 127.039 97.5519C127.979 97.2203 128.963 96.8792 129.917 97.0987C130.39 97.1912 130.798 97.4398 131.154 97.7077C131.51 97.9805 131.816 98.2779 132.128 98.5557C132.44 98.8335 132.756 99.0772 133.092 99.2625C133.428 99.4429 133.793 99.55 134.149 99.6037C134.865 99.7058 135.552 99.5937 136.136 99.3988C136.73 99.2038 137.226 98.9164 137.65 98.624C138.493 98.0342 139.058 97.4494 139.442 97.0695C139.628 96.8842 139.774 96.738 139.881 96.6309C139.978 96.5334 140.032 96.4847 140.036 96.4847C140.041 96.4893 139.993 96.543 139.9 96.6455C139.798 96.7575 139.657 96.9084 139.481 97.1033C139.101 97.4932 138.551 98.0929 137.709 98.7019C137.285 99.0039 136.779 99.3013 136.175 99.5062C135.576 99.7107 134.874 99.8374 134.129 99.7353C133.759 99.6865 133.379 99.5742 133.024 99.3892C132.668 99.1989 132.342 98.9456 132.026 98.6727C131.398 98.1367 130.774 97.4494 129.878 97.2691C128.992 97.0695 128.042 97.3957 127.102 97.7322C126.625 97.898 126.138 98.078 125.612 98.1854C125.091 98.2925 124.517 98.312 123.976 98.1416C123.431 97.9759 122.958 97.6298 122.535 97.2545C122.111 96.8792 121.717 96.4602 121.278 96.0995C120.845 95.7341 120.343 95.4271 119.774 95.3343C119.209 95.2272 118.615 95.3101 118.05 95.4951C116.905 95.8753 115.863 96.6014 114.69 97.1375C114.105 97.4106 113.467 97.6347 112.795 97.6835C112.459 97.703 112.114 97.6881 111.782 97.6202C111.451 97.5419 111.125 97.4299 110.823 97.279C109.596 96.6892 108.612 95.69 107.351 95.2077C106.728 94.969 106.041 94.9298 105.379 95.0518C104.712 95.1785 104.079 95.4855 103.47 95.817C102.247 96.4893 101.123 97.3619 99.8029 97.8589C99.1454 98.1075 98.4199 98.205 97.7285 98.0684C97.0272 97.9613 96.4137 97.581 95.8876 97.167C94.8309 96.3431 93.9884 95.271 92.7906 94.8765C92.2062 94.6716 91.5731 94.7107 90.9937 94.8765C90.4094 95.0565 89.8687 95.3489 89.3572 95.6708C88.8365 95.9874 88.3542 96.3481 87.8331 96.6551C87.312 96.9571 86.7617 97.2107 86.1873 97.3569C85.6175 97.5031 84.999 97.5469 84.4388 97.3619C83.8694 97.1912 83.4162 96.7721 83.0998 96.3236C82.7735 95.8753 82.5301 95.393 82.2379 94.964C81.9553 94.5353 81.6098 94.1501 81.1569 93.9797C80.7087 93.7944 80.2121 93.8481 79.7884 94.0331C79.3551 94.2134 78.9752 94.4962 78.6051 94.7691C77.8747 95.3151 77.1588 95.9095 76.3018 96.0898C75.4544 96.2748 74.6411 96.0557 73.9594 95.7829C72.5813 95.2368 71.5682 94.4037 70.541 94.238C69.5279 94.0235 68.7196 94.3304 68.2814 94.6278C67.809 94.9348 67.6337 95.1735 67.6191 95.1589Z" fill="#FAFAFA"/>
<path fill-rule="evenodd" clip-rule="evenodd" d="M65.002 108.176C65.002 108.171 65.0746 108.176 65.2153 108.191C65.3659 108.206 65.5746 108.231 65.8417 108.256C66.3952 108.29 67.2105 108.53 68.2299 108.191C68.7444 108.076 69.3223 107.967 69.9533 107.857C70.5844 107.743 71.264 107.588 72.0113 107.494C72.7543 107.404 73.5891 107.404 74.4143 107.673C75.2395 107.922 76.0403 108.355 76.924 108.659C77.8027 108.978 78.7977 109.013 79.7831 108.744C80.7734 108.504 81.7443 108.036 82.7927 107.663C83.8267 107.28 85.0257 106.986 86.2152 107.324C87.3898 107.663 88.3365 108.554 89.5161 108.848C89.8073 108.918 90.1082 108.938 90.409 108.913C90.7102 108.878 91.011 108.798 91.3022 108.694C91.8947 108.485 92.4673 108.176 93.0937 107.952C93.7099 107.718 94.443 107.618 95.1031 107.882C95.7586 108.141 96.2681 108.634 96.8021 109.037C97.0693 109.242 97.346 109.431 97.6468 109.56C97.948 109.69 98.2729 109.744 98.5982 109.744C99.2586 109.719 99.9042 109.451 100.53 109.152C101.161 108.853 101.797 108.519 102.511 108.335C102.87 108.256 103.239 108.206 103.613 108.261C103.986 108.305 104.346 108.44 104.671 108.614C105.326 108.968 105.87 109.461 106.448 109.864C106.734 110.063 107.035 110.247 107.35 110.372C107.511 110.431 107.666 110.486 107.836 110.511L108.084 110.556L108.336 110.566C109.011 110.581 109.676 110.382 110.316 110.143C110.957 109.904 111.589 109.625 112.249 109.421C112.899 109.222 113.612 109.092 114.292 109.271C114.982 109.421 115.545 109.879 116.015 110.332C116.491 110.795 116.928 111.283 117.433 111.646C117.938 112.015 118.545 112.184 119.142 112.144C119.739 112.104 120.311 111.88 120.85 111.612C121.389 111.343 121.904 111.029 122.418 110.735C123.438 110.158 124.559 109.62 125.719 109.754C126.87 109.894 127.806 110.546 128.632 111.154C129.467 111.771 130.229 112.423 131.069 112.826C131.899 113.25 132.777 113.464 133.612 113.533C134.452 113.588 135.243 113.498 135.972 113.344C137.413 112.986 138.559 112.329 139.365 111.646C140.175 110.964 140.641 110.267 140.942 109.794C141.078 109.55 141.17 109.351 141.238 109.227C141.306 109.097 141.34 109.032 141.345 109.037C141.35 109.037 141.321 109.107 141.263 109.242C141.2 109.371 141.117 109.575 140.986 109.824C140.695 110.307 140.238 111.024 139.428 111.726C138.622 112.428 137.471 113.11 136.006 113.489C135.268 113.653 134.462 113.747 133.607 113.698C132.753 113.633 131.855 113.419 130.996 112.991C130.127 112.578 129.355 111.92 128.525 111.313C127.7 110.71 126.782 110.088 125.705 109.963C124.622 109.839 123.545 110.347 122.535 110.929C122.02 111.223 121.51 111.542 120.957 111.816C120.408 112.089 119.811 112.334 119.166 112.378C118.525 112.423 117.846 112.234 117.312 111.84C116.773 111.457 116.331 110.959 115.86 110.506C115.394 110.058 114.87 109.64 114.244 109.505C113.622 109.346 112.957 109.461 112.326 109.655C111.686 109.849 111.059 110.133 110.409 110.372C109.758 110.616 109.069 110.83 108.336 110.815L108.064 110.805L107.792 110.755C107.613 110.73 107.433 110.671 107.263 110.601C106.923 110.466 106.608 110.272 106.312 110.068C105.719 109.655 105.181 109.167 104.564 108.833C104.259 108.669 103.928 108.549 103.593 108.51C103.258 108.465 102.914 108.51 102.579 108.579C101.909 108.753 101.283 109.077 100.647 109.376C100.011 109.675 99.3409 109.963 98.6177 109.988C98.2584 109.993 97.8945 109.928 97.5643 109.784C97.2344 109.64 96.9431 109.441 96.6664 109.227C96.1225 108.808 95.6275 108.335 95.0305 108.101C94.438 107.867 93.7829 107.947 93.1858 108.171C92.5789 108.385 92.0063 108.689 91.3947 108.908C91.0886 109.013 90.7732 109.102 90.443 109.137C90.1177 109.167 89.7878 109.142 89.4722 109.067C88.21 108.739 87.2781 107.847 86.1666 107.529C85.0501 107.21 83.8996 107.479 82.8753 107.852C81.8364 108.216 80.856 108.684 79.8415 108.923C78.8367 109.196 77.7783 109.152 76.8804 108.818C75.9773 108.5 75.186 108.067 74.3803 107.818C73.5795 107.549 72.7784 107.544 72.0407 107.628C71.3026 107.708 70.623 107.862 69.9873 107.967C69.3563 108.071 68.7784 108.166 68.2639 108.276C68.0067 108.325 67.7639 108.385 67.5308 108.42C67.293 108.455 67.0698 108.445 66.8707 108.425C66.4678 108.38 66.128 108.33 65.8513 108.29C65.5845 108.25 65.3804 108.221 65.2252 108.201C65.0746 108.196 65.002 108.181 65.002 108.176Z" fill="#FAFAFA"/>
<path fill-rule="evenodd" clip-rule="evenodd" d="M72.8535 119.815C72.8535 119.81 72.9024 119.815 73.0001 119.819C73.1078 119.829 73.2494 119.843 73.4252 119.862C73.7965 119.9 74.3486 119.972 75.0523 120.077C76.4643 120.268 78.4872 120.678 81.0184 120.879C82.2838 120.984 83.6716 120.975 85.157 120.807C85.8996 120.74 86.6864 120.674 87.4974 120.788C87.898 120.846 88.3085 120.955 88.6897 121.132C89.0706 121.309 89.4177 121.552 89.7501 121.81C90.4145 122.311 91.0447 122.918 91.8608 123.161C92.2616 123.285 92.6914 123.261 93.1115 123.152C93.532 123.037 93.9326 122.841 94.3527 122.655C94.7682 122.469 95.2079 122.273 95.6966 122.216C96.1802 122.139 96.708 122.259 97.1232 122.517C97.9685 123.018 98.5206 123.853 99.3805 124.207C100.245 124.574 101.223 124.345 102.107 124.087C103.006 123.829 103.895 123.486 104.853 123.467C105.327 123.462 105.806 123.548 106.226 123.744C106.651 123.939 107.018 124.211 107.355 124.488C108.029 125.047 108.625 125.672 109.368 126.006C110.106 126.355 110.946 126.255 111.684 126.011C112.437 125.782 113.126 125.424 113.878 125.257C114.616 125.095 115.407 125.08 116.062 125.415C116.384 125.582 116.648 125.849 116.81 126.154C116.971 126.46 117.049 126.77 117.152 127.062C117.249 127.353 117.376 127.62 117.572 127.825C117.762 128.035 118.011 128.179 118.271 128.265C118.798 128.437 119.346 128.393 119.815 128.255C120.289 128.112 120.675 127.854 120.973 127.558C121.276 127.267 121.5 126.947 121.681 126.651C122.038 126.054 122.229 125.544 122.37 125.204C122.434 125.047 122.487 124.918 122.526 124.818C122.561 124.732 122.585 124.689 122.585 124.689C122.59 124.689 122.575 124.736 122.551 124.827C122.517 124.927 122.473 125.061 122.419 125.224C122.292 125.567 122.116 126.083 121.769 126.699C121.593 127.004 121.373 127.334 121.065 127.639C120.763 127.949 120.357 128.231 119.864 128.389C119.375 128.537 118.793 128.594 118.222 128.413C117.938 128.322 117.665 128.164 117.445 127.935C117.225 127.706 117.083 127.41 116.981 127.114C116.873 126.818 116.79 126.513 116.644 126.236C116.497 125.959 116.262 125.73 115.974 125.582C115.383 125.281 114.635 125.295 113.927 125.453C113.213 125.61 112.524 125.973 111.752 126.212C111.371 126.336 110.961 126.431 110.536 126.451C110.111 126.465 109.671 126.388 109.27 126.207C108.469 125.849 107.858 125.209 107.198 124.665C106.866 124.393 106.514 124.135 106.123 123.953C105.733 123.772 105.298 123.696 104.858 123.7C103.969 123.72 103.089 124.049 102.181 124.317C101.726 124.45 101.257 124.574 100.764 124.622C100.275 124.67 99.7521 124.632 99.2828 124.426C98.3301 124.02 97.773 123.171 96.9962 122.717C96.615 122.483 96.1702 122.383 95.7305 122.445C95.2907 122.497 94.8706 122.684 94.4604 122.865C94.0449 123.051 93.6294 123.247 93.18 123.371C92.7353 123.491 92.242 123.514 91.7973 123.376C90.9031 123.104 90.2679 122.473 89.6131 121.977C89.2857 121.724 88.9536 121.49 88.597 121.323C88.24 121.156 87.8591 121.051 87.4732 120.993C86.701 120.879 85.9289 120.941 85.1863 121.003C83.6958 121.161 82.2838 121.161 81.0134 121.046C78.4676 120.817 76.4547 120.383 75.0473 120.163C74.3586 120.053 73.8161 119.967 73.4302 119.905C73.259 119.877 73.1174 119.857 73.0101 119.838C72.9024 119.829 72.8535 119.819 72.8535 119.815Z" fill="#FAFAFA"/>
<path fill-rule="evenodd" clip-rule="evenodd" d="M72.418 151.938C72.418 151.933 72.4666 151.914 72.5589 151.881C72.6661 151.843 72.807 151.795 72.9869 151.734C73.3614 151.605 73.9108 151.411 74.6306 151.183C75.35 150.964 76.2352 150.675 77.3145 150.57C77.859 150.513 78.4524 150.646 79.0214 150.845C79.5949 151.04 80.1884 151.292 80.8446 151.354C81.5012 151.415 82.177 151.206 82.8383 150.912C83.5045 150.627 84.1852 150.247 84.9827 150.071C85.7849 149.896 86.6409 150 87.4626 150.214C88.2892 150.427 89.0963 150.746 89.9474 150.988C90.7886 151.23 91.6979 151.396 92.5877 151.211C93.4825 151.031 94.3137 150.561 95.2231 150.209C95.6802 150.033 96.1665 149.891 96.6868 149.872C97.2021 149.848 97.732 149.986 98.1746 150.252C99.0644 150.77 99.7015 151.61 100.63 151.947C101.087 152.109 101.588 152.099 102.065 151.98C102.541 151.866 102.998 151.667 103.455 151.463C103.912 151.263 104.37 151.055 104.856 150.921C105.342 150.784 105.877 150.741 106.373 150.893C106.874 151.031 107.272 151.363 107.608 151.695C107.948 152.028 108.25 152.384 108.595 152.669C109.271 153.282 110.224 153.363 111.07 153.173C111.931 153.006 112.738 152.683 113.565 152.47C113.978 152.375 114.396 152.275 114.824 152.284C115.242 152.28 115.68 152.36 116.035 152.569C116.409 152.75 116.691 153.059 116.915 153.367C117.138 153.681 117.313 154.008 117.493 154.322C117.844 154.939 118.276 155.509 118.908 155.704C119.521 155.908 120.178 155.775 120.707 155.523C121.242 155.272 121.69 154.92 122.035 154.531C122.716 153.742 123.076 152.892 123.44 152.251C123.79 151.596 124.106 151.111 124.354 150.807C124.602 150.503 124.768 150.371 124.768 150.371C124.777 150.38 124.632 150.527 124.398 150.836C124.165 151.149 123.863 151.634 123.528 152.294C123.177 152.94 122.837 153.795 122.142 154.621C121.787 155.025 121.33 155.395 120.776 155.661C120.226 155.927 119.531 156.084 118.85 155.865C118.155 155.656 117.678 155.03 117.323 154.412C116.953 153.799 116.618 153.087 115.932 152.745C115.271 152.36 114.415 152.47 113.623 152.674C112.816 152.883 112.009 153.215 111.118 153.391C110.676 153.481 110.205 153.524 109.733 153.443C109.495 153.419 109.271 153.32 109.042 153.239C108.823 153.134 108.624 152.997 108.439 152.845C108.07 152.541 107.763 152.185 107.433 151.862C107.102 151.539 106.738 151.24 106.295 151.121C105.857 150.988 105.381 151.026 104.919 151.154C104.457 151.282 104.01 151.486 103.552 151.686C103.095 151.885 102.629 152.094 102.118 152.218C101.612 152.346 101.048 152.36 100.538 152.18C99.512 151.795 98.8749 150.936 98.0383 150.461C97.6252 150.214 97.1585 150.095 96.6868 150.109C96.2151 150.123 95.753 150.257 95.3058 150.427C94.416 150.77 93.5748 151.244 92.6264 151.434C91.6784 151.629 90.7254 151.449 89.8694 151.197C89.009 150.945 88.2016 150.627 87.3944 150.413C86.5923 150.204 85.7753 150.1 85.0168 150.261C84.2583 150.423 83.5871 150.788 82.9064 151.073C82.2352 151.368 81.5158 151.586 80.8155 151.51C80.1202 151.439 79.5222 151.173 78.9532 150.978C78.3843 150.774 77.8349 150.641 77.3096 150.693C76.2544 150.779 75.3646 151.055 74.6451 151.259C73.9399 151.472 73.3855 151.643 72.9869 151.767C72.807 151.819 72.6661 151.857 72.5543 151.89C72.4716 151.933 72.4229 151.943 72.418 151.938Z" fill="#FAFAFA"/>
<path fill-rule="evenodd" clip-rule="evenodd" d="M99.9016 139.955C99.9062 139.964 99.8086 140.02 99.6234 140.121C99.4333 140.223 99.1502 140.357 98.7648 140.49C97.9988 140.763 96.7987 141.022 95.3251 140.828C94.9594 140.772 94.5787 140.698 94.1934 140.578C93.8077 140.463 93.4224 140.297 93.0321 140.14C92.6418 139.992 92.2222 139.858 91.7928 139.9C91.3636 139.936 90.9538 140.14 90.5684 140.398C90.1781 140.657 89.8024 140.966 89.3584 141.225C89.1386 141.354 88.8901 141.46 88.6265 141.53C88.4948 141.566 88.3584 141.58 88.2216 141.59C88.0849 141.608 87.9485 141.594 87.8068 141.58C86.6896 141.446 85.8018 140.749 84.8357 140.283C84.3528 140.047 83.8357 139.863 83.3329 139.918L83.1477 139.941C83.0892 139.955 83.0305 139.978 82.9721 139.996C82.8499 140.029 82.7378 140.084 82.6352 140.144C82.4255 140.273 82.2403 140.44 82.0647 140.62C81.7132 140.976 81.4109 141.386 80.9914 141.696C80.7813 141.853 80.5327 141.973 80.2642 142.014C79.996 142.056 79.7179 142.014 79.4836 141.904C79.0056 141.682 78.7129 141.285 78.4494 140.934C78.1859 140.574 77.9516 140.218 77.6738 139.932C77.1076 139.355 76.2977 139.119 75.6001 139.151C74.8829 139.165 74.3024 139.502 73.8487 139.821C73.39 140.144 73.0535 140.495 72.8338 140.814C72.3801 141.46 72.4727 141.932 72.4385 141.922C72.4385 141.922 72.4046 141.816 72.4239 141.608C72.4435 141.405 72.5314 141.1 72.7462 140.763C72.9606 140.426 73.2974 140.056 73.7558 139.715C74.2144 139.382 74.8195 139.013 75.5855 138.985C76.3319 138.944 77.2005 139.179 77.8248 139.803C78.1275 140.112 78.3714 140.472 78.6299 140.823C78.8885 141.169 79.1762 141.53 79.5765 141.714C79.9764 141.899 80.4739 141.816 80.84 141.525C81.2157 141.243 81.5131 140.841 81.8792 140.468C82.0597 140.283 82.2595 140.098 82.4988 139.955C82.6206 139.885 82.7477 139.821 82.8891 139.784C82.9575 139.761 83.0255 139.733 83.0939 139.719L83.3086 139.692C83.8941 139.627 84.46 139.839 84.9578 140.08C85.9528 140.564 86.836 141.239 87.8409 141.354C88.3388 141.414 88.8217 141.285 89.2362 141.04C89.6561 140.8 90.0318 140.495 90.4367 140.232C90.8366 139.969 91.2853 139.743 91.7782 139.705C92.271 139.664 92.7198 139.816 93.12 139.973C93.5199 140.135 93.8907 140.301 94.2617 140.421C94.6325 140.541 95.0032 140.62 95.3593 140.68C96.7937 140.892 97.9793 140.666 98.7403 140.426C99.5013 140.167 99.887 139.932 99.9016 139.955Z" fill="#FAFAFA"/>
<path fill-rule="evenodd" clip-rule="evenodd" d="M72.8535 164.975C72.8535 164.97 72.907 164.984 73 165.012C73.0535 165.026 73.1122 165.044 73.1757 165.068C73.2488 165.081 73.3318 165.091 73.4294 165.105C73.8154 165.151 74.3963 165.044 75.0652 164.728C75.7437 164.445 76.5053 163.916 77.5698 163.679C77.8381 163.623 78.1215 163.614 78.4144 163.641C78.7073 163.683 78.9953 163.776 79.269 163.911C79.8206 164.181 80.3039 164.589 80.8409 164.961C81.3684 165.328 82.0031 165.653 82.7158 165.592C83.4236 165.542 84.0925 165.179 84.8152 164.873C85.1763 164.719 85.5622 164.575 85.977 164.506C86.3922 164.436 86.8266 164.454 87.2464 164.529C88.091 164.678 88.8868 165.021 89.7268 165.239C90.5618 165.476 91.4698 165.467 92.3583 165.277C93.2517 165.095 94.1305 164.761 95.0289 164.436C95.9273 164.111 96.86 163.776 97.8703 163.656C98.8763 163.507 99.9455 163.702 100.883 164.111C101.83 164.501 102.694 165.007 103.607 165.356C104.51 165.709 105.492 165.853 106.395 165.602C108.221 165.105 109.549 163.697 111.282 163.154C112.137 162.866 113.084 162.88 113.889 163.14C114.71 163.386 115.413 163.809 116.077 164.217C116.736 164.631 117.356 165.049 117.986 165.388C118.616 165.732 119.26 165.978 119.9 166.117C121.193 166.387 122.424 166.257 123.429 165.978C124.44 165.69 125.236 165.239 125.822 164.812C126.999 163.93 127.345 163.168 127.384 163.205C127.389 163.205 127.365 163.251 127.311 163.33C127.247 163.423 127.169 163.544 127.072 163.693C126.832 163.99 126.476 164.441 125.88 164.886C125.294 165.332 124.494 165.806 123.469 166.108C122.448 166.405 121.193 166.554 119.86 166.289C119.196 166.15 118.528 165.904 117.888 165.555C117.244 165.212 116.619 164.798 115.96 164.389C115.301 163.99 114.607 163.577 113.821 163.349C113.045 163.103 112.166 163.093 111.356 163.372C110.535 163.632 109.779 164.115 109.002 164.594C108.226 165.072 107.415 165.583 106.459 165.839C105.497 166.108 104.437 165.955 103.51 165.588C102.572 165.23 101.708 164.724 100.78 164.343C99.8624 163.948 98.8714 163.767 97.8999 163.906C96.9281 164.018 96.0104 164.343 95.112 164.668C94.2135 164.993 93.3251 165.328 92.4024 165.514C91.4894 165.709 90.5226 165.718 89.6584 165.467C88.7942 165.239 88.0034 164.896 87.1976 164.747C86.7974 164.673 86.3922 164.654 86.0062 164.715C85.6206 164.775 85.2497 164.91 84.8933 165.058C84.1852 165.356 83.492 165.727 82.7255 165.783C81.9493 165.843 81.2608 165.481 80.7337 165.105C80.1916 164.724 79.718 164.315 79.1956 164.055C78.9368 163.925 78.6635 163.832 78.3948 163.795C78.1214 163.767 77.8528 163.772 77.599 163.823C76.5737 164.036 75.8022 164.547 75.109 164.826C74.4305 165.133 73.825 165.23 73.4294 165.165C73.3318 165.147 73.2441 165.137 73.1707 165.119C73.1023 165.091 73.0438 165.072 72.995 165.049C72.8974 164.998 72.8535 164.979 72.8535 164.975Z" fill="#FAFAFA"/>
<path fill-rule="evenodd" clip-rule="evenodd" d="M74.1621 81.473C74.1767 81.4632 74.3033 81.6521 74.6347 81.92C74.9658 82.1836 75.5213 82.5062 76.3104 82.6651C77.0999 82.8391 78.0839 82.8391 79.2289 82.7249C79.799 82.6803 80.4128 82.6205 81.0703 82.6306C81.7232 82.6404 82.4345 82.7249 83.1165 83.0029C83.8036 83.2763 84.4465 83.7033 85.1336 84.0808C85.4796 84.2696 85.8352 84.4433 86.22 84.5724C86.6001 84.6967 87.0094 84.7612 87.4234 84.7761C88.2566 84.8109 89.1236 84.6369 90.0105 84.473C90.897 84.3092 91.8423 84.1402 92.8166 84.2544C93.8056 84.369 94.7021 84.8805 95.5499 85.4069C96.4023 85.9283 97.2743 86.4996 98.2782 86.6436C98.775 86.7034 99.2867 86.6686 99.7885 86.5392C100.29 86.4054 100.777 86.2016 101.26 85.9779C102.229 85.5309 103.184 84.9548 104.28 84.667C104.826 84.5278 105.401 84.4781 105.961 84.5626C106.521 84.6568 107.043 84.8805 107.515 85.1535C108.465 85.6999 109.279 86.4101 110.204 86.8473C111.126 87.2892 112.153 87.3737 113.128 87.2149C114.107 87.0757 115.033 86.753 115.949 86.4699C116.859 86.1817 117.766 85.9134 118.677 85.7941C119.588 85.6752 120.494 85.7644 121.327 85.9631C123.003 86.3706 124.431 87.1105 125.77 87.6369C127.091 88.2431 128.406 88.3522 129.541 88.2478C130.677 88.1437 131.631 87.8606 132.367 87.5278C133.853 86.8524 134.335 85.9928 134.365 86.0377C134.365 86.0377 134.248 86.2364 133.95 86.5493C133.658 86.8672 133.147 87.2646 132.411 87.6221C131.675 87.9748 130.711 88.2775 129.561 88.3968C128.986 88.4613 128.362 88.4613 127.709 88.3819C127.052 88.3123 126.379 88.0839 125.712 87.8157C124.358 87.2943 122.93 86.5692 121.288 86.1817C120.47 85.9881 119.598 85.9087 118.711 86.0276C117.824 86.1469 116.933 86.4101 116.022 86.7034C115.111 86.9862 114.175 87.319 113.167 87.4632C112.168 87.6271 111.077 87.5477 110.107 87.0808C109.138 86.6236 108.319 85.9134 107.398 85.3819C106.94 85.1187 106.448 84.9102 105.927 84.8207C105.406 84.7413 104.87 84.7859 104.349 84.92C103.301 85.1934 102.351 85.7597 101.372 86.2165C100.88 86.4449 100.378 86.6537 99.8564 86.7926C99.3305 86.9267 98.7846 86.9666 98.2487 86.902C97.1722 86.7429 96.2707 86.1469 95.4279 85.6255C94.5802 85.0941 93.7228 84.6072 92.7921 84.498C90.9166 84.2892 89.1577 85.0792 87.4184 84.9947C86.9849 84.9748 86.561 84.9052 86.1616 84.7761C85.762 84.642 85.3967 84.4582 85.0457 84.2646C84.3491 83.877 83.7157 83.4499 83.0582 83.1817C81.7232 82.6404 80.3737 82.8093 79.2435 82.8789C78.0984 82.9783 77.0899 82.9681 76.2958 82.7745C75.4968 82.5958 74.9366 82.2528 74.6102 81.9697C74.2788 81.6717 74.1621 81.473 74.1621 81.473Z" fill="#FAFAFA"/>
<g opacity="0.3">
<path opacity="0.3" fill-rule="evenodd" clip-rule="evenodd" d="M110.61 87.1562L117.401 91.9284C115.242 97.3654 117.243 104.912 119.113 111.087C119.84 113.49 122.249 115.991 122.134 118.501C122.019 121.012 124.087 125.282 121.691 125.917C120.104 126.337 118.378 125.79 117.06 124.798C115.737 123.807 114.765 122.419 113.9 121.003C109.129 113.167 106.902 98.1808 110.61 87.1562Z" fill="black"/>
</g>
<path fill-rule="evenodd" clip-rule="evenodd" d="M74.1621 160.769C74.1621 160.76 74.2556 160.769 74.4271 160.798C74.6284 160.831 74.8737 160.878 75.1727 160.931C75.855 161.059 76.7822 161.225 77.9106 161.434C80.2216 161.852 83.4254 162.394 86.9777 162.874C90.5346 163.353 93.7631 163.681 96.1081 163.89C97.2513 163.99 98.1885 164.07 98.8854 164.128C99.1894 164.156 99.4397 164.18 99.6407 164.199C99.8126 164.218 99.9057 164.232 99.9007 164.241C99.9007 164.251 99.8076 164.251 99.636 164.251C99.4347 164.246 99.1844 164.237 98.8804 164.227C98.2228 164.204 97.2709 164.146 96.0984 164.066C93.7484 163.904 90.5102 163.6 86.948 163.12C83.391 162.641 80.1872 162.071 77.8812 161.61C76.7281 161.377 75.7959 161.178 75.1581 161.026C74.8637 160.954 74.6184 160.897 74.4221 160.85C74.2506 160.802 74.1621 160.779 74.1621 160.769Z" fill="#263238"/>
<path fill-rule="evenodd" clip-rule="evenodd" d="M85.0685 159.637C85.0735 159.627 85.2102 159.656 85.4743 159.724C85.7384 159.782 86.1196 159.908 86.6281 160C87.6307 160.228 89.1072 160.471 90.9455 160.554C92.7839 160.636 94.9842 160.5 97.3558 159.967C99.727 159.438 102.25 158.477 104.636 157.016C107.008 155.532 108.988 153.702 110.504 151.82C112.029 149.937 113.12 148.035 113.853 146.361C114.591 144.687 115.017 143.265 115.251 142.271C115.388 141.776 115.442 141.383 115.506 141.121C115.564 140.859 115.599 140.718 115.603 140.723C115.613 140.723 115.594 140.864 115.554 141.13C115.506 141.397 115.467 141.795 115.344 142.295C115.139 143.299 114.738 144.74 114.014 146.434C113.301 148.127 112.215 150.058 110.685 151.965C109.164 153.872 107.164 155.726 104.768 157.23C102.353 158.71 99.8005 159.671 97.4047 160.19C95.0088 160.714 92.7839 160.835 90.9359 160.728C89.0829 160.627 87.606 160.355 86.6039 160.093C86.1003 159.981 85.7188 159.84 85.4597 159.768C85.2005 159.695 85.0635 159.646 85.0685 159.637Z" fill="#263238"/>
<path fill-rule="evenodd" clip-rule="evenodd" d="M89.5345 74.1299C89.544 74.1299 89.544 74.2523 89.544 74.4821C89.544 74.7362 89.5394 75.0735 89.5394 75.4892C89.5489 76.3595 89.5295 77.6453 89.9059 79.1509C90.1084 79.8942 90.4076 80.7007 90.9477 81.4291C91.4688 82.1674 92.2211 82.798 93.1038 83.2868C93.9865 83.7807 95.0043 84.1329 96.0799 84.3674C97.1555 84.6069 98.2987 84.7292 99.4707 84.7C101.81 84.6511 104.019 83.9909 105.736 82.9057C107.468 81.8301 108.64 80.3242 109.335 78.9503C110.024 77.5572 110.232 76.286 110.275 75.4207C110.304 74.5506 110.217 74.0664 110.246 74.0664C110.256 74.0664 110.275 74.1838 110.309 74.4136C110.348 74.6434 110.367 74.9857 110.372 75.4257C110.357 76.3007 110.179 77.6011 109.494 79.0288C108.809 80.4416 107.627 81.9914 105.862 83.1059C104.116 84.2304 101.863 84.9102 99.4802 84.9541C98.2891 84.9833 97.1266 84.8613 96.0317 84.6118C94.9367 84.3724 93.9044 84.0056 92.9978 83.4924C92.0909 82.9839 91.3142 82.324 90.7836 81.5564C90.2291 80.7985 89.9299 79.9624 89.7369 79.1998C89.3753 77.6549 89.4285 76.3642 89.4429 75.4892C89.4574 75.0492 89.4813 74.7119 89.4958 74.4821C89.5102 74.2523 89.525 74.1299 89.5345 74.1299Z" fill="#263238"/>
<path fill-rule="evenodd" clip-rule="evenodd" d="M86.3776 75.3711C86.3776 75.3711 74.6421 75.8162 71.8543 87.5759C68.6272 101.194 70.5759 116.211 74.6326 123.731L74.8255 110.336C74.9558 101.039 77.189 91.8978 81.3516 83.5885L86.3776 75.3711Z" fill="#455A64"/>
<path fill-rule="evenodd" clip-rule="evenodd" d="M72.5049 113.711C72.4953 113.711 72.4854 113.57 72.4759 113.299C72.4663 113.008 72.4564 112.616 72.4373 112.121C72.4179 111.608 72.408 110.983 72.4324 110.256C72.4518 109.529 72.4469 108.701 72.5147 107.785C72.5437 107.325 72.5727 106.85 72.6017 106.351C72.6356 105.852 72.6986 105.334 72.747 104.801C72.8392 103.725 73.0135 102.586 73.1782 101.385C73.5656 98.9911 74.1029 96.3796 74.8537 93.6809C75.6236 90.9871 76.5292 88.4771 77.4493 86.2339C77.9336 85.1244 78.379 84.0585 78.8632 83.0991C79.1007 82.6145 79.3139 82.1399 79.5511 81.6989C79.7833 81.2579 80.011 80.8363 80.229 80.4296C80.6454 79.6155 81.0862 78.9082 81.4493 78.2783C81.8126 77.6485 82.1467 77.1155 82.4323 76.689C82.7034 76.2773 82.9215 75.9477 83.0813 75.7055C83.2315 75.4826 83.3138 75.3663 83.3234 75.3712C83.3329 75.3762 83.2605 75.5021 83.1247 75.7345C82.9748 75.9866 82.7713 76.3208 82.5196 76.7424C82.2485 77.1784 81.924 77.7114 81.5751 78.3508C81.2216 78.9856 80.7957 79.693 80.3888 80.512C80.1806 80.9187 79.9579 81.3453 79.7303 81.7863C79.5026 82.2319 79.2944 82.7068 79.0569 83.1913C78.5825 84.1554 78.1467 85.2164 77.667 86.3262C76.7618 88.5645 75.8657 91.0695 75.1008 93.7537C74.3549 96.4377 73.8078 99.0395 73.4105 101.424C73.2362 102.62 73.057 103.754 72.9552 104.825C72.9022 105.358 72.8343 105.876 72.7954 106.37C72.7615 106.87 72.7279 107.344 72.694 107.8C72.6116 108.711 72.6067 109.539 72.5727 110.266C72.5388 110.992 72.5338 111.618 72.5388 112.131C72.5338 112.625 72.5292 113.018 72.5292 113.309C72.5194 113.57 72.5147 113.711 72.5049 113.711Z" fill="#263238"/>
<path fill-rule="evenodd" clip-rule="evenodd" d="M78.0882 77.9884C78.0979 77.9934 78.0456 78.0997 77.9506 78.3031C77.8366 78.5255 77.6942 78.8208 77.5091 79.1834C77.1151 79.9381 76.5834 81.0558 75.9613 82.4492C75.6622 83.1506 75.3157 83.9151 75.0069 84.757C74.8502 85.1776 74.6697 85.6084 74.513 86.0583C74.3564 86.5131 74.1997 86.9775 74.0337 87.4564C73.4068 89.3771 72.8179 91.5202 72.3622 93.8086C71.4698 98.3951 71.2844 102.643 71.2941 105.705C71.3034 107.239 71.3318 108.477 71.3748 109.334C71.389 109.74 71.3984 110.069 71.4081 110.32C71.4126 110.548 71.4126 110.664 71.4032 110.664C71.3935 110.664 71.3793 110.548 71.3606 110.32C71.3415 110.069 71.3131 109.745 71.2798 109.334C71.2085 108.477 71.1516 107.234 71.1183 105.7C71.066 102.633 71.2227 98.3612 72.1203 93.7506C72.576 91.4478 73.179 89.2948 73.8199 87.3695C73.9862 86.8903 74.1522 86.4259 74.3089 85.9711C74.4704 85.5212 74.6555 85.0907 74.817 84.6698C75.1351 83.8279 75.4959 83.0683 75.8047 82.3669C76.4503 80.9784 77.0059 79.8706 77.4284 79.1255C77.628 78.7724 77.7891 78.4867 77.908 78.2642C78.0172 78.0852 78.0837 77.9838 78.0882 77.9884Z" fill="#263238"/>
<path fill-rule="evenodd" clip-rule="evenodd" d="M124.767 79.5007C124.767 79.5007 116.911 101.167 122.699 119.449L123.017 125.912C123.017 125.912 118.589 125.605 115.233 119.191C111.882 112.777 110.796 106.159 109.661 96.6235C108.526 87.0883 113.685 74.9375 113.685 74.9375C113.685 74.9375 122.839 76.9683 124.767 79.5007Z" fill="#455A64"/>
<path fill-rule="evenodd" clip-rule="evenodd" d="M123.458 125.474C123.458 125.479 123.418 125.46 123.338 125.421C123.247 125.373 123.136 125.31 122.995 125.237C122.703 125.063 122.285 124.777 121.816 124.336C120.869 123.46 119.847 121.852 119.207 119.682C118.87 118.603 118.618 117.392 118.401 116.089C118.165 114.791 117.973 113.392 117.802 111.915C117.47 108.965 117.293 105.701 117.369 102.278C117.444 98.8537 117.767 95.5995 118.24 92.6649C118.709 89.7349 119.283 87.1103 119.953 84.96C120.618 82.8052 121.414 81.1442 122.063 80.0494C122.391 79.5022 122.668 79.0954 122.864 78.8243C122.96 78.6984 123.036 78.6016 123.096 78.5192C123.151 78.4513 123.176 78.4174 123.182 78.4223C123.187 78.4273 123.161 78.4612 123.116 78.5337C123.061 78.6161 122.995 78.7228 122.909 78.8533C122.728 79.1293 122.461 79.5461 122.154 80.0979C121.534 81.1972 120.769 82.8582 120.134 85.0085C119.49 87.1538 118.94 89.7738 118.482 92.6988C118.029 95.6239 117.712 98.8686 117.636 102.283C117.56 105.697 117.727 108.951 118.044 111.891C118.21 113.363 118.391 114.757 118.618 116.055C118.824 117.358 119.066 118.559 119.389 119.629C120.003 121.784 120.98 123.377 121.892 124.264C122.794 125.16 123.484 125.436 123.458 125.474Z" fill="#263238"/>
<path fill-rule="evenodd" clip-rule="evenodd" d="M123.023 125.475C123.023 125.48 122.978 125.465 122.889 125.431C122.79 125.392 122.661 125.338 122.508 125.275C122.182 125.114 121.702 124.87 121.147 124.46C120.029 123.649 118.684 122.136 117.466 120.013C116.294 117.876 114.948 115.284 113.924 112.219C112.87 109.173 112.024 105.713 111.589 102.023C111.148 98.3333 111.158 94.775 111.46 91.5684C111.732 88.3571 112.395 85.5163 113.023 83.1689C113.375 82.0021 113.672 80.9383 114.033 80.0402C114.374 79.1325 114.641 78.3416 114.938 77.7317C115.21 77.1214 115.428 76.6433 115.581 76.3016C115.651 76.1502 115.71 76.0284 115.754 75.9308C115.794 75.8478 115.819 75.8086 115.824 75.8086C115.829 75.8086 115.814 75.8574 115.779 75.9404C115.74 76.038 115.69 76.1649 115.631 76.3212C115.487 76.6675 115.285 77.151 115.032 77.7659C114.75 78.3858 114.498 79.1763 114.171 80.084C113.825 80.9871 113.543 82.0463 113.201 83.2127C112.593 85.5604 111.955 88.3863 111.697 91.583C111.415 94.775 111.41 98.3137 111.846 101.984C112.281 105.654 113.112 109.1 114.151 112.131C115.156 115.181 116.482 117.773 117.625 119.911C118.812 122.029 120.123 123.542 121.212 124.367C121.751 124.787 122.216 125.041 122.533 125.216C122.686 125.29 122.805 125.348 122.904 125.397C122.983 125.451 123.023 125.475 123.023 125.475Z" fill="#263238"/>
<path fill-rule="evenodd" clip-rule="evenodd" d="M119.109 88.0078L124.331 89.3168L123.573 91.0576L118.66 90.1236L119.109 88.0078Z" fill="#263238"/>
<path fill-rule="evenodd" clip-rule="evenodd" d="M119.535 89.4579C119.507 89.4272 119.782 89.0726 120.229 88.5432L120.312 88.4453L120.378 88.5638C120.568 88.8925 120.768 89.2369 120.973 89.5967L120.815 89.5506C120.992 89.4373 121.173 89.3244 121.36 89.2062C121.555 89.088 121.741 88.9747 121.923 88.8618L122.025 88.8002L122.081 88.9132C122.267 89.2936 122.444 89.6534 122.616 89.9978L122.49 89.9565C123.068 89.6328 123.445 89.4478 123.459 89.4838C123.477 89.5198 123.138 89.7716 122.579 90.1366L122.5 90.188L122.449 90.0954C122.267 89.7562 122.076 89.4065 121.871 89.0366L122.03 89.088C121.848 89.2009 121.662 89.3191 121.471 89.4373C121.28 89.5558 121.099 89.6635 120.922 89.7768L120.82 89.8384L120.764 89.7303C120.568 89.3604 120.382 89.0058 120.205 88.6715L120.354 88.6922C119.88 89.1855 119.558 89.4887 119.535 89.4579Z" fill="#E8505B"/>
<path fill-rule="evenodd" clip-rule="evenodd" d="M141.782 124.223V142.345C141.782 145.652 140.299 148.783 137.742 150.877C134.625 153.425 130.366 154.068 126.642 152.543L86.8145 134.86L90.7135 121.555L122.753 132.132L122.714 123.882L141.782 124.223Z" fill="#845D47"/>
<path fill-rule="evenodd" clip-rule="evenodd" d="M81.5793 126.489L79.0459 99.3359L44.498 102.245L47.0304 129.398L81.5793 126.489Z" fill="white"/>
<path fill-rule="evenodd" clip-rule="evenodd" d="M79.8334 125.043L78.0076 101.082L46.2422 103.698L48.0681 127.658L79.8334 125.043Z" fill="#D2ECFF"/>
<path fill-rule="evenodd" clip-rule="evenodd" d="M50.6273 123.297L66.7467 121.842L66.7257 121.555L50.6055 123.007L50.6273 123.297Z" fill="#AEC3FF"/>
<path fill-rule="evenodd" clip-rule="evenodd" d="M77.2166 108.504L77.1961 108.193L73.7266 108.504L73.7475 108.812L77.2166 108.504Z" fill="#AEC3FF"/>
<path fill-rule="evenodd" clip-rule="evenodd" d="M77.2166 109.125L77.1961 108.814L73.7266 109.125L73.7475 109.433L77.2166 109.125Z" fill="#AEC3FF"/>
<path fill-rule="evenodd" clip-rule="evenodd" d="M77.2166 109.746L77.1961 109.435L73.7266 109.746L73.7475 110.054L77.2166 109.746Z" fill="#AEC3FF"/>
<path fill-rule="evenodd" clip-rule="evenodd" d="M77.2166 110.367L77.1961 110.056L73.7266 110.367L73.7475 110.676L77.2166 110.367Z" fill="#AEC3FF"/>
<path fill-rule="evenodd" clip-rule="evenodd" d="M77.2166 110.992L77.1961 110.681L73.7266 110.992L73.7475 111.301L77.2166 110.992Z" fill="#AEC3FF"/>
<path fill-rule="evenodd" clip-rule="evenodd" d="M77.2166 111.614L77.1961 111.302L73.7266 111.614L73.7475 111.922L77.2166 111.614Z" fill="#AEC3FF"/>
<path fill-rule="evenodd" clip-rule="evenodd" d="M50.6273 124.168L66.7467 122.713L66.7257 122.426L50.6055 123.878L50.6273 124.168Z" fill="#AEC3FF"/>
<path fill-rule="evenodd" clip-rule="evenodd" d="M50.656 120.248L59.7667 119.529L59.7165 118.941L50.6055 119.661L50.656 120.248Z" fill="#AEC3FF"/>
<path fill-rule="evenodd" clip-rule="evenodd" d="M68.247 101.874L68.5395 104.32L68.8129 104.311L68.5204 101.865L68.247 101.874Z" fill="#AEC3FF"/>
<path fill-rule="evenodd" clip-rule="evenodd" d="M67.6396 101.874L67.9321 104.32L68.2055 104.311L67.913 101.865L67.6396 101.874Z" fill="#AEC3FF"/>
<path fill-rule="evenodd" clip-rule="evenodd" d="M67.0322 101.874L67.3247 104.32L67.598 104.311L67.3056 101.865L67.0322 101.874Z" fill="#AEC3FF"/>
<path fill-rule="evenodd" clip-rule="evenodd" d="M50.6529 121.557L61.0755 120.775L61.028 120.25L50.6055 121.035L50.6529 121.557Z" fill="#AEC3FF"/>
<path fill-rule="evenodd" clip-rule="evenodd" d="M53.1809 110.07C53.1809 110.07 53.5311 108.858 54.6655 108.814C55.7998 108.771 58.2831 110.027 59.7059 109.233C61.1287 108.439 61.7682 106.134 63.5772 105.868C65.3862 105.602 65.0225 107.385 66.5824 108.245C68.1424 109.105 68.2423 108.681 68.7697 108.432C69.2971 108.182 68.0732 109.145 67.2142 109.012C66.3553 108.88 64.3242 107.382 63.4845 107.432C62.6448 107.483 62.2245 107.679 60.6025 109.025C58.9805 110.371 58.7231 110.019 57.96 110.099C57.1969 110.179 54.8257 109.291 54.2522 109.427C53.6787 109.563 53.1809 110.07 53.1809 110.07Z" fill="#D92840"/>
<path fill-rule="evenodd" clip-rule="evenodd" d="M51.9964 112.523C51.9964 112.523 53.4403 110.418 55.2624 110.191C57.0845 109.963 57.1755 111.436 58.6312 111.247C60.0869 111.058 61.6653 109.12 62.3005 108.619C62.9356 108.118 64.296 107.975 65.4263 109.086C66.5566 110.197 67.4046 110 68.034 109.789C68.6634 109.578 67.5363 110.565 65.9424 109.864C64.3485 109.163 63.2048 108.958 62.3869 109.442C61.5691 109.926 59.0155 111.46 59.0155 111.46C59.0155 111.46 57.5287 112.123 56.7713 111.805C56.0139 111.486 55.7465 111.008 54.761 110.931C53.7756 110.853 51.9964 112.523 51.9964 112.523Z" fill="white"/>
<path fill-rule="evenodd" clip-rule="evenodd" d="M52.4986 112.699C52.4986 112.699 53.4647 111.364 54.1461 111.18C54.8275 110.997 55.5447 111.855 56.0499 112.101C56.5552 112.347 57.7496 112.483 58.7608 111.929C59.772 111.374 61.6538 109.98 62.6883 109.647C63.7228 109.314 64.4834 109.533 65.3636 110.188C66.2437 110.843 66.4362 111.271 66.9896 111.624C67.543 111.977 68.3065 111.897 68.3065 111.897C68.3065 111.897 67.0153 112.219 66.0855 111.794C65.1557 111.368 64.0753 110.212 62.8677 110.301C61.6601 110.391 60.5807 111.7 60.0072 112.209C59.4337 112.717 58.7144 113.241 57.6333 113.131C56.5522 113.02 55.0224 111.798 54.0375 111.902C53.0527 112.005 52.4986 112.699 52.4986 112.699Z" fill="#006FAB"/>
<path fill-rule="evenodd" clip-rule="evenodd" d="M47.5508 105.085L51.4286 104.562L51.9133 109.268L48.0355 109.791L47.5508 105.085Z" fill="white"/>
<path fill-rule="evenodd" clip-rule="evenodd" d="M72.8535 102.472L76.7313 101.949L77.2675 104.949L73.2898 105.435L72.8535 102.472Z" fill="white"/>
<path fill-rule="evenodd" clip-rule="evenodd" d="M92.4857 123.202L89.767 119.831C87.974 117.611 85.2746 116.324 82.4185 116.324H80.0424L78.421 118.144C78.421 118.144 66.7909 118.648 66.3646 120.081L66.355 120.546L66.35 120.815L76.2948 121.485C76.2948 121.485 67.8343 121.46 67.3247 121.475C66.7662 121.495 64.9636 121.333 65.0026 122.326C65.0322 123.143 65.997 123.784 67.4621 123.999C68.0646 124.087 75.3934 124.723 75.3934 124.723C75.3934 124.723 67.697 124.65 67.3247 124.65C66.4186 124.645 66.5359 126.092 67.0701 126.273C67.4964 126.415 77.8282 129.429 77.8282 129.429C77.8282 129.429 76.0889 130.593 74.6732 130.49C73.2525 130.387 70.8227 128.567 70.3181 129.429C69.8135 130.289 69.9115 130.793 70.2151 130.999C70.5191 131.199 73.865 132.921 74.9771 133.224C76.0889 133.527 85.1913 134.966 85.1913 134.966L88.4736 135.494L92.4857 123.202Z" fill="#845D47"/>
<path fill-rule="evenodd" clip-rule="evenodd" d="M42.7538 119.373C42.7538 119.373 42.3927 120.005 43.4186 120.871C43.4186 120.871 42.1542 121.185 42.9422 123.308C42.9422 123.308 42.0715 125.507 44.4448 126.45C44.4448 126.45 43.8126 128.258 46.1032 129.124C48.3934 129.989 50.6063 128.496 50.6063 128.496C50.6063 128.496 45.247 118.938 43.6263 118.938C43.19 118.938 42.7538 118.938 42.7538 119.373Z" fill="#845D47"/>
<path fill-rule="evenodd" clip-rule="evenodd" d="M43.728 118.938C45.3396 119.4 47.1054 119.77 48.5964 120.37C49.0884 120.57 49.5709 120.581 49.8942 121.017C50.2175 121.453 50.2946 122.152 49.9231 122.547C49.5949 122.891 49.074 122.886 48.6155 122.83C46.8979 122.609 45.2529 121.983 43.627 121.356" fill="#845D47"/>
<path fill-rule="evenodd" clip-rule="evenodd" d="M44.1639 121.551C45.7754 122.013 47.5411 122.383 49.0317 122.984C49.524 123.184 50.0065 123.194 50.3298 123.63C50.653 124.067 50.7302 124.765 50.3586 125.16C50.0304 125.504 49.5096 125.5 49.0511 125.443C47.3336 125.222 45.6884 124.596 44.0625 123.969" fill="#845D47"/>
<path fill-rule="evenodd" clip-rule="evenodd" d="M45.0366 124.164C46.6482 124.626 48.414 124.996 49.905 125.597C50.397 125.797 50.8795 125.807 51.2028 126.244C51.5261 126.68 51.6032 127.379 51.2317 127.774C50.9038 128.118 50.3826 128.113 49.9244 128.056C48.2065 127.835 46.5615 127.209 44.9355 126.583" fill="#845D47"/>
<path fill-rule="evenodd" clip-rule="evenodd" d="M43.6273 121.128C43.6565 121.068 44.8018 121.42 46.2447 121.773C47.6824 122.13 48.8767 122.349 48.8618 122.414C48.8522 122.474 47.6337 122.349 46.1764 121.988C44.7189 121.631 43.6028 121.179 43.6273 121.128Z" fill="#5D4436"/>
<path fill-rule="evenodd" clip-rule="evenodd" d="M43.1898 123.738C43.215 123.67 44.5677 124.1 46.251 124.573C47.9343 125.051 49.3122 125.389 49.2968 125.462C49.2818 125.529 47.8743 125.298 46.1808 124.815C44.4825 124.341 43.1649 123.8 43.1898 123.738Z" fill="#5D4436"/>
<path fill-rule="evenodd" clip-rule="evenodd" d="M44.4983 126.796C44.5133 126.732 45.7985 126.968 47.3638 127.323C48.9291 127.677 50.1841 128.018 50.1692 128.082C50.1542 128.146 48.8689 127.909 47.3036 127.555C45.7332 127.2 44.4782 126.859 44.4983 126.796Z" fill="#5D4436"/>
<path fill-rule="evenodd" clip-rule="evenodd" d="M43.1896 118.944C43.2141 118.875 44.6497 119.369 46.4543 119.839C48.2586 120.319 49.7427 120.591 49.7332 120.665C49.7282 120.7 49.3497 120.675 48.7386 120.581C48.1325 120.487 47.298 120.324 46.3863 120.087C45.4793 119.849 44.6692 119.577 44.0967 119.36C43.5246 119.142 43.1801 118.974 43.1896 118.944Z" fill="#5D4436"/>
<path fill-rule="evenodd" clip-rule="evenodd" d="M74.5977 118.314C74.5977 118.224 76.4534 118.135 78.742 118.122C81.0307 118.109 82.8864 118.166 82.8864 118.263C82.8864 118.352 81.0307 118.442 78.742 118.455C76.4534 118.467 74.5977 118.41 74.5977 118.314Z" fill="#5D4436"/>
<path fill-rule="evenodd" clip-rule="evenodd" d="M120.842 131.582C120.847 131.562 120.98 131.582 121.228 131.626C121.476 131.666 121.824 131.76 122.254 131.899C123.107 132.171 124.252 132.69 125.378 133.497C126.503 134.308 127.371 135.243 127.915 135.975C128.187 136.341 128.392 136.653 128.516 136.876C128.645 137.098 128.707 137.227 128.692 137.237C128.659 137.262 128.354 136.787 127.777 136.094C127.204 135.401 126.336 134.511 125.235 133.714C124.133 132.923 123.022 132.388 122.196 132.077C121.367 131.75 120.833 131.621 120.842 131.582Z" fill="#5D4436"/>
<path fill-rule="evenodd" clip-rule="evenodd" d="M99.0576 84.0555C93.8024 83.6363 89.8357 79.1029 90.0982 73.8237C90.2828 70.119 90.4726 66.7797 90.4726 66.7797C90.4726 66.7797 82.5533 65.5464 82.4561 57.6057C82.3589 49.6647 83.73 31.4335 83.73 31.4335C92.8983 27.4851 103.476 28.8158 111.381 34.9191L112.552 35.8257L109.553 75.0616C109.14 80.4532 104.434 84.4842 99.0576 84.0555Z" fill="#845D47"/>
<path fill-rule="evenodd" clip-rule="evenodd" d="M90.3222 66.6409C90.3222 66.6409 95.3877 67.0638 100.773 63.6055C100.773 63.6055 98.3017 69.5054 90.3027 68.7702L90.3222 66.6409Z" fill="#5D4436"/>
<path fill-rule="evenodd" clip-rule="evenodd" d="M85.942 43.7232C85.9231 44.3245 86.3929 44.8376 86.9945 44.8719C87.5957 44.9062 88.0985 44.4466 88.1221 43.8453C88.141 43.244 87.6711 42.7309 87.0696 42.6966C86.4636 42.6674 85.9608 43.1266 85.942 43.7232Z" fill="black"/>
<path fill-rule="evenodd" clip-rule="evenodd" d="M85.523 42.6702C85.6603 42.8273 86.4925 42.1464 87.6746 42.1517C88.8568 42.1361 89.7265 42.8117 89.8543 42.6492C89.9157 42.5758 89.7787 42.2932 89.4004 41.9839C89.0269 41.6803 88.3932 41.3867 87.6556 41.3867C86.9181 41.3921 86.2985 41.6907 85.9437 41.9996C85.5799 42.3089 85.4567 42.5968 85.523 42.6702Z" fill="black"/>
<path fill-rule="evenodd" clip-rule="evenodd" d="M97.2838 44.1609C97.2649 44.7619 97.7347 45.2752 98.3363 45.3094C98.9375 45.3433 99.4403 44.8842 99.4639 44.2832C99.4828 43.6818 99.0129 43.1689 98.4114 43.1346C97.8099 43.1004 97.3026 43.5598 97.2838 44.1609Z" fill="black"/>
<path fill-rule="evenodd" clip-rule="evenodd" d="M97.3004 42.6702C97.4374 42.8273 98.2695 42.1464 99.4517 42.1517C100.634 42.1361 101.504 42.8117 101.632 42.6492C101.693 42.5758 101.556 42.2932 101.178 41.9839C100.804 41.6803 100.171 41.3867 99.4327 41.3867C98.6951 41.3921 98.0759 41.6907 97.7163 41.9996C97.357 42.3089 97.2341 42.5968 97.3004 42.6702Z" fill="black"/>
<path fill-rule="evenodd" clip-rule="evenodd" d="M92.8131 51.7963C92.8175 51.7293 92.101 51.6002 90.9314 51.4472C90.6355 51.4137 90.3581 51.3565 90.3071 51.146C90.2379 50.926 90.3628 50.5958 90.5059 50.2422C90.7833 49.5007 91.0745 48.7261 91.3799 47.913C92.591 44.5987 93.4741 41.8727 93.3446 41.8249C93.2153 41.777 92.1287 44.4218 90.9129 47.736C90.6216 48.554 90.3395 49.3335 90.076 50.0795C89.9649 50.4286 89.7709 50.8206 89.9234 51.28C90.0021 51.5094 90.2194 51.6721 90.409 51.7248C90.5984 51.782 90.765 51.7869 90.9129 51.7963C92.0825 51.8585 92.8083 51.8634 92.8131 51.7963Z" fill="black"/>
<path fill-rule="evenodd" clip-rule="evenodd" d="M96.2232 52.715C96.0313 52.7055 96.0313 54.0184 94.9399 54.9539C93.8529 55.889 92.4944 55.7437 92.4852 55.9276C92.4664 56.01 92.7895 56.1844 93.3612 56.1989C93.9233 56.2183 94.7429 56.0344 95.4083 55.4625C96.0734 54.8906 96.3592 54.1252 96.4013 53.5823C96.4481 53.0348 96.3076 52.7055 96.2232 52.715Z" fill="black"/>
<path fill-rule="evenodd" clip-rule="evenodd" d="M96.8546 38.0112C96.9788 38.3656 98.219 38.1987 99.6725 38.3812C101.131 38.5323 102.307 38.9803 102.5 38.6627C102.585 38.5113 102.381 38.1781 101.905 37.8339C101.434 37.4901 100.685 37.1671 99.8065 37.0629C98.9335 36.9637 98.1296 37.1097 97.5987 37.3337C97.0679 37.5631 96.8002 37.8392 96.8546 38.0112Z" fill="black"/>
<path fill-rule="evenodd" clip-rule="evenodd" d="M85.5396 39.0958C85.7628 39.3578 86.6367 39.0864 87.693 39.0726C88.7445 39.0266 89.6384 39.2476 89.8416 38.9759C89.9332 38.8425 89.7908 38.5801 89.4 38.3315C89.0137 38.0832 88.3737 37.8851 87.6474 37.9035C86.9263 37.9267 86.2964 38.1612 85.9308 38.4283C85.5649 38.6997 85.438 38.9715 85.5396 39.0958Z" fill="black"/>
<path fill-rule="evenodd" clip-rule="evenodd" d="M111.556 43.8159C111.694 43.7577 117.084 42.2047 116.911 47.627C116.733 53.0493 111.249 51.7547 111.244 51.5991C111.234 51.4431 111.556 43.8159 111.556 43.8159Z" fill="#845D47"/>
<path fill-rule="evenodd" clip-rule="evenodd" d="M112.994 50.0515C113.02 50.0368 113.091 50.1207 113.255 50.1995C113.419 50.2784 113.696 50.3327 113.997 50.2388C114.606 50.0465 115.144 49.139 115.205 48.1479C115.236 47.6496 115.144 47.1712 114.975 46.7716C114.816 46.3623 114.555 46.0764 114.253 46.0123C113.956 45.9382 113.731 46.106 113.66 46.2589C113.578 46.4116 113.608 46.5203 113.578 46.53C113.563 46.5448 113.46 46.4364 113.511 46.2096C113.537 46.1009 113.608 45.9728 113.747 45.8741C113.885 45.7704 114.09 45.7211 114.299 45.7506C114.74 45.7953 115.118 46.1945 115.308 46.6337C115.518 47.0776 115.635 47.6151 115.599 48.1774C115.528 49.2822 114.903 50.2981 114.074 50.5052C113.67 50.5941 113.337 50.4659 113.173 50.3327C113 50.1847 112.974 50.0613 112.994 50.0515Z" fill="#5D4436"/>
<path fill-rule="evenodd" clip-rule="evenodd" d="M80.6087 24.4771C81.7636 22.1941 84.0053 20.4927 86.5101 20.0138C89.0147 19.5296 91.729 20.2729 93.6442 21.9643C94.8429 19.5688 97.2795 17.8332 99.9305 17.491C102.582 17.1441 105.379 18.2 107.148 20.2094C108.668 21.9397 109.458 24.2862 111.241 25.7432C112.786 27.0046 114.876 27.42 116.426 28.6714C118.137 30.0452 118.985 32.4114 118.546 34.5671C118.107 36.7181 116.397 38.5612 114.287 39.1528C115.988 42.2327 114.394 46.6521 111.12 47.9232L110.33 47.5956C107.328 44.2909 106.641 39.0697 108.688 35.0952C108.59 35.1002 108.498 35.0856 108.405 35.0806C107.362 35.6526 106.159 35.9409 104.969 35.8678C103.074 35.7554 101.246 34.7384 100.145 33.1836C97.9766 34.753 94.8724 34.885 92.582 33.5016C92.2213 33.2814 91.8607 33.0273 91.4416 32.9834C90.9444 32.9296 90.472 33.1886 90.0185 33.4088C88.8297 33.9954 87.4894 34.3766 86.1786 34.186C84.9554 34.0101 83.7762 33.2425 83.2935 32.1131C83.2644 32.1081 83.2352 32.1081 83.206 32.1035C81.6758 31.8248 80.4479 30.5145 80.0285 29.0136C79.6049 27.5128 79.9069 25.8702 80.6087 24.4771Z" fill="black"/>
<path fill-rule="evenodd" clip-rule="evenodd" d="M60.2017 11.3335C60.2241 9.69707 59.8801 8.07629 59.195 6.587L55.417 10.8026C55.4623 11.1214 55.4866 11.443 55.4896 11.7649C55.4943 13.3684 54.9601 14.9279 53.9707 16.1978C52.9816 17.4677 51.594 18.3758 50.026 18.7793C48.4581 19.1827 46.7992 19.0582 45.3106 18.4258C43.822 17.7933 42.5883 16.6888 41.8035 15.2861C41.0187 13.883 40.7278 12.2615 40.9764 10.6771C41.225 9.09256 41.9988 7.6349 43.1765 6.53374C44.3539 5.43259 45.8678 4.75019 47.4804 4.5944C49.0926 4.43828 50.7115 4.81776 52.0818 5.67292L55.2717 2.11115C53.3342 0.714063 51.2031 0.00170734 48.3315 0.00170734C45.5402 -0.0452282 42.8206 0.87684 40.6442 2.6078C37.4993 5.00484 36.209 8.772 36.209 11.0835C36.209 11.6587 36.2436 12.2136 36.2956 12.7545C36.336 13.9789 36.6229 15.1829 37.1397 16.2957C37.2157 16.4771 37.2987 16.6382 37.3853 16.8333C39.6201 21.5079 44.7164 26.3808 47.0308 29.0658C47.1711 29.2406 47.3494 29.3817 47.5524 29.4786C47.7556 29.5758 47.9782 29.626 48.2035 29.626C48.4291 29.626 48.6517 29.5758 48.8547 29.4786C49.058 29.3817 49.2363 29.2406 49.3765 29.0658C52.3794 25.5796 60.1014 18.3881 60.1014 12.7545C60.1014 12.7136 60.1014 12.676 60.1014 12.6384C60.1624 12.206 60.1957 11.7702 60.2017 11.3335Z" fill="#041B54"/>
<path fill-rule="evenodd" clip-rule="evenodd" d="M46.2477 8.65215L43.625 11.1303L48.816 16.5568L58.4575 5.75725C57.91 4.89484 57.2452 4.11183 56.4812 3.4306C56.3358 3.2962 56.1868 3.17859 56.0411 3.05078L48.7247 11.2446L46.2477 8.65215Z" fill="#FF0029"/>
</svg>
