<svg width="24" height="24" viewBox="0 0 24 24" fill="none" xmlns="http://www.w3.org/2000/svg">
<circle cx="12" cy="12" r="12" fill="black"/>
<path d="M12.8367 19.15H12.9867V19V8.06188V7.91188H12.8367H11.1429H10.9929V8.06188V19V19.15H11.1429H12.8367ZM12.8051 6.04704L12.8051 6.04705L12.8071 6.04519C13.0442 5.82124 13.15 5.49578 13.15 5.0978C13.15 4.70025 13.0444 4.37646 12.8051 4.15855C12.5796 3.95321 12.3086 3.85 12 3.85C11.6803 3.85 11.4046 3.95163 11.1838 4.15938C10.9504 4.37206 10.85 4.69713 10.85 5.0978C10.85 5.49437 10.9516 5.81915 11.1808 6.04336L11.1808 6.04338L11.1828 6.04525C11.4038 6.25365 11.6798 6.35559 12 6.35559C12.3086 6.35559 12.5796 6.25237 12.8051 6.04704Z" fill="white" stroke="white" stroke-width="0.3"/>
</svg>
