<svg width="12" height="17" viewBox="0 0 12 17" fill="none" xmlns="http://www.w3.org/2000/svg">
<path d="M11.9995 6.23233C12.0107 5.33253 11.8387 4.44119 11.496 3.62226L9.60651 5.94044C9.62913 6.11578 9.64127 6.29255 9.64285 6.4696C9.64518 7.35138 9.37795 8.20895 8.88325 8.90727C8.38854 9.60558 7.69447 10.105 6.91032 10.3268C6.12618 10.5486 5.29653 10.4802 4.55202 10.1324C3.8075 9.78462 3.19043 9.17718 2.79799 8.40576C2.40554 7.63433 2.26001 6.74274 2.38431 5.8714C2.50862 5.00007 2.8957 4.19848 3.48459 3.59289C4.07349 2.98729 4.83074 2.6121 5.63709 2.52639C6.44345 2.44067 7.25309 2.64932 7.93852 3.11946L9.53384 1.16096C8.56488 0.392633 7.49903 0.000935133 6.0629 0.000935133C4.66687 -0.0248217 3.30662 0.482206 2.21822 1.43402C0.645395 2.75224 0 4.82372 0 6.09486C0 6.41123 0.0173028 6.7163 0.043257 7.01384C0.0634648 7.68702 0.207002 8.34903 0.465446 8.96103C0.503512 9.06084 0.54504 9.14935 0.588297 9.25669C1.70606 11.8272 4.25476 14.507 5.41231 15.9834C5.48247 16.0794 5.57166 16.1571 5.67323 16.2104C5.77479 16.2638 5.88611 16.2915 5.99888 16.2915C6.11165 16.2915 6.22297 16.2638 6.32453 16.2104C6.4261 16.1571 6.51528 16.0794 6.58544 15.9834C8.08733 14.0663 11.9493 10.1116 11.9493 7.01384C11.9493 6.99124 11.9493 6.97053 11.9493 6.94981C11.9798 6.71203 11.9966 6.47239 11.9995 6.23233Z" fill="#041B54"/>
<path d="M4.94644 4.70083L3.60547 6.08872L6.25972 9.12814L11.1893 3.07942C10.9094 2.59628 10.5694 2.15772 10.1788 1.77627C10.1044 1.70095 10.0283 1.63504 9.95386 1.56348L6.213 6.15275L4.94644 4.70083Z" fill="#FF0029"/>
</svg>
