<svg width="20" height="20" viewBox="0 0 20 20" fill="none" xmlns="http://www.w3.org/2000/svg">
<path fill-rule="evenodd" clip-rule="evenodd" d="M12.4693 11.8796H13.1276L17.2859 16.0462L16.0443 17.2879L11.8776 13.1296V12.4712L11.6526 12.2379C10.7026 13.0546 9.46927 13.5462 8.1276 13.5462C5.13594 13.5462 2.71094 11.1212 2.71094 8.12956C2.71094 5.13789 5.13594 2.71289 8.1276 2.71289C11.1193 2.71289 13.5443 5.13789 13.5443 8.12956C13.5443 9.47122 13.0526 10.7046 12.2359 11.6546L12.4693 11.8796ZM4.3776 8.12956C4.3776 10.2046 6.0526 11.8796 8.1276 11.8796C10.2026 11.8796 11.8776 10.2046 11.8776 8.12956C11.8776 6.05456 10.2026 4.37956 8.1276 4.37956C6.0526 4.37956 4.3776 6.05456 4.3776 8.12956Z" fill="#FF0029"/>
</svg>
