<svg width="24" height="24" viewBox="0 0 24 24" fill="none" xmlns="http://www.w3.org/2000/svg">
<path fill-rule="evenodd" clip-rule="evenodd" d="M14.965 14.2539H15.755L20.745 19.2539L19.255 20.7439L14.255 15.7539V14.9639L13.985 14.6839C12.845 15.6639 11.365 16.2539 9.755 16.2539C6.165 16.2539 3.255 13.3439 3.255 9.75391C3.255 6.16391 6.165 3.25391 9.755 3.25391C13.345 3.25391 16.255 6.16391 16.255 9.75391C16.255 11.3639 15.665 12.8439 14.685 13.9839L14.965 14.2539ZM5.255 9.75391C5.255 12.2439 7.26501 14.2539 9.755 14.2539C12.245 14.2539 14.255 12.2439 14.255 9.75391C14.255 7.26391 12.245 5.25391 9.755 5.25391C7.26501 5.25391 5.255 7.26391 5.255 9.75391Z" fill="white"/>
</svg>
