<svg width="50" height="50" viewBox="0 0 50 50" fill="none" xmlns="http://www.w3.org/2000/svg">
<path d="M25.0013 4.1665C16.9388 4.1665 10.418 10.6873 10.418 18.7498C10.418 29.6873 25.0013 45.8332 25.0013 45.8332C25.0013 45.8332 39.5846 29.6873 39.5846 18.7498C39.5846 10.6873 33.0638 4.1665 25.0013 4.1665Z" fill="current"/>
<path fill-rule="evenodd" clip-rule="evenodd" d="M33.5654 13.5923V23.2617C33.5654 23.2617 30.784 22.4882 28.7174 22.8813C26.8664 23.2332 25.5042 24.2263 25.2744 24.4018V24.4311C25.2744 24.4311 25.2676 24.4257 25.2552 24.4162C25.243 24.4257 25.2362 24.4311 25.2362 24.4311V24.4018C25.0066 24.2263 23.6444 23.2334 21.794 22.8813C19.727 22.488 16.6732 23.2617 16.6732 23.2617V13.5636C16.4946 13.5901 16.3052 13.6184 16.1016 13.6485V24.0651C16.1016 24.0651 19.4296 23.2181 21.6934 23.6489C23.9196 24.0724 25.2646 25.3463 25.2646 25.3463C25.2646 25.3463 26.6096 24.0724 28.8356 23.6489C31.0998 23.2179 34.2912 24.0651 34.2912 24.0651V13.6934C34.2914 13.6934 34.0136 13.6469 33.5654 13.5923ZM21.626 21.9026C23.4362 22.2465 24.8352 23.2828 24.8352 23.2828V13.7697C24.8352 13.7697 23.4288 12.7322 21.6144 12.3873C19.7778 12.038 17.3786 12.7281 17.3786 12.7281V22.2412C17.3786 22.2412 19.7854 21.5524 21.626 21.9026ZM32.8586 22.276V12.7629C32.8586 12.7629 30.6594 12.0726 28.8236 12.4221C27.0092 12.7669 25.5566 13.8041 25.5566 13.8041V23.3174C25.5566 23.3174 27.0012 22.2815 28.8118 21.937C30.6522 21.5875 32.8586 22.276 32.8586 22.276Z" fill="white"/>
</svg>
