<svg width="22" height="22" viewBox="0 0 22 22" fill="none" xmlns="http://www.w3.org/2000/svg">
<path fill-rule="evenodd" clip-rule="evenodd" d="M10.9987 1.8335C7.4512 1.8335 4.58203 4.70266 4.58203 8.25016C4.58203 13.0627 10.9987 20.1668 10.9987 20.1668C10.9987 20.1668 17.4154 13.0627 17.4154 8.25016C17.4154 4.70266 14.5462 1.8335 10.9987 1.8335ZM6.41536 8.25016C6.41536 5.72016 8.4687 3.66683 10.9987 3.66683C13.5287 3.66683 15.582 5.72016 15.582 8.25016C15.582 10.8902 12.942 14.841 10.9987 17.3068C9.09203 14.8593 6.41536 10.8627 6.41536 8.25016ZM8.70703 8.25016C8.70703 6.98451 9.73305 5.9585 10.9987 5.9585C11.8174 5.9585 12.574 6.39529 12.9833 7.10433C13.3927 7.81337 13.3927 8.68695 12.9833 9.396C12.574 10.105 11.8174 10.5418 10.9987 10.5418C9.73305 10.5418 8.70703 9.51581 8.70703 8.25016Z" fill="#9194A8"/>
</svg>
