<svg width="24" height="24" viewBox="0 0 24 24" fill="none" xmlns="http://www.w3.org/2000/svg">
<path fill-rule="evenodd" clip-rule="evenodd" d="M0 12C0 5.37258 5.37258 0 12 0C18.6274 0 24 5.37258 24 12C24 18.6274 18.6274 24 12 24C5.37258 24 0 18.6274 0 12Z" fill="#55ACEE"/>
<path fill-rule="evenodd" clip-rule="evenodd" d="M11.6406 9.75297L11.6658 10.1682L11.2461 10.1174C9.71843 9.92245 8.38383 9.26148 7.25067 8.15138L6.69668 7.60057L6.55399 8.00732C6.25181 8.91404 6.44487 9.87161 7.0744 10.5156C7.41015 10.8715 7.33461 10.9224 6.75544 10.7105C6.55399 10.6427 6.37772 10.5919 6.36093 10.6173C6.30218 10.6766 6.50363 11.4478 6.66311 11.7528C6.88134 12.1765 7.32621 12.5918 7.81305 12.8375L8.22434 13.0324L7.73751 13.0409C7.26746 13.0409 7.25067 13.0494 7.30103 13.2273C7.46891 13.7781 8.13201 14.3628 8.87066 14.6171L9.39108 14.795L8.93781 15.0662C8.26631 15.456 7.4773 15.6763 6.68829 15.6933C6.31057 15.7017 6 15.7356 6 15.7611C6 15.8458 7.02404 16.3203 7.61999 16.5068C9.40786 17.0576 11.5315 16.8203 13.1263 15.8797C14.2595 15.2102 15.3926 13.8798 15.9214 12.5918C16.2068 11.9054 16.4922 10.6512 16.4922 10.0496C16.4922 9.65975 16.5174 9.60891 16.9874 9.14284C17.2644 8.87167 17.5246 8.57508 17.575 8.49034C17.6589 8.32933 17.6505 8.32933 17.2224 8.47339C16.509 8.72761 16.4083 8.69372 16.7608 8.31239C17.021 8.04122 17.3316 7.54972 17.3316 7.40566C17.3316 7.38024 17.2057 7.42261 17.063 7.49888C16.9119 7.58362 16.5761 7.71073 16.3243 7.787L15.8711 7.93105L15.4598 7.65141C15.2331 7.49888 14.9142 7.3294 14.7463 7.27855C14.3182 7.15992 13.6635 7.17687 13.2774 7.31245C12.2282 7.69378 11.5651 8.67677 11.6406 9.75297Z" fill="white"/>
</svg>
