<svg width="32" height="32" viewBox="0 0 32 32" fill="none" xmlns="http://www.w3.org/2000/svg">
<path fill-rule="evenodd" clip-rule="evenodd" d="M16.0003 2.66602C14.5276 2.66602 13.3337 3.85992 13.3337 5.33268C13.3337 6.80544 14.5276 7.99935 16.0003 7.99935C17.4731 7.99935 18.667 6.80544 18.667 5.33268C18.667 3.85992 17.4731 2.66602 16.0003 2.66602ZM25.3337 17.3328V14.6662C23.2803 14.6928 21.2137 13.6662 19.907 12.2262L18.187 10.3195C17.9603 10.0662 17.6803 9.86615 17.3737 9.71948C17.367 9.71948 17.3637 9.71615 17.3603 9.71282C17.357 9.70949 17.3537 9.70615 17.347 9.70615H17.3337C16.867 9.43948 16.3337 9.30615 15.747 9.35948C14.347 9.47948 13.3337 10.7195 13.3337 12.1195V19.9995C13.3337 21.4662 14.5337 22.6662 16.0003 22.6662H22.667V29.3328H25.3337V21.9995C25.3337 20.5328 24.1337 19.3328 22.667 19.3328H18.667V14.7328C20.387 16.1595 23.0003 17.3195 25.3337 17.3328ZM9.33366 22.6659C9.33366 24.8792 11.1203 26.6659 13.3337 26.6659C15.0803 26.6659 16.5603 25.5459 17.107 23.9992H19.867C19.2537 27.0392 16.5603 29.3326 13.3337 29.3326C9.65366 29.3326 6.66699 26.3459 6.66699 22.6659C6.66699 19.4392 8.96033 16.7459 12.0003 16.1326V18.8926C10.4537 19.4526 9.33366 20.9192 9.33366 22.6659Z" fill="#9194A8"/>
</svg>
