<svg width="188" height="42" viewBox="0 0 188 42" fill="none" xmlns="http://www.w3.org/2000/svg">
<path d="M98.8751 23.2881C98.897 21.6818 98.5596 20.0905 97.8872 18.6286L94.18 22.767C94.2244 23.08 94.2482 23.3956 94.2513 23.7117C94.2559 25.2858 93.7316 26.8168 92.7609 28.0634C91.7903 29.31 90.4285 30.2015 88.89 30.5975C87.3515 30.9935 85.7237 30.8714 84.263 30.2505C82.8022 29.6297 81.5915 28.5453 80.8215 27.1681C80.0515 25.791 79.766 24.1993 80.0099 22.6438C80.2538 21.0883 81.0132 19.6573 82.1686 18.5761C83.3241 17.495 84.8098 16.8252 86.3919 16.6722C87.974 16.5192 89.5625 16.8917 90.9074 17.731L94.0374 14.2347C92.1363 12.863 90.0451 12.1638 87.2273 12.1638C84.4883 12.1178 81.8195 13.0229 79.684 14.7221C76.5981 17.0754 75.3318 20.7734 75.3318 23.0427C75.3318 23.6075 75.3657 24.1521 75.4167 24.6832C75.4563 25.885 75.7379 27.0668 76.245 28.1594C76.3197 28.3376 76.4012 28.4956 76.486 28.6872C78.6791 33.2761 83.6797 38.06 85.9509 40.6957C86.0885 40.8672 86.2635 41.0058 86.4628 41.101C86.6621 41.1962 86.8805 41.2457 87.1017 41.2457C87.323 41.2457 87.5414 41.1962 87.7407 41.101C87.9399 41.0058 88.1149 40.8672 88.2526 40.6957C91.1993 37.2733 98.7766 30.2135 98.7766 24.6832C98.7766 24.6429 98.7766 24.6059 98.7766 24.5689C98.8364 24.1445 98.8693 23.7167 98.8751 23.2881Z" fill="white"/>
<path d="M4.95988 34.4689C4.87379 34.532 4.77387 34.574 4.66825 34.5915C4.56264 34.609 4.45434 34.6016 4.3522 34.5697L3.64607 34.321C3.44238 34.2705 3.39146 34.1697 3.44238 33.9175C3.59515 33.2183 3.59515 29.0563 3.59515 25.2978V10.7579C3.59515 7.39603 2.93655 5.75546 1.36812 5.30497L0.658601 5.10326C0.101846 4.96207 0 4.86121 0 4.70657V4.11152C0 3.96024 0.101845 3.75853 0.556755 3.60725C3.18584 2.83694 5.75652 1.88315 8.24949 0.753051C9.11178 0.302565 9.50558 0 10.0216 0C10.5376 0 10.6293 0.336183 10.6293 0.853906C10.6293 1.25396 10.2898 5.92691 10.2253 10.8386L10.1234 14.4559C11.9465 12.6506 14.3772 12.0488 16.9131 12.0488C20.2028 12.0488 22.7862 14.2037 24.1 16.3116C24.9623 17.6564 25.57 19.5188 25.57 22.7764C25.57 28.0411 20.5083 34.5059 13.9766 34.5059C10.6361 34.5059 8.71458 33.9041 7.04431 33.2048L4.95988 34.4689ZM10.1846 23.1429C10.1846 27.3015 10.1336 29.1572 10.7922 30.4582C11.4508 31.7592 12.3505 32.6098 13.7186 32.6098C15.1852 32.6098 16.9573 32.1055 17.918 30.001C18.9806 27.6948 18.7294 26.4442 18.7294 24.4372C18.7294 17.8211 15.9456 15.6157 13.2976 15.6157C12.1915 15.65 11.1155 15.9812 10.1846 16.5738V23.1429Z" fill="white"/>
<path d="M37.8319 17.8172C37.8319 16.8087 37.7301 15.6623 37.0715 15.0605C36.5657 14.61 35.7577 14.4587 34.9463 14.4587C33.984 14.444 33.0412 14.7285 32.2508 15.2723C31.4904 15.7732 32.098 16.617 32.098 18.2274C32.098 19.9318 30.8318 21.0849 28.8084 21.0849C27.644 21.0849 26.6323 20.3856 26.6323 19.283C26.6323 18.1803 26.9718 16.6742 28.048 15.7732C30.7288 13.4158 34.1823 12.1018 37.7674 12.0752C41.0061 12.0752 41.8684 12.5795 42.931 13.5309C44.0445 14.5394 44.3467 15.985 44.3467 17.7903L44.4485 27.7649C44.4994 30.3737 44.6522 31.1738 45.6129 31.1738C45.9176 31.1541 46.2125 31.06 46.4714 30.8999C46.7303 30.7397 46.9451 30.5185 47.0965 30.256C47.2968 29.9534 47.436 29.903 47.6023 30.0039L48.3085 30.4073C48.5121 30.5048 48.6479 30.6561 48.4612 31.1065C48.0063 32.1622 46.4888 34.5154 43.3486 34.5154C41.3762 34.5154 39.5022 33.8128 38.5415 31.4595H38.2869C37.0492 32.6309 35.5686 33.5212 33.9482 34.0683C32.9298 34.4045 31.7721 34.5188 30.3022 34.5188C28.5165 34.5188 26.948 32.6093 26.948 29.9198C26.948 27.7144 28.0106 25.4116 31.3002 23.8046C35.2485 21.9523 36.5147 21.4009 37.8319 20.4966V17.8172ZM37.8829 22.4801C35.4012 23.882 33.327 24.635 33.327 28.0943C33.327 30.4006 34.3896 31.352 35.5031 31.4024C36.861 31.3015 37.8795 30.0576 37.8795 29.5971L37.8829 22.4801Z" fill="white"/>
<path d="M58.8056 23.7919C58.8056 25.809 58.8056 29.0565 58.9584 30.5155C59.0093 31.3694 59.1621 32.0721 60.2247 32.0721H61.9459C62.4008 32.0721 62.5026 32.22 62.5026 32.5225V33.4739C62.5026 33.7765 62.4008 33.9748 62.1971 33.9748C61.8576 33.9748 59.617 33.8236 55.6179 33.8236C51.3641 33.8236 49.3408 33.9748 48.8859 33.9748C48.6313 33.9748 48.5294 33.7765 48.5294 33.3731V32.5158C48.5294 32.1796 48.6313 32.0653 49.188 32.0653H50.7089C51.2657 32.0653 52.0669 31.7291 52.0669 29.907V13.9686C52.0669 10.4084 52.0669 10.516 51.965 9.21158C51.8666 7.50713 50.8006 6.80451 49.1812 6.3036L48.2714 6.0044C47.915 5.85311 47.8674 5.70183 47.8674 5.45305V4.70673C47.8674 4.55881 47.9659 4.37054 48.3223 4.30667C50.6003 3.85618 55.8623 2.15173 57.3323 1.39868C57.677 1.21408 58.0557 1.09976 58.4458 1.0625C58.7479 1.0625 58.9516 1.31128 58.9007 1.96347C58.8498 4.72017 58.7988 10.9799 58.7988 14.4392L58.8056 23.7919Z" fill="white"/>
<path d="M72.2184 23.7919C72.2184 25.809 72.2184 29.0565 72.3712 30.5155C72.4221 31.3694 72.5749 32.0721 73.6374 32.0721H75.3654C75.8203 32.0721 75.9222 32.22 75.9222 32.5225V33.4739C75.9222 33.7765 75.8203 33.9748 75.6166 33.9748C75.2772 33.9748 73.0365 33.8236 69.0374 33.8236C64.7837 33.8236 62.7603 33.9748 62.3054 33.9748C62.0508 33.9748 61.9659 33.7765 61.9659 33.3731V32.5158C61.9659 32.1796 62.0678 32.0653 62.6246 32.0653H64.1454C64.7022 32.0653 65.5034 31.7291 65.5034 29.907V13.9686C65.5034 10.4084 65.5034 10.516 65.4015 9.21158C65.2997 7.50713 64.2371 6.80451 62.6178 6.3036L61.7079 6.0044C61.3515 5.85311 61.304 5.70183 61.304 5.45305V4.70673C61.304 4.55881 61.4024 4.37054 61.7589 4.30667C64.0368 3.85618 69.2988 2.15173 70.7688 1.39868C71.1136 1.21408 71.4922 1.09976 71.8823 1.0625C72.1844 1.0625 72.3881 1.31128 72.3372 1.96347C72.2863 4.72017 72.2354 10.9799 72.2354 14.4392L72.2184 23.7919Z" fill="white"/>
<path d="M107.671 26.5013C107.671 30.6095 109.239 31.5138 110.455 31.5138C111.37 31.5641 112.281 31.3616 113.086 30.9289C113.239 30.828 113.391 30.828 113.541 31.1272L113.897 31.8803C113.954 31.9942 113.964 32.1252 113.926 32.2464C113.888 32.3677 113.805 32.47 113.694 32.5325C112.835 33.1342 110.553 34.5496 106.605 34.5496C103.166 34.5496 100.987 32.1963 100.987 29.8901C100.987 28.1352 101.088 18.0127 101.088 16.1066L101.139 13.6558H98.3556C97.9007 13.6558 97.5442 13.4574 97.5442 12.9532C97.5442 12.4489 97.8497 12.1026 98.6577 11.7026C104.14 7.16408 104.51 5.53359 106.384 3.42572C106.498 3.27776 106.643 3.15623 106.809 3.06968C106.975 2.98314 107.158 2.93368 107.345 2.9248C107.803 2.9248 108.004 3.2778 108.004 3.67786L107.871 10.6503H114.301C114.603 10.6503 114.756 10.8991 114.641 11.1008L114.135 13.2557C114.125 13.3672 114.072 13.4705 113.987 13.5448C113.903 13.6191 113.793 13.6588 113.68 13.6558H107.773C107.671 15.7132 107.671 20.2651 107.671 22.5714V26.5013Z" fill="white"/>
<path d="M124.326 14.8215H124.73C125.424 14.0798 126.247 13.4683 127.161 13.0162C128.349 12.3542 129.696 12.0242 131.058 12.0614C133.03 12.0614 134.955 12.2631 136.273 13.4667C138.398 15.4199 138.55 16.6739 138.55 19.1818V24.4935C138.55 26.1979 138.449 28.5546 138.347 30.3095C138.296 31.8122 139.107 32.0643 139.562 32.0643H140.92C141.375 32.0643 141.477 32.2123 141.477 32.5148V33.4158C141.477 33.752 141.375 33.9671 141.069 33.9671C140.764 33.9671 139.148 33.8158 135.098 33.8158C131.757 33.8158 130.138 33.9671 129.782 33.9671C129.479 33.9671 129.378 33.8159 129.378 33.4158V32.5148C129.378 32.1786 129.53 32.0643 130.036 32.0643H130.593C130.932 32.0643 131.401 31.8122 131.503 30.9112C131.738 29.1833 131.84 27.4402 131.808 25.697V20.3349C131.808 18.4287 131.656 17.1244 130.593 16.173C130.266 15.8591 129.876 15.6168 129.449 15.4616C129.021 15.3064 128.566 15.2418 128.111 15.272C127.201 15.272 126.543 15.5208 125.531 16.2805C124.924 16.731 124.513 18.0858 124.513 20.1399L124.411 30.417C124.411 31.318 124.75 32.0711 125.219 32.0711H125.878C126.281 32.0711 126.383 32.219 126.383 32.572V33.5166C126.383 33.8158 126.281 33.9671 126.044 33.9671C125.687 33.9671 124.323 33.8158 120.982 33.8158C117.387 33.8158 115.768 33.9671 115.465 33.9671C115.163 33.9671 115.109 33.8158 115.109 33.5166V32.5081C115.109 32.2055 115.211 32.0576 115.615 32.0576H116.375C116.932 32.0576 117.794 31.9063 117.794 31.0491V19.9315C117.794 18.4287 116.932 17.5782 115.757 17.0269L115.303 16.8251C115.194 16.7807 115.103 16.7033 115.042 16.6043C114.981 16.5052 114.953 16.3895 114.963 16.2738V15.8233C114.963 15.5712 115.163 15.4199 115.418 15.319L121.895 12.4144C122.26 12.2348 122.655 12.121 123.06 12.0782C123.227 12.0925 123.385 12.1582 123.512 12.2661C123.64 12.3741 123.729 12.5188 123.769 12.68L124.326 14.8215Z" fill="#FF0029"/>
<path d="M153.634 17.8185C153.634 16.81 153.532 15.6636 152.874 15.0618C152.368 14.6113 151.556 14.46 150.748 14.46C149.792 14.4452 148.854 14.726 148.066 15.2635C147.306 15.7644 147.914 16.6082 147.914 18.2186C147.914 19.923 146.647 21.0761 144.624 21.0761C143.46 21.0761 142.448 20.3769 142.448 19.2742C142.448 18.1715 142.787 16.6654 143.864 15.7644C146.544 13.407 149.998 12.093 153.583 12.0664C156.822 12.0664 157.684 12.5707 158.747 13.5221C159.809 14.4735 160.162 15.9762 160.162 17.7815L160.264 27.7561C160.315 30.3649 160.468 31.165 161.429 31.165C161.73 31.1446 162.021 31.0511 162.277 30.8928C162.532 30.7345 162.745 30.5162 162.895 30.2573C163.099 29.9547 163.252 29.9043 163.404 30.0052L164.111 30.4086C164.314 30.5061 164.45 30.6573 164.263 31.1078C163.808 32.1635 162.291 34.5167 159.151 34.5167C157.175 34.5167 155.304 33.8141 154.344 31.4608H154.089C152.847 32.6327 151.362 33.5218 149.737 34.0662C148.718 34.4024 147.561 34.5167 146.091 34.5167C144.319 34.5167 142.75 32.6139 142.75 29.9043C142.75 27.6989 143.813 25.3961 147.102 23.7891C151.051 21.9368 152.317 21.3854 153.634 20.4811V17.8185ZM153.685 22.4814C151.203 23.8833 149.129 24.6363 149.129 28.0956C149.129 30.4018 150.192 31.3532 151.305 31.4037C152.663 31.3028 153.682 30.0589 153.682 29.5984L153.685 22.4814Z" fill="#FF0029"/>
<path d="M161.276 13.0167C161.276 12.6805 161.378 12.6133 161.833 12.6133C162.389 12.6133 163.248 12.7646 168.514 12.7646C171.956 12.7646 173.266 12.6133 173.83 12.6133C174.234 12.6133 174.336 12.7141 174.336 13.0167V14.0253C174.336 14.3245 174.285 14.5262 173.996 14.5262H173.338C172.679 14.5262 172.021 14.8287 172.021 15.3801C172.021 16.281 173.538 20.2917 173.894 21.1927L176.071 26.6052H176.373C176.777 25.7547 179.428 19.5454 180.423 16.782C180.878 15.528 180.083 14.5262 179.156 14.5262H178.23C178.077 14.5262 178.026 14.2774 178.026 14.0253V13.0167C178.026 12.7141 178.128 12.6133 178.332 12.6133C179.041 12.6133 180.155 12.7646 183.241 12.7646C185.872 12.7646 187.087 12.6133 187.542 12.6133C187.997 12.6133 188 12.6637 188 13.0671V14.0185C188 14.3547 188 14.5194 187.745 14.5194H186.887C186.177 14.5194 185.165 14.6203 184.558 15.2725C183.645 16.281 181.417 20.7355 180.253 23.1425L175.344 33.5642C175.042 34.1156 174.736 34.5728 174.027 34.5728C173.368 34.5728 173.008 34.0719 172.56 33.3188C172.054 32.5691 167.954 23.5964 167.75 23.0955C167.546 22.5946 165.17 16.9803 164.817 16.3718C163.954 14.9666 163.499 14.5161 162.59 14.5161H161.571C161.32 14.5161 161.269 14.3144 161.269 14.0152L161.276 13.0167Z" fill="#FF0029"/>
<path d="M85.0375 20.5549L82.4065 23.0326L87.6142 28.4586L97.2861 17.6604C96.7371 16.7979 96.0698 16.015 95.3035 15.334C95.1576 15.1995 95.0082 15.0819 94.8622 14.9541L87.5225 23.1469L85.0375 20.5549Z" fill="#FF0029"/>
</svg>
