<svg width="20" height="20" viewBox="0 0 20 20" fill="none" xmlns="http://www.w3.org/2000/svg">
<path fill-rule="evenodd" clip-rule="evenodd" d="M18.6891 8.82787L11.1808 1.31954C10.5558 0.694536 9.4558 0.686203 8.82246 1.31954L1.32246 8.81954C0.672461 9.46954 0.672461 10.5195 1.32246 11.1695L8.82246 18.6695C9.14746 18.9945 9.57246 19.1529 9.99746 19.1529C10.4225 19.1529 10.8475 18.9945 11.1725 18.6695L18.6641 11.1779C19.3225 10.5445 19.3308 9.49454 18.6891 8.82787ZM10.0058 17.4945L2.50581 9.99448L10.0058 2.49449L17.5058 9.99448L10.0058 17.4945ZM6.66411 12.5029V9.16952C6.66411 8.71119 7.03911 8.33619 7.49744 8.33619H11.6641V6.25286L14.5808 9.16952L11.6641 12.0862V10.0029H8.33077V12.5029H6.66411Z" fill="white"/>
</svg>
