<svg width="496" height="541" viewBox="0 0 496 541" fill="none" xmlns="http://www.w3.org/2000/svg">
<path fill-rule="evenodd" clip-rule="evenodd" d="M22.4726 441.131H12.6405V464.977H22.4726V441.131Z" fill="#E0E0E0"/>
<path fill-rule="evenodd" clip-rule="evenodd" d="M5.6224 167.59C5.57391 167.558 6.04906 166.91 6.93685 165.755C7.90222 164.505 9.18543 162.875 10.7057 160.914C13.8895 156.817 18.2606 151.153 22.901 144.763C27.5576 138.371 31.6281 132.486 34.5264 128.199C35.9206 126.143 37.0917 124.434 37.9795 123.121C38.8027 121.919 39.2778 121.286 39.3252 121.301C39.3726 121.333 38.9772 122.03 38.2327 123.279C37.4882 124.529 36.3796 126.301 34.9703 128.483C32.1668 132.851 28.1599 138.798 23.5033 145.19C18.8467 151.596 14.412 157.213 11.1172 161.23C9.47095 163.224 8.12417 164.837 7.15772 165.929C6.20744 167.036 5.6698 167.621 5.6224 167.59Z" fill="#E0E0E0"/>
<path fill-rule="evenodd" clip-rule="evenodd" d="M275.299 398.348C275.299 401.061 273.099 403.259 270.383 403.259C267.667 403.259 265.467 401.061 265.467 398.348C265.467 395.636 267.667 393.439 270.383 393.439C273.099 393.439 275.299 395.636 275.299 398.348Z" fill="#E0E0E0"/>
<path fill-rule="evenodd" clip-rule="evenodd" d="M270.382 408.879C270.093 408.879 269.846 406.679 269.846 403.977C269.846 401.261 270.093 399.06 270.382 399.06C270.67 399.06 270.919 401.261 270.919 403.977C270.919 406.679 270.67 408.879 270.382 408.879Z" fill="#E0E0E0"/>
<path fill-rule="evenodd" clip-rule="evenodd" d="M0 443.651L108.364 387.843L269.68 483.079L231.25 516.895H93.5908L0 459.498V443.651Z" fill="#EBEBEB"/>
<path fill-rule="evenodd" clip-rule="evenodd" d="M129.222 383.081L263.169 462.175L278.108 460.49V384.437L204.698 345.747L129.222 383.081Z" fill="#EBEBEB"/>
<path fill-rule="evenodd" clip-rule="evenodd" d="M151.695 307.113L278.108 378.014V285.328L232.37 265.794L151.695 307.113Z" fill="#EBEBEB"/>
<path fill-rule="evenodd" clip-rule="evenodd" d="M16.8545 345.855L91.0978 386.438L181.191 339.945L109.615 303.677L16.8545 345.855Z" fill="#EBEBEB"/>
<path fill-rule="evenodd" clip-rule="evenodd" d="M127.817 206.844L233.157 258.778L282.007 233.96L282.322 199.151L211.168 164.794L127.817 206.844Z" fill="#EBEBEB"/>
<path fill-rule="evenodd" clip-rule="evenodd" d="M19.6638 251.716L125.003 303.65L173.854 278.832L174.168 244.023L102.998 209.666L19.6638 251.716Z" fill="#EBEBEB"/>
<path fill-rule="evenodd" clip-rule="evenodd" d="M35.114 158.738L120.866 201.257L200.855 158.738L117.977 121.301L35.114 158.738Z" fill="#EBEBEB"/>
<path fill-rule="evenodd" clip-rule="evenodd" d="M199.479 432.717C199.463 432.749 198.931 432.483 197.932 431.935C196.932 431.371 195.446 430.542 193.508 429.446C189.633 427.208 183.928 423.905 176.567 419.632C161.844 410.992 140.479 398.438 113.801 382.771L112.503 382.003L113.863 381.316C137.213 369.42 165.158 355.191 196.197 339.382L196.181 341.276C177.146 331.118 156.406 320.052 134.697 308.453L132.758 307.42L134.713 306.387C161.438 292.331 190.273 277.18 220.124 261.496L220.14 263.671C216.921 262.044 213.435 260.276 209.95 258.506C138.386 222.145 72.166 188.493 18.6523 161.304L16.8545 160.397L18.6672 159.536C61.0067 139.313 95.8752 122.659 120.178 111.045C132.337 105.301 141.855 100.824 148.356 97.7556C151.608 96.2691 154.092 95.1106 155.781 94.344C156.609 93.9841 157.249 93.7019 157.687 93.4985C158.125 93.3111 158.343 93.2323 158.359 93.2632C158.375 93.2792 158.172 93.4208 157.75 93.6391C157.328 93.8584 156.702 94.1875 155.905 94.6102C154.249 95.4546 151.795 96.6759 148.606 98.288C142.168 101.465 132.728 106.114 120.662 112.062C96.4376 123.864 61.6946 140.785 19.5114 161.32L19.5274 159.536C73.1037 186.614 139.385 220.111 211.028 256.331C214.514 258.099 217.999 259.868 221.218 261.496L223.328 262.561L221.234 263.656C191.368 279.309 162.516 294.445 135.776 308.453L135.791 306.387C157.468 318.032 178.177 329.161 197.181 339.382L198.994 340.353L197.151 341.276C166.033 356.929 138.011 371.016 114.598 382.771L114.645 381.316C141.151 397.249 162.407 410.021 177.036 418.819C184.303 423.248 189.929 426.676 193.759 429.008C195.634 430.182 197.072 431.09 198.056 431.7C199.025 432.342 199.494 432.686 199.479 432.717Z" fill="#FF0029"/>
<path fill-rule="evenodd" clip-rule="evenodd" d="M157.687 212.531L157.314 194.245L205.069 217.327V236.327L157.687 212.531Z" fill="#F5F5F5"/>
<path fill-rule="evenodd" clip-rule="evenodd" d="M205.069 218.481L265.466 188.652V209.414L205.069 237.747V218.481Z" fill="#E0E0E0"/>
<path fill-rule="evenodd" clip-rule="evenodd" d="M155.908 195.125L214.705 166.2L264.061 188.82L204.149 218.102L155.908 195.125Z" fill="#F5F5F5"/>
<path fill-rule="evenodd" clip-rule="evenodd" d="M162.932 202.673V211.75L167.146 213.895V205.216L162.932 202.673Z" fill="#FAFAFA"/>
<path fill-rule="evenodd" clip-rule="evenodd" d="M169.955 205.468V214.546L174.168 216.689V208.023L169.955 205.468Z" fill="#FAFAFA"/>
<path fill-rule="evenodd" clip-rule="evenodd" d="M5.61902 96.3374V72.2137L63.207 99.9257V122.712L5.61902 96.3374Z" fill="#E0E0E0"/>
<path fill-rule="evenodd" clip-rule="evenodd" d="M63.2064 100.151L133.436 65.1955V89.528L63.2064 122.708V100.151Z" fill="#F5F5F5"/>
<path fill-rule="evenodd" clip-rule="evenodd" d="M5.61902 72.9302L75.087 38.5465L133.436 65.4325L62.6199 100.267L5.61902 72.9302Z" fill="#FAFAFA"/>
<path fill-rule="evenodd" clip-rule="evenodd" d="M12.6405 82.0342V92.2456L18.2588 94.6589V84.9L12.6405 82.0342Z" fill="#FAFAFA"/>
<path fill-rule="evenodd" clip-rule="evenodd" d="M22.4735 86.25V96.4468L28.0919 98.8746V89.116L22.4735 86.25Z" fill="#FAFAFA"/>
<path fill-rule="evenodd" clip-rule="evenodd" d="M176.978 296.658C176.978 297.807 176.978 315.925 176.978 315.925L196.642 326.116V306.213L176.978 296.658Z" fill="#E0E0E0"/>
<path fill-rule="evenodd" clip-rule="evenodd" d="M223.329 293.856L198.047 306.372V326.119L223.329 311.498V293.856Z" fill="#E0E0E0"/>
<path fill-rule="evenodd" clip-rule="evenodd" d="M176.978 296.834L202.746 284.034L223.329 293.743L197.326 306.478L176.978 296.834Z" fill="#F5F5F5"/>
<path fill-rule="evenodd" clip-rule="evenodd" d="M185.405 310.683V319.747L189.619 321.905V313.223L185.405 310.683Z" fill="#FAFAFA"/>
<path fill-rule="evenodd" clip-rule="evenodd" d="M14.0454 286.837C14.0454 287.985 14.0454 306.103 14.0454 306.103L33.7096 316.295V296.39L14.0454 286.837Z" fill="#E0E0E0"/>
<path fill-rule="evenodd" clip-rule="evenodd" d="M58.9918 284.034L33.7092 296.55V316.298L58.9918 301.677V284.034Z" fill="#E0E0E0"/>
<path fill-rule="evenodd" clip-rule="evenodd" d="M12.6405 287.011L38.4158 274.211L58.9918 283.919L32.9804 296.654L12.6405 287.011Z" fill="#F5F5F5"/>
<path fill-rule="evenodd" clip-rule="evenodd" d="M21.0692 300.874V309.937L25.283 312.096V303.429L21.0692 300.874Z" fill="#FAFAFA"/>
<path fill-rule="evenodd" clip-rule="evenodd" d="M98.3212 161.975C98.3212 163.123 98.3212 181.241 98.3212 181.241L117.985 191.432V171.544L98.3212 161.975Z" fill="#F5F5F5"/>
<path fill-rule="evenodd" clip-rule="evenodd" d="M143.268 159.195L117.985 171.72V191.458L143.268 176.845V159.195Z" fill="#E0E0E0"/>
<path fill-rule="evenodd" clip-rule="evenodd" d="M96.9156 163.553L122.69 150.769L143.267 160.462L117.256 173.213L96.9156 163.553Z" fill="#F5F5F5"/>
<path fill-rule="evenodd" clip-rule="evenodd" d="M105.344 176.01V185.073L109.557 187.232V178.55L105.344 176.01Z" fill="#E0E0E0"/>
<path fill-rule="evenodd" clip-rule="evenodd" d="M75.8481 324.708C75.8481 325.856 75.8481 343.975 75.8481 343.975L95.5123 354.166V334.261L75.8481 324.708Z" fill="#E0E0E0"/>
<path fill-rule="evenodd" clip-rule="evenodd" d="M120.794 321.902L95.5119 334.433V354.165L120.794 339.56V321.902Z" fill="#EBEBEB"/>
<path fill-rule="evenodd" clip-rule="evenodd" d="M74.4427 324.863L100.218 312.079L120.794 321.772L94.7837 334.523L74.4427 324.863Z" fill="#F5F5F5"/>
<path fill-rule="evenodd" clip-rule="evenodd" d="M82.8698 338.745V347.823L87.0835 349.966V341.3L82.8698 338.745Z" fill="#FAFAFA"/>
<path fill-rule="evenodd" clip-rule="evenodd" d="M158.718 371.002C158.718 372.417 158.718 394.82 158.718 394.82L200.855 420.098V395.496L158.718 371.002Z" fill="#F5F5F5"/>
<path fill-rule="evenodd" clip-rule="evenodd" d="M234.566 378.006L202.26 395.548V420.088L234.566 401.918V378.006Z" fill="#E0E0E0"/>
<path fill-rule="evenodd" clip-rule="evenodd" d="M158.718 370.899L191.197 355.572L234.565 377.663L201.802 394.849L158.718 370.899Z" fill="#FAFAFA"/>
<path fill-rule="evenodd" clip-rule="evenodd" d="M175.572 392.041V403.77L181.191 407.471V395.875L175.572 392.041Z" fill="#FAFAFA"/>
<path fill-rule="evenodd" clip-rule="evenodd" d="M56.1837 418.69C56.1837 420.105 56.1837 442.507 56.1837 442.507L98.3213 467.786V443.199L56.1837 418.69Z" fill="#E0E0E0"/>
<path fill-rule="evenodd" clip-rule="evenodd" d="M148.747 415.887L98.3212 443.397V467.789L148.886 439.562L148.747 415.887Z" fill="#FAFAFA"/>
<path fill-rule="evenodd" clip-rule="evenodd" d="M56.1837 419.557L110.259 393.439L150.291 416.411L99.0239 443.938L56.1837 419.557Z" fill="#F5F5F5"/>
<path fill-rule="evenodd" clip-rule="evenodd" d="M71.634 441.131V452.847L77.2524 456.561V444.96L71.634 441.131Z" fill="#FAFAFA"/>
<path fill-rule="evenodd" clip-rule="evenodd" d="M217.71 330.328V424.612L244.397 438.339V342.871L217.71 330.328Z" fill="#F5F5F5"/>
<path fill-rule="evenodd" clip-rule="evenodd" d="M237.565 321.902L217.71 330.713L244.584 342.943L262.657 333.129L237.565 321.902Z" fill="#FAFAFA"/>
<path fill-rule="evenodd" clip-rule="evenodd" d="M244.398 343.301V439.741L260.921 430.958L262.657 333.133L244.398 343.301Z" fill="#E0E0E0"/>
<path fill-rule="evenodd" clip-rule="evenodd" d="M105.344 254.578V348.861L132.031 362.589V267.121L105.344 254.578Z" fill="#F5F5F5"/>
<path fill-rule="evenodd" clip-rule="evenodd" d="M125.184 244.755L105.344 253.576L132.217 265.796L150.29 255.989L125.184 244.755Z" fill="#FAFAFA"/>
<path fill-rule="evenodd" clip-rule="evenodd" d="M132.03 266.153V362.593L148.537 354.55L150.29 255.985L132.03 266.153Z" fill="#E0E0E0"/>
<path fill-rule="evenodd" clip-rule="evenodd" d="M117.985 434.127C117.985 435.542 117.985 457.944 117.985 457.944L160.123 483.223V458.636L117.985 434.127Z" fill="#E0E0E0"/>
<path fill-rule="evenodd" clip-rule="evenodd" d="M192.428 441.131L160.122 458.673V483.213L192.428 465.043V441.131Z" fill="#FAFAFA"/>
<path fill-rule="evenodd" clip-rule="evenodd" d="M116.581 433.734L149.439 415.887L192.428 440.589L159.681 457.97L116.581 433.734Z" fill="#F5F5F5"/>
<path fill-rule="evenodd" clip-rule="evenodd" d="M133.435 455.154V466.886L139.053 470.584V458.983L133.435 455.154Z" fill="#FAFAFA"/>
<path fill-rule="evenodd" clip-rule="evenodd" d="M211.655 150.77L133.435 115.872L242.364 60.9951L278.107 113.755L211.655 150.77Z" fill="#EBEBEB"/>
<path fill-rule="evenodd" clip-rule="evenodd" d="M281.789 183.026L282.321 122.708L221.924 156.816L281.789 183.026Z" fill="#6779A7"/>
<path fill-rule="evenodd" clip-rule="evenodd" d="M235.97 244.055C235.97 246.769 233.77 248.965 231.054 248.965C228.338 248.965 226.138 246.769 226.138 244.055C226.138 241.342 228.338 239.146 231.054 239.146C233.754 239.146 235.97 241.342 235.97 244.055Z" fill="#E0E0E0"/>
<path fill-rule="evenodd" clip-rule="evenodd" d="M231.054 254.574C230.764 254.574 230.517 252.371 230.517 249.665C230.517 246.944 230.764 244.755 231.054 244.755C231.343 244.755 231.59 246.96 231.59 249.665C231.59 252.371 231.343 254.574 231.054 254.574Z" fill="#E0E0E0"/>
<path fill-rule="evenodd" clip-rule="evenodd" d="M109.558 232.836C109.558 235.549 107.358 237.747 104.641 237.747C101.925 237.747 99.726 235.549 99.726 232.836C99.726 230.124 101.925 227.927 104.641 227.927C107.358 227.927 109.558 230.124 109.558 232.836Z" fill="#E0E0E0"/>
<path fill-rule="evenodd" clip-rule="evenodd" d="M104.641 243.356C104.353 243.356 104.105 241.156 104.105 238.454C104.105 235.738 104.353 233.537 104.641 233.537C104.931 233.537 105.178 235.738 105.178 238.454C105.178 241.156 104.931 243.356 104.641 243.356Z" fill="#E0E0E0"/>
<path fill-rule="evenodd" clip-rule="evenodd" d="M47.7553 297.357C47.7553 300.069 45.556 302.266 42.8398 302.266C40.1236 302.266 37.9232 300.069 37.9232 297.357C37.9232 294.644 40.1236 292.447 42.8398 292.447C45.556 292.447 47.7553 294.644 47.7553 297.357Z" fill="#E0E0E0"/>
<path fill-rule="evenodd" clip-rule="evenodd" d="M42.8396 307.875C42.5503 307.875 42.3031 305.674 42.3031 302.973C42.3031 300.256 42.5503 298.056 42.8396 298.056C43.129 298.056 43.3762 300.256 43.3762 302.973C43.3762 305.674 43.1486 307.875 42.8396 307.875Z" fill="#E0E0E0"/>
<path fill-rule="evenodd" clip-rule="evenodd" d="M51.9694 248.259C51.9694 250.971 49.7702 253.169 47.0528 253.169C44.3366 253.169 42.1373 250.971 42.1373 248.259C42.1373 245.546 44.3366 243.35 47.0528 243.35C49.7702 243.35 51.9694 245.546 51.9694 248.259Z" fill="#E0E0E0"/>
<path fill-rule="evenodd" clip-rule="evenodd" d="M47.0518 257.379C46.7639 257.379 46.5153 255.179 46.5153 252.477C46.5153 249.761 46.7639 247.56 47.0518 247.56C47.3412 247.56 47.5898 249.761 47.5898 252.477C47.5898 255.179 47.3412 257.379 47.0518 257.379Z" fill="#E0E0E0"/>
<path fill-rule="evenodd" clip-rule="evenodd" d="M167.146 242.66C167.146 245.373 164.946 247.569 162.229 247.569C159.513 247.569 157.314 245.373 157.314 242.66C157.314 239.948 159.513 237.75 162.229 237.75C164.946 237.767 167.146 239.965 167.146 242.66Z" fill="#E0E0E0"/>
<path fill-rule="evenodd" clip-rule="evenodd" d="M162.229 253.169C161.941 253.169 161.692 250.964 161.692 248.259C161.692 245.538 161.941 243.35 162.229 243.35C162.518 243.35 162.767 245.553 162.767 248.259C162.767 250.98 162.518 253.169 162.229 253.169Z" fill="#E0E0E0"/>
<path fill-rule="evenodd" clip-rule="evenodd" d="M240.183 277.711C240.183 280.424 237.984 282.62 235.268 282.62C232.552 282.62 230.351 280.424 230.351 277.711C230.351 274.999 232.552 272.801 235.268 272.801C237.984 272.801 240.183 274.999 240.183 277.711Z" fill="#E0E0E0"/>
<path fill-rule="evenodd" clip-rule="evenodd" d="M235.268 288.243C234.979 288.243 234.73 286.042 234.73 283.341C234.73 280.624 234.979 278.423 235.268 278.423C235.556 278.423 235.805 280.624 235.805 283.341C235.805 286.042 235.556 288.243 235.268 288.243Z" fill="#E0E0E0"/>
<path fill-rule="evenodd" clip-rule="evenodd" d="M242.993 304.374C242.993 307.088 240.793 309.284 238.077 309.284C235.36 309.284 233.161 307.088 233.161 304.374C233.161 301.661 235.36 299.465 238.077 299.465C240.793 299.465 242.993 301.661 242.993 304.374Z" fill="#E0E0E0"/>
<path fill-rule="evenodd" clip-rule="evenodd" d="M238.076 314.881C237.787 314.881 237.54 312.681 237.54 309.979C237.54 307.263 237.787 305.062 238.076 305.062C238.366 305.062 238.613 307.263 238.613 309.979C238.613 312.681 238.387 314.881 238.076 314.881Z" fill="#E0E0E0"/>
<path fill-rule="evenodd" clip-rule="evenodd" d="M112.367 361.888C112.367 364.601 110.167 366.798 107.451 366.798C104.735 366.798 102.535 364.601 102.535 361.888C102.535 359.175 104.735 356.979 107.451 356.979C110.167 356.979 112.367 359.175 112.367 361.888Z" fill="#E0E0E0"/>
<path fill-rule="evenodd" clip-rule="evenodd" d="M107.452 371.008C107.162 371.008 106.914 368.808 106.914 366.106C106.914 363.39 107.162 361.189 107.452 361.189C107.74 361.189 107.988 363.39 107.988 366.106C107.988 368.808 107.761 371.008 107.452 371.008Z" fill="#E0E0E0"/>
<path fill-rule="evenodd" clip-rule="evenodd" d="M260.55 446.75C263.265 446.75 265.466 444.552 265.466 441.84C265.466 439.129 263.265 436.931 260.55 436.931C257.834 436.931 255.634 439.129 255.634 441.84C255.634 444.552 257.834 446.75 260.55 446.75Z" fill="#E0E0E0"/>
<path fill-rule="evenodd" clip-rule="evenodd" d="M260.55 452.355C260.262 452.355 260.013 450.155 260.013 447.454C260.013 444.737 260.262 442.536 260.55 442.536C260.839 442.536 261.088 444.737 261.088 447.454C261.088 450.155 260.839 452.355 260.55 452.355Z" fill="#E0E0E0"/>
<path fill-rule="evenodd" clip-rule="evenodd" d="M176.977 492.324C176.977 495.036 174.778 497.233 172.06 497.233C169.344 497.233 167.145 495.036 167.145 492.324C167.145 489.611 169.344 487.413 172.06 487.413C174.778 487.413 176.977 489.611 176.977 492.324Z" fill="#E0E0E0"/>
<path fill-rule="evenodd" clip-rule="evenodd" d="M172.061 502.867C171.773 502.867 171.524 500.663 171.524 497.957C171.524 495.237 171.773 493.048 172.061 493.048C172.35 493.048 172.598 495.252 172.598 497.957C172.598 500.663 172.35 502.867 172.061 502.867Z" fill="#E0E0E0"/>
<path fill-rule="evenodd" clip-rule="evenodd" d="M140.458 478.31C140.458 481.023 138.259 483.22 135.542 483.22C132.826 483.22 130.626 481.023 130.626 478.31C130.626 475.597 132.826 473.4 135.542 473.4C138.259 473.4 140.458 475.597 140.458 478.31Z" fill="#E0E0E0"/>
<path fill-rule="evenodd" clip-rule="evenodd" d="M135.542 488.819C135.252 488.819 135.005 486.618 135.005 483.917C135.005 481.2 135.252 479 135.542 479C135.831 479 136.078 481.2 136.078 483.917C136.099 486.618 135.851 488.819 135.542 488.819Z" fill="#E0E0E0"/>
<path fill-rule="evenodd" clip-rule="evenodd" d="M221.923 468.488C221.923 471.201 219.724 473.399 217.007 473.399C214.291 473.399 212.091 471.201 212.091 468.488C212.091 465.776 214.291 463.579 217.007 463.579C219.724 463.579 221.923 465.776 221.923 468.488Z" fill="#E0E0E0"/>
<path fill-rule="evenodd" clip-rule="evenodd" d="M217.008 477.602C216.718 477.602 216.471 475.398 216.471 472.693C216.471 469.972 216.718 467.783 217.008 467.783C217.297 467.783 217.544 469.987 217.544 472.693C217.544 475.398 217.318 477.602 217.008 477.602Z" fill="#E0E0E0"/>
<path fill-rule="evenodd" clip-rule="evenodd" d="M148.182 383.626C150.898 383.626 153.099 381.427 153.099 378.716C153.099 376.004 150.898 373.807 148.182 373.807C145.467 373.807 143.267 376.004 143.267 378.716C143.267 381.427 145.467 383.626 148.182 383.626Z" fill="#E0E0E0"/>
<path fill-rule="evenodd" clip-rule="evenodd" d="M148.183 389.238C147.895 389.238 147.646 387.038 147.646 384.336C147.646 381.62 147.895 379.418 148.183 379.418C148.472 379.418 148.721 381.62 148.721 384.336C148.721 387.038 148.472 389.238 148.183 389.238Z" fill="#E0E0E0"/>
<path fill-rule="evenodd" clip-rule="evenodd" d="M164.336 333.829C164.336 336.541 162.135 338.739 159.419 338.739C156.703 338.739 154.504 336.541 154.504 333.829C154.504 331.116 156.703 328.92 159.419 328.92C162.135 328.92 164.336 331.116 164.336 333.829Z" fill="#E0E0E0"/>
<path fill-rule="evenodd" clip-rule="evenodd" d="M159.42 344.348C159.131 344.348 158.884 342.148 158.884 339.446C158.884 336.73 159.131 334.529 159.42 334.529C159.71 334.529 159.957 336.73 159.957 339.446C159.957 342.148 159.71 344.348 159.42 344.348Z" fill="#E0E0E0"/>
<path fill-rule="evenodd" clip-rule="evenodd" d="M51.9694 339.439C51.9694 342.152 49.7702 344.348 47.0528 344.348C44.3366 344.348 42.1373 342.152 42.1373 339.439C42.1373 336.726 44.3366 334.529 47.0528 334.529C49.7702 334.529 51.9694 336.726 51.9694 339.439Z" fill="#E0E0E0"/>
<path fill-rule="evenodd" clip-rule="evenodd" d="M47.0518 349.957C46.7639 349.957 46.5153 347.756 46.5153 345.055C46.5153 342.338 46.7639 340.138 47.0518 340.138C47.3412 340.138 47.5898 342.338 47.5898 345.055C47.5898 347.756 47.3412 349.957 47.0518 349.957Z" fill="#E0E0E0"/>
<path fill-rule="evenodd" clip-rule="evenodd" d="M265.466 297.357C265.466 300.069 263.267 302.266 260.551 302.266C257.834 302.266 255.634 300.069 255.634 297.357C255.634 294.644 257.834 292.447 260.551 292.447C263.267 292.447 265.466 294.644 265.466 297.357Z" fill="#E0E0E0"/>
<path fill-rule="evenodd" clip-rule="evenodd" d="M260.55 307.875C260.261 307.875 260.014 305.674 260.014 302.973C260.014 300.256 260.261 298.056 260.55 298.056C260.84 298.056 261.087 300.256 261.087 302.973C261.087 305.674 260.84 307.875 260.55 307.875Z" fill="#E0E0E0"/>
<path fill-rule="evenodd" clip-rule="evenodd" d="M254.23 228.625C254.23 231.337 252.03 233.534 249.313 233.534C246.597 233.534 244.398 231.337 244.398 228.625C244.398 225.912 246.597 223.714 249.313 223.714C252.03 223.714 254.23 225.912 254.23 228.625Z" fill="#E0E0E0"/>
<path fill-rule="evenodd" clip-rule="evenodd" d="M249.313 239.145C249.024 239.145 248.777 236.944 248.777 234.243C248.777 231.525 249.024 229.325 249.313 229.325C249.602 229.325 249.85 231.525 249.85 234.243C249.85 236.944 249.602 239.145 249.313 239.145Z" fill="#E0E0E0"/>
<path fill-rule="evenodd" clip-rule="evenodd" d="M155.206 171.794C157.922 171.794 160.122 169.596 160.122 166.885C160.122 164.173 157.922 161.975 155.206 161.975C152.491 161.975 150.29 164.173 150.29 166.885C150.29 169.596 152.491 171.794 155.206 171.794Z" fill="#E0E0E0"/>
<path fill-rule="evenodd" clip-rule="evenodd" d="M155.206 177.416C154.917 177.416 154.669 175.215 154.669 172.514C154.669 169.797 154.917 167.597 155.206 167.597C155.495 167.597 155.743 169.797 155.743 172.514C155.743 175.215 155.495 177.416 155.206 177.416Z" fill="#E0E0E0"/>
<path fill-rule="evenodd" clip-rule="evenodd" d="M71.6331 253.876C71.6331 256.589 69.433 258.786 66.7171 258.786C64.0012 258.786 61.801 256.589 61.801 253.876C61.801 251.163 64.0012 248.967 66.7171 248.967C69.433 248.967 71.6331 251.163 71.6331 253.876Z" fill="#E0E0E0"/>
<path fill-rule="evenodd" clip-rule="evenodd" d="M66.7168 264.397C66.4275 264.397 66.1803 262.197 66.1803 259.495C66.1803 256.779 66.4275 254.578 66.7168 254.578C67.0061 254.578 67.2534 256.779 67.2534 259.495C67.2744 262.197 67.0272 264.397 66.7168 264.397Z" fill="#E0E0E0"/>
<path fill-rule="evenodd" clip-rule="evenodd" d="M126.413 134.635C126.413 137.347 124.212 139.545 121.496 139.545C118.78 139.545 116.581 137.347 116.581 134.635C116.581 131.922 118.78 129.726 121.496 129.726C124.212 129.726 126.413 131.922 126.413 134.635Z" fill="#E0E0E0"/>
<path fill-rule="evenodd" clip-rule="evenodd" d="M121.497 145.156C121.208 145.156 120.96 142.956 120.96 140.254C120.96 137.538 121.208 135.337 121.497 135.337C121.786 135.337 122.034 137.538 122.034 140.254C122.034 142.956 121.786 145.156 121.497 145.156Z" fill="#E0E0E0"/>
<path fill-rule="evenodd" clip-rule="evenodd" d="M220.52 124.815C220.52 127.528 218.32 129.725 215.604 129.725C212.888 129.725 210.688 127.528 210.688 124.815C210.688 122.102 212.888 119.906 215.604 119.906C218.32 119.906 220.52 122.102 220.52 124.815Z" fill="#E0E0E0"/>
<path fill-rule="evenodd" clip-rule="evenodd" d="M215.603 133.939C215.314 133.939 215.067 131.739 215.067 129.038C215.067 126.321 215.314 124.12 215.603 124.12C215.893 124.12 216.14 126.321 216.14 129.038C216.14 131.739 215.912 133.939 215.603 133.939Z" fill="#E0E0E0"/>
<path fill-rule="evenodd" clip-rule="evenodd" d="M245.802 120.61C245.802 123.323 243.603 125.52 240.887 125.52C238.171 125.52 235.97 123.323 235.97 120.61C235.97 117.898 238.171 115.701 240.887 115.701C243.603 115.701 245.802 117.898 245.802 120.61Z" fill="#E0E0E0"/>
<path fill-rule="evenodd" clip-rule="evenodd" d="M240.886 129.725C240.597 129.725 240.35 127.524 240.35 124.823C240.35 122.107 240.597 119.906 240.886 119.906C241.175 119.906 241.423 122.107 241.423 124.823C241.423 127.524 241.175 129.725 240.886 129.725Z" fill="#E0E0E0"/>
<path fill-rule="evenodd" clip-rule="evenodd" d="M235.97 85.5378C235.97 88.2504 233.77 90.4468 231.054 90.4468C228.338 90.4468 226.138 88.2504 226.138 85.5378C226.138 82.8251 228.338 80.6276 231.054 80.6276C233.754 80.6276 235.97 82.8251 235.97 85.5378Z" fill="#E0E0E0"/>
<path fill-rule="evenodd" clip-rule="evenodd" d="M231.054 96.0692C230.764 96.0692 230.517 93.8681 230.517 91.1673C230.517 88.45 230.764 86.25 231.054 86.25C231.343 86.25 231.59 88.45 231.59 91.1673C231.59 93.8681 231.343 96.0692 231.054 96.0692Z" fill="#E0E0E0"/>
<path fill-rule="evenodd" clip-rule="evenodd" d="M91.298 164.105C91.298 166.818 89.0976 169.014 86.3814 169.014C83.6652 169.014 81.4659 166.818 81.4659 164.105C81.4659 161.393 83.6652 159.195 86.3814 159.195C89.0976 159.195 91.298 161.393 91.298 164.105Z" fill="#E0E0E0"/>
<path fill-rule="evenodd" clip-rule="evenodd" d="M86.3812 174.613C86.0918 174.613 85.8446 172.412 85.8446 169.712C85.8446 166.994 86.0918 164.794 86.3812 164.794C86.6705 164.794 86.9177 166.994 86.9177 169.712C86.9177 172.412 86.6916 174.613 86.3812 174.613Z" fill="#E0E0E0"/>
<path fill-rule="evenodd" clip-rule="evenodd" d="M198.046 120.61C198.046 123.323 195.845 125.52 193.129 125.52C190.413 125.52 188.214 123.323 188.214 120.61C188.214 117.898 190.413 115.701 193.129 115.701C195.845 115.701 198.046 117.898 198.046 120.61Z" fill="#E0E0E0"/>
<path fill-rule="evenodd" clip-rule="evenodd" d="M193.129 131.12C192.841 131.12 192.593 128.92 192.593 126.218C192.593 123.502 192.841 121.301 193.129 121.301C193.418 121.301 193.667 123.502 193.667 126.218C193.667 128.92 193.439 131.12 193.129 131.12Z" fill="#E0E0E0"/>
<path fill-rule="evenodd" clip-rule="evenodd" d="M68.8245 16.8038C68.8245 19.5165 66.6241 21.714 63.9079 21.714C61.1917 21.714 58.9924 19.5165 58.9924 16.8038C58.9924 14.0912 61.1917 11.8948 63.9079 11.8948C66.6241 11.8948 68.8245 14.0912 68.8245 16.8038Z" fill="#E0E0E0"/>
<path fill-rule="evenodd" clip-rule="evenodd" d="M63.9087 27.3232C63.6194 27.3232 63.3722 25.1221 63.3722 22.4214C63.3722 19.7041 63.6194 17.504 63.9087 17.504C64.1981 17.504 64.4453 19.7041 64.4453 22.4214C64.4453 25.1376 64.2191 27.3232 63.9087 27.3232Z" fill="#E0E0E0"/>
<path fill-rule="evenodd" clip-rule="evenodd" d="M120.794 42.0592C120.794 44.7719 118.594 46.9682 115.878 46.9682C113.162 46.9682 110.962 44.7719 110.962 42.0592C110.962 39.3466 113.162 37.1491 115.878 37.1491C118.594 37.1491 120.794 39.3466 120.794 42.0592Z" fill="#E0E0E0"/>
<path fill-rule="evenodd" clip-rule="evenodd" d="M115.878 52.5651C115.589 52.5651 115.341 50.364 115.341 47.6632C115.341 44.9459 115.589 42.7459 115.878 42.7459C116.167 42.7459 116.415 44.9459 116.415 47.6632C116.415 50.364 116.167 52.5651 115.878 52.5651Z" fill="#E0E0E0"/>
<path fill-rule="evenodd" clip-rule="evenodd" d="M36.5186 122.012C36.5186 124.724 34.3193 126.922 31.6031 126.922C28.8869 126.922 26.6865 124.724 26.6865 122.012C26.6865 119.299 28.8869 117.103 31.6031 117.103C34.3193 117.103 36.5186 119.299 36.5186 122.012Z" fill="#E0E0E0"/>
<path fill-rule="evenodd" clip-rule="evenodd" d="M31.6041 132.527C31.3148 132.527 31.0662 130.327 31.0662 127.625C31.0662 124.909 31.3148 122.708 31.6041 122.708C31.8921 122.708 32.1407 124.909 32.1407 127.625C32.1407 130.327 31.8921 132.527 31.6041 132.527Z" fill="#E0E0E0"/>
<path fill-rule="evenodd" clip-rule="evenodd" d="M42.1375 46.2699C42.1375 48.9836 39.9371 51.18 37.2209 51.18C34.5047 51.18 32.3054 48.9836 32.3054 46.2699C32.3054 43.5572 34.5047 41.3608 37.2209 41.3608C39.9371 41.3608 42.1375 43.5572 42.1375 46.2699Z" fill="#E0E0E0"/>
<path fill-rule="evenodd" clip-rule="evenodd" d="M37.2206 56.791C36.9313 56.791 36.6841 54.591 36.6841 51.8892C36.6841 49.1729 36.9313 46.9718 37.2206 46.9718C37.5099 46.9718 37.7572 49.1729 37.7572 51.8892C37.7572 54.591 37.5099 56.791 37.2206 56.791Z" fill="#E0E0E0"/>
<path fill-rule="evenodd" clip-rule="evenodd" d="M240.184 262.168L278.108 241.948L277.952 278.42L240.184 262.168Z" fill="#EBEBEB"/>
<path fill-rule="evenodd" clip-rule="evenodd" d="M206.473 434.127C206.473 437.229 203.962 439.738 200.855 439.738C197.747 439.738 195.236 437.229 195.236 434.127C195.236 431.024 197.747 428.516 200.855 428.516C203.962 428.516 206.473 431.024 206.473 434.127Z" fill="#E8505B"/>
<path fill-rule="evenodd" clip-rule="evenodd" d="M255.634 53.9894L282.321 62.1587V104.488L255.634 53.9894Z" fill="#EBEBEB"/>
<path fill-rule="evenodd" clip-rule="evenodd" d="M346.932 234.919C370.195 235.498 393.71 236.123 416.203 242.05C438.696 247.978 460.42 259.816 473.772 278.802C488.459 299.695 491.38 326.405 492.857 351.881C495.307 394.12 495.024 436.564 490.862 478.663C488.757 500.01 481.154 519.824 461.221 527.956C437.252 537.73 405.035 527.956 405.035 527.956" fill="#041B54"/>
<path fill-rule="evenodd" clip-rule="evenodd" d="M410.14 523.777C410.14 523.777 410.438 523.745 411.016 523.73C411.627 523.714 412.488 523.714 413.6 523.682C415.901 523.668 419.236 523.636 423.51 523.605C427.816 523.574 433.091 523.636 439.135 522.792C440.638 522.541 442.203 522.37 443.785 521.963C444.583 521.791 445.381 521.603 446.195 521.432C447.01 521.213 447.824 520.963 448.638 520.712C450.313 520.275 451.941 519.571 453.648 518.945C455.292 518.179 457.03 517.46 458.658 516.46C461.977 514.568 465.218 512.145 467.973 509.018C470.713 505.907 472.936 502.076 474.111 497.761C476.333 489.036 477.273 479.389 477.633 469.259C477.946 459.111 477.836 448.433 477.93 437.379C477.977 426.326 478.04 414.865 478.086 403.139C478.133 391.413 478.259 379.953 477.883 368.915C477.492 357.877 476.63 347.229 474.893 337.239C471.511 317.242 464.498 299.903 455.464 287.49C450.971 281.283 446.039 276.326 441.624 272.136C437.163 267.961 433.154 264.553 429.866 261.786C426.578 259.049 424.027 256.907 422.258 255.438C421.412 254.718 420.755 254.172 420.285 253.765C419.846 253.39 419.627 253.171 419.627 253.171C419.627 253.171 419.878 253.343 420.332 253.703C420.818 254.078 421.475 254.609 422.351 255.297C424.136 256.736 426.735 258.83 430.055 261.52C433.373 264.256 437.428 267.634 441.921 271.776C446.384 275.951 451.347 280.891 455.918 287.129C465.077 299.575 472.184 317.007 475.628 337.083C477.398 347.12 478.275 357.798 478.682 368.868C479.073 379.938 478.964 391.398 478.901 403.124C478.838 414.85 478.791 426.294 478.729 437.364C478.635 448.418 478.729 459.08 478.385 469.259C478.009 479.421 477.053 489.115 474.768 497.917C473.562 502.342 471.261 506.25 468.459 509.408C465.64 512.582 462.321 515.037 458.955 516.929C457.296 517.93 455.542 518.649 453.867 519.414C452.129 520.04 450.485 520.744 448.795 521.166C447.949 521.4 447.134 521.666 446.321 521.869C445.491 522.041 444.677 522.229 443.879 522.401C442.281 522.792 440.701 522.964 439.182 523.199C433.092 524.011 427.8 523.902 423.494 523.887C419.22 523.855 415.885 523.824 413.584 523.808C412.473 523.792 411.611 523.777 411.001 523.761C410.438 523.808 410.14 523.777 410.14 523.777Z" fill="#455A64"/>
<path fill-rule="evenodd" clip-rule="evenodd" d="M477.559 408.821C477.495 408.636 481.204 407.685 485.93 407.5C490.655 407.302 494.446 407.941 494.413 408.125C494.381 408.339 490.607 408.04 485.978 408.239C481.332 408.424 477.608 409.034 477.559 408.821Z" fill="#455A64"/>
<path fill-rule="evenodd" clip-rule="evenodd" d="M377.833 236.359C377.833 236.343 378.036 236.343 378.427 236.343C378.864 236.359 379.441 236.359 380.19 236.375C381.734 236.438 384.028 236.422 386.961 236.625C392.796 237.233 401.315 238.358 411.3 241.824C412.532 242.277 413.796 242.745 415.091 243.23C415.731 243.465 416.386 243.714 417.057 243.964C417.697 244.26 418.352 244.542 419.008 244.854C420.317 245.448 421.66 246.057 423.017 246.681C424.39 247.29 425.685 248.087 427.074 248.789C432.565 251.662 438.119 255.332 443.612 259.611C449.103 263.889 454.533 268.855 459.526 274.586C464.519 280.301 468.996 286.891 472.397 294.183C479.355 308.784 482.366 324.056 483.912 337.876C485.378 351.743 485.44 364.297 485.534 374.822C485.565 385.347 485.596 393.857 485.752 399.73C485.831 402.634 485.893 404.898 485.94 406.506C485.955 407.256 485.971 407.834 485.987 408.271C485.987 408.661 485.987 408.864 485.971 408.88C485.955 408.88 485.94 408.677 485.893 408.286C485.861 407.85 485.815 407.272 485.768 406.522C485.659 404.976 485.549 402.697 485.425 399.76C485.175 393.873 485.066 385.363 484.957 374.838C484.801 364.329 484.676 351.79 483.178 337.969C481.602 324.212 478.575 309.034 471.679 294.558C468.294 287.312 463.894 280.801 458.933 275.132C453.987 269.433 448.605 264.499 443.159 260.22C437.714 255.957 432.207 252.287 426.762 249.398C425.404 248.68 424.094 247.899 422.752 247.274C421.395 246.649 420.084 246.041 418.773 245.448C418.118 245.15 417.478 244.854 416.838 244.558C416.183 244.307 415.543 244.057 414.889 243.824C413.61 243.339 412.346 242.855 411.128 242.402C401.236 238.889 392.765 237.671 386.945 236.984C384.028 236.734 381.734 236.687 380.206 236.578C379.472 236.531 378.879 236.5 378.443 236.468C378.036 236.406 377.833 236.375 377.833 236.359Z" fill="#E0E0E0"/>
<path fill-rule="evenodd" clip-rule="evenodd" d="M363.788 235.653C363.788 235.653 369.46 221.342 389.665 224.057C389.665 224.057 398.666 223.58 400.307 228.37C400.307 228.37 381.492 223.908 373.476 236.339L363.788 235.653Z" fill="#263238"/>
<path fill-rule="evenodd" clip-rule="evenodd" d="M421.376 254.558H409.346C409.346 254.558 407.01 222.651 377.833 223.893C377.833 223.893 414.097 211.723 421.376 254.558Z" fill="#455A64"/>
<path fill-rule="evenodd" clip-rule="evenodd" d="M478.144 427.11L495.818 429.477L494.043 435.526L477.558 434.304L478.144 427.11Z" fill="#455A64"/>
<path fill-rule="evenodd" clip-rule="evenodd" d="M480.377 433.147C480.271 433.073 481.023 431.934 482.285 430.228L482.511 429.913L482.767 430.228C483.488 431.111 484.255 432.025 485.051 432.982L484.526 432.908C485.051 432.519 485.592 432.114 486.164 431.71C486.736 431.29 487.306 430.886 487.848 430.497L488.163 430.272L488.389 430.572C489.125 431.59 489.817 432.563 490.478 433.507L490.057 433.447C491.802 432.293 492.929 431.62 493.004 431.71C493.079 431.815 492.072 432.668 490.418 433.941L490.193 434.121L489.998 433.882C489.291 432.983 488.554 432.039 487.788 431.035L488.313 431.111C487.772 431.515 487.216 431.92 486.645 432.338C486.074 432.743 485.533 433.147 485.006 433.522L484.706 433.746L484.481 433.462C483.729 432.474 483.007 431.515 482.316 430.617H482.796C481.398 432.234 480.467 433.237 480.377 433.147Z" fill="#E8505B"/>
<path fill-rule="evenodd" clip-rule="evenodd" d="M230.27 540.252C230.27 540.252 226.97 529.526 227.629 524.994C228.289 520.461 234.404 516.337 234.404 516.337L227.77 344.389C227.77 344.389 226.906 269.18 266.816 245.799L290.63 239.808L349.37 236.343C351.272 236.97 420.309 262.876 429.802 272.991L400.032 424.632C400.032 424.632 403.647 469.434 407.263 501.644C408 508.23 412.952 540.738 412.952 540.738L230.27 540.252Z" fill="#FF0029"/>
<g opacity="0.3">
<path opacity="0.3" fill-rule="evenodd" clip-rule="evenodd" d="M406.528 491.418C405.98 495.567 404.379 500.618 400.364 501.892C396.348 503.182 391.987 502.809 387.831 502.063C373.134 499.468 359.613 492.63 346.342 485.871C321.528 473.252 296.494 460.479 275.083 442.778C272.071 440.291 268.855 436.406 270.707 432.988C272.793 429.103 278.675 430.408 282.707 432.242C324.775 451.465 364.46 472.196 406.528 491.418Z" fill="black"/>
</g>
<path fill-rule="evenodd" clip-rule="evenodd" d="M258.443 250.364C258.443 250.364 232.073 259.095 223.545 283.345C214.12 310.129 207.878 362.135 207.878 362.135L233.934 365.389L258.443 250.364Z" fill="#FF0029"/>
<path fill-rule="evenodd" clip-rule="evenodd" d="M430.527 272.889C430.527 272.889 444.552 291.439 451.384 313.983C458.2 336.527 462.109 401.862 462.109 401.862L391.754 400.871L388.017 343.397C388.017 343.381 380.919 247.469 430.527 272.889Z" fill="#FF0029"/>
<path fill-rule="evenodd" clip-rule="evenodd" d="M217.71 307.057C217.71 307.057 218.228 306.257 219.654 305.221C221.065 304.202 223.715 303.135 227.086 303.794C230.504 304.296 233.828 306.979 238.203 308.658C240.366 309.49 242.906 310.132 245.477 309.552C248.064 308.987 250.29 307.136 252.658 305.347C253.85 304.453 255.104 303.527 256.578 302.884C258.036 302.225 259.84 302.005 261.454 302.68C263.084 303.275 264.307 304.657 265.248 306.069C266.22 307.481 267.004 309.034 268.024 310.415C269.011 311.797 270.328 313.004 272.006 313.49C273.652 314.04 275.502 313.898 277.243 313.444C279.015 312.989 280.723 312.204 282.354 311.247C283.985 310.289 285.553 309.113 287.246 308.078C288.923 307.026 290.711 306.038 292.702 305.425C294.678 304.845 296.904 304.704 298.958 305.41C301.012 306.085 302.784 307.34 304.383 308.72C305.997 310.101 307.503 311.592 309.18 312.895C310.827 314.197 312.677 315.326 314.763 315.64C316.816 316.048 318.996 315.75 321.018 314.997C325.095 313.46 328.701 310.698 332.698 308.485C334.706 307.403 336.807 306.367 339.08 305.943C341.338 305.52 343.753 305.661 345.885 306.477C350.165 308.14 353.333 311.373 357.127 313.193C358.067 313.663 359.055 313.993 360.043 314.228C361.046 314.432 362.066 314.479 363.084 314.416C365.123 314.275 367.083 313.6 368.933 312.738C372.649 311.059 376.004 308.705 379.845 307.45C381.742 306.822 383.797 306.54 385.772 306.916C387.763 307.261 389.488 308.345 390.93 309.552C393.815 311.953 396.073 315.013 399.366 316.033C400.98 316.535 402.689 316.504 404.304 316.174C405.935 315.844 407.487 315.295 409.024 314.762C412.05 313.694 415.217 312.596 418.29 313.303C419.811 313.6 421.127 314.401 422.273 315.263C423.417 316.142 424.405 317.099 425.409 317.994C426.411 318.888 427.431 319.673 428.512 320.27C429.594 320.85 430.77 321.195 431.915 321.368C434.22 321.697 436.431 321.336 438.312 320.708C440.225 320.081 441.823 319.155 443.188 318.214C445.9 316.315 447.72 314.432 448.958 313.209C449.554 312.612 450.024 312.141 450.369 311.797C450.683 311.483 450.855 311.326 450.87 311.326C450.886 311.341 450.729 311.514 450.432 311.843C450.102 312.204 449.648 312.69 449.084 313.318C447.86 314.573 446.089 316.504 443.376 318.465C442.012 319.437 440.381 320.394 438.437 321.054C436.509 321.713 434.251 322.12 431.852 321.792C430.661 321.635 429.437 321.273 428.293 320.677C427.148 320.065 426.098 319.249 425.079 318.371C423.057 316.645 421.049 314.432 418.164 313.851C415.311 313.209 412.253 314.259 409.227 315.342C407.691 315.876 406.124 316.456 404.43 316.802C402.752 317.146 400.902 317.209 399.162 316.661C397.405 316.127 395.884 315.013 394.521 313.804C393.157 312.596 391.887 311.247 390.476 310.085C389.081 308.909 387.466 307.921 385.631 307.622C383.812 307.277 381.899 307.544 380.081 308.14C376.396 309.364 373.041 311.702 369.262 313.427C367.381 314.307 365.326 315.029 363.163 315.186C362.081 315.248 360.968 315.2 359.902 314.982C358.835 314.73 357.785 314.369 356.813 313.883C352.862 311.984 349.695 308.767 345.634 307.214C343.627 306.446 341.417 306.32 339.284 306.712C337.136 307.12 335.098 308.109 333.138 309.176C329.202 311.341 325.581 314.15 321.332 315.75C319.215 316.551 316.879 316.865 314.653 316.425C312.395 316.08 310.419 314.856 308.726 313.522C305.323 310.87 302.611 307.418 298.754 306.148C296.873 305.488 294.834 305.614 292.969 306.148C291.087 306.727 289.347 307.669 287.7 308.705C286.023 309.725 284.47 310.886 282.793 311.874C281.115 312.847 279.343 313.663 277.494 314.134C275.659 314.605 273.668 314.746 271.864 314.15C270.031 313.6 268.572 312.251 267.553 310.807C266.503 309.364 265.719 307.811 264.778 306.43C263.868 305.049 262.756 303.809 261.298 303.261C259.854 302.664 258.256 302.837 256.891 303.432C255.496 304.013 254.273 304.924 253.082 305.802C250.73 307.56 248.425 309.474 245.666 310.055C242.937 310.65 240.319 309.945 238.124 309.066C233.687 307.308 230.425 304.626 227.118 304.092C223.856 303.401 221.253 304.39 219.842 305.347C218.321 306.336 217.757 307.104 217.71 307.057Z" fill="#FAFAFA"/>
<path fill-rule="evenodd" clip-rule="evenodd" d="M209.283 348.968C209.283 348.951 209.517 348.968 209.97 349.016C210.455 349.064 211.127 349.144 211.987 349.224C213.769 349.336 216.394 350.106 219.676 349.016C221.333 348.647 223.193 348.295 225.225 347.941C227.257 347.573 229.445 347.075 231.851 346.771C234.243 346.482 236.931 346.482 239.588 347.348C242.245 348.15 244.823 349.544 247.668 350.523C250.498 351.549 253.701 351.661 256.874 350.795C260.062 350.025 263.188 348.518 266.564 347.316C269.893 346.082 273.753 345.136 277.583 346.226C281.365 347.316 284.413 350.186 288.211 351.132C289.149 351.356 290.117 351.42 291.086 351.341C292.055 351.228 293.024 350.972 293.962 350.635C295.869 349.961 297.713 348.968 299.73 348.246C301.714 347.493 304.074 347.173 306.199 348.022C308.31 348.855 309.95 350.442 311.669 351.741C312.53 352.398 313.421 353.007 314.389 353.425C315.359 353.841 316.405 354.017 317.452 354.017C319.579 353.937 321.657 353.071 323.673 352.109C325.705 351.148 327.753 350.073 330.05 349.48C331.206 349.224 332.395 349.064 333.597 349.24C334.801 349.384 335.958 349.817 337.005 350.379C339.115 351.516 340.865 353.104 342.725 354.402C343.648 355.043 344.616 355.636 345.632 356.038C346.148 356.23 346.648 356.406 347.195 356.486L347.992 356.631L348.805 356.662C350.977 356.71 353.119 356.069 355.181 355.299C357.245 354.53 359.277 353.633 361.402 352.975C363.497 352.334 365.793 351.917 367.981 352.494C370.201 352.975 372.014 354.45 373.53 355.909C375.062 357.4 376.469 358.971 378.094 360.141C379.719 361.328 381.674 361.873 383.596 361.744C385.518 361.616 387.362 360.895 389.097 360.029C390.832 359.163 392.489 358.153 394.145 357.208C397.427 355.348 401.038 353.617 404.773 354.05C408.477 354.498 411.493 356.598 414.15 358.555C416.839 360.542 419.293 362.642 421.997 363.941C424.669 365.303 427.498 365.992 430.186 366.217C432.891 366.393 435.438 366.104 437.782 365.608C442.424 364.453 446.113 362.338 448.707 360.141C451.317 357.945 452.817 355.701 453.786 354.177C454.224 353.392 454.521 352.751 454.74 352.35C454.959 351.933 455.068 351.724 455.084 351.741C455.099 351.741 455.005 351.965 454.818 352.398C454.615 352.815 454.349 353.473 453.927 354.274C452.99 355.829 451.52 358.137 448.91 360.398C446.316 362.658 442.612 364.855 437.892 366.073C435.516 366.602 432.921 366.906 430.171 366.746C427.42 366.537 424.528 365.848 421.762 364.47C418.965 363.139 416.48 361.022 413.807 359.067C411.15 357.127 408.196 355.124 404.726 354.722C401.241 354.322 397.772 355.957 394.52 357.833C392.864 358.778 391.222 359.804 389.441 360.687C387.674 361.568 385.752 362.354 383.673 362.498C381.611 362.642 379.423 362.032 377.703 360.766C375.968 359.532 374.546 357.929 373.031 356.471C371.529 355.028 369.842 353.681 367.825 353.248C365.825 352.734 363.684 353.104 361.652 353.729C359.59 354.354 357.573 355.268 355.478 356.038C353.385 356.823 351.165 357.512 348.805 357.464L347.929 357.432L347.054 357.272C346.476 357.191 345.897 356.999 345.351 356.775C344.257 356.342 343.241 355.717 342.288 355.059C340.38 353.729 338.646 352.157 336.661 351.083C335.677 350.554 334.614 350.169 333.536 350.042C332.456 349.898 331.347 350.042 330.268 350.266C328.112 350.827 326.095 351.87 324.048 352.831C322.001 353.793 319.843 354.722 317.515 354.803C316.358 354.818 315.187 354.61 314.123 354.145C313.061 353.681 312.123 353.04 311.232 352.35C309.481 351.004 307.888 349.48 305.965 348.727C304.058 347.974 301.949 348.23 300.026 348.951C298.072 349.64 296.228 350.619 294.259 351.324C293.274 351.661 292.258 351.949 291.195 352.061C290.148 352.157 289.086 352.078 288.069 351.837C284.006 350.779 281.005 347.91 277.427 346.884C273.832 345.857 270.128 346.723 266.83 347.925C263.485 349.096 260.328 350.602 257.062 351.372C253.826 352.253 250.419 352.109 247.528 351.035C244.62 350.01 242.073 348.615 239.478 347.814C236.9 346.948 234.321 346.931 231.946 347.204C229.569 347.46 227.381 347.958 225.335 348.295C223.303 348.631 221.442 348.936 219.786 349.288C218.957 349.448 218.176 349.64 217.425 349.753C216.66 349.865 215.941 349.833 215.3 349.769C214.003 349.625 212.909 349.465 212.018 349.336C211.159 349.207 210.502 349.112 210.002 349.047C209.517 349.032 209.283 348.984 209.283 348.968Z" fill="#FAFAFA"/>
<path fill-rule="evenodd" clip-rule="evenodd" d="M234.565 386.443C234.565 386.427 234.723 386.443 235.037 386.457C235.384 386.489 235.84 386.535 236.406 386.596C237.602 386.719 239.379 386.95 241.645 387.287C246.191 387.902 252.704 389.224 260.854 389.87C264.928 390.208 269.396 390.178 274.179 389.639C276.57 389.424 279.103 389.209 281.714 389.577C283.004 389.763 284.325 390.116 285.553 390.685C286.779 391.254 287.897 392.037 288.967 392.867C291.106 394.482 293.135 396.434 295.763 397.217C297.053 397.616 298.437 397.54 299.79 397.187C301.143 396.818 302.433 396.187 303.786 395.588C305.124 394.989 306.539 394.358 308.113 394.174C309.67 393.927 311.369 394.312 312.706 395.142C315.427 396.756 317.205 399.446 319.974 400.584C322.758 401.767 325.905 401.03 328.752 400.199C331.647 399.369 334.51 398.263 337.593 398.201C339.119 398.185 340.662 398.462 342.014 399.093C343.383 399.722 344.563 400.599 345.649 401.491C347.819 403.289 349.739 405.302 352.13 406.378C354.506 407.501 357.211 407.178 359.587 406.394C362.01 405.657 364.228 404.503 366.65 403.966C369.026 403.443 371.574 403.397 373.683 404.473C374.721 405.01 375.57 405.871 376.09 406.855C376.609 407.839 376.861 408.838 377.191 409.775C377.505 410.713 377.914 411.574 378.543 412.235C379.158 412.911 379.959 413.373 380.794 413.65C382.493 414.203 384.255 414.064 385.765 413.618C387.291 413.157 388.534 412.327 389.494 411.374C390.469 410.436 391.192 409.406 391.774 408.454C392.923 406.532 393.537 404.888 393.993 403.796C394.197 403.289 394.371 402.874 394.496 402.551C394.606 402.275 394.685 402.136 394.685 402.136C394.7 402.136 394.653 402.29 394.575 402.582C394.465 402.904 394.324 403.335 394.15 403.858C393.741 404.964 393.174 406.625 392.058 408.607C391.492 409.591 390.783 410.652 389.792 411.636C388.817 412.634 387.511 413.542 385.922 414.049C384.349 414.525 382.476 414.71 380.637 414.125C379.724 413.834 378.843 413.327 378.135 412.588C377.427 411.851 376.971 410.897 376.641 409.945C376.294 408.991 376.027 408.008 375.555 407.116C375.084 406.224 374.328 405.487 373.4 405.01C371.496 404.042 369.089 404.088 366.808 404.595C364.511 405.102 362.293 406.271 359.808 407.04C358.58 407.439 357.258 407.747 355.891 407.809C354.522 407.855 353.106 407.608 351.815 407.024C349.235 405.871 347.269 403.812 345.145 402.06C344.076 401.183 342.942 400.353 341.684 399.768C340.425 399.185 339.025 398.939 337.609 398.954C334.747 399.016 331.915 400.076 328.989 400.938C327.525 401.367 326.015 401.767 324.427 401.92C322.854 402.074 321.17 401.952 319.659 401.291C316.592 399.984 314.798 397.248 312.297 395.788C311.07 395.035 309.638 394.712 308.222 394.911C306.806 395.081 305.453 395.68 304.133 396.264C302.795 396.864 301.457 397.494 300.01 397.894C298.578 398.278 296.99 398.355 295.558 397.909C292.679 397.033 290.634 395.003 288.526 393.406C287.472 392.591 286.403 391.837 285.254 391.3C284.105 390.761 282.878 390.423 281.636 390.238C279.15 389.87 276.664 390.07 274.273 390.27C269.474 390.777 264.928 390.777 260.838 390.408C252.641 389.67 246.16 388.271 241.629 387.565C239.411 387.211 237.665 386.934 236.422 386.734C235.871 386.642 235.415 386.581 235.069 386.519C234.723 386.489 234.565 386.457 234.565 386.443Z" fill="#FAFAFA"/>
<path fill-rule="evenodd" clip-rule="evenodd" d="M233.161 489.87C233.161 489.854 233.318 489.793 233.615 489.686C233.96 489.564 234.414 489.411 234.993 489.213C236.198 488.8 237.967 488.172 240.285 487.439C242.601 486.735 245.451 485.803 248.926 485.466C250.679 485.283 252.59 485.71 254.422 486.353C256.269 486.98 258.179 487.791 260.292 487.989C262.406 488.188 264.582 487.515 266.711 486.567C268.856 485.65 271.048 484.427 273.616 483.861C276.198 483.295 278.954 483.631 281.6 484.319C284.261 485.007 286.86 486.032 289.6 486.812C292.309 487.592 295.236 488.127 298.101 487.531C300.982 486.949 303.658 485.436 306.586 484.304C308.058 483.738 309.624 483.279 311.299 483.218C312.958 483.142 314.664 483.585 316.089 484.441C318.954 486.109 321.005 488.815 323.996 489.9C325.467 490.42 327.079 490.39 328.614 490.007C330.148 489.64 331.619 488.998 333.091 488.341C334.563 487.698 336.035 487.026 337.6 486.597C339.166 486.154 340.888 486.016 342.484 486.506C344.097 486.949 345.381 488.019 346.461 489.09C347.557 490.16 348.527 491.307 349.639 492.225C351.815 494.197 354.884 494.457 357.608 493.846C360.379 493.31 362.978 492.271 365.64 491.582C366.97 491.276 368.316 490.956 369.694 490.986C371.041 490.97 372.45 491.231 373.592 491.904C374.798 492.485 375.706 493.478 376.426 494.473C377.146 495.482 377.71 496.537 378.289 497.546C379.417 499.533 380.81 501.368 382.845 501.995C384.818 502.653 386.932 502.225 388.638 501.414C390.36 500.604 391.8 499.472 392.912 498.219C395.103 495.68 396.262 492.944 397.436 490.879C398.564 488.768 399.581 487.209 400.38 486.23C401.178 485.251 401.71 484.824 401.71 484.824C401.742 484.854 401.272 485.328 400.52 486.322C399.769 487.332 398.798 488.891 397.718 491.016C396.59 493.097 395.494 495.849 393.256 498.509C392.113 499.809 390.641 501.002 388.857 501.858C387.088 502.714 384.848 503.219 382.657 502.516C380.418 501.843 378.884 499.825 377.742 497.837C376.551 495.864 375.471 493.57 373.263 492.469C371.134 491.231 368.379 491.582 365.827 492.239C363.229 492.912 360.63 493.983 357.764 494.549C356.34 494.839 354.822 494.977 353.303 494.717C352.536 494.64 351.815 494.32 351.08 494.06C350.375 493.723 349.733 493.28 349.139 492.791C347.949 491.812 346.962 490.665 345.898 489.625C344.833 488.585 343.659 487.622 342.234 487.239C340.825 486.812 339.29 486.933 337.804 487.346C336.316 487.759 334.876 488.417 333.404 489.06C331.932 489.701 330.43 490.374 328.786 490.772C327.158 491.185 325.342 491.231 323.698 490.65C320.395 489.411 318.344 486.643 315.65 485.114C314.32 484.319 312.818 483.937 311.299 483.982C309.78 484.028 308.292 484.457 306.852 485.007C303.988 486.109 301.279 487.638 298.226 488.249C295.173 488.876 292.105 488.295 289.349 487.485C286.579 486.674 283.979 485.65 281.381 484.961C278.798 484.288 276.167 483.952 273.725 484.472C271.283 484.992 269.122 486.169 266.93 487.086C264.77 488.035 262.453 488.738 260.199 488.494C257.96 488.264 256.034 487.408 254.202 486.781C252.371 486.123 250.602 485.696 248.91 485.863C245.513 486.139 242.648 487.026 240.332 487.683C238.061 488.371 236.276 488.921 234.993 489.32C234.414 489.487 233.96 489.61 233.6 489.717C233.334 489.854 233.177 489.886 233.161 489.87Z" fill="#FAFAFA"/>
<path fill-rule="evenodd" clip-rule="evenodd" d="M321.649 451.286C321.664 451.315 321.35 451.494 320.754 451.821C320.142 452.148 319.23 452.579 317.99 453.01C315.523 453.887 311.659 454.721 306.915 454.096C305.737 453.918 304.511 453.68 303.271 453.292C302.029 452.921 300.788 452.386 299.532 451.88C298.275 451.405 296.924 450.973 295.542 451.108C294.16 451.226 292.84 451.88 291.6 452.713C290.343 453.545 289.133 454.542 287.704 455.374C286.996 455.791 286.196 456.133 285.347 456.356C284.923 456.475 284.484 456.519 284.044 456.549C283.603 456.609 283.164 456.564 282.708 456.519C279.111 456.088 276.253 453.843 273.142 452.342C271.587 451.583 269.922 450.988 268.303 451.166L267.707 451.241C267.519 451.286 267.33 451.36 267.142 451.419C266.749 451.523 266.388 451.702 266.057 451.896C265.382 452.311 264.786 452.846 264.22 453.427C263.089 454.572 262.115 455.895 260.765 456.891C260.088 457.397 259.288 457.783 258.423 457.917C257.56 458.05 256.664 457.917 255.91 457.56C254.371 456.847 253.429 455.568 252.58 454.437C251.732 453.278 250.977 452.133 250.083 451.211C248.26 449.353 245.653 448.594 243.406 448.698C241.097 448.743 239.228 449.828 237.768 450.855C236.291 451.896 235.207 453.025 234.5 454.051C233.039 456.133 233.337 457.65 233.227 457.619C233.227 457.619 233.118 457.278 233.18 456.609C233.243 455.955 233.526 454.973 234.218 453.887C234.908 452.802 235.993 451.612 237.468 450.512C238.945 449.442 240.893 448.252 243.359 448.163C245.763 448.03 248.559 448.787 250.569 450.795C251.544 451.791 252.329 452.951 253.162 454.081C253.994 455.196 254.921 456.356 256.209 456.951C257.497 457.546 259.099 457.278 260.277 456.341C261.487 455.434 262.444 454.14 263.623 452.936C264.204 452.342 264.848 451.747 265.618 451.286C266.01 451.062 266.42 450.855 266.875 450.735C267.095 450.662 267.314 450.572 267.534 450.527L268.225 450.438C270.11 450.23 271.932 450.913 273.535 451.687C276.739 453.248 279.582 455.42 282.818 455.791C284.421 455.984 285.976 455.568 287.31 454.779C288.662 454.007 289.872 453.025 291.175 452.178C292.463 451.33 293.908 450.602 295.495 450.483C297.082 450.349 298.526 450.84 299.815 451.345C301.103 451.865 302.296 452.4 303.491 452.788C304.685 453.174 305.878 453.427 307.025 453.62C311.643 454.304 315.46 453.576 317.91 452.802C320.361 451.969 321.602 451.211 321.649 451.286Z" fill="#FAFAFA"/>
<path fill-rule="evenodd" clip-rule="evenodd" d="M234.565 531.842C234.565 531.828 234.738 531.873 235.037 531.962C235.209 532.007 235.398 532.067 235.603 532.141C235.838 532.186 236.105 532.216 236.42 532.261C237.662 532.411 239.533 532.067 241.686 531.049C243.871 530.138 246.323 528.433 249.75 527.67C250.614 527.491 251.526 527.46 252.47 527.55C253.413 527.685 254.34 527.984 255.221 528.417C256.997 529.285 258.553 530.601 260.282 531.797C261.98 532.98 264.024 534.026 266.319 533.831C268.598 533.667 270.751 532.5 273.078 531.513C274.241 531.02 275.483 530.556 276.819 530.332C278.156 530.107 279.554 530.167 280.906 530.406C283.625 530.886 286.187 531.992 288.892 532.695C291.58 533.458 294.504 533.427 297.364 532.815C300.241 532.231 303.07 531.154 305.963 530.107C308.856 529.06 311.858 527.984 315.111 527.595C318.35 527.116 321.793 527.745 324.81 529.06C327.86 530.317 330.643 531.947 333.582 533.069C336.49 534.205 339.65 534.669 342.559 533.862C348.438 532.261 352.713 527.73 358.293 525.98C361.044 525.053 364.094 525.098 366.687 525.935C369.329 526.727 371.593 528.089 373.73 529.404C375.852 530.735 377.848 532.082 379.877 533.174C381.904 534.28 383.979 535.072 386.039 535.521C390.204 536.389 394.166 535.971 397.404 535.073C400.658 534.145 403.22 532.695 405.106 531.319C408.895 528.477 410.01 526.024 410.136 526.144C410.153 526.144 410.073 526.294 409.901 526.547C409.696 526.847 409.445 527.236 409.13 527.714C408.36 528.672 407.213 530.123 405.294 531.558C403.408 532.994 400.831 534.52 397.53 535.492C394.244 536.449 390.204 536.927 385.912 536.074C383.775 535.626 381.621 534.833 379.563 533.712C377.487 532.605 375.475 531.274 373.353 529.958C371.231 528.672 368.998 527.341 366.467 526.607C363.968 525.815 361.139 525.785 358.529 526.683C355.888 527.52 353.452 529.076 350.953 530.616C348.453 532.156 345.844 533.802 342.763 534.625C339.666 535.492 336.255 534.998 333.268 533.817C330.25 532.665 327.468 531.035 324.481 529.808C321.525 528.537 318.334 527.953 315.207 528.402C312.078 528.761 309.123 529.808 306.23 530.855C303.338 531.902 300.477 532.98 297.507 533.578C294.567 534.205 291.454 534.235 288.672 533.428C285.889 532.695 283.343 531.588 280.749 531.109C279.46 530.87 278.156 530.81 276.913 531.005C275.671 531.199 274.477 531.632 273.33 532.112C271.05 533.069 268.818 534.266 266.35 534.445C263.851 534.639 261.634 533.473 259.937 532.261C258.192 531.035 256.667 529.719 254.985 528.881C254.152 528.462 253.272 528.163 252.407 528.043C251.526 527.953 250.661 527.969 249.844 528.134C246.543 528.821 244.059 530.466 241.827 531.364C239.643 532.351 237.693 532.665 236.42 532.456C236.105 532.396 235.823 532.366 235.587 532.306C235.366 532.216 235.178 532.156 235.021 532.082C234.707 531.917 234.565 531.857 234.565 531.842Z" fill="#FAFAFA"/>
<path fill-rule="evenodd" clip-rule="evenodd" d="M238.779 262.993C238.826 262.962 239.234 263.57 240.301 264.432C241.367 265.281 243.156 266.32 245.696 266.831C248.238 267.391 251.406 267.391 255.093 267.024C256.928 266.88 258.905 266.687 261.022 266.72C263.124 266.752 265.414 267.024 267.61 267.919C269.822 268.799 271.892 270.174 274.104 271.389C275.218 271.997 276.363 272.556 277.602 272.972C278.826 273.372 280.144 273.58 281.476 273.628C284.159 273.74 286.951 273.18 289.806 272.652C292.66 272.125 295.704 271.581 298.841 271.948C302.025 272.317 304.912 273.964 307.641 275.659C310.386 277.338 313.193 279.177 316.425 279.641C318.025 279.833 319.673 279.721 321.288 279.304C322.904 278.874 324.472 278.218 326.025 277.497C329.146 276.058 332.221 274.203 335.75 273.277C337.507 272.828 339.358 272.668 341.162 272.94C342.966 273.244 344.644 273.964 346.166 274.843C349.224 276.602 351.844 278.889 354.824 280.297C357.79 281.719 361.099 281.991 364.236 281.48C367.389 281.032 370.369 279.993 373.319 279.081C376.251 278.153 379.17 277.29 382.103 276.906C385.035 276.523 387.954 276.81 390.635 277.45C396.032 278.762 400.628 281.144 404.942 282.839C409.192 284.79 413.427 285.142 417.083 284.806C420.738 284.471 423.812 283.559 426.181 282.487C430.965 280.313 432.517 277.545 432.612 277.69C432.612 277.69 432.235 278.33 431.278 279.337C430.337 280.361 428.691 281.64 426.322 282.791C423.953 283.927 420.848 284.901 417.145 285.285C415.295 285.493 413.286 285.493 411.184 285.238C409.067 285.013 406.902 284.278 404.753 283.414C400.393 281.736 395.797 279.401 390.511 278.153C387.875 277.53 385.067 277.274 382.212 277.657C379.357 278.041 376.487 278.889 373.554 279.833C370.62 280.744 367.609 281.815 364.362 282.28C361.146 282.807 357.633 282.552 354.511 281.048C351.389 279.576 348.754 277.29 345.789 275.578C344.315 274.731 342.731 274.06 341.053 273.772C339.374 273.516 337.649 273.66 335.97 274.091C332.597 274.971 329.539 276.795 326.386 278.266C324.801 279.001 323.185 279.673 321.507 280.12C319.813 280.552 318.056 280.681 316.33 280.473C312.865 279.96 309.962 278.041 307.249 276.363C304.519 274.652 301.758 273.084 298.762 272.733C292.723 272.06 287.06 274.604 281.46 274.332C280.065 274.268 278.7 274.044 277.414 273.628C276.127 273.196 274.951 272.604 273.821 271.981C271.578 270.733 269.539 269.358 267.422 268.494C263.124 266.752 258.779 267.296 255.14 267.52C251.453 267.839 248.206 267.807 245.649 267.184C243.077 266.608 241.273 265.504 240.222 264.592C239.155 263.633 238.779 262.993 238.779 262.993Z" fill="#FAFAFA"/>
<g opacity="0.3">
<path opacity="0.3" fill-rule="evenodd" clip-rule="evenodd" d="M356.126 281.293L377.992 296.658C371.038 314.163 377.481 338.461 383.505 358.341C385.843 366.078 393.601 374.131 393.23 382.214C392.858 390.298 399.517 404.044 391.805 406.089C386.695 407.441 381.136 405.68 376.892 402.488C372.634 399.295 369.506 394.828 366.718 390.267C351.357 365.04 344.187 316.789 356.126 281.293Z" fill="black"/>
</g>
<path fill-rule="evenodd" clip-rule="evenodd" d="M238.779 518.301C238.779 518.27 239.08 518.301 239.633 518.392C240.281 518.499 241.07 518.652 242.033 518.82C244.23 519.233 247.215 519.769 250.848 520.442C258.289 521.787 268.604 523.531 280.041 525.076C291.494 526.62 301.888 527.676 309.438 528.348C313.119 528.669 316.137 528.929 318.38 529.113C319.359 529.205 320.165 529.281 320.812 529.342C321.366 529.404 321.665 529.45 321.649 529.48C321.649 529.511 321.349 529.511 320.797 529.511C320.149 529.495 319.343 529.465 318.364 529.434C316.247 529.358 313.182 529.174 309.407 528.914C301.841 528.395 291.415 527.416 279.946 525.871C268.494 524.326 258.178 522.49 250.754 521.007C247.041 520.258 244.04 519.616 241.986 519.126C241.038 518.897 240.248 518.713 239.617 518.56C239.064 518.407 238.779 518.331 238.779 518.301Z" fill="#263238"/>
<path fill-rule="evenodd" clip-rule="evenodd" d="M273.894 514.656C273.91 514.625 274.35 514.719 275.201 514.937C276.051 515.125 277.278 515.53 278.916 515.827C282.143 516.561 286.897 517.342 292.816 517.608C298.735 517.874 305.819 517.437 313.455 515.719C321.09 514.015 329.214 510.922 336.896 506.22C344.531 501.439 350.907 495.55 355.787 489.488C360.699 483.427 364.21 477.302 366.571 471.913C368.947 466.523 370.317 461.946 371.073 458.744C371.514 457.149 371.687 455.885 371.891 455.041C372.081 454.197 372.191 453.744 372.206 453.759C372.238 453.759 372.175 454.213 372.049 455.072C371.891 455.931 371.766 457.212 371.372 458.821C370.711 462.055 369.42 466.695 367.09 472.147C364.792 477.6 361.297 483.817 356.369 489.956C351.473 496.096 345.035 502.064 337.321 506.907C329.544 511.672 321.326 514.765 313.613 516.437C305.899 518.124 298.735 518.515 292.785 518.17C286.819 517.843 282.064 516.968 278.837 516.125C277.216 515.765 275.988 515.312 275.153 515.078C274.319 514.843 273.878 514.687 273.894 514.656Z" fill="#263238"/>
<path fill-rule="evenodd" clip-rule="evenodd" d="M288.271 239.35C288.301 239.35 288.301 239.745 288.301 240.484C288.301 241.303 288.286 242.388 288.286 243.727C288.317 246.529 288.255 250.669 289.466 255.516C290.118 257.91 291.082 260.506 292.821 262.851C294.498 265.229 296.921 267.259 299.763 268.833C302.604 270.423 305.882 271.557 309.345 272.312C312.808 273.083 316.488 273.477 320.262 273.383C327.795 273.225 334.907 271.1 340.435 267.606C346.011 264.143 349.785 259.294 352.021 254.871C354.242 250.385 354.909 246.292 355.049 243.506C355.142 240.705 354.863 239.146 354.956 239.146C354.987 239.146 355.049 239.524 355.158 240.264C355.282 241.004 355.344 242.106 355.36 243.522C355.313 246.34 354.738 250.526 352.534 255.123C350.328 259.672 346.523 264.662 340.84 268.25C335.217 271.871 327.965 274.059 320.293 274.201C316.458 274.295 312.715 273.902 309.189 273.099C305.664 272.328 302.34 271.147 299.421 269.495C296.501 267.857 294.001 265.733 292.292 263.261C290.507 260.821 289.544 258.129 288.922 255.674C287.758 250.7 287.929 246.544 287.976 243.727C288.022 242.31 288.099 241.224 288.146 240.484C288.192 239.745 288.24 239.35 288.271 239.35Z" fill="#263238"/>
<path fill-rule="evenodd" clip-rule="evenodd" d="M278.108 243.35C278.108 243.35 240.323 244.783 231.348 282.645C220.957 326.492 227.232 374.84 240.293 399.054L240.914 355.925C241.333 325.993 248.524 296.561 261.926 269.807L278.108 243.35Z" fill="#455A64"/>
<path fill-rule="evenodd" clip-rule="evenodd" d="M233.441 366.791C233.41 366.791 233.378 366.339 233.347 365.465C233.317 364.529 233.285 363.266 233.223 361.674C233.161 360.02 233.129 358.008 233.207 355.668C233.27 353.328 233.254 350.661 233.473 347.713C233.566 346.23 233.659 344.702 233.753 343.095C233.862 341.489 234.065 339.819 234.22 338.103C234.517 334.64 235.078 330.974 235.609 327.105C236.856 319.398 238.586 310.991 241.003 302.301C243.482 293.628 246.398 285.547 249.36 278.324C250.919 274.752 252.354 271.32 253.913 268.231C254.677 266.671 255.364 265.143 256.127 263.723C256.875 262.303 257.608 260.946 258.31 259.637C259.651 257.015 261.07 254.738 262.239 252.71C263.409 250.682 264.484 248.966 265.404 247.593C266.277 246.268 266.979 245.206 267.493 244.426C267.977 243.709 268.242 243.334 268.273 243.35C268.304 243.366 268.07 243.772 267.633 244.52C267.151 245.332 266.495 246.408 265.685 247.765C264.812 249.169 263.767 250.885 262.644 252.944C261.506 254.987 260.135 257.265 258.825 259.902C258.154 261.211 257.437 262.585 256.704 264.005C255.971 265.439 255.301 266.968 254.536 268.528C253.009 271.632 251.606 275.048 250.061 278.622C247.147 285.828 244.262 293.893 241.799 302.536C239.398 311.177 237.636 319.554 236.357 327.23C235.796 331.083 235.219 334.733 234.891 338.181C234.72 339.897 234.501 341.566 234.376 343.157C234.267 344.764 234.159 346.293 234.05 347.759C233.784 350.692 233.769 353.359 233.659 355.699C233.55 358.039 233.534 360.052 233.55 361.706C233.534 363.296 233.519 364.56 233.519 365.496C233.488 366.339 233.473 366.791 233.441 366.791Z" fill="#263238"/>
<path fill-rule="evenodd" clip-rule="evenodd" d="M251.416 251.774C251.447 251.79 251.278 252.132 250.973 252.787C250.606 253.503 250.147 254.454 249.551 255.621C248.282 258.051 246.571 261.65 244.568 266.136C243.605 268.394 242.489 270.856 241.495 273.566C240.99 274.921 240.409 276.308 239.905 277.756C239.4 279.221 238.896 280.716 238.361 282.257C236.343 288.441 234.447 295.342 232.98 302.71C230.106 317.477 229.509 331.153 229.541 341.013C229.571 345.951 229.662 349.939 229.801 352.696C229.846 354.003 229.876 355.063 229.908 355.873C229.922 356.605 229.922 356.979 229.892 356.979C229.861 356.979 229.815 356.605 229.755 355.873C229.693 355.063 229.602 354.019 229.495 352.696C229.265 349.939 229.082 345.935 228.975 340.997C228.806 331.122 229.311 317.367 232.201 302.523C233.668 295.109 235.61 288.177 237.673 281.978C238.208 280.435 238.743 278.94 239.247 277.475C239.767 276.027 240.363 274.641 240.883 273.285C241.908 270.575 243.069 268.129 244.063 265.871C246.142 261.401 247.931 257.834 249.291 255.435C249.934 254.298 250.453 253.378 250.835 252.662C251.187 252.085 251.401 251.759 251.416 251.774Z" fill="#263238"/>
<path fill-rule="evenodd" clip-rule="evenodd" d="M401.712 256.64C401.712 256.64 376.419 326.399 395.056 385.262L396.077 406.069C396.077 406.069 381.822 405.081 371.017 384.431C360.228 363.78 356.729 342.472 353.077 311.77C349.423 281.07 366.033 241.948 366.033 241.948C366.033 241.948 395.504 248.487 401.712 256.64Z" fill="#455A64"/>
<path fill-rule="evenodd" clip-rule="evenodd" d="M397.496 404.664C397.496 404.68 397.366 404.618 397.107 404.494C396.815 404.338 396.459 404.135 396.004 403.901C395.063 403.34 393.717 402.42 392.209 401.001C389.16 398.178 385.868 393.002 383.808 386.017C382.723 382.54 381.912 378.642 381.213 374.448C380.452 370.269 379.836 365.763 379.284 361.007C378.214 351.511 377.646 341.002 377.889 329.979C378.132 318.955 379.17 308.477 380.695 299.029C382.203 289.595 384.052 281.145 386.209 274.222C388.349 267.284 390.912 261.936 393.003 258.411C394.058 256.649 394.949 255.339 395.583 254.466C395.89 254.061 396.134 253.749 396.328 253.484C396.507 253.266 396.588 253.156 396.604 253.172C396.621 253.188 396.539 253.298 396.393 253.531C396.215 253.796 396.004 254.14 395.728 254.56C395.145 255.449 394.285 256.79 393.296 258.567C391.301 262.107 388.835 267.454 386.792 274.378C384.717 281.285 382.949 289.72 381.474 299.138C380.014 308.556 378.993 319.003 378.749 329.994C378.506 340.987 379.041 351.465 380.063 360.929C380.598 365.669 381.181 370.159 381.912 374.338C382.576 378.532 383.355 382.4 384.393 385.845C386.371 392.784 389.517 397.913 392.453 400.766C395.355 403.651 397.577 404.54 397.496 404.664Z" fill="#263238"/>
<path fill-rule="evenodd" clip-rule="evenodd" d="M396.092 404.665C396.092 404.681 395.948 404.634 395.662 404.523C395.344 404.397 394.929 404.225 394.436 404.021C393.384 403.501 391.839 402.716 390.054 401.397C386.454 398.787 382.122 393.916 378.202 387.08C374.427 380.197 370.094 371.854 366.796 361.985C363.403 352.179 360.679 341.037 359.278 329.157C357.86 317.278 357.891 305.821 358.864 295.497C359.739 285.157 361.874 276.011 363.897 268.453C365.029 264.696 365.984 261.271 367.147 258.38C368.246 255.457 369.107 252.911 370.062 250.947C370.938 248.982 371.639 247.443 372.133 246.343C372.357 245.855 372.547 245.463 372.69 245.149C372.818 244.881 372.897 244.755 372.914 244.755C372.93 244.755 372.882 244.912 372.77 245.18C372.643 245.494 372.483 245.902 372.293 246.406C371.83 247.521 371.177 249.077 370.365 251.057C369.457 253.053 368.644 255.598 367.593 258.521C366.478 261.428 365.569 264.839 364.471 268.594C362.511 276.153 360.457 285.251 359.628 295.544C358.719 305.821 358.704 317.215 360.105 329.031C361.508 340.849 364.183 351.943 367.529 361.701C370.764 371.523 375.032 379.868 378.712 386.75C382.536 393.57 386.757 398.442 390.261 401.097C391.998 402.45 393.495 403.266 394.515 403.832C395.009 404.068 395.391 404.256 395.71 404.413C395.965 404.587 396.092 404.665 396.092 404.665Z" fill="#263238"/>
<path fill-rule="evenodd" clip-rule="evenodd" d="M383.492 284.034L400.307 288.249L397.864 293.854L382.048 290.847L383.492 284.034Z" fill="#263238"/>
<path fill-rule="evenodd" clip-rule="evenodd" d="M384.863 288.702C384.773 288.603 385.657 287.461 387.096 285.757L387.366 285.442L387.576 285.823C388.189 286.881 388.834 287.99 389.493 289.149L388.984 289C389.553 288.635 390.138 288.272 390.737 287.891C391.367 287.511 391.966 287.146 392.551 286.782L392.88 286.584L393.06 286.948C393.66 288.173 394.228 289.331 394.783 290.44L394.378 290.307C396.237 289.265 397.451 288.669 397.496 288.785C397.556 288.901 396.462 289.712 394.664 290.887L394.409 291.053L394.244 290.754C393.66 289.662 393.045 288.536 392.385 287.345L392.895 287.511C392.311 287.874 391.712 288.255 391.097 288.635C390.482 289.017 389.898 289.364 389.329 289.729L388.999 289.927L388.819 289.579C388.189 288.388 387.59 287.246 387.021 286.17L387.5 286.236C385.972 287.825 384.937 288.801 384.863 288.702Z" fill="#E8505B"/>
<path fill-rule="evenodd" clip-rule="evenodd" d="M456.49 400.633V458.98C456.49 469.626 451.715 479.709 443.482 486.451C433.448 494.652 419.735 496.722 407.745 491.814L279.512 434.879L292.066 392.041L395.222 426.098L395.097 399.536L456.49 400.633Z" fill="#845D47"/>
<path fill-rule="evenodd" clip-rule="evenodd" d="M262.657 407.932L254.5 320.508L143.268 329.874L151.421 417.298L262.657 407.932Z" fill="white"/>
<path fill-rule="evenodd" clip-rule="evenodd" d="M257.04 403.275L251.161 326.13L148.887 334.552L154.766 411.698L257.04 403.275Z" fill="#D2ECFF"/>
<path fill-rule="evenodd" clip-rule="evenodd" d="M163.003 397.657L214.902 392.972L214.835 392.046L162.933 396.722L163.003 397.657" fill="#AEC3FF"/>
<path fill-rule="evenodd" clip-rule="evenodd" d="M248.613 350.027L248.547 349.025L237.376 350.027L237.444 351.019L248.613 350.027Z" fill="#AEC3FF"/>
<path fill-rule="evenodd" clip-rule="evenodd" d="M248.613 352.027L248.547 351.025L237.376 352.027L237.443 353.019L248.613 352.027Z" fill="#AEC3FF"/>
<path fill-rule="evenodd" clip-rule="evenodd" d="M248.613 354.024L248.547 353.022L237.376 354.024L237.443 355.016L248.613 354.024Z" fill="#AEC3FF"/>
<path fill-rule="evenodd" clip-rule="evenodd" d="M248.613 356.029L248.547 355.027L237.376 356.029L237.443 357.021L248.613 356.029Z" fill="#AEC3FF"/>
<path fill-rule="evenodd" clip-rule="evenodd" d="M248.613 358.039L248.547 357.037L237.376 358.039L237.443 359.031L248.613 358.039Z" fill="#AEC3FF"/>
<path fill-rule="evenodd" clip-rule="evenodd" d="M248.613 360.04L248.547 359.038L237.376 360.04L237.443 361.032L248.613 360.04Z" fill="#AEC3FF"/>
<path fill-rule="evenodd" clip-rule="evenodd" d="M163.003 400.46L214.902 395.775L214.835 394.849L162.933 399.525L163.003 400.46" fill="#AEC3FF"/>
<path fill-rule="evenodd" clip-rule="evenodd" d="M163.095 387.84L192.429 385.523L192.267 383.632L162.933 385.949L163.095 387.84" fill="#AEC3FF"/>
<path fill-rule="evenodd" clip-rule="evenodd" d="M219.735 328.68L220.677 336.555L221.557 336.528L220.616 328.652L219.735 328.68" fill="#AEC3FF"/>
<path fill-rule="evenodd" clip-rule="evenodd" d="M217.778 328.68L218.72 336.555L219.6 336.528L218.658 328.652L217.778 328.68" fill="#AEC3FF"/>
<path fill-rule="evenodd" clip-rule="evenodd" d="M215.821 328.68L216.762 336.555L217.643 336.528L216.701 328.652L215.821 328.68" fill="#AEC3FF"/>
<path fill-rule="evenodd" clip-rule="evenodd" d="M163.085 392.05L196.643 389.532L196.49 387.842L162.933 390.369L163.085 392.05" fill="#AEC3FF"/>
<path fill-rule="evenodd" clip-rule="evenodd" d="M171.225 355.069C171.225 355.069 172.352 351.166 176.005 351.026C179.657 350.887 187.652 354.93 192.233 352.373C196.814 349.816 198.873 342.396 204.698 341.539C210.522 340.683 209.351 346.423 214.374 349.191C219.396 351.96 219.718 350.597 221.416 349.794C223.114 348.991 219.173 352.092 216.408 351.664C213.642 351.236 207.103 346.415 204.399 346.577C201.696 346.739 200.342 347.369 195.12 351.703C189.898 356.037 189.069 354.903 186.612 355.162C184.155 355.42 176.521 352.559 174.674 352.998C172.828 353.436 171.225 355.069 171.225 355.069Z" fill="#D92840"/>
<path fill-rule="evenodd" clip-rule="evenodd" d="M167.416 362.968C167.416 362.968 172.065 356.191 177.931 355.458C183.798 354.725 184.091 359.469 188.778 358.86C193.465 358.25 198.547 352.01 200.592 350.398C202.636 348.785 207.017 348.325 210.656 351.902C214.295 355.479 217.025 354.843 219.052 354.164C221.078 353.485 217.449 356.661 212.318 354.406C207.186 352.15 203.503 351.489 200.87 353.047C198.237 354.605 190.015 359.545 190.015 359.545C190.015 359.545 185.228 361.678 182.79 360.653C180.351 359.629 179.49 358.089 176.317 357.84C173.144 357.591 167.416 362.968 167.416 362.968Z" fill="white"/>
<path fill-rule="evenodd" clip-rule="evenodd" d="M169.028 363.533C169.028 363.533 172.139 359.236 174.332 358.644C176.526 358.053 178.835 360.818 180.462 361.609C182.089 362.401 185.935 362.839 189.19 361.053C192.446 359.267 198.505 354.78 201.836 353.708C205.166 352.636 207.615 353.342 210.449 355.45C213.283 357.558 213.903 358.937 215.685 360.073C217.466 361.209 219.924 360.951 219.924 360.951C219.924 360.951 215.767 361.989 212.774 360.619C209.78 359.25 206.301 355.525 202.413 355.813C198.525 356.102 195.05 360.317 193.203 361.954C191.357 363.592 189.041 365.279 185.56 364.923C182.079 364.567 177.154 360.634 173.983 360.967C170.812 361.3 169.028 363.533 169.028 363.533Z" fill="#006FAB"/>
<path fill-rule="evenodd" clip-rule="evenodd" d="M153.099 339.02L165.584 337.336L167.145 352.486L154.66 354.169L153.099 339.02Z" fill="white"/>
<path fill-rule="evenodd" clip-rule="evenodd" d="M234.566 330.606L247.051 328.923L248.777 338.582L235.97 340.144L234.566 330.606Z" fill="white"/>
<path fill-rule="evenodd" clip-rule="evenodd" d="M297.772 397.346L289.019 386.495C283.246 379.345 274.555 375.203 265.359 375.203H257.708L252.488 381.062C252.488 381.062 215.043 382.684 213.671 387.298L213.639 388.794L213.623 389.661L245.643 391.818C245.643 391.818 218.402 391.739 216.762 391.786C214.964 391.849 209.16 391.33 209.285 394.527C209.381 397.157 212.487 399.22 217.204 399.913C219.144 400.196 242.74 402.244 242.74 402.244C242.74 402.244 217.96 402.008 216.762 402.008C213.844 401.992 214.222 406.653 215.942 407.236C217.314 407.693 250.579 417.395 250.579 417.395C250.579 417.395 244.98 421.142 240.421 420.812C235.847 420.481 228.024 414.622 226.4 417.395C224.775 420.166 225.09 421.788 226.068 422.449C227.047 423.095 237.819 428.64 241.4 429.616C244.98 430.592 274.286 435.222 274.286 435.222L284.854 436.923L297.772 397.346Z" fill="#845D47"/>
<path fill-rule="evenodd" clip-rule="evenodd" d="M137.65 385.019C137.65 385.019 136.488 387.054 139.791 389.841C139.791 389.841 135.72 390.852 138.257 397.687C138.257 397.687 135.453 404.77 143.095 407.806C143.095 407.806 141.059 413.627 148.434 416.414C155.808 419.2 162.933 414.39 162.933 414.39C162.933 414.39 145.678 383.617 140.459 383.617C139.055 383.617 137.65 383.617 137.65 385.019Z" fill="#845D47"/>
<path fill-rule="evenodd" clip-rule="evenodd" d="M140.785 383.617C145.974 385.105 151.659 386.296 156.46 388.23C158.044 388.874 159.597 388.907 160.638 390.313C161.679 391.717 161.928 393.966 160.731 395.24C159.675 396.346 157.997 396.33 156.521 396.148C150.991 395.437 145.695 393.421 140.46 391.404" fill="#845D47"/>
<path fill-rule="evenodd" clip-rule="evenodd" d="M142.192 392.031C147.38 393.519 153.065 394.71 157.865 396.644C159.45 397.288 161.003 397.321 162.044 398.727C163.085 400.131 163.333 402.38 162.137 403.652C161.08 404.76 159.403 404.744 157.927 404.562C152.397 403.851 147.1 401.834 141.865 399.817" fill="#845D47"/>
<path fill-rule="evenodd" clip-rule="evenodd" d="M144.999 400.445C150.187 401.932 155.873 403.123 160.673 405.058C162.257 405.702 163.811 405.735 164.852 407.141C165.893 408.545 166.141 410.794 164.945 412.067C163.889 413.174 162.211 413.158 160.736 412.976C155.205 412.265 149.908 410.249 144.673 408.231" fill="#845D47"/>
<path fill-rule="evenodd" clip-rule="evenodd" d="M140.461 390.669C140.555 390.475 144.242 391.61 148.888 392.746C153.517 393.895 157.362 394.601 157.314 394.808C157.283 395.002 153.36 394.601 148.668 393.438C143.975 392.289 140.382 390.834 140.461 390.669Z" fill="#5D4436"/>
<path fill-rule="evenodd" clip-rule="evenodd" d="M139.056 399.072C139.137 398.854 143.492 400.238 148.912 401.762C154.332 403.301 158.768 404.39 158.719 404.623C158.67 404.841 154.138 404.095 148.686 402.54C143.218 401.015 138.976 399.274 139.056 399.072Z" fill="#5D4436"/>
<path fill-rule="evenodd" clip-rule="evenodd" d="M143.269 408.92C143.317 408.715 147.455 409.477 152.495 410.618C157.534 411.76 161.575 412.857 161.527 413.062C161.479 413.267 157.341 412.506 152.301 411.364C147.245 410.223 143.204 409.126 143.269 408.92Z" fill="#5D4436"/>
<path fill-rule="evenodd" clip-rule="evenodd" d="M139.055 383.638C139.134 383.415 143.757 385.007 149.567 386.521C155.376 388.065 160.154 388.941 160.123 389.18C160.108 389.291 158.889 389.212 156.921 388.909C154.97 388.606 152.283 388.081 149.348 387.317C146.427 386.552 143.819 385.677 141.976 384.976C140.134 384.275 139.025 383.733 139.055 383.638Z" fill="#5D4436"/>
<path fill-rule="evenodd" clip-rule="evenodd" d="M240.184 381.608C240.184 381.32 246.159 381.031 253.527 380.989C260.896 380.949 266.871 381.134 266.871 381.444C266.871 381.733 260.896 382.02 253.527 382.062C246.159 382.103 240.184 381.918 240.184 381.608Z" fill="#5D4436"/>
<path fill-rule="evenodd" clip-rule="evenodd" d="M389.069 424.328C389.085 424.264 389.514 424.328 390.314 424.471C391.112 424.599 392.233 424.901 393.615 425.348C396.363 426.223 400.048 427.896 403.673 430.493C407.297 433.105 410.091 436.116 411.842 438.473C412.718 439.652 413.378 440.656 413.777 441.373C414.192 442.089 414.391 442.503 414.345 442.536C414.238 442.615 413.255 441.086 411.397 438.856C409.555 436.625 406.759 433.758 403.213 431.193C399.665 428.644 396.087 426.924 393.431 425.921C390.759 424.87 389.039 424.455 389.069 424.328Z" fill="#5D4436"/>
<path fill-rule="evenodd" clip-rule="evenodd" d="M318.934 271.308C302.014 269.958 289.242 255.362 290.088 238.365C290.682 226.437 291.293 215.685 291.293 215.685C291.293 215.685 265.795 211.715 265.482 186.148C265.169 160.581 269.584 101.882 269.584 101.882C299.103 89.1694 333.161 93.454 358.611 113.104L362.383 116.023L352.726 242.35C351.396 259.71 336.244 272.688 318.934 271.308Z" fill="#845D47"/>
<path fill-rule="evenodd" clip-rule="evenodd" d="M290.811 215.241C290.811 215.241 307.121 216.602 324.459 205.468C324.459 205.468 316.503 224.463 290.749 222.096L290.811 215.241Z" fill="#5D4436"/>
<path fill-rule="evenodd" clip-rule="evenodd" d="M276.704 141.451C276.644 143.387 278.156 145.039 280.093 145.149C282.029 145.259 283.648 143.78 283.724 141.844C283.785 139.908 282.272 138.256 280.335 138.145C278.384 138.051 276.765 139.53 276.704 141.451Z" fill="black"/>
<path fill-rule="evenodd" clip-rule="evenodd" d="M275.354 138.063C275.796 138.569 278.476 136.377 282.282 136.394C286.088 136.343 288.888 138.518 289.299 137.995C289.497 137.759 289.056 136.849 287.838 135.853C286.636 134.876 284.595 133.931 282.221 133.931C279.846 133.948 277.851 134.909 276.709 135.904C275.537 136.9 275.141 137.827 275.354 138.063Z" fill="black"/>
<path fill-rule="evenodd" clip-rule="evenodd" d="M313.224 142.857C313.163 144.792 314.676 146.444 316.613 146.555C318.548 146.664 320.167 145.186 320.243 143.251C320.304 141.314 318.791 139.663 316.855 139.552C314.918 139.442 313.285 140.921 313.224 142.857Z" fill="black"/>
<path fill-rule="evenodd" clip-rule="evenodd" d="M313.277 138.063C313.719 138.569 316.398 136.377 320.204 136.394C324.01 136.343 326.811 138.518 327.223 137.995C327.42 137.759 326.979 136.849 325.761 135.853C324.558 134.876 322.519 133.931 320.143 133.931C317.768 133.948 315.774 134.909 314.617 135.904C313.46 136.9 313.064 137.827 313.277 138.063Z" fill="black"/>
<path fill-rule="evenodd" clip-rule="evenodd" d="M298.829 167.444C298.843 167.228 296.537 166.812 292.771 166.32C291.818 166.212 290.925 166.027 290.761 165.35C290.538 164.642 290.94 163.578 291.401 162.44C292.294 160.052 293.232 157.558 294.215 154.941C298.114 144.27 300.958 135.493 300.54 135.339C300.124 135.185 296.626 143.7 292.711 154.371C291.773 157.004 290.865 159.514 290.017 161.916C289.659 163.04 289.034 164.302 289.525 165.781C289.779 166.52 290.478 167.044 291.089 167.213C291.698 167.398 292.235 167.413 292.711 167.444C296.477 167.644 298.814 167.659 298.829 167.444Z" fill="black"/>
<path fill-rule="evenodd" clip-rule="evenodd" d="M309.809 170.4C309.191 170.369 309.191 174.597 305.677 177.608C302.178 180.619 297.804 180.151 297.774 180.744C297.713 181.009 298.754 181.57 300.594 181.617C302.404 181.68 305.043 181.087 307.186 179.246C309.327 177.405 310.247 174.94 310.383 173.192C310.533 171.43 310.081 170.369 309.809 170.4Z" fill="black"/>
<path fill-rule="evenodd" clip-rule="evenodd" d="M311.841 123.061C312.241 124.202 316.234 123.664 320.914 124.252C325.61 124.738 329.396 126.181 330.018 125.158C330.29 124.671 329.635 123.598 328.101 122.49C326.584 121.383 324.172 120.343 321.345 120.008C318.534 119.688 315.946 120.158 314.237 120.88C312.527 121.618 311.666 122.507 311.841 123.061Z" fill="black"/>
<path fill-rule="evenodd" clip-rule="evenodd" d="M275.408 126.55C276.126 127.394 278.94 126.52 282.341 126.476C285.726 126.328 288.604 127.039 289.259 126.164C289.553 125.735 289.095 124.89 287.837 124.09C286.593 123.291 284.533 122.652 282.194 122.712C279.872 122.787 277.844 123.542 276.667 124.401C275.489 125.275 275.081 126.15 275.408 126.55Z" fill="black"/>
<path fill-rule="evenodd" clip-rule="evenodd" d="M359.172 141.752C359.617 141.564 376.971 136.564 376.415 154.022C375.842 171.48 358.186 167.312 358.169 166.811C358.137 166.309 359.172 141.752 359.172 141.752Z" fill="#845D47"/>
<path fill-rule="evenodd" clip-rule="evenodd" d="M363.807 161.826C363.889 161.779 364.12 162.049 364.648 162.303C365.175 162.557 366.065 162.732 367.037 162.429C368.997 161.81 370.728 158.888 370.925 155.697C371.024 154.093 370.728 152.553 370.184 151.266C369.673 149.948 368.832 149.028 367.861 148.821C366.904 148.583 366.18 149.123 365.949 149.615C365.686 150.107 365.784 150.457 365.686 150.488C365.636 150.536 365.307 150.187 365.472 149.457C365.553 149.107 365.784 148.694 366.229 148.376C366.674 148.043 367.334 147.884 368.009 147.979C369.427 148.122 370.645 149.408 371.255 150.822C371.931 152.251 372.31 153.982 372.194 155.792C371.964 159.349 369.954 162.62 367.284 163.287C365.982 163.573 364.911 163.16 364.383 162.732C363.824 162.255 363.741 161.858 363.807 161.826Z" fill="#5D4436"/>
<path fill-rule="evenodd" clip-rule="evenodd" d="M259.532 79.4847C263.251 72.134 270.468 66.6561 278.533 65.1142C286.597 63.5552 295.337 65.9483 301.503 71.3941C305.362 63.6815 313.207 58.0933 321.743 56.9915C330.278 55.8747 339.284 59.2743 344.98 65.7438C349.875 71.3149 352.417 78.8701 358.159 83.561C363.133 87.6223 369.864 88.9597 374.854 92.9889C380.36 97.4122 383.09 105.031 381.678 111.971C380.266 118.897 374.76 124.831 367.965 126.736C373.442 136.652 368.311 150.881 357.768 154.973L355.225 153.919C345.56 143.279 343.348 126.468 349.938 113.671C349.624 113.688 349.326 113.64 349.028 113.624C345.67 115.466 341.795 116.394 337.966 116.159C331.863 115.797 325.979 112.523 322.433 107.517C315.452 112.57 305.457 112.995 298.083 108.54C296.922 107.832 295.76 107.014 294.411 106.872C292.81 106.699 291.289 107.533 289.829 108.242C286.002 110.131 281.686 111.358 277.466 110.744C273.527 110.178 269.731 107.706 268.177 104.07C268.083 104.054 267.989 104.054 267.895 104.039C262.968 103.142 259.015 98.923 257.665 94.0907C256.301 89.2584 257.273 83.97 259.532 79.4847Z" fill="black"/>
<path fill-rule="evenodd" clip-rule="evenodd" d="M193.83 37.1664C193.901 31.8976 192.794 26.6793 190.588 21.8842L178.424 35.4569C178.57 36.4837 178.648 37.519 178.658 38.5554C178.673 43.718 176.953 48.7392 173.768 52.8279C170.583 56.9167 166.115 59.8404 161.067 61.1394C156.019 62.4384 150.678 62.0375 145.885 60.0012C141.092 57.9649 137.12 54.4088 134.593 49.8924C132.066 45.375 131.13 40.1544 131.93 35.0529C132.731 29.9513 135.222 25.2581 139.014 21.7127C142.804 18.1674 147.679 15.9703 152.871 15.4687C158.062 14.9661 163.274 16.1879 167.686 18.9412L177.956 7.47341C171.718 2.97526 164.857 0.681702 155.611 0.681702C146.624 0.530584 137.868 3.49935 130.86 9.07247C120.735 16.7902 116.581 28.9192 116.581 36.3615C116.581 38.2135 116.692 40.0001 116.86 41.7417C116.989 45.6836 117.913 49.5602 119.577 53.143C119.822 53.7271 120.089 54.2459 120.368 54.8739C127.563 69.9246 143.972 85.614 151.423 94.2588C151.875 94.8214 152.449 95.2759 153.103 95.5877C153.757 95.9007 154.474 96.0625 155.199 96.0625C155.926 96.0625 156.642 95.9007 157.296 95.5877C157.95 95.2759 158.524 94.8214 158.976 94.2588C168.644 83.0343 193.507 59.8801 193.507 41.7417C193.507 41.6099 193.507 41.4888 193.507 41.3677C193.703 39.9755 193.81 38.5725 193.83 37.1664V37.1664Z" fill="#041B54"/>
<path fill-rule="evenodd" clip-rule="evenodd" d="M148.903 28.5319L140.458 36.5109L157.172 53.9823L188.214 19.2113C186.452 16.4346 184.311 13.9135 181.851 11.7202C181.383 11.2875 180.903 10.9088 180.434 10.4973L156.878 36.8789L148.903 28.5319Z" fill="#FF0029"/>
</svg>
