<svg width="50" height="50" viewBox="0 0 50 50" fill="none" xmlns="http://www.w3.org/2000/svg">
<path d="M25 4.16666C16.9375 4.16666 10.4167 10.6875 10.4167 18.75C10.4167 29.6875 25 45.8333 25 45.8333C25 45.8333 39.5833 29.6875 39.5833 18.75C39.5833 10.6875 33.0625 4.16666 25 4.16666Z" fill="current"/>
<path d="M30.5 16.002V27H29.5V25.5459L27 26.9073L26.9941 15.9258C26.7959 14.6367 26.0137 13.585 24.9424 13H27.5C29.0234 13.2168 30.2598 14.4424 30.5 16.002ZM26.5 16.002V29H25.5V26.8594H25.502L20.5 26.1445V28H19.5V26.0019V16.0019C19.7656 14.2734 21.252 13 23 13C24.748 13 26.2344 14.2734 26.5 16.002ZM25 16H21V18H25V16Z" fill="white"/>
</svg>
