<svg width="111" height="111" viewBox="0 0 111 111" fill="none" xmlns="http://www.w3.org/2000/svg">
<path fill-rule="evenodd" clip-rule="evenodd" d="M110.869 55.5005C110.869 86.1519 86.1836 111 55.7324 111C25.2821 111 0.596191 86.1519 0.596191 55.5005C0.596191 24.8481 25.2821 0 55.7324 0C86.1836 0 110.869 24.8481 110.869 55.5005Z" fill="#EBF3FA"/>
<path fill-rule="evenodd" clip-rule="evenodd" d="M37.6594 34.1055H77.2816C81.6177 34.1055 85.1335 37.6445 85.1335 42.0101V63.6553C85.1335 68.0201 81.6177 71.5582 77.2816 71.5582H51.1406L43.8188 84.6831V71.5582H37.6594C33.3224 71.5582 29.8066 68.0201 29.8066 63.6553V42.0101C29.8066 37.6445 33.3224 34.1055 37.6594 34.1055Z" fill="#041B54"/>
<path fill-rule="evenodd" clip-rule="evenodd" d="M70.7017 53.5629C70.7017 55.2161 72.0333 56.5573 73.6748 56.5573C75.3172 56.5573 76.6488 55.2161 76.6488 53.5629C76.6488 51.9107 75.3172 50.5703 73.6748 50.5703C72.0333 50.5703 70.7017 51.9107 70.7017 53.5629Z" fill="white"/>
<path fill-rule="evenodd" clip-rule="evenodd" d="M54.3438 53.5629C54.3438 55.2161 55.6763 56.5573 57.3177 56.5573C58.9601 56.5573 60.2917 55.2161 60.2917 53.5629C60.2917 51.9107 58.9601 50.5703 57.3177 50.5703C55.6763 50.5703 54.3438 51.9107 54.3438 53.5629Z" fill="white"/>
<path fill-rule="evenodd" clip-rule="evenodd" d="M37.9858 53.5629C37.9858 55.2161 39.3175 56.5573 40.9599 56.5573C42.6013 56.5573 43.933 55.2161 43.933 53.5629C43.933 51.9107 42.6013 50.5703 40.9599 50.5703C39.3175 50.5703 37.9858 51.9107 37.9858 53.5629Z" fill="white"/>
</svg>
