<svg width="16" height="16" viewBox="0 0 16 16" fill="none" xmlns="http://www.w3.org/2000/svg">
<path fill-rule="evenodd" clip-rule="evenodd" d="M1.33333 0.5H4.25C4.70833 0.5 5.08333 0.875 5.08333 1.33333C5.08333 2.375 5.25 3.375 5.55833 4.30833C5.65 4.6 5.58333 4.925 5.35 5.15833L3.51667 6.99167C4.71667 9.35 6.65 11.275 9.00833 12.4833L10.8417 10.65C11.0083 10.4917 11.2167 10.4083 11.4333 10.4083C11.5167 10.4083 11.6083 10.4167 11.6917 10.45C12.625 10.7583 13.6333 10.925 14.6667 10.925C15.125 10.925 15.5 11.3 15.5 11.7583V14.6667C15.5 15.125 15.125 15.5 14.6667 15.5C6.84167 15.5 0.5 9.15833 0.5 1.33333C0.5 0.875 0.875 0.5 1.33333 0.5ZM3.45 2.16667C3.49999 2.90833 3.62499 3.63333 3.825 4.325L2.825 5.325C2.48333 4.325 2.26666 3.26667 2.19166 2.16667H3.45ZM11.6667 12.1834C12.375 12.3834 13.1 12.5084 13.8333 12.5584V13.8001C12.7333 13.7251 11.675 13.5084 10.6667 13.1751L11.6667 12.1834Z" fill="#9194A8"/>
</svg>
