<svg width="24" height="24" viewBox="0 0 24 24" fill="none" xmlns="http://www.w3.org/2000/svg">
<path fill-rule="evenodd" clip-rule="evenodd" d="M16.04 16.8891C16.56 16.4191 17.24 16.1191 18 16.1191C19.61 16.1191 20.92 17.4291 20.92 19.0391C20.92 20.6491 19.61 21.9591 18 21.9591C16.39 21.9591 15.08 20.6491 15.08 19.0391C15.08 18.8191 15.11 18.5991 15.16 18.3891L8.04 14.2291C7.5 14.7291 6.79 15.0391 6 15.0391C4.34 15.0391 3 13.6991 3 12.0391C3 10.3791 4.34 9.03906 6 9.03906C6.79 9.03906 7.5 9.34906 8.04 9.84906L15.09 5.73906C15.04 5.50906 15 5.27906 15 5.03906C15 3.37906 16.34 2.03906 18 2.03906C19.66 2.03906 21 3.37906 21 5.03906C21 6.69906 19.66 8.03906 18 8.03906C17.21 8.03906 16.5 7.72906 15.96 7.22906L8.91 11.3391C8.96 11.5691 9 11.7991 9 12.0391C9 12.2791 8.96 12.5091 8.91 12.7391L16.04 16.8891ZM19 5.03912C19 4.48912 18.55 4.03912 18 4.03912C17.45 4.03912 17 4.48912 17 5.03912C17 5.58912 17.45 6.03912 18 6.03912C18.55 6.03912 19 5.58912 19 5.03912ZM5.99997 13.0391C5.44997 13.0391 4.99997 12.5891 4.99997 12.0391C4.99997 11.4891 5.44997 11.0391 5.99997 11.0391C6.54997 11.0391 6.99997 11.4891 6.99997 12.0391C6.99997 12.5891 6.54997 13.0391 5.99997 13.0391ZM17 19.0592C17 19.6092 17.45 20.0592 18 20.0592C18.55 20.0592 19 19.6092 19 19.0592C19 18.5092 18.55 18.0592 18 18.0592C17.45 18.0592 17 18.5092 17 19.0592Z" fill="#1B2152"/>
</svg>
