<svg width="32" height="33" viewBox="0 0 32 33" fill="none" xmlns="http://www.w3.org/2000/svg">
<path fill-rule="evenodd" clip-rule="evenodd" d="M29.0036 14.6032C28.3345 8.51365 23.52 3.68 17.4545 3.00825V0H14.5455V3.00825C8.48 3.68 3.66545 8.51365 2.99636 14.6032H0V17.5238H2.99636C3.66545 23.6133 8.48 28.447 14.5455 29.1187V32.127H17.4545V29.1187C23.52 28.447 28.3345 23.6133 29.0036 17.5238H32V14.6032H29.0036ZM16 10.2207C12.7855 10.2207 10.1818 12.8346 10.1818 16.0619C10.1818 19.2892 12.7855 21.9032 16 21.9032C19.2145 21.9032 21.8182 19.2892 21.8182 16.0619C21.8182 12.8346 19.2145 10.2207 16 10.2207ZM5.81818 16.062C5.81818 21.7134 10.3709 26.2842 16 26.2842C21.6291 26.2842 26.1818 21.7134 26.1818 16.062C26.1818 10.4106 21.6291 5.83979 16 5.83979C10.3709 5.83979 5.81818 10.4106 5.81818 16.062Z" fill="#FF0029"/>
</svg>
